<svg width="34" height="27" viewBox="0 0 34 27" fill="none" xmlns="http://www.w3.org/2000/svg">
<path fill-rule="evenodd" clip-rule="evenodd" d="M9.50704 4.42577C9.6133 4.28173 9.73152 4.10386 9.88118 3.86575C9.93655 3.77756 10.0862 3.53507 10.1969 3.35575L10.3227 3.15143C11.5633 1.15836 12.4642 0.244141 14.091 0.244141H21.5737V3.18377H14.091C13.9608 3.18377 13.5537 3.59827 12.8758 4.68593L12.7665 4.8623C12.6543 5.04456 12.4912 5.30914 12.4283 5.40909C12.2442 5.70158 12.0916 5.93233 11.9374 6.14251C11.2655 7.05821 10.595 7.59322 9.60133 7.59322H5.1117C4.28561 7.59322 3.61516 8.2517 3.61516 9.06304V22.2914C3.61516 23.1027 4.28561 23.7612 5.1117 23.7612H29.0564C29.8825 23.7612 30.5529 23.1027 30.5529 22.2914V13.4725H33.546V22.2914C33.546 24.7269 31.5362 26.7008 29.0564 26.7008H5.1117C2.63193 26.7008 0.62207 24.7269 0.62207 22.2914V9.06304C0.62207 6.62755 2.63193 4.65359 5.1117 4.65359H9.32596C9.37534 4.59774 9.4367 4.52131 9.50704 4.42577ZM24.5668 7.59322V4.65359H27.5598V1.71396H30.5529V4.65359H33.546V7.59322H30.5529V10.5329H27.5598V7.59322H24.5668ZM17.084 22.2914C12.9521 22.2914 9.60133 19.0005 9.60133 14.9423C9.60133 10.8841 12.9521 7.59322 17.084 7.59322C21.216 7.59322 24.5668 10.8841 24.5668 14.9423C24.5668 19.0005 21.216 22.2914 17.084 22.2914ZM17.084 19.3518C19.5638 19.3518 21.5737 17.3778 21.5737 14.9423C21.5737 12.5068 19.5638 10.5329 17.084 10.5329C14.6043 10.5329 12.5944 12.5068 12.5944 14.9423C12.5944 17.3778 14.6043 19.3518 17.084 19.3518Z" fill="white"/>
</svg>
