<svg width="127" height="33" viewBox="0 0 127 33" fill="none" xmlns="http://www.w3.org/2000/svg">
<g filter="url(#filter0_b)">
<rect x="0.0820312" y="0.865723" width="126.635" height="31.9991" rx="15.9995" fill="white" fill-opacity="0.2"/>
</g>
<path d="M44.398 16.4016C44.398 15.6453 44.5318 14.9006 44.7995 14.1675C45.0787 13.4344 45.4802 12.7712 46.0038 12.1777C46.5274 11.5843 47.1674 11.113 47.9237 10.7639C48.6801 10.4032 49.5411 10.2229 50.5069 10.2229C51.6356 10.2229 52.6189 10.473 53.4567 10.9734C54.2945 11.4737 54.917 12.1254 55.3242 12.9282L53.4741 14.2024C53.2647 13.737 52.9912 13.3704 52.6538 13.1028C52.3163 12.8352 51.9498 12.6432 51.5542 12.5268C51.1702 12.4104 50.7978 12.3523 50.4371 12.3523C49.832 12.3523 49.3026 12.4744 48.8488 12.7188C48.4066 12.9632 48.0343 13.2831 47.7317 13.6788C47.4292 14.0744 47.2023 14.5166 47.051 15.0053C46.9114 15.494 46.8416 15.9827 46.8416 16.4714C46.8416 17.2045 46.9928 17.891 47.2954 18.531C47.5979 19.1593 48.0226 19.6713 48.5695 20.067C49.1164 20.4626 49.7506 20.6604 50.472 20.6604C50.8444 20.6604 51.2284 20.5964 51.624 20.4684C52.0312 20.3404 52.4036 20.1368 52.741 19.8575C53.0785 19.5782 53.3403 19.2175 53.5265 18.7754L55.4988 19.9099C55.2428 20.5266 54.8413 21.0502 54.2945 21.4807C53.7476 21.8996 53.1308 22.2254 52.4443 22.4582C51.7578 22.6792 51.0771 22.7898 50.4022 22.7898C49.5179 22.7898 48.7092 22.6094 47.9761 22.2487C47.2547 21.8764 46.6263 21.3876 46.0911 20.7826C45.5558 20.1659 45.1369 19.4793 44.8344 18.723C44.5435 17.955 44.398 17.1812 44.398 16.4016ZM65.3873 22.6851H63.0485V17.5536C63.0485 16.8438 62.9088 16.3143 62.6296 15.9653C62.3619 15.6162 61.9896 15.4416 61.5125 15.4416C61.2216 15.4416 60.9191 15.5231 60.6049 15.686C60.3024 15.8489 60.0231 16.0758 59.7671 16.3667C59.5228 16.646 59.3424 16.9718 59.226 17.3441V22.6851H56.8872V9.94361H59.226V15.2322C59.5635 14.6504 60.0231 14.1966 60.6049 13.8708C61.1867 13.545 61.8209 13.3821 62.5074 13.3821C63.287 13.3821 63.8863 13.5566 64.3052 13.9057C64.7241 14.2548 65.0091 14.7027 65.1604 15.2496C65.3117 15.7965 65.3873 16.3725 65.3873 16.9776V22.6851ZM66.7926 19.9797C66.7926 19.3862 66.9555 18.8684 67.2814 18.4263C67.6188 17.9725 68.0842 17.6234 68.6777 17.379C69.2711 17.1347 69.9518 17.0125 70.7198 17.0125C71.1038 17.0125 71.4936 17.0474 71.8892 17.1172C72.2848 17.1754 72.6281 17.2627 72.919 17.379V16.8903C72.919 16.3085 72.7445 15.8605 72.3954 15.5464C72.0579 15.2322 71.5518 15.0751 70.8769 15.0751C70.3765 15.0751 69.8995 15.1624 69.4457 15.3369C68.9918 15.5114 68.5148 15.7674 68.0144 16.1049L67.2639 14.5689C67.869 14.1733 68.4857 13.8766 69.114 13.6788C69.754 13.481 70.4231 13.3821 71.1212 13.3821C72.4245 13.3821 73.4368 13.7079 74.1582 14.3595C74.8913 15.0111 75.2578 15.942 75.2578 17.1521V20.067C75.2578 20.3229 75.2986 20.5033 75.38 20.608C75.4615 20.7011 75.6069 20.7593 75.8164 20.7826V22.6851C75.6069 22.7316 75.4149 22.7607 75.2404 22.7723C75.0775 22.7956 74.9379 22.8072 74.8215 22.8072C74.3561 22.8072 74.0012 22.7025 73.7568 22.4931C73.5124 22.2836 73.367 22.0276 73.3204 21.7251L73.2681 21.2538C72.8608 21.7774 72.3605 22.1789 71.767 22.4582C71.1852 22.7258 70.586 22.8596 69.9693 22.8596C69.3526 22.8596 68.8057 22.7374 68.3286 22.4931C67.8515 22.2371 67.4733 21.8938 67.1941 21.4633C66.9265 21.0211 66.7926 20.5266 66.7926 19.9797ZM72.4827 20.4509C72.7736 20.1717 72.919 19.904 72.919 19.6481V18.723C72.3139 18.4786 71.703 18.3565 71.0863 18.3565C70.4696 18.3565 69.9693 18.4903 69.5853 18.7579C69.2013 19.0139 69.0093 19.3572 69.0093 19.7877C69.0093 20.1368 69.1489 20.4509 69.4282 20.7302C69.7075 21.0095 70.1089 21.1491 70.6325 21.1491C70.9816 21.1491 71.3191 21.0851 71.6449 20.9571C71.9823 20.8291 72.2616 20.6604 72.4827 20.4509ZM85.9435 22.6851H83.6047V17.5536C83.6047 16.8205 83.4767 16.2852 83.2207 15.9478C82.9647 15.6104 82.6098 15.4416 82.156 15.4416C81.8418 15.4416 81.5218 15.5231 81.196 15.686C80.8819 15.8489 80.5968 16.0758 80.3408 16.3667C80.0848 16.646 79.8986 16.9718 79.7823 17.3441V22.6851H77.4434V13.5391H79.5554V15.2322C79.8928 14.662 80.3815 14.214 81.0215 13.8882C81.6615 13.5508 82.3829 13.3821 83.1858 13.3821C83.756 13.3821 84.2214 13.4868 84.5821 13.6962C84.9428 13.894 85.2221 14.1675 85.4199 14.5166C85.6177 14.854 85.7515 15.238 85.8214 15.6685C85.9028 16.0991 85.9435 16.5354 85.9435 16.9776V22.6851ZM91.5553 22.7374C90.7408 22.7374 90.0252 22.528 89.4084 22.1091C88.7917 21.6902 88.3088 21.1316 87.9598 20.4335C87.6107 19.7237 87.4361 18.9499 87.4361 18.1121C87.4361 17.2278 87.6165 16.4307 87.9772 15.7209C88.3379 14.9995 88.8383 14.4293 89.4783 14.0104C90.1182 13.5915 90.8571 13.3821 91.6949 13.3821C92.4047 13.3821 93.0272 13.545 93.5625 13.8708C94.0978 14.1849 94.5399 14.6097 94.889 15.1449V13.5391H96.9311V22.2487C96.9311 23.1563 96.71 23.9301 96.2679 24.5701C95.8373 25.2217 95.2381 25.7162 94.4701 26.0537C93.7021 26.4028 92.8294 26.5773 91.852 26.5773C90.8513 26.5773 90.0077 26.4086 89.3212 26.0711C88.6463 25.7453 88.0645 25.2799 87.5758 24.6748L88.8499 23.4356C89.199 23.8661 89.6353 24.2036 90.159 24.4479C90.6942 24.6923 91.2586 24.8144 91.852 24.8144C92.3407 24.8144 92.7887 24.7214 93.196 24.5352C93.6149 24.3606 93.9523 24.0814 94.2083 23.6974C94.4643 23.325 94.5923 22.8421 94.5923 22.2487V21.0967C94.2898 21.6204 93.8592 22.0276 93.3007 22.3185C92.7538 22.5978 92.172 22.7374 91.5553 22.7374ZM92.3407 20.8698C92.8527 20.8698 93.3123 20.7186 93.7196 20.416C94.1385 20.1135 94.4294 19.7528 94.5923 19.3339V17.1521C94.3828 16.6169 94.0512 16.1863 93.5974 15.8605C93.1552 15.5347 92.6898 15.3718 92.2011 15.3718C91.724 15.3718 91.3051 15.5056 90.9444 15.7733C90.5953 16.0409 90.3219 16.39 90.1241 16.8205C89.9262 17.2394 89.8273 17.6932 89.8273 18.1819C89.8273 18.6823 89.9379 19.1361 90.159 19.5433C90.38 19.9506 90.6768 20.2764 91.0491 20.5208C91.4331 20.7535 91.8636 20.8698 92.3407 20.8698ZM103.281 22.8596C102.292 22.8596 101.436 22.6443 100.715 22.2138C100.005 21.7833 99.4525 21.2131 99.0568 20.5033C98.6612 19.7819 98.4634 19.0023 98.4634 18.1645C98.4634 17.3034 98.6554 16.5121 99.0394 15.7907C99.435 15.0576 99.9935 14.4758 100.715 14.0453C101.436 13.6031 102.297 13.3821 103.298 13.3821C104.299 13.3821 105.154 13.6031 105.864 14.0453C106.574 14.4758 107.115 15.0518 107.487 15.7733C107.871 16.4831 108.063 17.251 108.063 18.0772C108.063 18.3797 108.046 18.6415 108.011 18.8626H100.942C101 19.5724 101.262 20.1309 101.727 20.5382C102.204 20.9455 102.751 21.1491 103.368 21.1491C103.833 21.1491 104.27 21.0386 104.677 20.8175C105.096 20.5848 105.381 20.2822 105.532 19.9099L107.54 20.4684C107.202 21.1666 106.661 21.7425 105.916 22.1963C105.172 22.6385 104.293 22.8596 103.281 22.8596ZM100.89 17.379H105.672C105.602 16.6925 105.34 16.1398 104.886 15.7209C104.444 15.2904 103.903 15.0751 103.263 15.0751C102.635 15.0751 102.094 15.2904 101.64 15.7209C101.198 16.1398 100.948 16.6925 100.89 17.379Z" fill="white"/>
<path d="M27.0522 13.8066C27.0522 14.2165 26.8772 14.6096 26.5657 14.8994C26.2542 15.1892 25.8316 15.352 25.3911 15.352C24.9505 15.352 24.528 15.1892 24.2165 14.8994C23.905 14.6096 23.73 14.2165 23.73 13.8066C23.73 13.3968 23.905 13.0037 24.2165 12.7139C24.528 12.424 24.9505 12.2612 25.3911 12.2612C25.8316 12.2612 26.2542 12.424 26.5657 12.7139C26.8772 13.0037 27.0522 13.3968 27.0522 13.8066Z" fill="white"/>
<path d="M31.4808 8.13818H22.6216C22.0341 8.13818 21.4708 8.35528 21.0554 8.7417C20.6401 9.12813 20.4067 9.65224 20.4067 10.1987V22.562C20.4067 23.1085 20.6401 23.6326 21.0554 24.019C21.4708 24.4055 22.0341 24.6226 22.6216 24.6226H31.4808C32.0682 24.6226 32.6315 24.4055 33.0469 24.019C33.4623 23.6326 33.6956 23.1085 33.6956 22.562V10.1987C33.6956 9.65224 33.4623 9.12813 33.0469 8.7417C32.6315 8.35528 32.0682 8.13818 31.4808 8.13818V8.13818ZM21.5141 10.1987C21.5141 9.92548 21.6308 9.66343 21.8385 9.47022C22.0462 9.277 22.3278 9.16846 22.6216 9.16846H31.4808C31.7745 9.16846 32.0562 9.277 32.2639 9.47022C32.4715 9.66343 32.5882 9.92548 32.5882 10.1987V18.4409L30.2815 16.2949C30.2246 16.242 30.1561 16.2014 30.0806 16.1757C30.0052 16.15 29.9246 16.1398 29.8445 16.146C29.7644 16.1522 29.6868 16.1745 29.6169 16.2114C29.547 16.2483 29.4866 16.299 29.4398 16.3598L27.0512 19.4712L24.6536 18.1318C24.5476 18.0728 24.4234 18.0484 24.3008 18.0626C24.1782 18.0768 24.0642 18.1287 23.977 18.2101L21.5141 20.5015V10.1987Z" fill="white"/>
<defs>
<filter id="filter0_b" x="-8.35081" y="-7.56712" width="143.501" height="48.8648" filterUnits="userSpaceOnUse" color-interpolation-filters="sRGB">
<feFlood flood-opacity="0" result="BackgroundImageFix"/>
<feGaussianBlur in="BackgroundImage" stdDeviation="4.21642"/>
<feComposite in2="SourceAlpha" operator="in" result="effect1_backgroundBlur"/>
<feBlend mode="normal" in="SourceGraphic" in2="effect1_backgroundBlur" result="shape"/>
</filter>
</defs>
</svg>
