<svg width="223" height="159" viewBox="0 0 223 159" fill="none" xmlns="http://www.w3.org/2000/svg">
<path d="M41.82 132.4C42.2333 132.48 42.54 132.62 42.74 132.82C42.9533 133.02 43.06 133.253 43.06 133.52C43.06 133.96 42.9333 134.28 42.68 134.48C42.44 134.68 42.0533 134.76 41.52 134.72C40.32 134.627 39.38 134.567 38.7 134.54C38.0333 134.5 37.1533 134.473 36.06 134.46C35.5667 136.913 35.1133 139.38 34.7 141.86C34.5533 142.767 34.4 143.82 34.24 145.02C34.08 146.207 33.9733 147.167 33.92 147.9C33.8933 148.287 33.7333 148.587 33.44 148.8C33.1467 149 32.7933 149.1 32.38 149.1C31.94 149.1 31.6 148.993 31.36 148.78C31.12 148.567 31 148.287 31 147.94C31 147.62 31.0467 147.093 31.14 146.36C31.2467 145.613 31.3667 144.833 31.5 144.02C31.6467 143.207 31.76 142.5 31.84 141.9C31.9867 140.887 32.1533 139.88 32.34 138.88C32.5267 137.88 32.7133 136.933 32.9 136.04C32.94 135.84 32.9867 135.613 33.04 135.36C33.0933 135.093 33.1533 134.8 33.22 134.48C31.9133 134.52 30.8867 134.627 30.14 134.8C29.3933 134.973 28.86 135.22 28.54 135.54C28.2333 135.847 28.08 136.247 28.08 136.74C28.08 137.193 28.2133 137.627 28.48 138.04C28.5333 138.133 28.56 138.233 28.56 138.34C28.56 138.593 28.4067 138.833 28.1 139.06C27.8067 139.273 27.5 139.38 27.18 139.38C26.9533 139.38 26.7667 139.313 26.62 139.18C26.3533 138.953 26.1333 138.633 25.96 138.22C25.7867 137.793 25.7 137.313 25.7 136.78C25.7 135.647 26.0667 134.74 26.8 134.06C27.5467 133.367 28.6733 132.86 30.18 132.54C31.7 132.22 33.6467 132.06 36.02 132.06C37.4867 132.06 38.6533 132.087 39.52 132.14C40.4 132.193 41.1667 132.28 41.82 132.4ZM40.4708 149.1C39.6441 149.1 38.9841 148.8 38.4908 148.2C37.9974 147.6 37.7508 146.813 37.7508 145.84C37.7508 144.773 37.9974 143.767 38.4908 142.82C38.9841 141.86 39.6374 141.093 40.4508 140.52C41.2774 139.933 42.1508 139.64 43.0708 139.64C43.3641 139.64 43.5574 139.7 43.6508 139.82C43.7574 139.927 43.8441 140.127 43.9108 140.42C44.1908 140.367 44.4841 140.34 44.7908 140.34C45.4441 140.34 45.7708 140.573 45.7708 141.04C45.7708 141.32 45.6708 141.987 45.4708 143.04C45.1641 144.573 45.0108 145.64 45.0108 146.24C45.0108 146.44 45.0574 146.6 45.1508 146.72C45.2574 146.84 45.3908 146.9 45.5508 146.9C45.8041 146.9 46.1108 146.74 46.4708 146.42C46.8308 146.087 47.3174 145.553 47.9308 144.82C48.0908 144.633 48.2708 144.54 48.4708 144.54C48.6441 144.54 48.7774 144.62 48.8708 144.78C48.9774 144.94 49.0308 145.16 49.0308 145.44C49.0308 145.973 48.9041 146.387 48.6508 146.68C48.1041 147.36 47.5241 147.933 46.9108 148.4C46.2974 148.867 45.7041 149.1 45.1308 149.1C44.6908 149.1 44.2841 148.953 43.9108 148.66C43.5508 148.353 43.2774 147.94 43.0908 147.42C42.3974 148.54 41.5241 149.1 40.4708 149.1ZM41.1908 147.08C41.4841 147.08 41.7641 146.907 42.0308 146.56C42.2974 146.213 42.4908 145.753 42.6108 145.18L43.3508 141.5C42.7908 141.513 42.2708 141.727 41.7908 142.14C41.3241 142.54 40.9508 143.073 40.6708 143.74C40.3908 144.407 40.2508 145.113 40.2508 145.86C40.2508 146.273 40.3308 146.58 40.4908 146.78C40.6641 146.98 40.8974 147.08 41.1908 147.08ZM54.9853 144.54C55.1586 144.54 55.292 144.62 55.3853 144.78C55.492 144.94 55.5453 145.16 55.5453 145.44C55.5453 145.973 55.4186 146.387 55.1653 146.68C54.592 147.387 53.9653 147.967 53.2853 148.42C52.6186 148.873 51.8586 149.1 51.0053 149.1C49.832 149.1 48.9586 148.567 48.3853 147.5C47.8253 146.433 47.5453 145.053 47.5453 143.36C47.5453 141.733 47.752 139.88 48.1653 137.8C48.592 135.72 49.212 133.933 50.0253 132.44C50.852 130.947 51.832 130.2 52.9653 130.2C53.6053 130.2 54.1053 130.5 54.4653 131.1C54.8386 131.687 55.0253 132.533 55.0253 133.64C55.0253 135.227 54.5853 137.067 53.7053 139.16C52.8253 141.253 51.632 143.327 50.1253 145.38C50.2186 145.927 50.372 146.32 50.5853 146.56C50.7986 146.787 51.0786 146.9 51.4253 146.9C51.972 146.9 52.452 146.747 52.8653 146.44C53.2786 146.12 53.8053 145.58 54.4453 144.82C54.6053 144.633 54.7853 144.54 54.9853 144.54ZM52.5253 132.18C52.2186 132.18 51.872 132.733 51.4853 133.84C51.0986 134.947 50.7586 136.32 50.4653 137.96C50.172 139.6 50.012 141.173 49.9853 142.68C50.932 141.12 51.6853 139.56 52.2453 138C52.8053 136.427 53.0853 134.993 53.0853 133.7C53.0853 132.687 52.8986 132.18 52.5253 132.18ZM62.8488 144.54C63.0221 144.54 63.1554 144.62 63.2487 144.78C63.3554 144.94 63.4088 145.16 63.4088 145.44C63.4088 145.973 63.2821 146.387 63.0288 146.68C62.5354 147.28 61.8354 147.833 60.9288 148.34C60.0354 148.847 59.0754 149.1 58.0488 149.1C56.6488 149.1 55.5621 148.72 54.7888 147.96C54.0154 147.2 53.6287 146.16 53.6287 144.84C53.6287 143.92 53.8221 143.067 54.2088 142.28C54.5954 141.48 55.1288 140.847 55.8088 140.38C56.5021 139.913 57.2821 139.68 58.1488 139.68C58.9221 139.68 59.5421 139.913 60.0088 140.38C60.4754 140.833 60.7088 141.453 60.7088 142.24C60.7088 143.16 60.3754 143.953 59.7088 144.62C59.0554 145.273 57.9421 145.793 56.3688 146.18C56.7021 146.793 57.3354 147.1 58.2688 147.1C58.8688 147.1 59.5488 146.893 60.3088 146.48C61.0821 146.053 61.7488 145.5 62.3088 144.82C62.4688 144.633 62.6488 144.54 62.8488 144.54ZM57.8088 141.64C57.3154 141.64 56.8954 141.927 56.5488 142.5C56.2154 143.073 56.0488 143.767 56.0488 144.58V144.62C56.8354 144.433 57.4554 144.153 57.9088 143.78C58.3621 143.407 58.5888 142.973 58.5888 142.48C58.5888 142.227 58.5154 142.027 58.3688 141.88C58.2354 141.72 58.0488 141.64 57.8088 141.64ZM65.5003 149.54C64.807 149.54 64.2736 149.38 63.9003 149.06C63.5403 148.74 63.3603 148.38 63.3603 147.98C63.3603 147.633 63.487 147.333 63.7403 147.08C63.9936 146.827 64.367 146.7 64.8603 146.7C65.0336 146.7 65.2336 146.72 65.4603 146.76C65.7003 146.787 65.8803 146.807 66.0003 146.82C65.987 146.473 65.907 146.147 65.7603 145.84C65.627 145.533 65.4536 145.24 65.2403 144.96C65.027 144.667 64.827 144.413 64.6403 144.2C64.227 144.987 63.8136 145.64 63.4003 146.16C63.0003 146.68 62.5603 147.173 62.0803 147.64C61.8403 147.88 61.587 148 61.3203 148C61.107 148 60.9336 147.927 60.8003 147.78C60.667 147.62 60.6003 147.427 60.6003 147.2C60.6003 146.933 60.6936 146.687 60.8803 146.46L61.1403 146.14C61.8736 145.233 62.427 144.487 62.8003 143.9C63.0403 143.513 63.2803 143.053 63.5203 142.52C63.7736 141.987 64.1003 141.26 64.5003 140.34C64.7536 139.753 65.2803 139.46 66.0803 139.46C66.4536 139.46 66.7136 139.493 66.8603 139.56C67.007 139.627 67.0803 139.733 67.0803 139.88C67.0803 139.96 67.0536 140.087 67.0003 140.26C66.947 140.433 66.8736 140.607 66.7803 140.78C66.5403 141.26 66.4203 141.667 66.4203 142C66.4203 142.2 66.487 142.42 66.6203 142.66C66.767 142.9 66.987 143.2 67.2803 143.56C67.707 144.12 68.027 144.6 68.2403 145C68.467 145.387 68.5803 145.813 68.5803 146.28C68.5803 146.84 68.447 147.373 68.1803 147.88C67.927 148.373 67.567 148.773 67.1003 149.08C66.6336 149.387 66.1003 149.54 65.5003 149.54ZM91.3444 136.2C91.3444 137.333 90.9444 138.313 90.1444 139.14C89.3444 139.953 88.1777 140.54 86.6444 140.9C87.471 141.127 88.0977 141.5 88.5244 142.02C88.951 142.527 89.1644 143.113 89.1644 143.78C89.1644 144.833 88.831 145.747 88.1644 146.52C87.511 147.293 86.551 147.893 85.2844 148.32C84.0177 148.733 82.491 148.94 80.7044 148.94C80.0377 148.94 79.5044 148.92 79.1044 148.88C79.091 149.253 78.931 149.533 78.6244 149.72C78.3177 149.907 77.9244 150 77.4444 150C76.9644 150 76.631 149.893 76.4444 149.68C76.271 149.467 76.1977 149.153 76.2244 148.74C76.3444 146.873 76.5777 144.92 76.9244 142.88C77.271 140.827 77.711 138.847 78.2444 136.94C78.3377 136.607 78.5244 136.373 78.8044 136.24C79.0844 136.107 79.451 136.04 79.9044 136.04C80.7177 136.04 81.1244 136.267 81.1244 136.72C81.1244 136.907 81.0844 137.12 81.0044 137.36C80.6577 138.4 80.311 139.813 79.9644 141.6C79.6177 143.373 79.371 145.067 79.2244 146.68C79.8644 146.733 80.3844 146.76 80.7844 146.76C82.651 146.76 84.0177 146.493 84.8844 145.96C85.7644 145.413 86.2044 144.72 86.2044 143.88C86.2044 143.293 85.951 142.8 85.4444 142.4C84.951 142 84.1177 141.78 82.9444 141.74C82.6777 141.727 82.491 141.66 82.3844 141.54C82.2777 141.42 82.2244 141.227 82.2244 140.96C82.2244 140.573 82.3044 140.26 82.4644 140.02C82.6244 139.78 82.9177 139.653 83.3444 139.64C84.291 139.613 85.1444 139.473 85.9044 139.22C86.6777 138.967 87.2844 138.613 87.7244 138.16C88.1644 137.693 88.3844 137.153 88.3844 136.54C88.3844 135.767 88.0044 135.16 87.2444 134.72C86.4844 134.267 85.3177 134.04 83.7444 134.04C82.3177 134.04 80.9377 134.227 79.6044 134.6C78.271 134.96 77.1377 135.42 76.2044 135.98C75.7777 136.233 75.4177 136.36 75.1244 136.36C74.8844 136.36 74.6977 136.28 74.5644 136.12C74.4444 135.947 74.3844 135.733 74.3844 135.48C74.3844 135.147 74.451 134.86 74.5844 134.62C74.731 134.38 75.071 134.107 75.6044 133.8C76.7244 133.16 78.0377 132.66 79.5444 132.3C81.051 131.94 82.591 131.76 84.1644 131.76C86.5777 131.76 88.3777 132.167 89.5644 132.98C90.751 133.793 91.3444 134.867 91.3444 136.2ZM99.7042 144.54C99.8776 144.54 100.011 144.62 100.104 144.78C100.211 144.94 100.264 145.16 100.264 145.44C100.264 145.973 100.138 146.387 99.8842 146.68C99.3909 147.28 98.6909 147.833 97.7842 148.34C96.8909 148.847 95.9309 149.1 94.9042 149.1C93.5042 149.1 92.4176 148.72 91.6442 147.96C90.8709 147.2 90.4842 146.16 90.4842 144.84C90.4842 143.92 90.6776 143.067 91.0642 142.28C91.4509 141.48 91.9842 140.847 92.6642 140.38C93.3576 139.913 94.1376 139.68 95.0042 139.68C95.7776 139.68 96.3976 139.913 96.8642 140.38C97.3309 140.833 97.5642 141.453 97.5642 142.24C97.5642 143.16 97.2309 143.953 96.5642 144.62C95.9109 145.273 94.7976 145.793 93.2242 146.18C93.5576 146.793 94.1909 147.1 95.1242 147.1C95.7242 147.1 96.4042 146.893 97.1642 146.48C97.9376 146.053 98.6042 145.5 99.1642 144.82C99.3242 144.633 99.5042 144.54 99.7042 144.54ZM94.6642 141.64C94.1709 141.64 93.7509 141.927 93.4042 142.5C93.0709 143.073 92.9042 143.767 92.9042 144.58V144.62C93.6909 144.433 94.3109 144.153 94.7642 143.78C95.2176 143.407 95.4442 142.973 95.4442 142.48C95.4442 142.227 95.3709 142.027 95.2242 141.88C95.0909 141.72 94.9042 141.64 94.6642 141.64ZM108.876 144.58C109.049 144.58 109.182 144.667 109.276 144.84C109.382 145 109.436 145.207 109.436 145.46C109.436 145.767 109.389 146.007 109.296 146.18C109.202 146.353 109.056 146.507 108.856 146.64L105.016 149.22C104.509 151.98 103.842 154.147 103.016 155.72C102.202 157.307 101.162 158.1 99.8958 158.1C99.2158 158.1 98.6624 157.887 98.2358 157.46C97.8091 157.047 97.5958 156.5 97.5958 155.82C97.5958 155.193 97.7358 154.553 98.0158 153.9C98.3091 153.247 98.8424 152.493 99.6158 151.64C100.402 150.8 101.509 149.833 102.936 148.74L102.996 148.28C103.089 147.787 103.196 147.08 103.316 146.16C103.049 147.12 102.676 147.853 102.196 148.36C101.716 148.853 101.209 149.1 100.676 149.1C100.076 149.1 99.5824 148.827 99.1958 148.28C98.8224 147.72 98.6358 147.027 98.6358 146.2C98.6358 145.2 98.7024 144.287 98.8358 143.46C98.9691 142.62 99.1891 141.733 99.4958 140.8C99.6291 140.4 99.8158 140.113 100.056 139.94C100.296 139.767 100.676 139.68 101.196 139.68C101.489 139.68 101.689 139.727 101.796 139.82C101.916 139.913 101.976 140.053 101.976 140.24C101.976 140.347 101.902 140.707 101.756 141.32C101.622 141.813 101.516 142.26 101.436 142.66C101.329 143.207 101.236 143.733 101.156 144.24C101.076 144.733 101.036 145.14 101.036 145.46C101.036 145.967 101.176 146.22 101.456 146.22C101.656 146.22 101.902 146.02 102.196 145.62C102.502 145.22 102.822 144.613 103.156 143.8C103.502 142.987 103.836 141.987 104.156 140.8C104.262 140.4 104.422 140.113 104.636 139.94C104.862 139.767 105.196 139.68 105.636 139.68C105.942 139.68 106.156 139.72 106.276 139.8C106.396 139.88 106.456 140.013 106.456 140.2C106.456 140.533 106.282 141.68 105.936 143.64L105.416 146.86C106.442 146.087 107.442 145.38 108.416 144.74C108.589 144.633 108.742 144.58 108.876 144.58ZM100.116 156.16C100.449 156.16 100.822 155.773 101.236 155C101.649 154.227 102.062 152.94 102.476 151.14C101.449 152.007 100.702 152.793 100.236 153.5C99.7824 154.22 99.5558 154.847 99.5558 155.38C99.5558 155.607 99.5958 155.793 99.6758 155.94C99.7691 156.087 99.9158 156.16 100.116 156.16ZM118.406 142.86C118.579 142.86 118.713 142.947 118.806 143.12C118.899 143.293 118.946 143.513 118.946 143.78C118.946 144.42 118.753 144.8 118.366 144.92C117.566 145.2 116.686 145.36 115.726 145.4C115.473 146.52 114.973 147.42 114.226 148.1C113.479 148.767 112.633 149.1 111.686 149.1C110.886 149.1 110.199 148.907 109.626 148.52C109.066 148.133 108.639 147.62 108.346 146.98C108.053 146.34 107.906 145.647 107.906 144.9C107.906 143.887 108.099 142.987 108.486 142.2C108.873 141.4 109.406 140.78 110.086 140.34C110.766 139.887 111.519 139.66 112.346 139.66C113.359 139.66 114.173 140.013 114.786 140.72C115.413 141.413 115.779 142.273 115.886 143.3C116.513 143.26 117.259 143.127 118.126 142.9C118.233 142.873 118.326 142.86 118.406 142.86ZM111.846 146.98C112.273 146.98 112.639 146.807 112.946 146.46C113.266 146.113 113.479 145.613 113.586 144.96C113.173 144.68 112.853 144.313 112.626 143.86C112.413 143.407 112.306 142.927 112.306 142.42C112.306 142.207 112.326 141.993 112.366 141.78H112.266C111.733 141.78 111.286 142.04 110.926 142.56C110.579 143.067 110.406 143.787 110.406 144.72C110.406 145.453 110.546 146.013 110.826 146.4C111.119 146.787 111.459 146.98 111.846 146.98ZM118.65 149.1C118.143 149.1 117.783 148.833 117.57 148.3C117.37 147.767 117.27 146.913 117.27 145.74C117.27 144.007 117.516 142.36 118.01 140.8C118.13 140.413 118.323 140.133 118.59 139.96C118.87 139.773 119.256 139.68 119.75 139.68C120.016 139.68 120.203 139.713 120.31 139.78C120.416 139.847 120.47 139.973 120.47 140.16C120.47 140.373 120.37 140.853 120.17 141.6C120.036 142.133 119.93 142.6 119.85 143C119.77 143.4 119.703 143.893 119.65 144.48C120.09 143.333 120.583 142.4 121.13 141.68C121.676 140.96 122.21 140.447 122.73 140.14C123.263 139.833 123.75 139.68 124.19 139.68C125.056 139.68 125.49 140.113 125.49 140.98C125.49 141.5 125.343 142.44 125.05 143.8C124.796 144.96 124.67 145.727 124.67 146.1C124.67 146.633 124.863 146.9 125.25 146.9C125.516 146.9 125.83 146.74 126.19 146.42C126.563 146.087 127.056 145.553 127.67 144.82C127.83 144.633 128.01 144.54 128.21 144.54C128.383 144.54 128.516 144.62 128.61 144.78C128.716 144.94 128.77 145.16 128.77 145.44C128.77 145.973 128.643 146.387 128.39 146.68C127.816 147.387 127.196 147.967 126.53 148.42C125.876 148.873 125.13 149.1 124.29 149.1C123.61 149.1 123.096 148.907 122.75 148.52C122.403 148.12 122.23 147.547 122.23 146.8C122.23 146.427 122.323 145.76 122.51 144.8C122.683 143.96 122.77 143.38 122.77 143.06C122.77 142.847 122.696 142.74 122.55 142.74C122.376 142.74 122.13 142.967 121.81 143.42C121.503 143.86 121.183 144.447 120.85 145.18C120.53 145.913 120.27 146.687 120.07 147.5C119.923 148.127 119.75 148.553 119.55 148.78C119.363 148.993 119.063 149.1 118.65 149.1ZM134.431 144.54C134.578 145.633 134.791 146.713 135.071 147.78C135.125 147.953 135.151 148.133 135.151 148.32C135.151 148.92 134.785 149.22 134.051 149.22C133.638 149.22 133.318 149.107 133.091 148.88C132.878 148.653 132.678 148.227 132.491 147.6L132.471 147.52C131.965 148.147 131.505 148.567 131.091 148.78C130.691 148.993 130.225 149.1 129.691 149.1C128.878 149.1 128.205 148.8 127.671 148.2C127.151 147.587 126.891 146.793 126.891 145.82C126.891 144.753 127.118 143.767 127.571 142.86C128.025 141.953 128.645 141.213 129.431 140.64C130.218 140.053 131.098 139.7 132.071 139.58C132.325 137.06 132.805 134.867 133.511 133C134.231 131.133 135.185 130.2 136.371 130.2C136.945 130.2 137.418 130.46 137.791 130.98C138.178 131.5 138.371 132.287 138.371 133.34C138.371 134.807 138.011 136.52 137.291 138.48C136.571 140.44 135.618 142.46 134.431 144.54ZM136.151 132.16C135.765 132.16 135.398 133.147 135.051 135.12C134.718 137.093 134.491 139.24 134.371 141.56C135.851 138.36 136.591 135.76 136.591 133.76C136.591 133.253 136.545 132.86 136.451 132.58C136.371 132.3 136.271 132.16 136.151 132.16ZM130.391 147.08C130.658 147.08 130.911 146.98 131.151 146.78C131.405 146.58 131.725 146.193 132.111 145.62C131.978 144.647 131.911 143.64 131.911 142.6C131.911 142.187 131.918 141.867 131.931 141.64C131.198 141.853 130.591 142.34 130.111 143.1C129.631 143.86 129.391 144.7 129.391 145.62C129.391 146.593 129.725 147.08 130.391 147.08ZM148.948 149.1C147.761 149.1 146.688 148.833 145.728 148.3C144.781 147.767 144.028 146.987 143.468 145.96C142.908 144.92 142.628 143.68 142.628 142.24C142.628 140.213 142.994 138.427 143.728 136.88C144.474 135.333 145.481 134.14 146.748 133.3C148.028 132.46 149.441 132.04 150.988 132.04C152.174 132.04 153.241 132.307 154.188 132.84C155.148 133.373 155.908 134.16 156.468 135.2C157.028 136.227 157.308 137.46 157.308 138.9C157.308 140.927 156.934 142.713 156.188 144.26C155.454 145.807 154.448 147 153.168 147.84C151.901 148.68 150.494 149.1 148.948 149.1ZM149.148 146.74C150.188 146.74 151.101 146.42 151.888 145.78C152.688 145.14 153.301 144.253 153.728 143.12C154.154 141.973 154.368 140.68 154.368 139.24C154.368 137.653 154.034 136.453 153.368 135.64C152.701 134.813 151.841 134.4 150.788 134.4C149.761 134.4 148.854 134.72 148.068 135.36C147.281 135.987 146.668 136.873 146.228 138.02C145.788 139.153 145.568 140.447 145.568 141.9C145.568 143.487 145.901 144.693 146.568 145.52C147.234 146.333 148.094 146.74 149.148 146.74ZM162.456 149.1C161.149 149.1 160.129 148.733 159.396 148C158.676 147.253 158.316 146.273 158.316 145.06C158.316 143.98 158.529 143.033 158.956 142.22C159.382 141.407 159.936 140.78 160.616 140.34C161.296 139.9 162.009 139.68 162.756 139.68C163.489 139.68 164.056 139.9 164.456 140.34C164.869 140.767 165.076 141.32 165.076 142C165.076 142.56 164.949 143.033 164.696 143.42C164.456 143.807 164.136 144 163.736 144C163.482 144 163.276 143.94 163.116 143.82C162.969 143.7 162.896 143.533 162.896 143.32C162.896 143.227 162.909 143.12 162.936 143C162.962 142.88 162.982 142.793 162.996 142.74C163.062 142.54 163.096 142.353 163.096 142.18C163.096 142.007 163.049 141.873 162.956 141.78C162.876 141.687 162.756 141.64 162.596 141.64C162.289 141.64 162.002 141.78 161.736 142.06C161.469 142.327 161.256 142.693 161.096 143.16C160.936 143.627 160.856 144.14 160.856 144.7C160.856 146.247 161.529 147.02 162.876 147.02C163.422 147.02 164.009 146.84 164.636 146.48C165.276 146.107 165.902 145.553 166.516 144.82C166.676 144.633 166.856 144.54 167.056 144.54C167.229 144.54 167.362 144.62 167.456 144.78C167.562 144.94 167.616 145.16 167.616 145.44C167.616 145.947 167.489 146.36 167.236 146.68C166.609 147.453 165.856 148.053 164.976 148.48C164.109 148.893 163.269 149.1 162.456 149.1ZM175.017 144.54C175.19 144.54 175.323 144.62 175.417 144.78C175.523 144.94 175.577 145.16 175.577 145.44C175.577 145.973 175.45 146.387 175.197 146.68C174.623 147.387 173.997 147.967 173.317 148.42C172.637 148.873 171.857 149.1 170.977 149.1C168.257 149.1 166.897 147.187 166.897 143.36C166.897 142.773 166.917 142.18 166.957 141.58H166.177C165.777 141.58 165.503 141.507 165.357 141.36C165.223 141.213 165.157 140.98 165.157 140.66C165.157 139.913 165.457 139.54 166.057 139.54H167.197C167.423 138.073 167.77 136.733 168.237 135.52C168.703 134.307 169.263 133.34 169.917 132.62C170.583 131.9 171.297 131.54 172.057 131.54C172.617 131.54 173.057 131.787 173.377 132.28C173.697 132.773 173.857 133.393 173.857 134.14C173.857 136.207 172.99 138.007 171.257 139.54H173.497C173.71 139.54 173.863 139.587 173.957 139.68C174.05 139.773 174.097 139.947 174.097 140.2C174.097 141.12 173.343 141.58 171.837 141.58H169.397C169.37 142.247 169.357 142.767 169.357 143.14C169.357 144.527 169.517 145.5 169.837 146.06C170.17 146.62 170.69 146.9 171.397 146.9C171.97 146.9 172.477 146.727 172.917 146.38C173.357 146.033 173.877 145.513 174.477 144.82C174.637 144.633 174.817 144.54 175.017 144.54ZM171.517 133.46C171.317 133.46 171.09 133.713 170.837 134.22C170.597 134.713 170.363 135.407 170.137 136.3C169.923 137.18 169.743 138.16 169.597 139.24C170.383 138.56 170.97 137.8 171.357 136.96C171.757 136.107 171.957 135.333 171.957 134.64C171.957 133.853 171.81 133.46 171.517 133.46ZM176.408 149.1C175.582 149.1 174.922 148.8 174.428 148.2C173.935 147.6 173.688 146.813 173.688 145.84C173.688 144.773 173.935 143.767 174.428 142.82C174.922 141.86 175.575 141.093 176.388 140.52C177.215 139.933 178.088 139.64 179.008 139.64C179.302 139.64 179.495 139.7 179.588 139.82C179.695 139.927 179.782 140.127 179.848 140.42C180.128 140.367 180.422 140.34 180.728 140.34C181.382 140.34 181.708 140.573 181.708 141.04C181.708 141.32 181.608 141.987 181.408 143.04C181.102 144.573 180.948 145.64 180.948 146.24C180.948 146.44 180.995 146.6 181.088 146.72C181.195 146.84 181.328 146.9 181.488 146.9C181.742 146.9 182.048 146.74 182.408 146.42C182.768 146.087 183.255 145.553 183.868 144.82C184.028 144.633 184.208 144.54 184.408 144.54C184.582 144.54 184.715 144.62 184.808 144.78C184.915 144.94 184.968 145.16 184.968 145.44C184.968 145.973 184.842 146.387 184.588 146.68C184.042 147.36 183.462 147.933 182.848 148.4C182.235 148.867 181.642 149.1 181.068 149.1C180.628 149.1 180.222 148.953 179.848 148.66C179.488 148.353 179.215 147.94 179.028 147.42C178.335 148.54 177.462 149.1 176.408 149.1ZM177.128 147.08C177.422 147.08 177.702 146.907 177.968 146.56C178.235 146.213 178.428 145.753 178.548 145.18L179.288 141.5C178.728 141.513 178.208 141.727 177.728 142.14C177.262 142.54 176.888 143.073 176.608 143.74C176.328 144.407 176.188 145.113 176.188 145.86C176.188 146.273 176.268 146.58 176.428 146.78C176.602 146.98 176.835 147.08 177.128 147.08ZM193.438 142.92C193.478 142.907 193.545 142.9 193.638 142.9C193.838 142.9 193.991 142.967 194.098 143.1C194.205 143.233 194.258 143.413 194.258 143.64C194.258 144.053 194.178 144.38 194.018 144.62C193.858 144.847 193.618 145.013 193.298 145.12C192.685 145.32 192.031 145.42 191.338 145.42C190.751 145.42 190.198 145.34 189.678 145.18C189.291 145.807 188.865 146.453 188.398 147.12C187.865 147.88 187.405 148.4 187.018 148.68C186.631 148.96 186.191 149.1 185.698 149.1C185.151 149.1 184.718 148.887 184.398 148.46C184.091 148.033 183.898 147.36 183.818 146.44C183.658 144.573 183.578 142.94 183.578 141.54V140.84C183.591 140.4 183.711 140.093 183.938 139.92C184.165 139.747 184.505 139.66 184.958 139.66C185.305 139.66 185.558 139.74 185.718 139.9C185.891 140.047 185.978 140.3 185.978 140.66C185.978 142.193 186.071 144.187 186.258 146.64C187.058 145.453 187.658 144.507 188.058 143.8C187.858 143.413 187.758 142.953 187.758 142.42C187.758 141.967 187.858 141.527 188.058 141.1C188.258 140.673 188.531 140.327 188.878 140.06C189.225 139.793 189.618 139.66 190.058 139.66C190.445 139.66 190.758 139.8 190.998 140.08C191.238 140.347 191.358 140.74 191.358 141.26C191.358 141.86 191.198 142.547 190.878 143.32C191.385 143.293 192.058 143.193 192.898 143.02L193.438 142.92ZM201.443 144.54C201.616 144.54 201.749 144.62 201.842 144.78C201.949 144.94 202.003 145.16 202.003 145.44C202.003 145.973 201.876 146.387 201.623 146.68C201.129 147.28 200.429 147.833 199.523 148.34C198.629 148.847 197.669 149.1 196.643 149.1C195.243 149.1 194.156 148.72 193.383 147.96C192.609 147.2 192.222 146.16 192.222 144.84C192.222 143.92 192.416 143.067 192.803 142.28C193.189 141.48 193.723 140.847 194.403 140.38C195.096 139.913 195.876 139.68 196.743 139.68C197.516 139.68 198.136 139.913 198.603 140.38C199.069 140.833 199.303 141.453 199.303 142.24C199.303 143.16 198.969 143.953 198.303 144.62C197.649 145.273 196.536 145.793 194.963 146.18C195.296 146.793 195.929 147.1 196.863 147.1C197.463 147.1 198.143 146.893 198.903 146.48C199.676 146.053 200.343 145.5 200.903 144.82C201.063 144.633 201.243 144.54 201.443 144.54ZM196.403 141.64C195.909 141.64 195.489 141.927 195.143 142.5C194.809 143.073 194.643 143.767 194.643 144.58V144.62C195.429 144.433 196.049 144.153 196.503 143.78C196.956 143.407 197.183 142.973 197.183 142.48C197.183 142.227 197.109 142.027 196.963 141.88C196.829 141.72 196.643 141.64 196.403 141.64ZM204.094 149.54C203.401 149.54 202.867 149.38 202.494 149.06C202.134 148.74 201.954 148.38 201.954 147.98C201.954 147.633 202.081 147.333 202.334 147.08C202.587 146.827 202.961 146.7 203.454 146.7C203.627 146.7 203.827 146.72 204.054 146.76C204.294 146.787 204.474 146.807 204.594 146.82C204.581 146.473 204.501 146.147 204.354 145.84C204.221 145.533 204.047 145.24 203.834 144.96C203.621 144.667 203.421 144.413 203.234 144.2C202.821 144.987 202.407 145.64 201.994 146.16C201.594 146.68 201.154 147.173 200.674 147.64C200.434 147.88 200.181 148 199.914 148C199.701 148 199.527 147.927 199.394 147.78C199.261 147.62 199.194 147.427 199.194 147.2C199.194 146.933 199.287 146.687 199.474 146.46L199.734 146.14C200.467 145.233 201.021 144.487 201.394 143.9C201.634 143.513 201.874 143.053 202.114 142.52C202.367 141.987 202.694 141.26 203.094 140.34C203.347 139.753 203.874 139.46 204.674 139.46C205.047 139.46 205.307 139.493 205.454 139.56C205.601 139.627 205.674 139.733 205.674 139.88C205.674 139.96 205.647 140.087 205.594 140.26C205.541 140.433 205.467 140.607 205.374 140.78C205.134 141.26 205.014 141.667 205.014 142C205.014 142.2 205.081 142.42 205.214 142.66C205.361 142.9 205.581 143.2 205.874 143.56C206.301 144.12 206.621 144.6 206.834 145C207.061 145.387 207.174 145.813 207.174 146.28C207.174 146.84 207.041 147.373 206.774 147.88C206.521 148.373 206.161 148.773 205.694 149.08C205.227 149.387 204.694 149.54 204.094 149.54Z" fill="#2F2E41"/>
<path d="M28.992 83.32C23.9147 83.32 19.4987 82.4027 15.744 80.568C11.9893 78.6907 9.10933 76.0453 7.104 72.632C5.09867 69.2187 4.096 65.2507 4.096 60.728C4.096 54.456 5.26933 48.888 7.616 44.024C10.0053 39.16 13.2267 35.4053 17.28 32.76C21.3333 30.072 25.8347 28.728 30.784 28.728C35.392 28.728 38.8907 29.9227 41.28 32.312C43.6693 34.6587 44.864 37.7733 44.864 41.656C44.864 44.2587 44.3947 46.3493 43.456 47.928C42.56 49.5067 41.2587 50.296 39.552 50.296C38.3573 50.296 37.4187 50.0187 36.736 49.464C36.0533 48.9093 35.712 48.0987 35.712 47.032C35.712 46.648 35.7973 45.944 35.968 44.92C36.224 43.64 36.352 42.616 36.352 41.848C36.352 37.9653 34.2827 36.024 30.144 36.024C27.328 36.024 24.64 36.9413 22.08 38.776C19.52 40.6107 17.4507 43.32 15.872 46.904C14.2933 50.4453 13.504 54.6693 13.504 59.576C13.504 64.696 14.9333 68.664 17.792 71.48C20.6507 74.2533 24.8747 75.64 30.464 75.64C33.2373 75.64 36.032 75.2987 38.848 74.616C41.7067 73.8907 44.864 72.8027 48.32 71.352C48.96 71.096 49.4933 70.968 49.92 70.968C50.6027 70.968 51.1147 71.224 51.456 71.736C51.7973 72.248 51.968 72.9093 51.968 73.72C51.968 76.3227 50.56 78.2427 47.744 79.48C44.7147 80.8027 41.5573 81.784 38.272 82.424C35.0293 83.0213 31.936 83.32 28.992 83.32ZM53.475 83.32C51.555 83.32 49.9763 82.4453 48.739 80.696C47.5443 78.904 46.947 76.6853 46.947 74.04C46.947 70.84 47.1603 67.9173 47.587 65.272C48.0137 62.584 48.7177 59.7467 49.699 56.76C50.1257 55.48 50.723 54.5627 51.491 54.008C52.259 53.4533 53.475 53.176 55.139 53.176C56.0777 53.176 56.7177 53.3253 57.059 53.624C57.443 53.9227 57.635 54.3707 57.635 54.968C57.635 55.3093 57.4003 56.4613 56.931 58.424C56.5043 60.0027 56.163 61.432 55.907 62.712C55.0537 67.192 54.627 70.1787 54.627 71.672C54.627 72.568 54.7337 73.208 54.947 73.592C55.1603 73.9333 55.5017 74.104 55.971 74.104C56.611 74.104 57.4003 73.464 58.339 72.184C59.3203 70.904 60.3443 68.9627 61.411 66.36C62.5203 63.7573 63.587 60.5573 64.611 56.76C64.9523 55.48 65.4643 54.5627 66.147 54.008C66.8723 53.4533 67.939 53.176 69.347 53.176C70.3283 53.176 71.011 53.304 71.395 53.56C71.779 53.7733 71.971 54.2 71.971 54.84C71.971 55.9067 71.4377 58.8293 70.371 63.608C69.1763 69.0693 68.579 72.44 68.579 73.72C68.579 74.5307 68.7497 75.1707 69.091 75.64C69.4323 76.0667 69.8803 76.28 70.435 76.28C71.2883 76.28 72.291 75.768 73.443 74.744C74.6377 73.6773 76.2163 71.9707 78.179 69.624C78.691 69.0267 79.267 68.728 79.907 68.728C80.4617 68.728 80.8883 68.984 81.187 69.496C81.5283 70.008 81.699 70.712 81.699 71.608C81.699 73.3147 81.2937 74.6373 80.483 75.576C78.6483 77.8373 76.6643 79.6933 74.531 81.144C72.4403 82.5947 70.051 83.32 67.363 83.32C65.315 83.32 63.8003 82.5307 62.819 80.952C61.8803 79.3733 61.411 77.1547 61.411 74.296C60.6857 77.1973 59.5977 79.4373 58.147 81.016C56.6963 82.552 55.139 83.32 53.475 83.32ZM110.686 68.728C111.24 68.728 111.667 68.984 111.966 69.496C112.307 70.008 112.478 70.712 112.478 71.608C112.478 73.3147 112.072 74.6373 111.262 75.576C109.427 77.8373 107.443 79.6933 105.31 81.144C103.219 82.5947 100.83 83.32 98.1415 83.32C95.8802 83.32 94.0455 82.5093 92.6375 80.888C90.2055 82.4667 87.6668 83.2773 85.0215 83.32C84.4668 91.5547 83.2082 98.424 81.2455 103.928C79.2828 109.475 76.4028 112.248 72.6055 112.248C70.3015 112.248 68.5948 111.416 67.4855 109.752C66.3762 108.088 65.8215 105.784 65.8215 102.84C65.8215 98.6587 66.7815 93.7733 68.7015 88.184C70.6215 82.6373 73.5868 76.5147 77.5975 69.816C77.5975 63.5867 77.5548 59.256 77.4695 56.824C77.4268 55.5867 77.9175 54.6053 78.9415 53.88C79.9655 53.1547 81.2455 52.792 82.7815 52.792C83.6775 52.792 84.3175 52.984 84.7015 53.368C85.1282 53.7093 85.3628 54.4133 85.4055 55.48C85.4055 56.5467 85.4268 57.336 85.4695 57.848C86.8348 56.1413 88.1788 54.9253 89.5015 54.2C90.8242 53.432 92.2322 53.048 93.7255 53.048C96.1148 53.048 98.0562 54.008 99.5495 55.928C101.086 57.848 101.854 60.3653 101.854 63.48C101.854 65.7413 101.491 67.9387 100.766 70.072C100.04 72.2053 99.0375 74.1467 97.7575 75.896C98.6535 76.152 99.4002 76.28 99.9975 76.28C101.406 76.28 102.75 75.768 104.03 74.744C105.31 73.72 106.952 72.0133 108.958 69.624C109.47 69.0267 110.046 68.728 110.686 68.728ZM85.3415 77.176C86.8775 76.8347 88.2855 76.0027 89.5655 74.68C90.8882 73.3147 91.9335 71.6507 92.7015 69.688C93.4695 67.6827 93.8535 65.592 93.8535 63.416C93.8535 62.136 93.5975 61.176 93.0855 60.536C92.5735 59.8533 91.8908 59.512 91.0375 59.512C89.5015 59.512 87.6455 61.1333 85.4695 64.376C85.4268 66.2533 85.4055 69.0053 85.4055 72.632C85.4055 74.5947 85.3842 76.1093 85.3415 77.176ZM73.1175 105.976C74.2695 105.976 75.2295 103.459 75.9975 98.424C76.7655 93.432 77.2562 87.2027 77.4695 79.736C75.6348 84.0027 74.1842 88.0773 73.1175 91.96C72.0508 95.8427 71.5175 99.1067 71.5175 101.752C71.5175 103.117 71.6882 104.163 72.0295 104.888C72.3282 105.613 72.6908 105.976 73.1175 105.976ZM115.706 48.952C113.914 48.952 112.57 48.5467 111.674 47.736C110.778 46.8827 110.33 45.7093 110.33 44.216C110.33 42.7227 110.906 41.4853 112.058 40.504C113.253 39.48 114.725 38.968 116.474 38.968C118.053 38.968 119.333 39.352 120.314 40.12C121.295 40.888 121.786 41.976 121.786 43.384C121.786 45.0907 121.231 46.456 120.122 47.48C119.013 48.4613 117.541 48.952 115.706 48.952ZM115.194 83.32C112.421 83.32 110.394 82.3387 109.114 80.376C107.877 78.4133 107.258 75.8107 107.258 72.568C107.258 70.648 107.493 68.1947 107.962 65.208C108.474 62.1787 109.114 59.3627 109.882 56.76C110.266 55.3947 110.778 54.456 111.418 53.944C112.058 53.432 113.082 53.176 114.49 53.176C116.666 53.176 117.754 53.9013 117.754 55.352C117.754 56.4187 117.349 58.8933 116.538 62.776C115.514 67.4693 115.002 70.648 115.002 72.312C115.002 73.592 115.173 74.5733 115.514 75.256C115.855 75.9387 116.431 76.28 117.242 76.28C118.01 76.28 118.97 75.7467 120.122 74.68C121.274 73.6133 122.81 71.928 124.73 69.624C125.242 69.0267 125.818 68.728 126.458 68.728C127.013 68.728 127.439 68.984 127.738 69.496C128.079 70.008 128.25 70.712 128.25 71.608C128.25 73.3147 127.845 74.6373 127.034 75.576C122.81 80.7387 118.863 83.32 115.194 83.32ZM159.424 68.728C159.979 68.728 160.405 68.984 160.704 69.496C161.045 70.008 161.216 70.712 161.216 71.608C161.216 73.3147 160.811 74.6373 160 75.576C158.251 77.7093 156.331 79.544 154.24 81.08C152.149 82.5733 150.08 83.32 148.032 83.32C144.789 83.32 142.315 81.4213 140.608 77.624C138.816 79.8853 137.237 81.4 135.872 82.168C134.549 82.936 132.992 83.32 131.2 83.32C128.597 83.32 126.443 82.36 124.736 80.44C123.072 78.4773 122.24 75.9387 122.24 72.824C122.24 69.4107 122.965 66.2533 124.416 63.352C125.867 60.408 127.851 58.0187 130.368 56.184C132.928 54.3067 135.787 53.1973 138.944 52.856C139.755 44.5787 141.291 37.5173 143.552 31.672C145.856 25.784 148.864 22.84 152.576 22.84C154.411 22.84 155.925 23.672 157.12 25.336C158.357 27 158.976 29.5173 158.976 32.888C158.976 37.6667 157.803 43.256 155.456 49.656C153.109 56.056 149.973 62.6267 146.048 69.368C146.219 71.8427 146.581 73.6133 147.136 74.68C147.733 75.7467 148.48 76.28 149.376 76.28C150.528 76.28 151.701 75.768 152.896 74.744C154.091 73.72 155.691 72.0133 157.696 69.624C158.208 69.0267 158.784 68.728 159.424 68.728ZM151.872 29.112C151.061 29.112 150.251 30.5627 149.44 33.464C148.629 36.3227 147.925 40.0773 147.328 44.728C146.773 49.3787 146.368 54.2427 146.112 59.32C150.891 48.9093 153.28 40.5467 153.28 34.232C153.28 32.6107 153.131 31.352 152.832 30.456C152.576 29.56 152.256 29.112 151.872 29.112ZM133.44 76.856C134.251 76.856 135.061 76.536 135.872 75.896C136.683 75.2133 137.707 73.976 138.944 72.184C138.517 69.88 138.304 67.2987 138.304 64.44C138.304 63.416 138.347 61.752 138.432 59.448C136.085 60.1733 134.123 61.752 132.544 64.184C131.008 66.5733 130.24 69.24 130.24 72.184C130.24 75.2987 131.307 76.856 133.44 76.856ZM164.394 48.952C162.602 48.952 161.258 48.5467 160.362 47.736C159.466 46.8827 159.018 45.7093 159.018 44.216C159.018 42.7227 159.594 41.4853 160.746 40.504C161.94 39.48 163.412 38.968 165.162 38.968C166.74 38.968 168.02 39.352 169.002 40.12C169.983 40.888 170.474 41.976 170.474 43.384C170.474 45.0907 169.919 46.456 168.81 47.48C167.7 48.4613 166.228 48.952 164.394 48.952ZM163.882 83.32C161.108 83.32 159.082 82.3387 157.802 80.376C156.564 78.4133 155.946 75.8107 155.946 72.568C155.946 70.648 156.18 68.1947 156.65 65.208C157.162 62.1787 157.802 59.3627 158.57 56.76C158.954 55.3947 159.466 54.456 160.106 53.944C160.746 53.432 161.77 53.176 163.178 53.176C165.354 53.176 166.442 53.9013 166.442 55.352C166.442 56.4187 166.036 58.8933 165.226 62.776C164.202 67.4693 163.69 70.648 163.69 72.312C163.69 73.592 163.86 74.5733 164.202 75.256C164.543 75.9387 165.119 76.28 165.93 76.28C166.698 76.28 167.658 75.7467 168.81 74.68C169.962 73.6133 171.498 71.928 173.418 69.624C173.93 69.0267 174.506 68.728 175.146 68.728C175.7 68.728 176.127 68.984 176.426 69.496C176.767 70.008 176.938 70.712 176.938 71.608C176.938 73.3147 176.532 74.6373 175.722 75.576C171.498 80.7387 167.551 83.32 163.882 83.32ZM200.304 68.728C200.858 68.728 201.285 68.984 201.583 69.496C201.925 70.008 202.096 70.712 202.096 71.608C202.096 73.3147 201.69 74.6373 200.88 75.576C199.045 77.8373 197.04 79.6933 194.864 81.144C192.688 82.5947 190.192 83.32 187.376 83.32C178.672 83.32 174.32 77.1973 174.32 64.952C174.32 63.0747 174.384 61.176 174.512 59.256H172.016C170.736 59.256 169.861 59.0213 169.392 58.552C168.965 58.0827 168.752 57.336 168.752 56.312C168.752 53.9227 169.712 52.728 171.632 52.728H175.28C176.005 48.0347 177.114 43.7467 178.608 39.864C180.101 35.9813 181.893 32.888 183.984 30.584C186.117 28.28 188.4 27.128 190.832 27.128C192.624 27.128 194.032 27.9173 195.056 29.496C196.08 31.0747 196.592 33.0587 196.592 35.448C196.592 42.0613 193.818 47.8213 188.272 52.728H195.44C196.122 52.728 196.613 52.8773 196.912 53.176C197.21 53.4747 197.36 54.0293 197.36 54.84C197.36 57.784 194.949 59.256 190.128 59.256H182.32C182.234 61.3893 182.192 63.0533 182.192 64.248C182.192 68.6853 182.704 71.8 183.728 73.592C184.794 75.384 186.458 76.28 188.72 76.28C190.554 76.28 192.176 75.7253 193.584 74.616C194.992 73.5067 196.656 71.8427 198.576 69.624C199.088 69.0267 199.664 68.728 200.304 68.728ZM189.104 33.272C188.464 33.272 187.738 34.0827 186.928 35.704C186.16 37.2827 185.413 39.5013 184.688 42.36C184.005 45.176 183.429 48.312 182.96 51.768C185.477 49.592 187.354 47.16 188.592 44.472C189.872 41.7413 190.512 39.2667 190.512 37.048C190.512 34.5307 190.042 33.272 189.104 33.272ZM219.285 53.176C220.266 53.176 220.949 53.304 221.333 53.56C221.717 53.816 221.909 54.2427 221.909 54.84C221.909 55.864 221.354 59.512 220.245 65.784C219.263 71.8 218.687 75.3627 218.517 76.472C216.938 87.4373 214.762 96.12 211.989 102.52C209.215 108.92 205.525 112.12 200.917 112.12C198.741 112.12 196.97 111.437 195.605 110.072C194.239 108.749 193.556 107 193.556 104.824C193.556 102.819 194.005 100.771 194.901 98.68C195.839 96.5893 197.546 94.1787 200.021 91.448C202.538 88.76 206.079 85.6667 210.645 82.168L210.837 80.696C211.135 79.1173 211.477 76.856 211.861 73.912C211.007 76.984 209.813 79.3307 208.277 80.952C206.741 82.5307 205.119 83.32 203.413 83.32C201.493 83.32 199.914 82.4453 198.677 80.696C197.482 78.904 196.885 76.6853 196.885 74.04C196.885 70.84 197.098 67.9173 197.525 65.272C197.951 62.584 198.655 59.7467 199.637 56.76C200.063 55.48 200.661 54.5627 201.429 54.008C202.197 53.4533 203.413 53.176 205.077 53.176C206.015 53.176 206.655 53.3253 206.997 53.624C207.381 53.9227 207.573 54.3707 207.573 54.968C207.573 55.3093 207.338 56.4613 206.869 58.424C206.442 60.0027 206.101 61.432 205.845 62.712C205.503 64.4613 205.205 66.1467 204.949 67.768C204.693 69.3467 204.565 70.648 204.565 71.672C204.565 73.2933 205.013 74.104 205.909 74.104C206.549 74.104 207.338 73.464 208.277 72.184C209.258 70.904 210.282 68.9627 211.349 66.36C212.458 63.7573 213.525 60.5573 214.549 56.76C214.89 55.48 215.402 54.5627 216.085 54.008C216.81 53.4533 217.877 53.176 219.285 53.176ZM201.621 105.912C202.687 105.912 203.882 104.675 205.205 102.2C206.527 99.7253 207.85 95.608 209.173 89.848C205.887 92.6213 203.498 95.1387 202.005 97.4C200.554 99.704 199.829 101.709 199.829 103.416C199.829 104.141 199.957 104.739 200.213 105.208C200.511 105.677 200.981 105.912 201.621 105.912Z" fill="#FE3782"/>
</svg>
