<svg width="24" height="24" viewBox="0 0 24 24" fill="none" xmlns="http://www.w3.org/2000/svg">
<g clip-path="url(#clip0)">
<path fill-rule="evenodd" clip-rule="evenodd" d="M23.9999 12.2666C23.9999 11.2799 23.9182 10.5599 23.7415 9.81323H12.2485V14.2665H18.9946C18.8587 15.3732 18.1242 17.0399 16.492 18.1598L16.4692 18.309L20.103 21.0686L20.3548 21.0933C22.6669 18.9999 23.9999 15.9199 23.9999 12.2666Z" fill="#4285F4"/>
<path fill-rule="evenodd" clip-rule="evenodd" d="M12.2448 23.9999C15.5508 23.9999 18.3263 22.9332 20.3536 21.0933L16.4896 18.1598C15.4556 18.8665 14.0678 19.3599 12.2448 19.3599C9.00667 19.3599 6.2584 17.2666 5.27869 14.3733L5.13513 14.3852L1.35535 17.2519L1.30591 17.3866C3.31948 21.3065 7.45559 23.9999 12.2448 23.9999Z" fill="#34A853"/>
<path fill-rule="evenodd" clip-rule="evenodd" d="M5.27877 14.3707C5.02031 13.6243 4.87065 12.8245 4.87065 11.9982C4.87065 11.1718 5.02023 10.3721 5.26518 9.62568L5.25835 9.46669L1.43126 6.55493L1.30606 6.6133C0.476155 8.23944 0 10.0654 0 11.9981C0 13.9308 0.476228 15.7567 1.30606 17.3829L5.27885 14.3706L5.27877 14.3707Z" fill="#FBBC04"/>
<path fill-rule="evenodd" clip-rule="evenodd" d="M12.2448 4.6399C14.5441 4.6399 16.095 5.61327 16.9794 6.42665L20.4352 3.11998C18.3128 1.18663 15.5508 0 12.2448 0C7.45559 0 3.31956 2.69331 1.30591 6.61328L5.2651 9.62669C6.2584 6.73337 9.00667 4.63997 12.2448 4.63997V4.6399Z" fill="#EA4335"/>
</g>
<defs>
<clipPath id="clip0">
<rect width="24" height="24" fill="white"/>
</clipPath>
</defs>
</svg>
