<svg width="479" height="438" viewBox="0 0 479 438" fill="none" xmlns="http://www.w3.org/2000/svg">
<g clip-path="url(#clip0)">
<path d="M116.599 196.642C134.699 196.642 149.373 178.724 149.373 156.62C149.373 134.517 134.699 116.599 116.599 116.599C98.4985 116.599 83.8252 134.517 83.8252 156.62C83.8252 178.724 98.4985 196.642 116.599 196.642Z" fill="#2F2E41"/>
<path d="M89.1822 411.877L70.2743 413.768C70.2743 413.768 63.9717 425.112 52.627 425.112C41.2822 425.112 45.0638 437.718 61.4507 436.457C77.8375 435.197 95.4849 430.785 96.1151 429.524C96.7454 428.264 94.2243 411.247 89.1822 411.877Z" fill="#3F3D56"/>
<path opacity="0.1" d="M89.1822 411.877L70.2743 413.768C70.2743 413.768 63.9717 425.112 52.627 425.112C41.2822 425.112 45.0638 437.718 61.4507 436.457C77.8375 435.197 95.4849 430.785 96.1151 429.524C96.7454 428.264 94.2243 411.247 89.1822 411.877Z" fill="black"/>
<path d="M62.7112 301.581C62.7112 301.581 84.1402 304.732 92.3336 314.816C100.527 324.901 94.8546 276.37 94.8546 276.37L92.3336 254.311L75.3165 255.572L61.4507 283.933L62.7112 301.581Z" fill="#3F3D56"/>
<path opacity="0.1" d="M62.7112 301.581C62.7112 301.581 84.1402 304.732 92.3336 314.816C100.527 324.901 94.8546 276.37 94.8546 276.37L92.3336 254.311L75.3165 255.572L61.4507 283.933L62.7112 301.581Z" fill="black"/>
<path d="M133.3 175.528C133.3 175.528 143.385 147.797 133.3 147.166C123.216 146.536 124.477 174.268 124.477 174.268L133.3 175.528Z" fill="#A0616A"/>
<path d="M3.15137 82.5645H23.63C24.0492 82.5645 24.4512 82.731 24.7476 83.0274C25.044 83.3238 25.2106 83.7259 25.2106 84.1451V92.9588C25.2106 93.1664 25.1697 93.3719 25.0903 93.5637C25.0108 93.7555 24.8944 93.9297 24.7476 94.0765C24.6009 94.2233 24.4266 94.3397 24.2348 94.4191C24.0431 94.4986 23.8375 94.5395 23.63 94.5395H3.15137V82.5645Z" fill="#FF6366"/>
<path d="M1.66747 82.5645H22.3694C22.7886 82.5645 23.1906 82.731 23.487 83.0274C23.7835 83.3238 23.95 83.7259 23.95 84.1451V92.9588C23.95 93.1664 23.9091 93.3719 23.8297 93.5637C23.7502 93.7555 23.6338 93.9297 23.487 94.0765C23.3403 94.2233 23.166 94.3397 22.9743 94.4191C22.7825 94.4986 22.577 94.5395 22.3694 94.5395H1.66747C1.22523 94.5395 0.801101 94.3638 0.48839 94.0511C0.175679 93.7383 0 93.3142 0 92.872L0 84.2319C0 83.7897 0.175679 83.3656 0.48839 83.0528C0.801101 82.7401 1.22523 82.5645 1.66747 82.5645Z" fill="#2F2E41"/>
<path d="M18.908 89.4971C19.6042 89.4971 20.1685 88.9328 20.1685 88.2366C20.1685 87.5404 19.6042 86.9761 18.908 86.9761C18.2118 86.9761 17.6475 87.5404 17.6475 88.2366C17.6475 88.9328 18.2118 89.4971 18.908 89.4971Z" fill="#FF6366"/>
<path d="M17.332 96.7451C17.332 96.7451 1.57546 66.4925 0.314931 80.9885C-0.945595 95.4846 8.50835 107.46 8.50835 107.46L17.332 96.7451Z" fill="#A0616A"/>
<path d="M109.043 169.282C109.043 169.282 122.901 170.171 124.162 177.734C125.422 185.298 114.078 208.617 114.078 208.617L98.9513 207.357L97.0605 192.23L109.043 169.282Z" fill="#3F3D56"/>
<path d="M91.7034 147.167C91.7034 147.167 96.7455 173.007 80.3586 162.293C63.9718 151.578 86.6613 181.201 86.6613 181.201C86.6613 181.201 104.309 185.613 109.981 179.94C115.653 174.268 101.472 173.323 109.351 150.948C117.82 126.895 91.7034 147.167 91.7034 147.167Z" fill="#A0616A"/>
<path opacity="0.1" d="M91.7034 147.167C91.7034 147.167 96.7455 173.007 80.3586 162.293C63.9718 151.578 86.6613 181.201 86.6613 181.201C86.6613 181.201 104.309 185.613 109.981 179.94C115.653 174.268 101.472 173.323 109.351 150.948C117.82 126.895 91.7034 147.167 91.7034 147.167Z" fill="black"/>
<path d="M35.9248 235.718C35.9248 235.718 50.1057 338.766 54.5176 345.069C58.9294 351.372 74.0557 408.095 74.0557 408.095L90.4426 402.423C89.2734 395.552 89.0613 388.553 89.8123 381.624C91.0728 370.279 80.3584 340.027 80.3584 340.027L64.6018 246.748L35.9248 235.718Z" fill="#2F2E41"/>
<path opacity="0.1" d="M35.9248 235.718C35.9248 235.718 50.1057 338.766 54.5176 345.069C58.9294 351.372 74.0557 408.095 74.0557 408.095L90.4426 402.423C89.2734 395.552 89.0613 388.553 89.8123 381.624C91.0728 370.279 80.3584 340.027 80.3584 340.027L64.6018 246.748L35.9248 235.718Z" fill="black"/>
<path d="M32.4585 230.991L46.3243 270.698C46.3243 270.698 17.3322 323.01 41.2822 340.027C41.2822 340.027 69.0137 370.279 71.5348 396.75C71.5348 396.75 86.0308 395.49 87.9216 384.145C87.9216 384.145 74.6861 355.153 74.0558 345.069C73.4256 334.985 58.9295 323.01 58.9295 323.01C58.9295 323.01 86.6611 278.261 92.9637 270.698C99.2664 263.135 99.8966 234.143 84.1401 234.143C68.3835 234.143 32.4585 230.991 32.4585 230.991Z" fill="#2F2E41"/>
<path d="M86.6614 384.145C86.6614 384.145 75.947 397.381 72.7956 395.49C72.7956 395.49 70.2746 422.591 64.6022 430.154C58.9299 437.717 76.5772 437.087 82.8799 430.154C89.1825 423.221 101.157 396.75 101.157 393.599C101.157 390.448 90.443 382.254 86.6614 384.145Z" fill="#3F3D56"/>
<path d="M102.418 157.881C111.816 157.881 119.435 150.262 119.435 140.864C119.435 131.465 111.816 123.847 102.418 123.847C93.0197 123.847 85.4009 131.465 85.4009 140.864C85.4009 150.262 93.0197 157.881 102.418 157.881Z" fill="#A0616A"/>
<path d="M84.1401 161.032C84.1401 161.032 84.7704 171.747 94.2243 174.268C103.678 176.789 111.241 170.486 111.241 170.486L113.762 175.528L105.569 195.697L90.4427 244.857C90.4427 244.857 45.694 251.16 41.9125 240.445C38.1309 229.731 48.2151 199.478 48.2151 199.478L62.7111 178.68L68.3835 164.814L74.6861 157.881L84.1401 161.032Z" fill="#FF6366"/>
<path d="M87.9217 163.553C87.9217 163.553 78.1526 153.784 71.85 153.784C65.5473 153.784 60.1901 149.688 60.1901 149.688C60.1901 149.688 39.3914 179.94 26.7862 216.495C14.1809 253.051 -3.46647 264.395 5.35721 273.219C14.1809 282.043 28.0467 280.152 33.7191 289.606C39.3914 299.06 39.3914 297.799 43.173 283.303C46.9546 268.807 42.5427 229.101 60.8204 212.084C79.098 195.066 87.9217 163.553 87.9217 163.553Z" fill="#3F3D56"/>
<path d="M62.0811 151.578C62.0811 151.578 36.8706 128.889 33.7192 119.435C30.5679 109.981 18.5929 92.3336 16.0719 94.8546C13.5508 97.3757 -0.314973 103.048 2.83634 107.46C5.98766 111.872 13.5508 117.544 17.9627 133.301C22.3745 149.057 53.2574 169.226 53.2574 169.226L62.0811 151.578Z" fill="#3F3D56"/>
<path d="M108.09 169.226C108.09 169.226 97.3755 169.856 91.0728 203.26C84.7702 236.664 85.4005 314.816 91.0728 321.119C91.0728 321.119 96.7452 328.052 97.3755 315.447C98.0057 302.841 107.46 244.227 104.939 229.101C102.418 213.974 108.09 181.201 116.283 175.528C124.477 169.856 108.09 169.226 108.09 169.226Z" fill="#3F3D56"/>
<path d="M102.418 196.957C102.418 196.957 123.216 206.411 122.586 213.344C121.956 220.277 121.326 234.143 95.4849 211.453L102.418 196.957Z" fill="#3F3D56"/>
<path d="M109.981 196.957C109.981 196.957 101.157 217.756 112.502 221.537C123.847 225.319 126.998 203.89 126.998 203.89C126.998 203.89 135.822 179.94 135.192 174.898C134.561 169.856 121.956 169.226 120.696 172.377C119.435 175.528 109.981 196.957 109.981 196.957Z" fill="#3F3D56"/>
<path d="M116.599 185.928C120.776 185.928 124.162 173.512 124.162 158.196C124.162 142.88 120.776 130.464 116.599 130.464C112.422 130.464 109.036 142.88 109.036 158.196C109.036 173.512 112.422 185.928 116.599 185.928Z" fill="#2F2E41"/>
<path d="M110.926 138.027C123.457 138.027 133.616 133.089 133.616 126.998C133.616 120.906 123.457 115.968 110.926 115.968C98.3952 115.968 88.2368 120.906 88.2368 126.998C88.2368 133.089 98.3952 138.027 110.926 138.027Z" fill="#2F2E41"/>
<path opacity="0.1" d="M112.817 136.767C100.286 136.767 90.1276 131.829 90.1276 125.738C90.1276 123.59 91.395 121.587 93.5797 119.892C90.2481 121.811 88.2368 124.29 88.2368 126.998C88.2368 133.09 98.3952 138.028 110.926 138.028C119.039 138.028 119.777 136.767 112.817 136.767Z" fill="black"/>
<path d="M141.565 357.526C143.358 358.481 145.349 359.006 147.379 359.061C149.41 359.115 151.426 358.697 153.267 357.839C155.109 356.982 156.726 355.708 157.992 354.119C159.257 352.53 160.136 350.669 160.56 348.682C160.983 346.695 160.939 344.637 160.432 342.67C159.924 340.703 158.966 338.88 157.634 337.347C156.302 335.813 154.632 334.609 152.756 333.831C150.879 333.053 148.847 332.721 146.821 332.862L146.2 339.593L143.848 333.416C140.537 334.435 137.767 336.727 136.145 339.788C135.572 340.859 135.153 342.007 134.901 343.196C134.302 345.984 134.629 348.891 135.832 351.477C137.034 354.063 139.047 356.187 141.565 357.526Z" fill="#57B894"/>
<path d="M146.239 437.275C145.927 431.431 151.479 427.076 156.721 424.477C161.963 421.877 168.003 419.448 170.42 414.12C173.894 406.461 167.95 398.156 163.411 391.076C160.043 385.823 157.31 380.189 155.269 374.292C154.451 371.928 153.738 369.476 153.789 366.975C153.862 363.372 155.499 360.009 157.123 356.793C162.535 346.079 168.198 335.497 174.111 325.047" stroke="#3F3D56" stroke-width="0.630263" stroke-miterlimit="10"/>
<path d="M142.344 355.881C144.137 356.836 146.127 357.361 148.158 357.416C150.189 357.47 152.205 357.052 154.046 356.194C155.888 355.337 157.505 354.063 158.771 352.474C160.036 350.885 160.915 349.024 161.339 347.037C161.762 345.05 161.718 342.992 161.21 341.025C160.703 339.058 159.745 337.235 158.413 335.702C157.081 334.168 155.411 332.964 153.534 332.186C151.658 331.408 149.626 331.076 147.6 331.217L146.978 337.948L144.627 331.771C141.316 332.79 138.546 335.082 136.924 338.143C136.35 339.214 135.931 340.362 135.68 341.551C135.081 344.339 135.408 347.246 136.611 349.832C137.813 352.418 139.826 354.542 142.344 355.881Z" stroke="#3F3D56" stroke-width="0.630263" stroke-miterlimit="10"/>
<path d="M161.101 320.85C162.132 318.908 163.636 317.257 165.474 316.049C167.311 314.841 169.423 314.115 171.615 313.938L171.784 320.444L174.712 314.05C177.459 314.481 179.998 315.773 181.962 317.74C183.927 319.708 185.216 322.249 185.642 324.997C186.068 327.744 185.61 330.556 184.334 333.027C183.058 335.497 181.03 337.498 178.543 338.741C176.056 339.983 173.238 340.403 170.496 339.94C167.754 339.477 165.231 338.154 163.29 336.164C161.349 334.173 160.091 331.616 159.697 328.864C159.304 326.111 159.795 323.305 161.101 320.85Z" fill="#57B894"/>
<path d="M162.138 318.656C163.17 316.714 164.674 315.063 166.511 313.855C168.349 312.647 170.461 311.921 172.652 311.744L172.822 318.25L175.749 311.856C178.496 312.287 181.035 313.579 183 315.547C184.965 317.514 186.253 320.055 186.679 322.803C187.106 325.55 186.648 328.362 185.372 330.833C184.096 333.303 182.068 335.304 179.581 336.547C177.093 337.79 174.275 338.21 171.534 337.746C168.792 337.283 166.269 335.961 164.328 333.97C162.387 331.979 161.129 329.423 160.735 326.67C160.342 323.918 160.833 321.111 162.138 318.656Z" stroke="#3F3D56" stroke-width="0.630263" stroke-miterlimit="10"/>
<path d="M161.113 390.882C163.957 392.394 167.258 392.807 170.387 392.041C173.515 391.276 176.253 389.386 178.077 386.731C179.902 384.077 180.686 380.844 180.281 377.649C179.875 374.454 178.308 371.52 175.878 369.406L173.628 374.319L173.458 367.736C173.448 367.73 173.438 367.724 173.427 367.719C171.906 366.909 170.24 366.407 168.525 366.241C166.81 366.075 165.079 366.249 163.431 366.752C161.783 367.256 160.25 368.079 158.92 369.175C157.591 370.271 156.49 371.618 155.681 373.14C154.872 374.661 154.371 376.327 154.206 378.043C154.041 379.758 154.216 381.489 154.721 383.137C155.225 384.784 156.049 386.316 157.146 387.645C158.243 388.974 159.591 390.074 161.113 390.882V390.882Z" fill="#57B894"/>
<path d="M162.06 388.646C164.904 390.158 168.205 390.57 171.334 389.805C174.462 389.039 177.2 387.149 179.025 384.495C180.849 381.841 181.634 378.608 181.228 375.413C180.822 372.217 179.255 369.283 176.825 367.169L174.575 372.083L174.405 365.5C174.395 365.493 174.385 365.487 174.374 365.482C172.853 364.673 171.187 364.171 169.472 364.006C167.757 363.84 166.027 364.014 164.379 364.517C162.731 365.021 161.199 365.844 159.869 366.94C158.539 368.036 157.439 369.383 156.63 370.904C155.821 372.426 155.32 374.092 155.155 375.807C154.991 377.522 155.165 379.252 155.67 380.9C156.174 382.548 156.998 384.08 158.094 385.409C159.191 386.738 160.538 387.838 162.06 388.646V388.646Z" stroke="#3F3D56" stroke-width="0.630263" stroke-miterlimit="10"/>
<path d="M144.539 410.537C144.639 413.543 145.77 416.423 147.742 418.695C149.714 420.966 152.406 422.49 155.369 423.012C158.331 423.533 161.382 423.02 164.011 421.559C166.64 420.098 168.687 417.777 169.808 414.986C170.929 412.195 171.056 409.104 170.168 406.23C169.28 403.356 167.431 400.875 164.931 399.203C162.431 397.531 159.432 396.769 156.437 397.045C153.442 397.322 150.633 398.62 148.481 400.721L153.035 410.25L145.783 404.508C144.891 406.389 144.465 408.457 144.539 410.537Z" fill="#57B894"/>
<path d="M145.317 408.892C145.418 411.898 146.548 414.778 148.52 417.049C150.492 419.32 153.185 420.845 156.147 421.366C159.109 421.888 162.161 421.375 164.79 419.914C167.419 418.453 169.465 416.132 170.586 413.341C171.707 410.55 171.834 407.458 170.946 404.584C170.059 401.711 168.21 399.23 165.709 397.557C163.209 395.885 160.21 395.123 157.215 395.4C154.22 395.676 151.412 396.974 149.26 399.076L153.813 408.604L146.561 402.862C145.67 404.743 145.243 406.811 145.317 408.892V408.892Z" stroke="#3F3D56" stroke-width="0.630263" stroke-miterlimit="10"/>
<path d="M2.83643 435.827H259.354" stroke="#3F3D56" stroke-width="0.630263" stroke-miterlimit="10"/>
<path d="M407.465 71.5347H219.646V195.066H407.465V71.5347Z" fill="#F2F2F2"/>
<path d="M478.685 0.314941H174.268V240.445H478.685V0.314941Z" stroke="#3F3D56" stroke-width="0.630263" stroke-miterlimit="10"/>
<path d="M174.583 14.1807H479" stroke="#3F3D56" stroke-width="0.630263" stroke-miterlimit="10"/>
<path d="M180.57 11.0297C182.311 11.0297 183.722 9.61879 183.722 7.87837C183.722 6.13794 182.311 4.72705 180.57 4.72705C178.83 4.72705 177.419 6.13794 177.419 7.87837C177.419 9.61879 178.83 11.0297 180.57 11.0297Z" fill="#F86B75"/>
<path d="M189.394 11.0297C191.134 11.0297 192.545 9.61879 192.545 7.87837C192.545 6.13794 191.134 4.72705 189.394 4.72705C187.654 4.72705 186.243 6.13794 186.243 7.87837C186.243 9.61879 187.654 11.0297 189.394 11.0297Z" fill="#FAD375"/>
<path d="M198.218 11.0297C199.958 11.0297 201.369 9.61879 201.369 7.87837C201.369 6.13794 199.958 4.72705 198.218 4.72705C196.477 4.72705 195.066 6.13794 195.066 7.87837C195.066 9.61879 196.477 11.0297 198.218 11.0297Z" fill="#8BCC55"/>
<path d="M181.831 9.13857C183.571 9.13857 184.982 7.72768 184.982 5.98725C184.982 4.24683 183.571 2.83594 181.831 2.83594C180.091 2.83594 178.68 4.24683 178.68 5.98725C178.68 7.72768 180.091 9.13857 181.831 9.13857Z" stroke="#3F3D56" stroke-width="0.630263" stroke-miterlimit="10"/>
<path d="M190.655 9.13857C192.395 9.13857 193.806 7.72768 193.806 5.98725C193.806 4.24683 192.395 2.83594 190.655 2.83594C188.914 2.83594 187.503 4.24683 187.503 5.98725C187.503 7.72768 188.914 9.13857 190.655 9.13857Z" stroke="#3F3D56" stroke-width="0.630263" stroke-miterlimit="10"/>
<path d="M199.478 9.13857C201.219 9.13857 202.63 7.72768 202.63 5.98725C202.63 4.24683 201.219 2.83594 199.478 2.83594C197.738 2.83594 196.327 4.24683 196.327 5.98725C196.327 7.72768 197.738 9.13857 199.478 9.13857Z" stroke="#3F3D56" stroke-width="0.630263" stroke-miterlimit="10"/>
<path d="M422.276 57.9844H234.458V181.516H422.276V57.9844Z" stroke="#3F3D56" stroke-width="0.630263" stroke-miterlimit="10"/>
<path d="M419.125 208.617H384.46V218.071H419.125V208.617Z" fill="#FF6366"/>
<path d="M422.276 206.096H387.612V215.55H422.276V206.096Z" stroke="#3F3D56" stroke-width="0.630263" stroke-miterlimit="10"/>
<path d="M330.504 130.178L316.002 115.232C315.685 114.913 315.307 114.662 314.89 114.495C314.473 114.327 314.027 114.247 313.577 114.258H313.534C313.085 114.247 312.638 114.327 312.221 114.495C311.804 114.662 311.426 114.913 311.11 115.232L296.608 130.178C296.288 130.478 296.032 130.84 295.858 131.242C295.683 131.644 295.593 132.077 295.593 132.516C295.593 132.954 295.683 133.388 295.858 133.79C296.032 134.192 296.288 134.554 296.608 134.853C297.271 135.474 298.145 135.819 299.054 135.819C299.962 135.819 300.836 135.474 301.5 134.853L310.093 125.871V149.031C310.132 149.922 310.515 150.764 311.16 151.381C311.805 151.998 312.663 152.342 313.556 152.342C314.448 152.342 315.307 151.998 315.952 151.381C316.597 150.764 316.979 149.922 317.019 149.031V125.871L325.612 134.853C326.275 135.474 327.15 135.819 328.058 135.819C328.966 135.819 329.84 135.474 330.504 134.853C330.824 134.554 331.079 134.192 331.254 133.79C331.428 133.388 331.518 132.954 331.518 132.516C331.518 132.077 331.428 131.644 331.254 131.242C331.079 130.84 330.824 130.478 330.504 130.178Z" fill="#FF6366"/>
</g>
<defs>
<clipPath id="clip0">
<rect width="479" height="437.291" fill="white"/>
</clipPath>
</defs>
</svg>
