<svg width="492" height="376" viewBox="0 0 492 376" fill="none" xmlns="http://www.w3.org/2000/svg">
<g clip-path="url(#clip0)">
<path d="M122.92 214.891C122.877 214.253 122.708 213.629 122.424 213.056C122.14 212.483 121.746 211.972 121.264 211.551L113.52 204.803C112.611 204.009 111.439 203.581 110.231 203.603C109.024 203.625 107.868 204.095 106.988 204.921C106.87 205.03 106.758 205.146 106.654 205.269L86.4364 228.45L84.224 230.983L50.3982 269.769C49.5521 270.744 49.127 272.015 49.2156 273.303C49.3043 274.592 49.8997 275.792 50.8714 276.643L58.6078 283.391C59.5819 284.239 60.8525 284.666 62.1409 284.578C63.4294 284.491 64.6307 283.896 65.4814 282.925L84.224 261.434L101.116 242.058L121.73 218.425C122.151 217.943 122.473 217.383 122.678 216.777C122.882 216.17 122.964 215.529 122.92 214.891Z" fill="#FF6366"/>
<path d="M245.546 171.165L240.844 162.037C240.249 160.892 239.225 160.029 237.995 159.636C236.766 159.244 235.431 159.354 234.283 159.943L195.97 179.695L171.884 192.113L158.213 199.161C157.856 199.344 157.524 199.573 157.225 199.843C156.562 200.419 156.071 201.168 155.806 202.006C155.609 202.615 155.536 203.257 155.589 203.895C155.643 204.533 155.823 205.154 156.119 205.721L157.956 209.29L160.822 214.849C161.114 215.418 161.516 215.924 162.005 216.337C162.493 216.75 163.058 217.062 163.668 217.256C164.152 217.408 164.656 217.485 165.163 217.486C165.936 217.486 166.698 217.3 167.383 216.943L183.621 208.574L204.854 197.623L243.453 177.726C244.598 177.131 245.461 176.107 245.853 174.877C246.246 173.648 246.135 172.313 245.546 171.165V171.165Z" fill="#FF6366"/>
<path d="M205.063 198.061L204.854 197.623L196.63 180.682C196.049 179.531 195.036 178.656 193.813 178.247C193.202 178.043 192.555 177.964 191.913 178.013C191.27 178.062 190.644 178.238 190.07 178.533L170.005 190.694L156.648 198.792C156.546 198.843 156.453 198.909 156.37 198.987C155.604 199.675 155.194 201.443 154.86 202.89C154.741 203.391 154.644 203.829 154.547 204.114C154.512 204.232 154.47 204.358 154.442 204.483C154.164 205.607 154.297 206.794 154.818 207.829L156.46 211.106L159.424 217.006C159.831 217.815 160.456 218.495 161.227 218.97C161.999 219.446 162.887 219.698 163.793 219.698C164.538 219.697 165.272 219.521 165.936 219.183L184.623 211.809L202.892 204.594C204.044 204.014 204.92 203.001 205.327 201.776C205.734 200.552 205.639 199.216 205.063 198.061H205.063Z" fill="#2F2E41"/>
<path d="M138.783 171.873C159.347 171.873 176.017 155.203 176.017 134.639C176.017 114.075 159.347 97.4045 138.783 97.4045C118.219 97.4045 101.549 114.075 101.549 134.639C101.549 155.203 118.219 171.873 138.783 171.873Z" fill="#FF6366"/>
<path d="M139.86 283.203C139.824 282.257 139.512 281.343 138.962 280.572C138.411 279.802 137.647 279.21 136.764 278.869C136.204 278.647 135.607 278.534 135.004 278.535H124.735C123.444 278.536 122.206 279.05 121.293 279.963C120.38 280.876 119.867 282.114 119.865 283.405V370.376C119.867 371.668 120.38 372.905 121.293 373.818C122.206 374.731 123.444 375.245 124.735 375.246H135.004C136.295 375.245 137.533 374.731 138.446 373.818C139.359 372.905 139.873 371.668 139.874 370.376V283.405C139.877 283.337 139.872 283.27 139.86 283.203Z" fill="#FF6366"/>
<path d="M186.515 322.038C186.374 321.706 186.197 321.391 185.986 321.099L168.482 296.61L154.06 276.441H129.459L131.198 278.869L134.295 283.203L143.888 296.617L164.447 325.371L169.713 332.731C170.464 333.782 171.601 334.491 172.874 334.703C174.147 334.916 175.452 334.615 176.504 333.865L184.859 327.889C185.757 327.246 186.41 326.316 186.711 325.254C187.012 324.191 186.943 323.057 186.515 322.038ZM136.215 251.479C135.462 250.429 134.323 249.721 133.049 249.51C131.775 249.299 130.469 249.601 129.417 250.352L121.062 256.321C120.012 257.074 119.304 258.212 119.093 259.486C118.882 260.761 119.185 262.067 119.935 263.118L122.996 267.397H147.596L136.215 251.479Z" fill="#FF6366"/>
<path d="M186.675 322.275C186.626 322.193 186.572 322.114 186.515 322.038C185.869 321.161 185.019 320.454 184.038 319.979L174.848 315.408C172.44 314.211 169.853 314.503 169.08 316.062L164.447 325.37L145.391 363.649C144.612 365.207 145.941 367.447 148.341 368.644L157.531 373.222C158.444 373.688 159.45 373.94 160.474 373.959C161.768 373.959 162.846 373.479 163.299 372.568L186.988 324.981C187.175 324.541 187.244 324.061 187.189 323.586C187.134 323.112 186.957 322.66 186.675 322.275Z" fill="#FF6366"/>
<path d="M131.636 203.446L130.092 201.93L129.236 201.074L124.325 196.239C123.499 195.426 122.412 194.933 121.256 194.847C121.124 194.84 120.999 194.833 120.867 194.833C120.575 194.84 120.129 194.798 119.607 194.757C117.959 194.618 115.9 194.437 115.183 195.174L105.672 203.398L85.5731 220.77C84.8437 221.506 84.3705 222.457 84.2234 223.483C84.1838 223.729 84.1652 223.978 84.1677 224.227C84.1687 224.449 84.1874 224.67 84.2234 224.888C84.3712 225.942 84.8627 226.918 85.6216 227.664L86.4359 228.45L99.557 241.029C100.477 241.933 101.718 242.435 103.008 242.427C103.571 242.427 104.129 242.325 104.657 242.128C105.337 241.877 105.952 241.478 106.459 240.959L129.327 213.193L130.823 211.377L131.685 210.334C132.591 209.413 133.094 208.171 133.085 206.88C133.076 205.589 132.555 204.354 131.636 203.446Z" fill="#2F2E41"/>
<path d="M133.827 148.439L133.788 147.047C136.377 146.975 138.659 146.813 140.374 145.56C140.86 145.185 141.259 144.709 141.545 144.165C141.831 143.622 141.997 143.023 142.03 142.41C142.06 142.035 142.004 141.658 141.865 141.309C141.726 140.96 141.508 140.647 141.228 140.396C140.09 139.434 138.258 139.746 136.923 140.358L135.772 140.886L137.98 124.752L139.358 124.941L137.48 138.665C139.294 138.131 140.975 138.361 142.126 139.333C142.569 139.719 142.915 140.202 143.14 140.744C143.364 141.286 143.461 141.873 143.421 142.459C143.38 143.283 143.16 144.088 142.775 144.818C142.391 145.547 141.851 146.184 141.194 146.684C138.991 148.294 136.128 148.374 133.827 148.439Z" fill="#2F2E41"/>
<path d="M153.67 126.124H146.176V127.515H153.67V126.124Z" fill="#2F2E41"/>
<path d="M130.015 126.124H122.521V127.515H130.015V126.124Z" fill="#2F2E41"/>
<path d="M135.335 78.8574C131.207 62.3069 115.202 49.599 98.0528 49.9152C89.5627 50.1534 81.3756 53.1221 74.7059 58.3807C71.3437 60.9976 68.4489 64.1648 66.1442 67.7482C63.5596 71.782 61.9367 76.3355 60.6696 80.9314C58.1094 90.2176 56.9028 100.726 50.4059 108.309C47.7119 111.379 44.3903 113.835 40.6656 115.511C36.9408 117.186 32.8998 118.043 28.8155 118.022C24.7006 117.958 20.6565 116.942 16.9998 115.054C13.3431 113.166 10.1733 110.457 7.73857 107.139C2.84815 100.619 0.440494 91.6017 3.2658 83.7328C4.65222 79.8714 7.6334 76.2238 11.8971 75.5801C13.8416 75.3169 15.8206 75.628 17.5905 76.4752C19.3604 77.3224 20.844 78.6686 21.8586 80.3482C23.776 83.7127 23.1628 88.202 20.7606 91.1697C18.2303 94.2955 14.002 95.161 10.2726 93.9051C8.51974 93.3093 6.97839 92.2157 5.83688 90.7582C5.00292 89.705 3.52481 91.1815 4.35019 92.2238C5.67296 93.8102 7.38085 95.0303 9.3103 95.7675C11.2398 96.5047 13.3262 96.7341 15.3697 96.4339C17.4089 96.1254 19.3243 95.2629 20.9069 93.9405C22.4896 92.618 23.6787 90.8863 24.3447 88.9344C25.0748 86.9991 25.2663 84.902 24.8989 82.8664C24.5314 80.8308 23.6188 78.933 22.2582 77.3751C20.8405 75.8334 19.0508 74.6814 17.0605 74.0294C15.0701 73.3773 12.9458 73.247 10.8907 73.6509C6.48809 74.583 3.29086 78.2039 1.63157 82.2162C-0.00341669 86.3846 -0.434773 90.9284 0.386647 95.33C1.14467 99.5774 2.78874 103.618 5.21184 107.187C7.63494 110.757 10.7827 113.777 14.4503 116.049C21.8726 120.607 31.1369 121.234 39.2795 118.306C43.348 116.867 47.0639 114.579 50.1804 111.594C53.5294 108.196 56.0926 104.105 57.6892 99.6099C61.3604 89.9977 61.8983 79.2417 67.0927 70.2064C71.6235 62.5346 78.7703 56.7551 87.2203 53.9296C95.6208 51.0272 104.816 51.4687 112.9 55.1623C120.938 58.8851 127.413 65.3137 131.193 73.3251C132.093 75.2772 132.805 77.3106 133.319 79.3978C133.645 80.7035 135.661 80.1618 135.335 78.8575L135.335 78.8574Z" fill="#2F2E41"/>
<path d="M175.578 213.2C175.293 212.101 174.959 211.023 174.577 209.965C172.26 203.499 168.198 197.802 162.84 193.505C162.234 193.011 161.608 192.538 160.961 192.085C157.75 189.821 154.2 188.082 150.443 186.933C150.744 185.859 150.738 184.722 150.428 183.651C150.007 182.301 149.162 181.123 148.018 180.292C146.874 179.461 145.492 179.022 144.078 179.041H135.006C133.589 179.022 132.203 179.461 131.056 180.293C129.909 181.125 129.061 182.305 128.638 183.658C128.328 184.726 128.323 185.859 128.623 186.93C121.008 189.269 114.342 193.987 109.607 200.394C104.871 206.8 102.314 214.556 102.312 222.523V294.649C102.312 299.573 104.184 303.574 106.487 303.574H172.58C172.608 303.574 191.413 303.574 191.441 303.559C193.709 303.485 195.538 299.513 195.538 294.649C195.538 277.998 191.86 254.595 184.765 239.531L176.754 222.523C176.756 219.378 176.361 216.246 175.578 213.2Z" fill="#2F2E41"/>
<path d="M101.269 143.211C96.6656 143.211 92.9204 137.594 92.9204 130.688C92.9204 123.783 96.6656 118.166 101.269 118.166C105.872 118.166 109.618 123.783 109.618 130.688C109.618 137.594 105.872 143.211 101.269 143.211Z" fill="#3F3D56"/>
<path d="M175.711 143.211C171.107 143.211 167.362 137.594 167.362 130.688C167.362 123.783 171.107 118.166 175.711 118.166C180.314 118.166 184.059 123.783 184.059 130.688C184.059 137.594 180.314 143.211 175.711 143.211Z" fill="#3F3D56"/>
<path d="M178.053 141.252C177.888 141.252 177.724 141.213 177.577 141.137C177.43 141.061 177.302 140.952 177.206 140.817C177.109 140.683 177.046 140.527 177.021 140.363C176.997 140.199 177.011 140.032 177.064 139.875C179.059 133.944 179.659 127.633 178.818 121.432C177.976 115.231 175.717 109.308 172.214 104.123C168.712 98.9373 164.061 94.6294 158.623 91.5337C153.185 88.438 147.106 86.638 140.859 86.2735C134.612 85.9091 128.365 86.99 122.604 89.4322C116.843 91.8745 111.723 95.6123 107.641 100.355C103.559 105.098 100.626 110.718 99.0693 116.779C97.5128 122.84 97.3747 129.178 98.6659 135.301C98.7223 135.571 98.6691 135.853 98.5179 136.085C98.3668 136.316 98.13 136.478 97.8596 136.535C97.5892 136.592 97.3072 136.539 97.0755 136.389C96.8438 136.238 96.6813 136.002 96.6236 135.732C95.2652 129.294 95.4096 122.63 97.0456 116.258C98.6816 109.885 101.765 103.976 106.056 98.9888C110.348 94.0019 115.731 90.0717 121.789 87.5038C127.846 84.9359 134.414 83.7995 140.982 84.1828C147.55 84.5662 153.941 86.459 159.659 89.7141C165.376 92.9693 170.266 97.4991 173.948 102.951C177.63 108.404 180.005 114.632 180.888 121.151C181.772 127.671 181.14 134.307 179.042 140.542C178.972 140.749 178.839 140.929 178.662 141.056C178.485 141.184 178.272 141.252 178.053 141.252Z" fill="#3F3D56"/>
<path d="M122.862 105.644C121.387 107.656 122.114 110.369 123.668 112.104C125.689 114.362 128.912 114.504 131.711 114.085C134.852 113.615 138.183 112.143 141.363 113.135C144.073 113.98 146.006 116.438 148.822 117.056C151.319 117.603 154.305 116.878 155.18 114.217C155.601 112.938 153.586 112.39 153.167 113.662C152.601 115.384 150.156 115.35 148.756 114.873C146.511 114.108 144.78 112.249 142.574 111.361C139.972 110.314 137.15 110.787 134.501 111.383C132.005 111.945 129.132 112.779 126.645 111.729C124.805 110.952 123.34 108.504 124.664 106.697C125.459 105.613 123.648 104.57 122.862 105.644H122.862Z" fill="#2F2E41"/>
<path d="M223.006 375.232H72.7309C72.5464 375.232 72.3694 375.159 72.2389 375.029C72.1085 374.898 72.0352 374.721 72.0352 374.537C72.0352 374.352 72.1085 374.175 72.2389 374.045C72.3694 373.914 72.5464 373.841 72.7309 373.841H223.006C223.19 373.841 223.367 373.914 223.498 374.045C223.628 374.175 223.701 374.352 223.701 374.537C223.701 374.721 223.628 374.898 223.498 375.029C223.367 375.159 223.19 375.232 223.006 375.232Z" fill="#3F3D56"/>
<path d="M490.724 161.714H325.609C325.441 161.715 325.274 161.683 325.118 161.619C324.962 161.556 324.821 161.462 324.701 161.343C324.582 161.224 324.487 161.083 324.422 160.928C324.357 160.772 324.324 160.606 324.324 160.437C324.324 160.269 324.357 160.102 324.422 159.947C324.487 159.791 324.582 159.65 324.701 159.532C324.821 159.413 324.962 159.319 325.118 159.255C325.274 159.192 325.441 159.16 325.609 159.161H490.724C490.892 159.16 491.059 159.192 491.215 159.255C491.371 159.319 491.512 159.413 491.632 159.532C491.751 159.65 491.846 159.791 491.911 159.947C491.975 160.102 492.009 160.269 492.009 160.437C492.009 160.606 491.975 160.772 491.911 160.928C491.846 161.083 491.751 161.224 491.632 161.343C491.512 161.462 491.371 161.556 491.215 161.619C491.059 161.683 490.892 161.715 490.724 161.714Z" fill="#E6E6E6"/>
<path d="M420.533 91.271H356.325C352.738 91.2669 349.298 89.8399 346.761 87.3031C344.224 84.7663 342.797 81.3268 342.793 77.7391V13.5315C342.798 9.9439 344.225 6.50446 346.761 3.96769C349.298 1.43093 352.738 0.00401598 356.325 0H420.533C424.12 0.00401598 427.56 1.43093 430.097 3.96769C432.634 6.50446 434.06 9.9439 434.065 13.5315V77.7391C434.061 81.3268 432.634 84.7663 430.097 87.3031C427.56 89.8399 424.12 91.2669 420.533 91.271Z" fill="#FF6366"/>
<path opacity="0.1" d="M460.007 121.048H395.8C392.212 121.044 388.773 119.617 386.236 117.08C383.699 114.543 382.272 111.104 382.268 107.516V43.3084C382.272 39.7208 383.699 36.2813 386.236 33.7444C388.773 31.2076 392.212 29.7806 395.8 29.7766H460.007C463.595 29.7806 467.035 31.2076 469.571 33.7444C472.108 36.2813 473.535 39.7208 473.539 43.3084V107.516C473.535 111.104 472.108 114.543 469.571 117.08C467.034 119.617 463.595 121.044 460.007 121.048Z" fill="black"/>
<path d="M349.292 198.521C349.107 198.521 348.93 198.447 348.8 198.317C348.669 198.187 348.596 198.01 348.596 197.825V185.302C348.596 185.118 348.669 184.941 348.8 184.81C348.93 184.68 349.107 184.606 349.292 184.606C349.476 184.606 349.653 184.68 349.784 184.81C349.914 184.941 349.988 185.118 349.988 185.302V197.825C349.988 198.01 349.914 198.187 349.784 198.317C349.653 198.447 349.476 198.521 349.292 198.521Z" fill="#CCCCCC"/>
<path d="M405.993 198.521C405.808 198.521 405.631 198.447 405.501 198.317C405.37 198.187 405.297 198.01 405.297 197.825V185.302C405.297 185.118 405.37 184.941 405.501 184.81C405.631 184.68 405.808 184.606 405.993 184.606C406.177 184.606 406.354 184.68 406.485 184.81C406.615 184.941 406.688 185.118 406.688 185.302V197.825C406.688 198.01 406.615 198.187 406.485 198.317C406.354 198.447 406.177 198.521 405.993 198.521Z" fill="#3F3D56"/>
<path d="M410.863 198.521C410.678 198.521 410.501 198.447 410.371 198.317C410.24 198.187 410.167 198.01 410.167 197.825V185.302C410.167 185.118 410.24 184.941 410.371 184.81C410.501 184.68 410.678 184.606 410.863 184.606C411.047 184.606 411.224 184.68 411.355 184.81C411.485 184.941 411.558 185.118 411.558 185.302V197.825C411.558 198.01 411.485 198.187 411.355 198.317C411.224 198.447 411.047 198.521 410.863 198.521Z" fill="#3F3D56"/>
<path d="M359.505 198.747C359.221 198.747 358.943 198.671 358.698 198.528L350.423 192.947C350.408 192.938 350.392 192.928 350.377 192.919C350.148 192.775 349.96 192.575 349.831 192.337C349.702 192.1 349.636 191.834 349.64 191.564C349.638 191.28 349.712 191.001 349.854 190.755C349.996 190.509 350.2 190.306 350.447 190.166L358.657 184.624C358.901 184.473 359.181 184.39 359.469 184.383C359.756 184.377 360.04 184.447 360.291 184.587C360.542 184.727 360.751 184.931 360.897 185.179C361.042 185.427 361.119 185.709 361.119 185.996V197.131C361.118 197.559 360.948 197.969 360.645 198.272C360.343 198.575 359.933 198.746 359.505 198.747ZM359.435 197.349C359.465 197.359 359.497 197.361 359.529 197.357C359.56 197.352 359.59 197.341 359.616 197.324C359.651 197.305 359.679 197.277 359.699 197.243C359.718 197.209 359.728 197.17 359.728 197.131V185.996C359.728 185.957 359.717 185.919 359.698 185.885C359.678 185.851 359.65 185.823 359.616 185.804C359.583 185.784 359.544 185.774 359.505 185.774C359.466 185.774 359.428 185.784 359.394 185.803L351.184 191.345C351.046 191.427 351.031 191.516 351.031 191.564C351.03 191.603 351.04 191.641 351.06 191.675C351.08 191.709 351.108 191.737 351.142 191.756L351.184 191.782L359.435 197.349Z" fill="#CCCCCC"/>
<path d="M466.172 198.521C465.988 198.521 465.811 198.447 465.68 198.317C465.55 198.187 465.477 198.01 465.477 197.825V185.302C465.477 185.118 465.55 184.941 465.68 184.81C465.811 184.68 465.988 184.606 466.172 184.606C466.357 184.606 466.534 184.68 466.664 184.81C466.795 184.941 466.868 185.118 466.868 185.302V197.825C466.868 198.01 466.795 198.187 466.664 198.317C466.534 198.447 466.357 198.521 466.172 198.521Z" fill="#CCCCCC"/>
<path d="M455.946 198.744C455.667 198.744 455.393 198.669 455.152 198.529C454.906 198.388 454.701 198.185 454.559 197.939C454.417 197.693 454.343 197.414 454.345 197.131V185.997C454.345 185.713 454.419 185.435 454.561 185.189C454.703 184.944 454.907 184.74 455.152 184.599C455.397 184.457 455.676 184.383 455.959 184.383C456.242 184.383 456.521 184.457 456.766 184.599L465.058 190.192C465.295 190.333 465.49 190.534 465.625 190.775C465.759 191.016 465.828 191.288 465.824 191.564C465.826 191.843 465.754 192.117 465.617 192.36C465.479 192.603 465.281 192.805 465.041 192.948L456.807 198.503C456.547 198.658 456.249 198.742 455.946 198.744ZM455.736 197.131C455.736 197.17 455.746 197.208 455.766 197.242C455.785 197.276 455.814 197.304 455.847 197.324C455.881 197.343 455.92 197.353 455.959 197.353C455.998 197.353 456.036 197.343 456.07 197.324L464.311 191.762C464.347 191.742 464.377 191.714 464.398 191.679C464.419 191.645 464.431 191.605 464.433 191.564V191.564C464.433 191.524 464.423 191.486 464.404 191.452C464.384 191.418 464.356 191.39 464.322 191.371L456.029 185.778C455.999 185.768 455.967 185.765 455.935 185.77C455.904 185.774 455.874 185.786 455.848 185.804C455.813 185.823 455.785 185.851 455.765 185.885C455.746 185.919 455.736 185.957 455.736 185.996L455.736 197.131Z" fill="#CCCCCC"/>
<path d="M371.555 168.786C376.165 168.786 379.903 165.048 379.903 160.437C379.903 155.827 376.165 152.089 371.555 152.089C366.944 152.089 363.206 155.827 363.206 160.437C363.206 165.048 366.944 168.786 371.555 168.786Z" fill="#3F3D56"/>
</g>
<defs>
<clipPath id="clip0">
<rect width="492" height="375.246" fill="white"/>
</clipPath>
</defs>
</svg>
