<svg width="500" height="500" viewBox="0 0 500 500" fill="none" xmlns="http://www.w3.org/2000/svg">
<path d="M500 382.4H0V382.65H500V382.4Z" fill="#EBEBEB"/>
<path d="M85.58 391.92H52.46V392.17H85.58V391.92Z" fill="#EBEBEB"/>
<path d="M179.83 389.21H153.44V389.46H179.83V389.21Z" fill="#EBEBEB"/>
<path d="M135.89 397.82H89.9702V398.07H135.89V397.82Z" fill="#EBEBEB"/>
<path d="M449.9 399.53H428.3V399.78H449.9V399.53Z" fill="#EBEBEB"/>
<path d="M423.44 399.53H391.47V399.78H423.44V399.53Z" fill="#EBEBEB"/>
<path d="M332.33 395.31H277.21V395.56H332.33V395.31Z" fill="#EBEBEB"/>
<path d="M237 337.8H43.91C42.3973 337.797 40.9475 337.195 39.8788 336.124C38.8102 335.053 38.21 333.603 38.21 332.09V60.66C38.2231 59.156 38.8292 57.718 39.8964 56.6582C40.9637 55.5985 42.4059 55.0026 43.91 55H237C238.514 55 239.967 55.6016 241.038 56.6724C242.108 57.7433 242.71 59.1956 242.71 60.71V332.09C242.71 333.604 242.108 335.057 241.038 336.128C239.967 337.198 238.514 337.8 237 337.8ZM43.91 55.2C42.4636 55.2026 41.0774 55.7791 40.0556 56.8027C39.0338 57.8264 38.46 59.2136 38.46 60.66V332.09C38.46 333.536 39.0338 334.924 40.0556 335.947C41.0774 336.971 42.4636 337.547 43.91 337.55H237C238.447 337.547 239.834 336.971 240.858 335.948C241.881 334.924 242.457 333.537 242.46 332.09V60.66C242.457 59.2127 241.881 57.8255 240.858 56.8021C239.834 55.7787 238.447 55.2026 237 55.2H43.91Z" fill="#EBEBEB"/>
<path d="M453.31 337.8H260.21C258.696 337.797 257.246 337.195 256.175 336.125C255.105 335.054 254.503 333.604 254.5 332.09V60.66C254.516 59.1551 255.124 57.7171 256.193 56.6576C257.262 55.5981 258.705 55.0025 260.21 55H453.31C454.812 55.0052 456.252 55.6022 457.317 56.6617C458.382 57.7212 458.987 59.1578 459 60.66V332.09C459 333.601 458.401 335.05 457.335 336.121C456.268 337.191 454.821 337.795 453.31 337.8ZM260.21 55.2C258.763 55.2026 257.375 55.7787 256.352 56.8021C255.329 57.8255 254.753 59.2127 254.75 60.66V332.09C254.753 333.537 255.329 334.924 256.352 335.948C257.375 336.971 258.763 337.547 260.21 337.55H453.31C454.757 337.547 456.145 336.971 457.168 335.948C458.191 334.924 458.767 333.537 458.77 332.09V60.66C458.767 59.2127 458.191 57.8255 457.168 56.8021C456.145 55.7787 454.757 55.2026 453.31 55.2H260.21Z" fill="#EBEBEB"/>
<path d="M159.35 215.88H222.41V113.39L159.35 113.39V215.88Z" fill="#EBEBEB"/>
<path d="M150.93 215.88H219.27V113.39L150.93 113.39V215.88Z" fill="#F5F5F5"/>
<path d="M213.55 210.15V119.11H156.66V210.15H213.55Z" fill="white"/>
<path d="M199.76 195.32V133.95H170.45V195.32H199.76Z" fill="#F5F5F5"/>
<path d="M64.1802 169.81H127.24L127.24 67.3201L64.1802 67.3201L64.1802 169.81Z" fill="#EBEBEB"/>
<path d="M55.7601 169.81H124.1L124.1 67.3201L55.7601 67.3201L55.7601 169.81Z" fill="#F5F5F5"/>
<path d="M118.37 164.09V73.0498H61.4801L61.4801 164.09H118.37Z" fill="white"/>
<path d="M104.58 134.6V102.53C104.58 94.4389 98.021 87.8799 89.9301 87.8799H89.9201C81.8291 87.8799 75.2701 94.4389 75.2701 102.53V134.6C75.2701 142.691 81.8291 149.25 89.9201 149.25H89.9301C98.021 149.25 104.58 142.691 104.58 134.6Z" fill="#F5F5F5"/>
<path d="M58.6499 382.4H83.6499L83.6499 278.55H58.6499L58.6499 382.4Z" fill="#E6E6E6"/>
<path d="M63.3901 382.4H58.6401V369.28H68.3701L63.3901 382.4Z" fill="#F0F0F0"/>
<path d="M194.27 382.4H219.27V278.55H194.27V382.4Z" fill="#E6E6E6"/>
<path d="M58.6402 376.59H198.41V278.55H58.6402V376.59Z" fill="#F0F0F0"/>
<path d="M193.66 382.4H198.41V369.28H188.69L193.66 382.4Z" fill="#F0F0F0"/>
<path d="M194.45 290.12V324.47H62.6101V290.12H194.45ZM194.73 289.84H62.3301V324.75H194.73V289.84Z" fill="#FDFEFF"/>
<path d="M194.45 330.68V365H62.6101V330.68H194.45ZM194.73 330.39H62.3301V365.31H194.73V330.39Z" fill="#FDFEFF"/>
<path d="M137.99 295.14H119.05C118.46 295.14 117.876 295.024 117.332 294.798C116.787 294.573 116.292 294.242 115.875 293.825C115.458 293.408 115.127 292.913 114.902 292.368C114.676 291.824 114.56 291.24 114.56 290.65V289.83H142.46V290.65C142.46 291.838 141.99 292.977 141.152 293.818C140.314 294.659 139.177 295.135 137.99 295.14Z" fill="#FDFEFF"/>
<path d="M137.99 335.71H119.05C118.46 335.71 117.876 335.594 117.332 335.368C116.787 335.143 116.292 334.812 115.875 334.395C115.458 333.978 115.127 333.483 114.902 332.938C114.676 332.393 114.56 331.81 114.56 331.22V330.4H142.46V331.22C142.46 332.407 141.99 333.546 141.152 334.388C140.314 335.229 139.177 335.705 137.99 335.71Z" fill="#FDFEFF"/>
<path d="M102.18 257.52L98.5098 255.81V198.81L102.18 200.52V257.52Z" fill="#E6E6E6"/>
<path d="M97.2698 191.78C101.46 197.33 101.12 204.65 101.12 204.65C101.12 204.65 93.9998 203 89.7898 197.44C85.5798 191.88 85.9398 184.57 85.9398 184.57C85.9398 184.57 93.0798 186.24 97.2698 191.78Z" fill="#E6E6E6"/>
<path d="M97.3598 210.12C102.27 217.94 100.97 227.59 100.97 227.59C100.97 227.59 91.7198 224.59 86.8098 216.74C81.8998 208.89 83.1998 199.27 83.1998 199.27C83.1998 199.27 92.4498 202.3 97.3598 210.12Z" fill="#E6E6E6"/>
<path d="M104.2 202.39C100.01 207.93 100.35 215.26 100.35 215.26C100.35 215.26 107.49 213.59 111.69 208.04C115.89 202.49 115.54 195.17 115.54 195.17C115.54 195.17 108.4 196.84 104.2 202.39Z" fill="#E6E6E6"/>
<path d="M104.11 220.72C99.2102 228.54 100.5 238.19 100.5 238.19C100.5 238.19 109.76 235.19 114.66 227.35C119.56 219.51 118.28 209.88 118.28 209.88C118.28 209.88 109 212.9 104.11 220.72Z" fill="#E6E6E6"/>
<path d="M88.9999 224.8C98.4499 232.22 101.1 244.6 101.1 244.6C101.1 244.6 88.4699 245 78.9999 237.54C69.5299 230.08 66.8999 217.74 66.8999 217.74C66.8999 217.74 79.5899 217.38 88.9999 224.8Z" fill="#E6E6E6"/>
<path d="M98.8701 278.55C107.77 278.55 115.13 278.07 115.64 269.18L117.12 257.52H80.6201L82.1001 269.18C82.6101 278.07 90.0001 278.55 98.8701 278.55Z" fill="#F0F0F0"/>
<path d="M78.2498 262.33H119.48L120.67 247.48H77.0698L78.2498 262.33Z" fill="#F0F0F0"/>
<path d="M251.1 352.56V322.72H271.01V292.87H290.92V263.03H310.83V233.19H330.75V203.35H350.66V173.51H370.57V143.67H390.48H500V382.4H251.1H231.19V352.56H251.1Z" fill="#FAFAFA"/>
<path d="M360.61 352.56V322.72H380.53V292.87H400.44V263.03H420.35V233.19H440.26V203.35H460.18V173.51H480.09V143.67H500V173.51V382.4H360.61H340.7V352.56H360.61Z" fill="#E0E0E0"/>
<path d="M340.7 352.56H230.01V361.51H340.7V352.56Z" fill="#EBEBEB"/>
<path d="M360.61 322.72H249.92V331.67H360.61V322.72Z" fill="#EBEBEB"/>
<path d="M380.53 292.87H269.84V301.82H380.53V292.87Z" fill="#EBEBEB"/>
<path d="M400.44 263.03H289.75V271.98H400.44V263.03Z" fill="#EBEBEB"/>
<path d="M420.35 233.19H309.66V242.14H420.35V233.19Z" fill="#EBEBEB"/>
<path d="M440.26 203.35H329.57V212.3H440.26V203.35Z" fill="#EBEBEB"/>
<path d="M460.17 173.51H349.48V182.46H460.17V173.51Z" fill="#EBEBEB"/>
<path d="M480.09 143.67H369.4V152.62H480.09V143.67Z" fill="#EBEBEB"/>
<path d="M429.05 155.8L424.84 153.84V88.4702L429.05 90.4302V155.8Z" fill="#F5F5F5"/>
<path d="M423.42 80.4101C428.22 86.7701 427.83 95.1701 427.83 95.1701C427.83 95.1701 419.64 93.2501 414.83 86.8901C410.02 80.5301 410.41 72.1401 410.41 72.1401C410.41 72.1401 418.61 74.0501 423.42 80.4101Z" fill="#F5F5F5"/>
<path d="M423.52 101.44C429.15 110.44 427.66 121.44 427.66 121.44C427.66 121.44 417.05 118 411.42 109C405.79 100 407.28 89 407.28 89C407.28 89 417.89 92.47 423.52 101.44Z" fill="#F5F5F5"/>
<path d="M431.37 92.5698C426.56 98.9298 426.95 107.33 426.95 107.33C426.95 107.33 435.14 105.42 439.95 99.0598C444.76 92.6998 444.36 84.2998 444.36 84.2998C444.36 84.2998 436.17 86.2098 431.37 92.5698Z" fill="#F5F5F5"/>
<path d="M431.26 113.6C425.63 122.6 427.12 133.6 427.12 133.6C427.12 133.6 437.73 130.12 443.36 121.16C448.99 112.2 447.5 101.16 447.5 101.16C447.5 101.16 436.89 104.63 431.26 113.6Z" fill="#F5F5F5"/>
<path d="M427 173.51C437.2 173.51 445.64 172.96 446.23 162.77L447.93 149.39H406.09L407.8 162.77C408.38 173 416.82 173.51 427 173.51Z" fill="#E0E0E0"/>
<path d="M403.38 154.9H450.67L452.02 137.88H402.03L403.38 154.9Z" fill="#E0E0E0"/>
<path d="M250 427.56C357.082 427.56 443.89 422.492 443.89 416.24C443.89 409.988 357.082 404.92 250 404.92C142.917 404.92 56.1099 409.988 56.1099 416.24C56.1099 422.492 142.917 427.56 250 427.56Z" fill="#F5F5F5"/>
<path d="M136.83 140.87C135.7 145.87 134.36 150.74 132.83 155.59C132.06 158.01 131.22 160.4 130.35 162.8C129.91 164 129.45 165.19 128.98 166.38L128.25 168.2C127.779 169.461 127.058 170.614 126.13 171.59C124.905 172.851 123.299 173.673 121.56 173.93C120.219 174.118 118.852 174.005 117.56 173.6C115.871 173.057 114.283 172.239 112.86 171.18C110.624 169.498 108.57 167.588 106.73 165.48C103.283 161.597 100.21 157.399 97.5499 152.94C97.1699 152.33 97.0272 151.602 97.1487 150.894C97.2702 150.186 97.6476 149.548 98.2092 149.1C98.7707 148.652 99.4773 148.426 100.195 148.464C100.912 148.503 101.59 148.804 102.1 149.31L102.2 149.4C103.91 151.06 105.65 152.83 107.44 154.4C109.23 155.97 110.99 157.67 112.79 159.16C114.46 160.592 116.257 161.867 118.16 162.97C118.774 163.355 119.451 163.629 120.16 163.78C120.33 163.78 120.26 163.68 119.86 163.71C119.36 163.772 118.891 163.989 118.52 164.33C118.23 164.61 118.24 164.67 118.26 164.52L118.76 162.81L119.76 159.31C120.43 156.97 121.05 154.6 121.69 152.25L125.41 138.12V138.03C125.817 136.551 126.785 135.288 128.107 134.511C129.43 133.733 131.003 133.501 132.494 133.864C133.985 134.227 135.275 135.156 136.092 136.455C136.909 137.753 137.188 139.319 136.87 140.82L136.83 140.87Z" fill="#FFC3BD"/>
<path d="M128.08 126.75C122.48 131.75 121.28 146.17 121.28 146.17L138 156.51C138 156.51 139.54 148.51 140.61 138.8C141.82 128.27 134.86 120.67 128.08 126.75Z" fill="#DA2753"/>
<path d="M166.2 118.44C154.67 118.38 143.2 119.7 131.75 124.13C129.274 125.123 127.199 126.912 125.854 129.216C124.508 131.519 123.968 134.205 124.32 136.85C125.7 147.61 129.53 167.72 140.16 195.39L180.31 184.39C179 178.16 167.49 148.85 166.2 118.44Z" fill="#DA2753"/>
<path d="M102.83 150.25L100.18 143.9L93.1299 149.25C93.1299 149.25 94.3799 154.58 99.6199 153.51L102.83 150.25Z" fill="#FFC3BD"/>
<path d="M94.1901 141.35L91.7301 144.6C91.534 144.82 91.406 145.092 91.3616 145.383C91.3172 145.674 91.3584 145.972 91.4801 146.24L93.1301 149.24L100.18 143.89L96.7001 140.75C96.2873 140.498 95.7916 140.42 95.3213 140.533C94.851 140.645 94.4443 140.939 94.1901 141.35Z" fill="#FFC3BD"/>
<path opacity="0.2" d="M161.71 133C161.89 135.92 166.83 148.07 170.71 150.29C169.78 146.21 168.92 141.92 168.2 137.48L161.71 133Z" fill="black"/>
<path d="M145.53 100.73C145.82 106.47 147.27 116.79 152.1 119.64C149.82 123.26 146.72 127.54 140.15 129.18C133.58 130.82 133.6 126.07 134.75 123.33C140.61 120.54 139.3 116.01 137.14 111.96L145.53 100.73Z" fill="#FFC3BD"/>
<path opacity="0.2" d="M142.11 105.31L137.11 111.96C137.63 112.893 138.065 113.87 138.41 114.88C140.7 114.04 143.32 110.77 142.96 108.26C142.855 107.234 142.567 106.235 142.11 105.31Z" fill="black"/>
<path d="M130.77 88.5999C135.32 90.1999 134.46 93.9099 132.65 95.5999C135.48 96.5999 137.47 100.39 137.47 100.39L132.67 104.24C132.67 104.24 125.98 104.03 124.81 100.24C123.64 96.4499 117.13 91.9399 124.18 87.5299C131.23 83.1199 130.77 88.5999 130.77 88.5999Z" fill="#263238"/>
<path d="M145 92.0501C146.2 99.6701 147.29 104.05 144.34 108.74C139.89 115.74 129.82 114.29 126.34 107.17C123.22 100.75 121.78 89.3701 128.5 84.8101C129.99 83.799 131.711 83.1824 133.504 83.0181C135.297 82.8537 137.102 83.147 138.751 83.8703C140.399 84.5937 141.838 85.7236 142.93 87.1542C144.023 88.5848 144.736 90.2693 145 92.0501Z" fill="#FFC3BD"/>
<path d="M139.59 86.0902C138.88 88.5402 131.87 86.0902 126.89 88.5502C124.62 89.6702 121.18 94.5502 114.89 91.2502C114.89 91.2502 119.17 89.4902 119.68 86.0502C120.28 82.0502 121.52 76.8902 128.56 78.1602C135.6 79.4302 136.77 76.4302 141.33 77.4602C147.08 78.7502 149.22 89.8502 139.59 86.0902Z" fill="#263238"/>
<path d="M138.17 85.6302C136 90.0002 139.25 92.0002 141.75 92.0002C140.46 94.7202 141.67 98.8002 141.67 98.8002L147.79 98.1702C147.79 98.1702 152.42 93.3402 150.58 89.8002C148.74 86.2602 150.25 78.5002 142.13 80.2902C134.01 82.0802 138.17 85.6302 138.17 85.6302Z" fill="#263238"/>
<path d="M140.08 82.1701C144.33 80.0001 146 77.0001 146.19 73.8901C148.44 77.9401 147.27 82.2201 140.08 82.1701Z" fill="#263238"/>
<path d="M149.31 98.8802C148.737 100.626 147.522 102.088 145.91 102.97C143.85 103.97 142.55 101.97 142.91 99.6203C143.22 97.4503 144.67 94.3003 146.84 94.2603C149.01 94.2203 150.07 96.6502 149.31 98.8802Z" fill="#FFC3BD"/>
<path d="M133.85 358.23L143.59 356.99L144.5 339.08L133.94 340.12L133.85 358.23Z" fill="#FFC3BD"/>
<path d="M150.94 265.74C161.71 238.17 171.48 186.81 171.48 186.81L140.19 195.38C140.19 195.38 132.49 243.3 131.69 266.99C130.85 291.63 131.54 344.91 131.54 344.91H146.44C146.44 344.91 153.78 285 150.94 265.74Z" fill="#263238"/>
<path opacity="0.2" d="M164 211.92C156.14 220.03 154.93 236.26 156.13 250.65C159.98 238.07 163.49 223.85 166.18 212.03L164 211.92Z" fill="black"/>
<path d="M131.15 346.71L146.79 347.36L147.81 342.31L130.37 341.32L131.15 346.71Z" fill="#DA2753"/>
<path d="M135.24 95.7803C135.38 96.4003 135.16 96.9603 134.76 97.0503C134.36 97.1403 133.92 96.7003 133.76 96.0503C133.6 95.4003 133.84 94.8703 134.24 94.7903C134.64 94.7103 135.11 95.1703 135.24 95.7803Z" fill="#263238"/>
<path d="M127.62 97.23C127.76 97.85 127.54 98.41 127.14 98.5C126.74 98.59 126.3 98.15 126.14 97.5C125.98 96.85 126.22 96.32 126.62 96.24C127.02 96.16 127.49 96.62 127.62 97.23Z" fill="#263238"/>
<path d="M128.91 97.48C128.595 99.5059 127.999 101.478 127.14 103.34C127.617 103.543 128.131 103.64 128.649 103.626C129.166 103.613 129.675 103.488 130.14 103.26L128.91 97.48Z" fill="#ED847E"/>
<path d="M132.13 105.28C132.831 105.234 133.516 105.046 134.142 104.726C134.768 104.406 135.322 103.962 135.77 103.42C135.791 103.401 135.807 103.378 135.818 103.352C135.829 103.326 135.834 103.298 135.833 103.269C135.831 103.241 135.823 103.214 135.81 103.189C135.797 103.164 135.778 103.142 135.755 103.126C135.732 103.109 135.706 103.098 135.678 103.092C135.651 103.087 135.622 103.088 135.595 103.095C135.568 103.102 135.542 103.115 135.521 103.133C135.499 103.152 135.482 103.174 135.47 103.2C134.965 103.794 134.327 104.26 133.607 104.559C132.887 104.858 132.107 104.982 131.33 104.92C131.281 104.92 131.234 104.939 131.199 104.972C131.164 105.006 131.142 105.051 131.14 105.1C131.139 105.125 131.142 105.149 131.151 105.172C131.159 105.195 131.172 105.216 131.189 105.234C131.206 105.252 131.226 105.266 131.249 105.276C131.271 105.285 131.295 105.29 131.32 105.29C131.59 105.307 131.861 105.304 132.13 105.28Z" fill="#263238"/>
<path d="M135.34 92.3503C135.398 92.3302 135.449 92.2958 135.49 92.2503C135.556 92.1798 135.593 92.0868 135.593 91.9903C135.593 91.8937 135.556 91.8007 135.49 91.7303C135.053 91.3374 134.528 91.0544 133.959 90.9049C133.39 90.7553 132.794 90.7435 132.22 90.8703C132.128 90.8981 132.051 90.9607 132.004 91.0447C131.957 91.1286 131.945 91.2275 131.97 91.3203C131.998 91.4148 132.062 91.4948 132.148 91.5433C132.233 91.5918 132.335 91.6051 132.43 91.5803C132.886 91.4836 133.358 91.4976 133.807 91.6211C134.256 91.7447 134.668 91.9741 135.01 92.2903C135.056 92.3271 135.11 92.3519 135.168 92.3624C135.225 92.3728 135.285 92.3687 135.34 92.3503Z" fill="#263238"/>
<path d="M123.33 95.51C123.389 95.4961 123.444 95.4665 123.488 95.4243C123.532 95.382 123.564 95.3288 123.58 95.27C123.695 94.8157 123.919 94.3962 124.233 94.0478C124.547 93.6993 124.94 93.4324 125.38 93.27C125.427 93.2575 125.472 93.2354 125.51 93.2051C125.549 93.1748 125.581 93.137 125.604 93.0939C125.627 93.0508 125.642 93.0034 125.646 92.9546C125.651 92.9058 125.645 92.8566 125.63 92.81C125.602 92.7181 125.54 92.6406 125.456 92.5939C125.372 92.5473 125.273 92.5351 125.18 92.56C124.628 92.7503 124.13 93.0718 123.729 93.4968C123.329 93.9218 123.037 94.4376 122.88 95C122.858 95.0632 122.854 95.1311 122.869 95.1962C122.884 95.2613 122.916 95.3211 122.963 95.3688C123.01 95.4166 123.069 95.4504 123.134 95.4665C123.198 95.4826 123.266 95.4803 123.33 95.46V95.51Z" fill="#263238"/>
<path d="M211.73 329.92L219.22 323.57L210.24 308.05L201.95 314.68L211.73 329.92Z" fill="#FFC3BD"/>
<path d="M189 262.11C180.17 227.98 194.43 201.56 180.28 184.4L153.75 191.66C153.75 191.66 163.53 244.47 171.82 266.9C180.46 290.21 202 320 202 320L214.75 312.24C214.75 312.24 202.67 283.45 189 262.11Z" fill="#263238"/>
<path d="M217.52 322.1C218.067 321.914 218.658 321.898 219.215 322.053C219.771 322.208 220.268 322.528 220.64 322.97L226.44 329.54C226.56 329.686 226.648 329.855 226.701 330.036C226.753 330.217 226.768 330.407 226.745 330.594C226.721 330.781 226.66 330.961 226.565 331.124C226.469 331.287 226.342 331.428 226.19 331.54C222.68 334.08 223.31 333.26 219.88 335.66C215.88 338.47 215.63 339.87 210.25 342.21C207.06 343.6 205.32 341.96 205.91 340.56C208.66 334.06 208.91 330.47 210.31 328.81C210.31 328.81 205.94 327.39 206.53 324.81C207.12 322.23 211.87 319.17 213.75 320.21C214.403 320.491 214.959 320.958 215.35 321.551C215.741 322.145 215.95 322.84 215.95 323.55C216.27 322.885 216.831 322.366 217.52 322.1Z" fill="#263238"/>
<path d="M142.12 354.52C142.699 354.516 143.265 354.686 143.745 355.009C144.225 355.332 144.596 355.793 144.81 356.33L148.23 364.41C148.297 364.589 148.327 364.779 148.319 364.969C148.31 365.159 148.263 365.346 148.179 365.517C148.096 365.688 147.978 365.841 147.834 365.965C147.69 366.09 147.522 366.183 147.34 366.24C143.21 367.53 145.61 366.63 141.59 367.82C136.89 369.21 129.59 372.75 124.09 374.38C120.76 375.38 119.28 372.32 120.5 371.43C128.29 365.75 131.33 359.75 133.16 358.61C133.16 358.61 129.46 355.88 130.84 353.61C132.22 351.34 134.32 350.53 135.77 352.11C136.293 352.587 136.666 353.206 136.844 353.892C137.021 354.577 136.996 355.299 136.77 355.97C138.513 355.35 140.302 354.865 142.12 354.52Z" fill="#263238"/>
<path d="M202.73 322.4L216.13 314.31L214.2 309.54L199.11 318.33L202.73 322.4Z" fill="#DA2753"/>
<path d="M168.76 121.58C171.25 123.29 173.49 125.01 175.76 126.8C178.03 128.59 180.26 130.46 182.46 132.37C186.951 136.265 191.097 140.541 194.85 145.15C195.33 145.73 195.85 146.35 196.25 147C196.65 147.65 197.18 148.27 197.6 148.93L198.82 150.93L199.93 152.93C201.306 155.552 202.542 158.246 203.63 161C205.791 166.385 207.523 171.933 208.81 177.59C208.96 178.284 208.854 179.009 208.511 179.63C208.168 180.252 207.612 180.728 206.946 180.972C206.279 181.216 205.547 181.21 204.884 180.956C204.222 180.702 203.673 180.217 203.34 179.59V179.51C200.78 174.63 198.16 169.68 195.44 164.97C194.06 162.62 192.67 160.31 191.21 158.14C189.797 156.027 188.229 154.022 186.52 152.14C182.887 148.247 178.988 144.612 174.85 141.26C172.76 139.51 170.62 137.82 168.47 136.13C166.32 134.44 164.09 132.77 162 131.21L161.92 131.16C161.289 130.711 160.753 130.141 160.342 129.484C159.931 128.827 159.654 128.095 159.526 127.331C159.397 126.567 159.421 125.785 159.595 125.03C159.769 124.275 160.09 123.561 160.54 122.93C161.448 121.656 162.826 120.795 164.369 120.536C165.133 120.408 165.915 120.431 166.671 120.605C167.426 120.779 168.139 121.101 168.77 121.55L168.76 121.58Z" fill="#FFC3BD"/>
<path d="M166.2 118.44C173.72 118.57 181.89 130.34 181.89 130.34L174.59 143.9C168.794 141.958 163.698 138.351 159.94 133.53C153.61 125 157.09 118.29 166.2 118.44Z" fill="#DA2753"/>
<path d="M202.45 177L204.54 184.59L212.54 179.59C212.54 179.59 209.81 172.95 206.05 173.83L202.45 177Z" fill="#FFC3BD"/>
<path d="M211.62 188.66L214.14 186.45C214.627 186.023 214.946 185.436 215.041 184.796C215.136 184.155 215.001 183.501 214.66 182.95L212.57 179.61L204.57 184.61L207.76 188.41C207.997 188.681 208.285 188.902 208.607 189.061C208.929 189.22 209.28 189.314 209.638 189.337C209.997 189.36 210.357 189.312 210.697 189.196C211.037 189.08 211.351 188.898 211.62 188.66Z" fill="#FFC3BD"/>
<path d="M372.3 161.67C375.17 152.75 395.99 167.92 397.41 173.58C398.83 179.24 381.49 183.58 392.78 191.75C404.07 199.92 382.86 197.03 387.1 202.56C391.34 208.09 393.5 219.25 373.1 211.5C352.7 203.75 337.6 195.5 350.6 191.33C363.6 187.16 342.27 180.33 355.52 174.97C368.77 169.61 352.71 163.5 372.3 161.67Z" fill="#DA2753"/>
<path d="M388.37 222.39C389.51 226.32 390.84 230.44 392.24 234.39C392.96 236.39 393.71 238.27 394.51 240.13C394.94 241.04 395.35 241.97 395.8 242.83C396.01 243.28 396.24 243.7 396.47 244.1L396.82 244.72L396.91 244.88V244.96C396.667 244.755 396.379 244.611 396.07 244.54C395.852 244.452 395.608 244.452 395.39 244.54C395.898 244.446 396.374 244.222 396.77 243.89C398.307 242.772 399.724 241.499 401 240.09C403.8 237.09 406.54 233.71 409.13 230.35L409.19 230.28C409.562 229.801 410.096 229.475 410.692 229.361C411.288 229.248 411.905 229.357 412.426 229.666C412.948 229.975 413.339 230.464 413.525 231.041C413.712 231.619 413.682 232.244 413.44 232.8C411.631 237.009 409.411 241.029 406.81 244.8C405.411 246.869 403.77 248.762 401.92 250.44C400.67 251.571 399.194 252.423 397.59 252.94C396.314 253.333 394.953 253.364 393.66 253.03C392.295 252.648 391.07 251.881 390.13 250.82C389.91 250.59 389.76 250.38 389.58 250.16L389.4 249.9L389.26 249.71L388.73 248.94C388.37 248.42 388.04 247.94 387.73 247.39C387.06 246.39 386.51 245.32 385.94 244.27C384.86 242.18 383.88 240.08 383.01 237.95C381.26 233.725 379.813 229.381 378.68 224.95C378.377 223.687 378.577 222.356 379.238 221.238C379.899 220.121 380.969 219.304 382.221 218.961C383.474 218.618 384.811 218.776 385.949 219.401C387.087 220.026 387.937 221.069 388.32 222.31L388.37 222.39Z" fill="#FF8B7B"/>
<path d="M411.79 234.88L416.22 232.26L411.75 225.68C411.75 225.68 408.17 229.46 408.14 233.25L411.79 234.88Z" fill="#FF8B7B"/>
<path d="M417.93 224.86L417.73 224.66C417.222 224.057 416.5 223.673 415.715 223.59C414.931 223.506 414.144 223.728 413.52 224.21L411.75 225.68L416.22 232.26L418.12 230.47C418.815 229.69 419.182 228.672 419.147 227.627C419.111 226.583 418.676 225.592 417.93 224.86Z" fill="#FF8B7B"/>
<path d="M374 216.19C374.12 218.81 375.64 223.94 376.91 227.78C377.83 230.56 378.6 232.65 378.6 232.65L380.13 232.2L392.81 228.43C392.67 221.68 392.02 214.28 385.23 210.08C380.93 207.44 373.76 211.51 374 216.19Z" fill="#263238"/>
<path opacity="0.3" d="M376.88 227.78C377.8 230.56 378.57 232.65 378.57 232.65L380.1 232.2C380.21 229.56 380.18 225.37 379 223.32C377.979 224.636 377.256 226.158 376.88 227.78Z" fill="black"/>
<path d="M316.87 408.22L324.8 408.98L329.09 390.48L321.16 389.72L316.87 408.22Z" fill="#FF8B7B"/>
<path d="M260.55 386.33L267.16 390.99L279.56 377.02L272.95 372.37L260.55 386.33Z" fill="#FF8B7B"/>
<path d="M268.41 390.27L263.52 382.61C263.44 382.478 263.314 382.38 263.166 382.335C263.018 382.291 262.859 382.303 262.72 382.37L256.26 385.47C256.1 385.559 255.96 385.679 255.849 385.824C255.738 385.969 255.657 386.135 255.612 386.312C255.567 386.489 255.559 386.673 255.588 386.853C255.617 387.034 255.682 387.206 255.78 387.36C257.53 390.01 258.51 391.19 260.65 394.56C261.98 396.64 264.65 401.42 266.43 404.29C268.21 407.16 271.11 405.45 270.6 404.09C268.31 397.98 268.41 394.48 268.73 391.69C268.789 391.194 268.676 390.693 268.41 390.27Z" fill="#263238"/>
<path d="M325.89 406.58H316.34C316.17 406.583 316.006 406.642 315.872 406.746C315.739 406.851 315.643 406.996 315.6 407.16L313.74 414.71C313.695 414.892 313.693 415.081 313.733 415.264C313.774 415.447 313.856 415.617 313.973 415.763C314.09 415.909 314.238 416.026 314.408 416.106C314.577 416.185 314.763 416.224 314.95 416.22C318.31 416.22 319.95 415.99 324.11 415.99C326.69 415.99 333.37 416.24 336.94 416.24C340.51 416.24 341.06 412.71 339.61 412.39C333.09 410.96 329.31 408.98 327.26 407.1C326.885 406.76 326.396 406.574 325.89 406.58Z" fill="#263238"/>
<path opacity="0.2" d="M329.08 390.48L326.69 400.82L318.77 400.02L321.15 389.72L329.08 390.48Z" fill="black"/>
<path opacity="0.2" d="M272.94 372.37L279.56 377.02L273.16 384.22L266.55 379.56L272.94 372.37Z" fill="black"/>
<path d="M334.12 239.76L363.61 253.91C389.77 214.14 387.01 211.45 387.01 211.45C387.01 211.45 382.45 207.92 377.63 204.83C376.9 204.37 376.16 203.91 375.43 203.47C371.128 200.999 366.657 198.837 362.05 197C361.37 196.71 360.69 196.44 360.05 196.17C356.376 194.775 352.623 193.599 348.81 192.65C347.66 198.51 346.62 203.45 345.62 207.73C344.32 213.31 343.09 217.73 341.86 221.57C339.769 227.83 337.181 233.913 334.12 239.76Z" fill="#263238"/>
<path opacity="0.3" d="M341.83 221.61C345.26 217.77 349.22 208.33 348.92 204.54L345.59 207.77C344.29 213.35 343.06 217.8 341.83 221.61Z" fill="black"/>
<path d="M368.26 188.74C366.81 192.5 364.74 196.12 362.04 197.04C362.04 197.04 358.83 204.92 369.13 213.75C379.98 208.19 375.43 203.47 375.43 203.47C371.14 200 372.49 196.73 376.19 191.97L373 188.65C372.795 188.186 372.458 187.794 372.031 187.521C371.604 187.249 371.106 187.109 370.6 187.118C370.093 187.128 369.601 187.287 369.185 187.575C368.768 187.864 368.446 188.269 368.26 188.74Z" fill="#FF8B7B"/>
<path opacity="0.2" d="M373 188.65C372.811 188.208 372.502 187.827 372.108 187.552C371.713 187.277 371.25 187.117 370.77 187.092C370.289 187.067 369.812 187.178 369.391 187.411C368.97 187.643 368.623 187.99 368.39 188.41C368.943 191.825 370.532 194.987 372.94 197.47C373.665 195.454 374.757 193.59 376.16 191.97L373 188.65Z" fill="black"/>
<path d="M366 174.72C365.65 182.78 365.33 186.18 368.86 190.79C374.17 197.72 383.95 196.6 386.66 188.86C389.1 181.86 389.28 169.86 381.93 165.73C380.331 164.8 378.518 164.304 376.668 164.292C374.819 164.28 372.999 164.752 371.389 165.661C369.778 166.569 368.434 167.884 367.488 169.473C366.543 171.062 366.03 172.871 366 174.72Z" fill="#FF8B7B"/>
<path d="M389.34 176.67C389.356 176.673 389.373 176.673 389.39 176.67C389.444 176.583 389.463 176.478 389.443 176.378C389.422 176.277 389.364 176.189 389.28 176.13C388.798 175.77 388.235 175.534 387.641 175.442C387.046 175.349 386.438 175.404 385.87 175.6C385.774 175.64 385.699 175.716 385.659 175.811C385.62 175.907 385.62 176.014 385.66 176.11C385.7 176.205 385.776 176.281 385.871 176.321C385.967 176.36 386.074 176.36 386.17 176.32C386.622 176.169 387.105 176.131 387.576 176.209C388.047 176.287 388.491 176.48 388.87 176.77C388.947 176.814 389.037 176.828 389.124 176.81C389.211 176.791 389.288 176.742 389.34 176.67Z" fill="#263238"/>
<path d="M370.3 167.23C376.51 176.17 368.23 173.23 369.76 178.23C370.76 181.6 363.09 188.72 361.01 182.72C358.93 176.72 360.18 166 370.3 167.23Z" fill="#DA2753"/>
<path d="M367.78 167.17C368.9 175.56 376.61 166.72 379.19 171.17C381.77 175.62 394.53 173.03 390.83 167.87C387.13 162.71 372.6 158.18 367.78 167.17Z" fill="#DA2753"/>
<path d="M363.08 181.49C363.303 183.173 364.17 184.704 365.5 185.76C367.26 187.14 368.94 185.76 369.11 183.64C369.26 181.73 368.53 178.72 366.44 178.17C364.35 177.62 362.82 179.42 363.08 181.49Z" fill="#FF8B7B"/>
<path d="M363.61 253.91C363.61 253.91 355.31 294.04 349.14 324.91C344.23 349.45 329.66 396.28 329.66 396.28L318 395.12C318 395.12 321.72 339.67 332.36 323.5C332.17 287.5 327.43 252.4 340.02 242.37L363.61 253.91Z" fill="#DA2753"/>
<path d="M316.34 391.56L331.67 393.45L330.35 398.63L315.99 397.08L316.34 391.56Z" fill="#263238"/>
<path opacity="0.3" d="M342.94 273.47L331.94 262.91C330.63 275.38 331.51 291.68 332 308.98C338.81 297.07 343.86 284.11 342.94 273.47Z" fill="black"/>
<path d="M357.13 250.91C357.13 250.91 334.68 290.19 323.13 319.36C321.734 322.941 320.024 326.391 318.02 329.67C304.02 352.29 277.33 381.76 277.33 381.76L268.8 374.63C268.8 374.63 295.32 324.79 305.93 313.49C313.17 279.02 318.71 248.49 334.09 239.76L357.13 250.91Z" fill="#DA2753"/>
<path d="M277.06 384.45L266 375.89L268.64 370.98L280.78 380.96L277.06 384.45Z" fill="#263238"/>
<path d="M334.46 237.79L331.94 239.79C331.75 239.94 331.89 240.27 332.24 240.44L363.16 255.29C363.43 255.41 363.7 255.39 363.8 255.23L365.25 252.68C365.36 252.51 365.19 252.24 364.9 252.1L335 237.8C334.917 237.756 334.825 237.733 334.731 237.731C334.637 237.729 334.544 237.75 334.46 237.79Z" fill="#DA2753"/>
<path opacity="0.2" d="M334.46 237.79L331.94 239.79C331.75 239.94 331.89 240.27 332.24 240.44L363.16 255.29C363.43 255.41 363.7 255.39 363.8 255.23L365.25 252.68C365.36 252.51 365.19 252.24 364.9 252.1L335 237.8C334.917 237.756 334.825 237.733 334.731 237.731C334.637 237.729 334.544 237.75 334.46 237.79Z" fill="black"/>
<path d="M337 243.1L336.2 242.71C336.04 242.64 335.95 242.5 336.01 242.4L337.93 239.11C337.99 239.01 338.17 239 338.32 239.11L339.12 239.5C339.28 239.57 339.37 239.72 339.31 239.81L337.39 243.1C337.336 243.147 337.266 243.172 337.195 243.172C337.123 243.172 337.054 243.147 337 243.1Z" fill="#DA2753"/>
<path d="M360.78 254.54L359.98 254.15C359.82 254.08 359.74 253.93 359.8 253.84L361.72 250.55C361.78 250.45 361.95 250.44 362.11 250.55L362.91 250.94C363.07 251.01 363.15 251.15 363.1 251.25L361.17 254.54C361.12 254.6 360.94 254.61 360.78 254.54Z" fill="#DA2753"/>
<path d="M348.87 248.82L348.07 248.43C347.92 248.36 347.83 248.22 347.89 248.12L349.81 244.83C349.87 244.73 350.04 244.72 350.2 244.83L351 245.22C351.16 245.29 351.25 245.43 351.19 245.53L349.27 248.82C349.21 248.88 349 248.89 348.87 248.82Z" fill="#DA2753"/>
<path d="M377.32 178.48C377.25 179.13 377.53 179.7 377.95 179.76C378.37 179.82 378.76 179.33 378.83 178.68C378.9 178.03 378.61 177.45 378.2 177.4C377.79 177.35 377.39 177.83 377.32 178.48Z" fill="#263238"/>
<path d="M384.54 179.41C384.47 180.06 384.75 180.63 385.17 180.69C385.59 180.75 385.98 180.26 386.05 179.6C386.12 178.94 385.84 178.38 385.42 178.33C385 178.28 384.61 178.76 384.54 179.41Z" fill="#263238"/>
<path d="M385.23 178.34L386.81 178.09C386.81 178.09 385.9 179.21 385.23 178.34Z" fill="#263238"/>
<path d="M377.75 183.55C377.436 183.549 377.124 183.509 376.82 183.43C376.216 183.27 375.656 182.974 375.183 182.565C374.71 182.156 374.336 181.645 374.09 181.07C373.536 179.79 373.419 178.363 373.759 177.011C374.099 175.658 374.876 174.456 375.97 173.59C376.454 173.191 377.024 172.91 377.636 172.772C378.248 172.634 378.884 172.642 379.492 172.794C380.1 172.947 380.664 173.241 381.138 173.652C381.612 174.063 381.983 174.579 382.22 175.16C382.8 176.433 382.917 177.87 382.55 179.22L382.32 179.16L382.55 179.22C382.235 180.583 381.453 181.792 380.34 182.64C379.598 183.215 378.689 183.534 377.75 183.55ZM378.56 173.15C377.723 173.166 376.914 173.45 376.25 173.96C375.241 174.76 374.524 175.871 374.209 177.12C373.895 178.369 374 179.687 374.51 180.87C374.718 181.388 375.046 181.849 375.466 182.216C375.886 182.583 376.388 182.846 376.929 182.982C377.47 183.119 378.036 183.125 378.58 183.002C379.124 182.878 379.631 182.627 380.06 182.27C381.069 181.47 381.786 180.359 382.101 179.11C382.416 177.861 382.31 176.543 381.8 175.36C381.581 174.849 381.25 174.394 380.831 174.029C380.412 173.664 379.916 173.397 379.38 173.25C379.112 173.182 378.836 173.149 378.56 173.15Z" fill="white"/>
<path d="M386.5 184.85C386.281 184.849 386.063 184.822 385.85 184.77C383.85 184.26 382.85 181.47 383.54 178.54C384.23 175.61 386.54 173.63 388.54 174.13C390.54 174.63 391.54 177.43 390.84 180.37C390.527 181.695 389.832 182.898 388.84 183.83C388.213 184.448 387.379 184.812 386.5 184.85ZM387.87 174.52C386.26 174.52 384.6 176.24 384 178.65C383.32 181.33 384.2 183.87 386 184.31C386.463 184.399 386.942 184.369 387.391 184.224C387.84 184.079 388.246 183.823 388.57 183.48C389.489 182.609 390.129 181.485 390.41 180.25C391.08 177.57 390.2 175.03 388.41 174.59C388.234 174.542 388.052 174.519 387.87 174.52Z" fill="white"/>
<path d="M383.73 179C383.692 179.002 383.655 178.994 383.621 178.976C383.588 178.959 383.56 178.932 383.54 178.9C383.27 178.55 382.54 178.78 382.54 178.78C382.511 178.79 382.48 178.794 382.45 178.792C382.42 178.79 382.39 178.782 382.362 178.769C382.335 178.755 382.31 178.737 382.29 178.714C382.27 178.691 382.255 178.664 382.245 178.635C382.235 178.606 382.231 178.576 382.233 178.545C382.235 178.515 382.243 178.485 382.256 178.458C382.27 178.43 382.288 178.406 382.311 178.386C382.334 178.365 382.361 178.35 382.39 178.34C382.39 178.34 383.46 177.99 383.93 178.62C383.972 178.665 383.996 178.724 383.996 178.785C383.996 178.847 383.972 178.906 383.93 178.95C383.871 178.99 383.8 179.008 383.73 179Z" fill="white"/>
<path d="M383.05 180.27C383.462 181.826 384.081 183.319 384.89 184.71C384.537 184.907 384.145 185.023 383.742 185.049C383.339 185.075 382.935 185.01 382.56 184.86L383.05 180.27Z" fill="#FF5652"/>
<path d="M379.94 187.15C379.977 187.138 380.009 187.115 380.034 187.085C380.059 187.055 380.074 187.019 380.08 186.98C380.083 186.93 380.067 186.881 380.036 186.842C380.004 186.803 379.959 186.778 379.91 186.77C379.103 186.679 378.329 186.401 377.648 185.959C376.968 185.516 376.4 184.921 375.99 184.22C375.982 184.193 375.969 184.167 375.951 184.146C375.932 184.124 375.909 184.107 375.883 184.095C375.857 184.084 375.829 184.078 375.801 184.079C375.772 184.08 375.744 184.087 375.719 184.1C375.694 184.113 375.672 184.132 375.655 184.154C375.638 184.177 375.626 184.203 375.62 184.231C375.614 184.259 375.615 184.288 375.622 184.315C375.629 184.343 375.642 184.368 375.66 184.39C376.089 185.154 376.696 185.803 377.428 186.283C378.161 186.764 378.998 187.061 379.87 187.15H379.94Z" fill="#263238"/>
<path d="M376.87 175.9C376.931 175.883 376.987 175.848 377.03 175.8C377.344 175.445 377.738 175.169 378.179 174.995C378.621 174.821 379.097 174.754 379.57 174.8C379.618 174.81 379.669 174.811 379.717 174.801C379.766 174.791 379.812 174.772 379.853 174.744C379.894 174.716 379.929 174.68 379.956 174.638C379.983 174.596 380.001 174.549 380.01 174.5C380.028 174.398 380.005 174.294 379.947 174.208C379.89 174.122 379.801 174.062 379.7 174.04C379.107 173.959 378.503 174.026 377.941 174.233C377.38 174.441 376.878 174.783 376.48 175.23C376.422 175.293 376.387 175.372 376.379 175.456C376.371 175.54 376.39 175.625 376.434 175.697C376.478 175.769 376.544 175.825 376.623 175.857C376.701 175.888 376.788 175.893 376.87 175.87V175.9Z" fill="#263238"/>
<path d="M269.79 394.42H269.91C270.088 394.461 270.274 394.454 270.449 394.402C270.625 394.349 270.783 394.252 270.91 394.12C270.999 394.045 271.068 393.949 271.11 393.841C271.151 393.733 271.165 393.615 271.15 393.5C270.99 392.5 268.37 391.28 268.07 391.14C268.035 391.125 267.996 391.121 267.959 391.128C267.921 391.135 267.887 391.153 267.86 391.18C267.833 391.207 267.815 391.242 267.808 391.279C267.8 391.317 267.805 391.355 267.82 391.39C268.17 392.4 268.88 394.05 269.79 394.42ZM268.34 391.73C269.34 392.24 270.7 393.06 270.79 393.6C270.796 393.652 270.788 393.704 270.767 393.752C270.746 393.799 270.712 393.84 270.67 393.87C270.588 393.96 270.484 394.027 270.368 394.064C270.252 394.101 270.129 394.107 270.01 394.08C269.48 393.94 268.87 393.08 268.34 391.73Z" fill="#DA2753"/>
<path d="M268.11 391.62C269.01 391.98 270.96 392.17 271.57 391.56C271.674 391.449 271.74 391.307 271.756 391.155C271.772 391.003 271.738 390.851 271.66 390.72C271.598 390.588 271.507 390.471 271.395 390.378C271.282 390.285 271.151 390.217 271.01 390.18C269.9 389.86 268.01 391.18 267.9 391.18C267.873 391.199 267.851 391.225 267.837 391.254C267.823 391.284 267.817 391.317 267.82 391.35C267.82 391.383 267.83 391.416 267.847 391.444C267.865 391.472 267.89 391.495 267.92 391.51L268.11 391.62ZM270.99 390.57C271.137 390.629 271.256 390.744 271.32 390.89C271.43 391.11 271.37 391.22 271.32 391.28C270.93 391.68 269.32 391.64 268.44 391.33C269.164 390.808 270.037 390.534 270.93 390.55L270.99 390.57Z" fill="#DA2753"/>
<path d="M330.17 408.15C330.818 408.199 331.464 408.046 332.02 407.71C332.162 407.602 332.277 407.463 332.357 407.303C332.436 407.144 332.479 406.968 332.48 406.79C332.488 406.688 332.469 406.585 332.423 406.494C332.377 406.402 332.307 406.324 332.22 406.27C331.34 405.69 328.13 407.16 327.5 407.46C327.464 407.478 327.435 407.508 327.418 407.544C327.4 407.58 327.393 407.62 327.4 407.66C327.405 407.699 327.423 407.735 327.45 407.764C327.477 407.792 327.512 407.812 327.55 407.82C328.409 408.023 329.287 408.134 330.17 408.15ZM331.64 406.51C331.772 406.497 331.904 406.525 332.02 406.59C332.02 406.59 332.1 406.66 332.1 406.77C332.101 406.893 332.072 407.014 332.017 407.124C331.961 407.233 331.88 407.328 331.78 407.4C331.23 407.83 329.92 407.88 328.2 407.57C329.285 407.04 330.445 406.682 331.64 406.51Z" fill="#DA2753"/>
<path d="M327.59 407.83H327.66C328.73 407.39 330.85 405.65 330.66 404.75C330.66 404.55 330.49 404.3 330 404.24C328.09 404.02 327.39 407.47 327.36 407.61C327.351 407.644 327.352 407.68 327.363 407.714C327.373 407.747 327.393 407.777 327.42 407.8C327.444 407.817 327.472 407.828 327.502 407.833C327.531 407.839 327.561 407.837 327.59 407.83ZM329.87 404.6H330C330.2 404.6 330.31 404.66 330.33 404.78C330.41 405.3 328.95 406.68 327.87 407.28C328.1 406.45 328.73 404.6 329.87 404.6Z" fill="#DA2753"/>
<path d="M378 177.41L379.58 177.16C379.58 177.16 378.68 178.28 378 177.41Z" fill="#263238"/>
<path d="M348.64 206.34C346.72 208.06 344.81 209.56 342.84 211.11C340.87 212.66 338.84 214.11 336.76 215.51C334.652 216.953 332.473 218.288 330.23 219.51C327.781 220.918 325.163 222.01 322.44 222.76L322.2 222.82C321.609 222.965 320.991 222.965 320.4 222.82C318.37 222.304 316.417 221.524 314.59 220.5C312.941 219.602 311.351 218.6 309.83 217.5C308.35 216.414 306.933 215.27 305.58 214.07C304.23 212.84 302.95 211.64 301.69 210.25C301.303 209.815 301.08 209.258 301.06 208.677C301.04 208.095 301.223 207.524 301.579 207.063C301.934 206.602 302.44 206.279 303.008 206.151C303.576 206.023 304.171 206.097 304.69 206.36H304.78C306.23 207.14 307.73 208 309.22 208.76C310.71 209.52 312.22 210.3 313.68 211C315.14 211.7 316.68 212.34 318.07 212.87C319.359 213.374 320.701 213.73 322.07 213.93L320.07 214.01C321.95 213.27 323.75 212.338 325.44 211.23C327.32 210.04 329.21 208.72 331.08 207.36C332.95 206 334.81 204.56 336.66 203.11C338.51 201.66 340.36 200.11 342.12 198.72H342.17C343.185 197.909 344.475 197.525 345.768 197.649C347.061 197.773 348.256 198.396 349.098 199.385C349.94 200.374 350.364 201.652 350.281 202.948C350.197 204.245 349.612 205.458 348.65 206.33L348.64 206.34Z" fill="#FF8B7B"/>
<path d="M306.11 208.64L303.47 202.64L298.28 207C298.28 207 301.13 211.19 304.34 211.9L306.11 208.64Z" fill="#FF8B7B"/>
<path d="M301.08 198.51L299.16 200.29C298.614 200.798 298.204 201.435 297.968 202.143C297.732 202.851 297.678 203.606 297.81 204.34L298.28 207.02L303.47 202.61L301.08 198.51Z" fill="#FF8B7B"/>
<path d="M348.77 192.69C344.82 191.95 335.83 200.82 335.83 200.82L342.34 214.51C342.34 214.51 353.94 207.51 353.89 202.51C353.85 198 353.82 193.64 348.77 192.69Z" fill="#263238"/>
<path d="M297.38 188.69C296.265 188.691 295.161 188.471 294.132 188.044C293.102 187.616 292.167 186.99 291.38 186.2C280.406 175.231 265.526 169.07 250.01 169.07C234.494 169.07 219.614 175.231 208.64 186.2C207.02 187.64 204.91 188.406 202.744 188.343C200.577 188.279 198.516 187.39 196.983 185.857C195.45 184.324 194.561 182.263 194.497 180.096C194.434 177.93 195.2 175.82 196.64 174.2C210.802 160.044 230.006 152.091 250.03 152.091C270.054 152.091 289.258 160.044 303.42 174.2C304.608 175.388 305.417 176.902 305.746 178.549C306.074 180.197 305.906 181.905 305.264 183.458C304.622 185.011 303.534 186.338 302.138 187.273C300.742 188.208 299.1 188.708 297.42 188.71L297.38 188.69Z" fill="#DA2753"/>
<path opacity="0.4" d="M297.38 188.69C296.265 188.691 295.161 188.471 294.132 188.044C293.102 187.616 292.167 186.99 291.38 186.2C280.406 175.231 265.526 169.07 250.01 169.07C234.494 169.07 219.614 175.231 208.64 186.2C207.02 187.64 204.91 188.406 202.744 188.343C200.577 188.279 198.516 187.39 196.983 185.857C195.45 184.324 194.561 182.263 194.497 180.096C194.434 177.93 195.2 175.82 196.64 174.2C210.802 160.044 230.006 152.091 250.03 152.091C270.054 152.091 289.258 160.044 303.42 174.2C304.608 175.388 305.417 176.902 305.746 178.549C306.074 180.197 305.906 181.905 305.264 183.458C304.622 185.011 303.534 186.338 302.138 187.273C300.742 188.208 299.1 188.708 297.42 188.71L297.38 188.69Z" fill="white"/>
<path d="M303.39 281C304.83 279.38 305.597 277.271 305.533 275.104C305.469 272.937 304.58 270.876 303.047 269.343C301.514 267.811 299.454 266.921 297.287 266.857C295.12 266.794 293.011 267.56 291.39 269C280.375 279.762 265.561 285.746 250.162 285.656C234.762 285.567 220.019 279.409 209.13 268.52C198.241 257.631 192.084 242.888 191.994 227.489C191.904 212.09 197.889 197.276 208.65 186.26C210.09 184.64 210.857 182.531 210.793 180.364C210.729 178.197 209.84 176.136 208.307 174.603C206.774 173.071 204.714 172.181 202.547 172.117C200.38 172.054 198.271 172.82 196.65 174.26C186.602 184.306 179.592 196.983 176.428 210.834C173.263 224.686 174.072 239.149 178.761 252.562C183.45 265.974 191.829 277.791 202.935 286.653C214.04 295.516 227.422 301.064 241.54 302.66V331.82H224.33C222.076 331.82 219.914 332.716 218.32 334.31C216.726 335.904 215.83 338.066 215.83 340.32C215.83 342.575 216.726 344.737 218.32 346.331C219.914 347.925 222.076 348.82 224.33 348.82H241.5V365.9C241.5 368.155 242.396 370.317 243.99 371.911C245.584 373.505 247.746 374.4 250 374.4C252.255 374.4 254.417 373.505 256.011 371.911C257.605 370.317 258.5 368.155 258.5 365.9V348.74H275.67C277.925 348.74 280.087 347.845 281.681 346.251C283.275 344.657 284.17 342.495 284.17 340.24C284.17 337.986 283.275 335.824 281.681 334.23C280.087 332.636 277.925 331.74 275.67 331.74H258.5V302.58C275.485 300.711 291.322 293.097 303.39 281Z" fill="#DA2753"/>
<path d="M360.13 126.64C360.135 126.573 360.135 126.507 360.13 126.44C360.13 126.19 360.13 125.93 360.13 125.68C360.13 125.43 360.13 125.48 360.13 125.38C360.13 125.28 360.13 124.9 360.06 124.67C360.065 124.587 360.065 124.503 360.06 124.42C359.951 123.781 359.766 123.156 359.51 122.56L359.42 122.38C359.32 122.142 359.203 121.912 359.07 121.69C359.07 121.61 358.98 121.54 358.93 121.46C358.806 121.248 358.669 121.045 358.52 120.85L358.36 120.64C358.163 120.377 357.945 120.13 357.71 119.9C357.481 119.667 357.238 119.45 356.98 119.25L356.76 119.09C356.56 118.94 356.36 118.81 356.16 118.68L355.91 118.53C355.696 118.408 355.476 118.298 355.25 118.2L355.04 118.1C354.451 117.843 353.833 117.659 353.2 117.55H352.92C352.7 117.55 352.47 117.49 352.24 117.48H351.92C351.68 117.48 351.43 117.48 351.19 117.48H350.96C350.624 117.505 350.29 117.552 349.96 117.62L299.71 128.19C297.504 128.654 295.572 129.976 294.34 131.864C293.108 133.753 292.676 136.053 293.14 138.26C293.604 140.467 294.926 142.398 296.815 143.631C298.703 144.863 301.004 145.294 303.21 144.83L325.48 140.14L291.41 174.21C291.002 174.619 290.637 175.068 290.32 175.55C290.162 175.781 290.018 176.021 289.89 176.27C289.631 176.757 289.424 177.27 289.27 177.8C289.115 178.326 289.008 178.865 288.95 179.41C288.95 179.683 288.95 179.953 288.95 180.22C288.95 180.5 288.95 180.77 288.95 181.04C289.142 183.003 290.011 184.839 291.41 186.23C302.362 197.213 308.512 212.09 308.512 227.6C308.512 243.11 302.362 257.987 291.41 268.97C290.544 269.739 289.845 270.678 289.355 271.727C288.865 272.777 288.594 273.916 288.56 275.073C288.526 276.231 288.729 277.384 289.157 278.46C289.584 279.537 290.227 280.515 291.046 281.334C291.865 282.153 292.843 282.796 293.92 283.224C294.996 283.651 296.149 283.854 297.307 283.82C298.465 283.786 299.603 283.515 300.653 283.025C301.702 282.535 302.641 281.836 303.41 280.97C316.504 267.838 324.316 250.353 325.359 231.838C326.403 213.323 320.606 195.07 309.07 180.55L337.48 152.14L332.79 174.41C332.331 176.616 332.765 178.914 333.996 180.802C335.227 182.689 337.156 184.012 339.36 184.48C339.939 184.599 340.529 184.659 341.12 184.66C343.069 184.658 344.959 183.987 346.471 182.758C347.984 181.529 349.029 179.817 349.43 177.91L360 127.65C360.064 127.316 360.108 126.979 360.13 126.64Z" fill="#DA2753"/>
<path opacity="0.4" d="M360.13 126.64C360.135 126.573 360.135 126.507 360.13 126.44C360.13 126.19 360.13 125.93 360.13 125.68C360.13 125.43 360.13 125.48 360.13 125.38C360.13 125.28 360.13 124.9 360.06 124.67C360.065 124.587 360.065 124.503 360.06 124.42C359.951 123.781 359.766 123.156 359.51 122.56L359.42 122.38C359.32 122.142 359.203 121.912 359.07 121.69C359.07 121.61 358.98 121.54 358.93 121.46C358.806 121.248 358.669 121.045 358.52 120.85L358.36 120.64C358.163 120.377 357.945 120.13 357.71 119.9C357.481 119.667 357.238 119.45 356.98 119.25L356.76 119.09C356.56 118.94 356.36 118.81 356.16 118.68L355.91 118.53C355.696 118.408 355.476 118.298 355.25 118.2L355.04 118.1C354.451 117.843 353.833 117.659 353.2 117.55H352.92C352.7 117.55 352.47 117.49 352.24 117.48H351.92C351.68 117.48 351.43 117.48 351.19 117.48H350.96C350.624 117.505 350.29 117.552 349.96 117.62L299.71 128.19C297.504 128.654 295.572 129.976 294.34 131.864C293.108 133.753 292.676 136.053 293.14 138.26C293.604 140.467 294.926 142.398 296.815 143.631C298.703 144.863 301.004 145.294 303.21 144.83L325.48 140.14L291.41 174.21C291.002 174.619 290.637 175.068 290.32 175.55C290.162 175.781 290.018 176.021 289.89 176.27C289.631 176.757 289.424 177.27 289.27 177.8C289.115 178.326 289.008 178.865 288.95 179.41C288.95 179.683 288.95 179.953 288.95 180.22C288.95 180.5 288.95 180.77 288.95 181.04C289.142 183.003 290.011 184.839 291.41 186.23C302.362 197.213 308.512 212.09 308.512 227.6C308.512 243.11 302.362 257.987 291.41 268.97C290.544 269.739 289.845 270.678 289.355 271.727C288.865 272.777 288.594 273.916 288.56 275.073C288.526 276.231 288.729 277.384 289.157 278.46C289.584 279.537 290.227 280.515 291.046 281.334C291.865 282.153 292.843 282.796 293.92 283.224C294.996 283.651 296.149 283.854 297.307 283.82C298.465 283.786 299.603 283.515 300.653 283.025C301.702 282.535 302.641 281.836 303.41 280.97C316.504 267.838 324.316 250.353 325.359 231.838C326.403 213.323 320.606 195.07 309.07 180.55L337.48 152.14L332.79 174.41C332.331 176.616 332.765 178.914 333.996 180.802C335.227 182.689 337.156 184.012 339.36 184.48C339.939 184.599 340.529 184.659 341.12 184.66C343.069 184.658 344.959 183.987 346.471 182.758C347.984 181.529 349.029 179.817 349.43 177.91L360 127.65C360.064 127.316 360.108 126.979 360.13 126.64Z" fill="white"/>
</svg>
