<svg width="463" height="396" viewBox="0 0 463 396" fill="none" xmlns="http://www.w3.org/2000/svg">
<g clip-path="url(#clip0)">
<path d="M328.536 92.5573H326.396V33.9312C326.396 29.4753 325.518 25.063 323.813 20.9463C322.108 16.8296 319.609 13.089 316.458 9.93824C313.307 6.78743 309.566 4.28808 305.45 2.58287C301.333 0.877665 296.921 3.51411e-06 292.465 0H168.257C163.802 -1.0542e-05 159.389 0.877637 155.273 2.58283C151.156 4.28802 147.415 6.78737 144.264 9.93816C141.114 13.089 138.614 16.8295 136.909 20.9462C135.204 25.0629 134.326 29.4752 134.326 33.9311V355.558C134.326 364.558 137.901 373.188 144.264 379.551C150.628 385.915 159.258 389.49 168.257 389.49H292.465C301.464 389.49 310.094 385.915 316.458 379.552C322.821 373.188 326.396 364.558 326.396 355.559V134.288H328.536L328.536 92.5573Z" fill="#3F3D56"/>
<path d="M293.834 8.82766H277.621C278.367 10.6556 278.651 12.6389 278.45 14.6028C278.249 16.5667 277.567 18.4509 276.466 20.0894C275.365 21.728 273.878 23.0705 272.135 23.9989C270.393 24.9273 268.449 25.4129 266.475 25.4131H195.318C193.344 25.4129 191.4 24.9273 189.658 23.9989C187.916 23.0706 186.428 21.728 185.327 20.0894C184.226 18.4509 183.545 16.5667 183.343 14.6028C183.142 12.6389 183.426 10.6556 184.172 8.82764H169.029C162.308 8.82763 155.863 11.4973 151.111 16.2494C146.359 21.0014 143.689 27.4466 143.689 34.167V355.322C143.689 358.65 144.345 361.945 145.618 365.02C146.892 368.094 148.758 370.887 151.111 373.24C153.464 375.593 156.258 377.46 159.332 378.733C162.406 380.007 165.701 380.662 169.029 380.662H293.834C297.162 380.662 300.457 380.007 303.531 378.733C306.606 377.46 309.399 375.593 311.752 373.24C314.105 370.887 315.972 368.094 317.245 365.02C318.518 361.945 319.174 358.65 319.174 355.323V34.1671C319.174 30.8394 318.518 27.5444 317.245 24.4701C315.972 21.3958 314.105 18.6024 311.752 16.2494C309.399 13.8964 306.606 12.0299 303.531 10.7565C300.457 9.48307 297.162 8.82765 293.834 8.82766Z" fill="white"/>
<path d="M447.791 165.389C445.168 173.156 441.145 180.233 432.947 180.233C424.749 180.233 418.565 173.574 418.103 165.389C417.513 154.93 424.56 150.501 432.947 150.545C442.855 150.596 450.904 156.171 447.791 165.389Z" fill="#2F2E41"/>
<path d="M447.402 165.055H418.104V202.164H447.402V165.055Z" fill="#2F2E41"/>
<path d="M448.261 192.702H450.753C452.595 195.327 453.846 198.319 454.419 201.474C454.993 204.629 454.876 207.871 454.076 210.976C451.307 221.497 453.522 223.435 453.522 223.435C453.522 223.435 457.127 234.829 453.25 251.995C449.374 269.162 456.845 273.827 456.845 273.827L449.923 259.983L446.046 223.435L448.261 192.702Z" fill="#E6E6E6"/>
<path d="M439.539 179.273C439.539 179.273 437.324 188.133 438.432 188.133C439.539 188.133 443.416 192.84 443.416 192.84L445.908 201.977L443.969 208.622L437.324 207.237L429.018 198.1L426.526 195.609L424.311 187.579C424.311 187.579 427.08 184.257 425.142 181.488C423.204 178.719 439.539 179.273 439.539 179.273Z" fill="#FBBEBE"/>
<path d="M372.535 203.915L366.444 193.947C366.444 193.947 359.868 179.399 355.161 184.66C350.455 189.92 362.29 200.593 362.29 200.593L368.382 208.622L372.535 203.915Z" fill="#FBBEBE"/>
<path d="M453.383 290.578L448.953 322.973C448.953 322.973 449.507 325.464 443.969 334.601C438.432 343.738 423.48 363.674 423.48 363.674L419.05 355.367C419.05 355.367 424.311 329.064 433.448 323.526L432.34 283.656L453.383 290.578Z" fill="#FBBEBE"/>
<path d="M419.05 352.045L425.142 363.674C425.142 363.674 420.158 370.671 422.096 372.055C424.034 373.44 426.526 385.899 421.265 384.515C416.005 383.13 411.851 377.593 411.851 376.762C411.851 375.932 414.897 371.426 413.236 368.658C411.575 365.889 410.467 365.058 410.467 365.058L407.152 369.466L405.768 368.635L411.851 359.521C411.851 359.521 412.682 357.306 416.005 355.921L419.05 352.045Z" fill="#2F2E41"/>
<path d="M432.405 285.982C432.405 285.982 434.556 316.604 429.849 324.634V364.504L423.481 365.335C423.481 365.335 410.62 344.226 415.327 323.461C420.034 302.695 410.467 283.656 410.467 283.656L432.405 285.982Z" fill="#FBBEBE"/>
<path d="M430.818 186.056C437.241 186.056 442.447 180.85 442.447 174.427C442.447 168.005 437.241 162.798 430.818 162.798C424.396 162.798 419.189 168.005 419.189 174.427C419.189 180.85 424.396 186.056 430.818 186.056Z" fill="#FBBEBE"/>
<path d="M442.586 205.023L430.957 190.349L424.312 185.918L421.543 189.518L413.791 191.733C413.791 191.733 408.807 192.84 403.546 198.932C398.285 205.023 388.872 208.622 388.872 208.622C388.872 208.622 371.982 203.085 371.982 201.977C371.982 200.87 363.953 209.453 365.891 212.776C367.829 216.098 377.066 226.249 390.634 224.311C404.201 222.373 409.361 220.528 409.361 220.528C409.361 220.528 411.853 233.265 419.051 235.757C426.25 238.248 449.785 239.91 449.785 239.91L454.769 223.297C454.769 223.297 460.306 216.098 452.831 205.577C452.831 205.577 452.687 199.693 451.883 195.777C451.571 194.254 451.158 193.029 450.616 192.564C448.677 190.902 438.433 188.133 438.433 188.133C438.433 188.133 440.094 193.671 440.925 193.948C441.755 194.225 443.693 203.639 442.586 205.023Z" fill="#E6E6E6"/>
<path d="M407.022 319.936C420.965 318.967 429.083 321.252 432.705 322.993C433.378 323.298 435.89 323.937 435.89 324.042C435.89 324.873 454.11 326.96 461.032 325.299C467.954 323.638 454.63 255.829 451.584 252.783C448.538 249.738 450.18 238.59 450.18 238.59C450.18 238.59 422.235 234.786 419.743 234.232C418.63 233.986 418.068 234.401 417.788 234.938C417.353 235.744 416.696 236.408 415.895 236.852C410.016 240.238 405.298 263.651 401.746 276.595C397.87 290.716 407.022 319.936 407.022 319.936Z" fill="#2F2E41"/>
<path d="M430.957 362.012C430.957 362.012 434.213 373.909 436.217 383.332C436.217 383.332 437.602 386.602 442.585 389.094C447.569 391.586 441.74 395.724 437.033 395.447C432.326 395.171 427.896 395.724 427.342 394.34C426.788 392.956 425.142 386.931 425.142 386.931L424.233 395.265L421.464 395.542L422.373 384.716C422.373 384.716 420.158 380.563 423.204 373.641L422.435 363.016C422.435 363.016 430.126 364.781 430.957 362.012Z" fill="#2F2E41"/>
<path opacity="0.1" d="M431.029 290.728C431.702 291.032 432.336 291.417 432.917 291.874C433.064 289.257 433.911 273.434 432.895 273.689L431.029 290.728Z" fill="black"/>
<path d="M426.004 158.414C426.004 158.414 425.875 157.697 420.839 159.586C415.802 161.474 412.783 175.413 415.301 183.598C416.316 186.896 415.49 189.274 414.143 190.938C409.086 197.183 411.077 206.561 418.442 209.772C418.65 209.863 418.862 209.952 419.079 210.041L422.227 211.93C422.227 211.93 418.214 206.65 420.222 199.895C421.966 194.14 422.181 188.03 420.847 182.166C420.616 181.177 420.355 180.158 420.057 179.117C417.539 170.303 418.764 171.321 427.578 162.506C427.578 162.506 432.615 166.284 437.022 168.173C441.429 170.061 445.207 171.95 442.059 178.246C438.911 184.542 431.356 190.209 436.393 198.393C441.429 206.578 442.059 203.43 441.429 206.578L440.8 209.726L444.577 205.949L442.059 210.985C442.059 210.985 450.244 210.985 452.762 204.689L454.021 205.949C454.021 205.949 459.058 197.134 449.614 188.949C449.614 188.949 446.466 187.061 450.873 180.765C455.281 174.469 451.896 160.932 446.229 158.414C440.563 155.895 426.004 158.414 426.004 158.414Z" fill="#2F2E41"/>
<path d="M34.334 174.072L33.8696 186.047L43.1831 186.408L43.6475 174.434L34.334 174.072Z" fill="#FF6366"/>
<path d="M76.3467 216.01C76.3467 216.01 89.2444 209.847 89.038 215.169C88.8316 220.491 76.0371 223.993 76.0371 223.993L76.3467 216.01Z" fill="#FFB9B9"/>
<path d="M69.2705 261.04C69.2705 261.04 75.3554 275.934 77.6037 286.681C79.8519 297.428 83.2759 312.218 78.8716 322.708C74.4674 333.197 61.9457 364.025 61.8167 367.351C61.6877 370.678 62.8892 374.055 60.2282 373.952C57.5672 373.849 43.0865 369.29 42.4986 367.268C41.9108 365.247 47.4392 360.131 47.4392 360.131L61.0905 317.354L46.8474 289.486L36.5739 331.061L34.5618 382.951C34.5618 382.951 24.6862 379.903 23.2525 382.512C23.2525 382.512 18.8279 376.344 18.2659 373.657C17.7038 370.971 20.3554 319.772 20.3554 319.772C20.3554 319.772 11.2905 261.457 18.6083 261.741C25.926 262.024 54.5889 244.481 69.2705 261.04Z" fill="#2F2E41"/>
<path d="M60.3313 371.291C60.3313 371.291 67.0815 386.211 67.721 386.902C68.3604 387.593 72.7592 394.426 69.433 394.297C66.1067 394.168 58.2527 390.532 52.4718 384.978C46.6909 379.424 39.0691 369.801 39.7602 369.161C40.4512 368.522 45.1853 366.707 45.1853 366.707L60.3313 371.291Z" fill="#2F2E41"/>
<path d="M33.3603 379.573C33.3603 379.573 33.7676 386.251 34.9949 388.964C36.2222 391.677 36.0674 395.668 32.7412 395.539C29.4149 395.41 20.8183 395.42 20.8183 395.42C20.8183 395.42 20.3078 391.403 20.9988 390.764C21.6899 390.124 24.6346 381.233 23.3815 379.186C22.1284 377.139 33.3603 379.573 33.3603 379.573Z" fill="#2F2E41"/>
<path d="M28.4397 162.851C28.4397 162.851 21.3486 173.902 18.5845 176.46C15.8203 179.017 23.5969 184.649 23.5969 184.649L37.5155 186.521C37.5155 186.521 37.3404 173.856 38.0573 172.551C38.7741 171.246 28.4397 162.851 28.4397 162.851Z" fill="#FFB9B9"/>
<path d="M40.5376 177.312C40.5376 177.312 37.6703 182.53 35.0093 182.427C32.3483 182.324 18.5844 176.46 17.9965 174.439C17.4087 172.417 13.4375 188.919 13.4375 188.919L47.1167 248.189L55.3319 242.512L51.3513 207.712L48.0821 188.93L40.5376 177.312Z" fill="white"/>
<path d="M16.7544 230.355C18.1455 233.057 18.8548 236.058 18.8206 239.097C18.8154 239.23 18.8102 239.363 18.7984 239.496C18.4797 245.653 16.2115 252.774 15.3977 257.952C14.8073 261.667 14.9753 264.378 17.1492 265.016C22.4196 266.553 16.3808 267.651 36.7714 274.438C57.1619 281.225 60.7204 275.367 60.772 274.036C60.8236 272.706 57.8843 262.598 58.5753 261.958C59.2663 261.319 68.2445 270.328 70.9571 269.101C73.6697 267.874 71.2666 261.118 71.2666 261.118C71.2666 261.118 65.1559 246.89 65.2849 243.564C65.4138 240.237 56.0285 224.55 56.0285 224.55L49.6449 182.995C49.6449 182.995 47.1902 177.569 43.8897 176.775C41.8106 176.343 39.6448 176.737 37.8509 177.873L43.3738 190.08L49.2008 211.626L48.226 219.583C48.226 219.583 41.45 205.329 36.9996 199.827C32.5492 194.324 23.0607 181.297 23.0607 181.297C23.0607 181.297 20.8454 173.823 22.5177 171.589C24.1903 169.349 15.542 169.013 11.8546 178.198C9.90027 183.066 6.72728 190.325 4.73959 197.083C2.96836 203.071 2.13167 208.668 3.88646 211.868C6.56844 216.755 13.3149 223.18 16.7544 230.355Z" fill="#3F3D56"/>
<path opacity="0.1" d="M3.88645 211.867C6.56845 216.755 13.315 223.179 16.7544 230.355C17.6527 227.118 18.7486 223.769 18.7486 223.769C18.7486 223.769 22.952 201.28 10.5186 195.468C8.4585 195.269 6.39808 195.844 4.73958 197.083C2.96835 203.07 2.13169 208.667 3.88645 211.867Z" fill="black"/>
<path d="M53.2439 210.451L63.7847 213.524L78.4202 214.092L79.9258 226.809L55.8736 228.541C55.8736 228.541 49.8661 211.652 53.2439 210.451Z" fill="#3F3D56"/>
<path d="M36.0553 253.209C36.0553 253.209 50.1568 255.549 46.9383 259.793C43.7197 264.036 31.2275 259.575 31.2275 259.575L36.0553 253.209Z" fill="#FFB9B9"/>
<path opacity="0.1" d="M18.7986 239.495C18.4799 245.652 16.2117 252.773 15.3979 257.952C19.8902 262.203 24.162 265.953 25.7719 266.016C29.0981 266.145 34.4459 265.686 36.4159 266.429C38.3858 267.171 39.5412 254.557 39.5412 254.557C39.5412 254.557 38.3655 250.514 33.1209 248.312C29.5809 246.822 22.7953 242.781 18.7986 239.495Z" fill="black"/>
<path d="M10.6733 191.477C10.6733 191.477 -0.584396 189.707 0.0237836 208.386C0.631964 227.065 -1.16289 238.988 3.36489 242.494C7.89266 246.001 22.6001 261.895 25.9263 262.024C29.2526 262.153 34.6004 261.694 36.5703 262.437C38.5403 263.18 39.6957 250.566 39.6957 250.566C39.6957 250.566 38.52 246.523 33.2753 244.321C28.0307 242.118 15.6748 234.31 15.7779 231.649C15.8811 228.988 18.9033 219.778 18.9033 219.778C18.9033 219.778 23.1066 197.289 10.6733 191.477Z" fill="#3F3D56"/>
<path d="M38.3667 179.215C46.4557 179.215 53.0132 172.657 53.0132 164.568C53.0132 156.479 46.4557 149.922 38.3667 149.922C30.2777 149.922 23.7202 156.479 23.7202 164.568C23.7202 172.657 30.2777 179.215 38.3667 179.215Z" fill="#FFB9B9"/>
<path d="M48.2286 143.576C48.5819 143.88 49.005 144.092 49.4601 144.194C49.6886 144.234 49.924 144.183 50.1148 144.051C50.3056 143.919 50.4363 143.716 50.4785 143.488C50.7418 144.219 51.2313 144.847 51.8759 145.28C52.56 145.637 53.618 145.338 53.7166 144.573C53.8165 145.154 54.0735 145.696 54.4598 146.142C54.6612 146.355 54.9385 146.48 55.2315 146.489C55.5245 146.499 55.8095 146.393 56.0247 146.194C55.7251 147.831 55.91 149.515 55.8159 151.177C55.7218 152.839 55.2786 154.601 54.023 155.694C52.1919 157.288 49.4383 156.894 47.0295 156.592C46.6652 156.516 46.2873 156.536 45.9335 156.652C45.0316 157.036 45.0725 158.292 45.0604 159.272C44.9868 160.992 44.3061 162.631 43.139 163.896C41.972 165.162 40.3942 165.973 38.6858 166.185C37.7297 166.333 36.7542 166.095 35.9736 165.523C35.2897 164.944 34.9403 163.999 34.1566 163.563C32.8819 162.855 31.3358 163.888 30.4038 165.01C29.4718 166.132 28.5533 167.511 27.1094 167.717C25.1999 167.988 23.7455 166.042 23.0319 164.25C22.0475 161.739 21.5758 159.056 21.6448 156.359C21.7138 153.662 22.322 151.007 23.4335 148.549C27.4208 139.857 41.041 138.483 48.2286 143.576Z" fill="#2F2E41"/>
<path d="M90.8618 207.902C95.6586 202.499 103.698 202.903 109.905 205.325C117.587 208.322 123.145 214.99 129.348 220.137C132.539 222.878 136.122 225.127 139.977 226.81C143.822 228.408 147.905 229.357 152.061 229.618C160.148 230.162 168.187 227.996 174.907 223.463C181.206 219.17 186.063 213.076 188.842 205.978C189.178 205.112 189.476 204.233 189.743 203.343C190.041 202.351 188.491 201.928 188.195 202.916C185.99 210.135 181.566 216.474 175.55 221.033C169.148 225.864 161.279 228.349 153.263 228.071C149.135 227.935 145.06 227.097 141.214 225.591C137.342 223.998 133.749 221.798 130.57 219.073C124.342 213.92 118.805 207.367 111.223 204.142C105.074 201.526 97.1438 200.729 91.5498 205.061C90.8903 205.572 90.2799 206.143 89.7265 206.767C89.0426 207.537 90.1741 208.677 90.8618 207.902H90.8618Z" fill="#2F2E41"/>
<path d="M350.753 179.172C349.746 172.508 343.887 168.138 337.827 166.199C329.785 163.626 321.437 165.576 313.339 166.816C308.98 167.484 304.559 167.924 300.158 167.418C294.395 166.722 288.888 164.633 284.113 161.331C279.339 158.03 275.44 153.615 272.754 148.469C269.135 141.305 268.011 133.138 269.559 125.263C269.759 124.275 270.004 123.298 270.287 122.331C270.335 122.128 270.303 121.915 270.197 121.736C270.091 121.556 269.919 121.425 269.719 121.37C269.518 121.314 269.303 121.339 269.121 121.439C268.938 121.538 268.801 121.705 268.738 121.904C266.509 129.681 266.852 137.971 269.718 145.537C272.527 152.92 277.655 159.192 284.331 163.414C291.104 167.691 299.063 169.701 307.054 169.152C311.702 168.846 316.276 167.912 320.876 167.23C324.962 166.624 329.205 166.149 333.317 166.786C339.446 167.736 346.436 170.985 348.631 177.252C348.895 178.014 349.087 178.8 349.204 179.598C349.358 180.617 350.906 180.184 350.753 179.172V179.172Z" fill="#2F2E41"/>
<path d="M231.431 283.445C229.791 281.805 227.844 280.504 225.701 279.617C223.559 278.729 221.262 278.273 218.943 278.273C216.624 278.273 214.328 278.729 212.185 279.617C210.042 280.504 208.096 281.805 206.456 283.445C204.816 285.085 203.515 287.032 202.627 289.174C201.74 291.317 201.283 293.613 201.283 295.933C201.283 298.252 201.74 300.548 202.627 302.691C203.515 304.833 204.816 306.78 206.456 308.42L231.431 333.395L256.405 308.42C258.046 306.78 259.348 304.833 260.236 302.691C261.124 300.548 261.582 298.251 261.582 295.931C261.582 293.612 261.126 291.315 260.238 289.172C259.351 287.029 258.05 285.081 256.41 283.441C254.769 281.801 252.822 280.5 250.679 279.612C248.536 278.725 246.239 278.268 243.919 278.269C241.6 278.269 239.303 278.726 237.16 279.614C235.017 280.503 233.07 281.804 231.431 283.445Z" fill="#FF6366"/>
<path d="M365.568 81.0591H211.709V111.436H365.568V81.0591Z" fill="#E6E6E6"/>
<path d="M214.989 108.156H362.289V84.3394H214.989V108.156Z" fill="white"/>
<path d="M227.884 105.124C232.896 105.124 236.958 101.062 236.958 96.0503C236.958 91.039 232.896 86.9766 227.884 86.9766C222.873 86.9766 218.811 91.039 218.811 96.0503C218.811 101.062 222.873 105.124 227.884 105.124Z" fill="#FF6366"/>
<path d="M339.136 92.5H249.583V94.4725H339.136V92.5Z" fill="#E6E6E6"/>
<path d="M339.136 97.6289H249.583V99.6015H339.136V97.6289Z" fill="#E6E6E6"/>
<path d="M268.167 160.266H114.308V190.643H268.167V160.266Z" fill="#E6E6E6"/>
<path d="M117.588 187.362H264.887V163.545H117.588V187.362Z" fill="white"/>
<path d="M130.483 184.33C135.494 184.33 139.557 180.268 139.557 175.256C139.557 170.245 135.494 166.183 130.483 166.183C125.472 166.183 121.409 170.245 121.409 175.256C121.409 180.268 125.472 184.33 130.483 184.33Z" fill="#FF6366"/>
<path d="M241.735 171.706H152.181V173.678H241.735V171.706Z" fill="#E6E6E6"/>
<path d="M241.735 176.834H152.181V178.807H241.735V176.834Z" fill="#E6E6E6"/>
</g>
<defs>
<clipPath id="clip0">
<rect width="463" height="395.542" fill="white"/>
</clipPath>
</defs>
</svg>
