<svg width="80" height="120" viewBox="0 0 80 120" fill="none" xmlns="http://www.w3.org/2000/svg">
<rect width="79.3701" height="120" rx="16" fill="#FF6366"/>
<path fill-rule="evenodd" clip-rule="evenodd" d="M32.885 51.1816C32.9912 51.0376 33.1095 50.8597 33.2591 50.6216C33.3145 50.5334 33.4641 50.2909 33.5749 50.1116L33.7006 49.9073C34.9412 47.9142 35.8421 47 37.4689 47H44.9516V49.9396H37.4689C37.3387 49.9396 36.9316 50.3541 36.2537 51.4418L36.1445 51.6182C36.0322 51.8004 35.8691 52.065 35.8062 52.1649C35.6222 52.4574 35.4695 52.6882 35.3154 52.8984C34.6434 53.8141 33.973 54.3491 32.9793 54.3491H28.4896C27.6635 54.3491 26.9931 55.0076 26.9931 55.8189V69.0472C26.9931 69.8586 27.6635 70.5171 28.4896 70.5171H52.4343C53.2604 70.5171 53.9309 69.8586 53.9309 69.0472V60.2283H56.9239V69.0472C56.9239 71.4827 54.9141 73.4567 52.4343 73.4567H28.4896C26.0099 73.4567 24 71.4827 24 69.0472V55.8189C24 53.3834 26.0099 51.4094 28.4896 51.4094H32.7039C32.7533 51.3536 32.8146 51.2772 32.885 51.1816ZM47.9447 54.3491V51.4094H50.9378V48.4698H53.9309V51.4094H56.9239V54.3491H53.9309V57.2887H50.9378V54.3491H47.9447ZM40.462 69.0472C36.33 69.0472 32.9793 65.7563 32.9793 61.6982C32.9793 57.64 36.33 54.3491 40.462 54.3491C44.5939 54.3491 47.9447 57.64 47.9447 61.6982C47.9447 65.7563 44.5939 69.0472 40.462 69.0472ZM40.462 66.1076C42.9417 66.1076 44.9516 64.1336 44.9516 61.6982C44.9516 59.2627 42.9417 57.2887 40.462 57.2887C37.9822 57.2887 35.9723 59.2627 35.9723 61.6982C35.9723 64.1336 37.9822 66.1076 40.462 66.1076Z" fill="white"/>
</svg>
