<svg width="500" height="500" viewBox="0 0 500 500" fill="none" xmlns="http://www.w3.org/2000/svg">
<path d="M500 382.4H0V382.65H500V382.4Z" fill="#EBEBEB"/>
<path d="M315.67 389.21H290.21V389.46H315.67V389.21Z" fill="#EBEBEB"/>
<path d="M455.44 394.62H395.11V394.87H455.44V394.62Z" fill="#EBEBEB"/>
<path d="M284.79 389.33H222.46V389.58H284.79V389.33Z" fill="#EBEBEB"/>
<path d="M182.04 396.81H169V397.06H182.04V396.81Z" fill="#EBEBEB"/>
<path d="M254.09 396.81H194.71V397.06H254.09V396.81Z" fill="#EBEBEB"/>
<path d="M90.91 392.59H52.46V392.84H90.91V392.59Z" fill="#EBEBEB"/>
<path d="M237 337.8H43.91C42.3973 337.797 40.9475 337.195 39.8788 336.124C38.8102 335.053 38.21 333.603 38.21 332.09V60.66C38.2231 59.156 38.8292 57.718 39.8964 56.6582C40.9637 55.5985 42.4059 55.0026 43.91 55H237C238.514 55 239.967 55.6016 241.038 56.6724C242.108 57.7433 242.71 59.1956 242.71 60.71V332.09C242.71 333.604 242.108 335.057 241.038 336.128C239.967 337.198 238.514 337.8 237 337.8ZM43.91 55.2C42.4636 55.2026 41.0774 55.7791 40.0556 56.8027C39.0338 57.8264 38.46 59.2136 38.46 60.66V332.09C38.46 333.536 39.0338 334.924 40.0556 335.947C41.0774 336.971 42.4636 337.547 43.91 337.55H237C238.447 337.547 239.834 336.971 240.858 335.948C241.881 334.924 242.457 333.537 242.46 332.09V60.66C242.457 59.2127 241.881 57.8255 240.858 56.8021C239.834 55.7787 238.447 55.2026 237 55.2H43.91Z" fill="#EBEBEB"/>
<path d="M453.31 337.8H260.21C258.696 337.797 257.246 337.195 256.175 336.125C255.105 335.054 254.503 333.604 254.5 332.09V60.66C254.516 59.1551 255.124 57.7171 256.193 56.6576C257.262 55.5981 258.705 55.0025 260.21 55H453.31C454.812 55.0052 456.252 55.6022 457.317 56.6617C458.382 57.7212 458.987 59.1578 459 60.66V332.09C459 333.601 458.401 335.05 457.335 336.121C456.268 337.191 454.821 337.795 453.31 337.8ZM260.21 55.2C258.763 55.2026 257.375 55.7787 256.352 56.8021C255.329 57.8255 254.753 59.2127 254.75 60.66V332.09C254.753 333.537 255.329 334.924 256.352 335.948C257.375 336.971 258.763 337.547 260.21 337.55H453.31C454.757 337.547 456.145 336.971 457.168 335.948C458.191 334.924 458.767 333.537 458.77 332.09V60.66C458.767 59.2127 458.191 57.8255 457.168 56.8021C456.145 55.7787 454.757 55.2026 453.31 55.2H260.21Z" fill="#EBEBEB"/>
<path d="M253.42 375.54H282.52V267.27H253.42V375.54Z" fill="#F0F0F0"/>
<path d="M77.8901 382.4H273.14V375.54H77.8901V382.4Z" fill="#F0F0F0"/>
<path d="M253.42 267.27H68.52V375.54H253.42V267.27Z" fill="#F5F5F5"/>
<path d="M234.22 280.6H87.7202V316.11H234.22V280.6Z" fill="#F0F0F0"/>
<path d="M234.22 326.7H87.7202V362.21H234.22V326.7Z" fill="#F0F0F0"/>
<path d="M139.01 317.29H182.93C184.117 317.29 185.08 316.327 185.08 315.14V314.57C185.08 313.383 184.117 312.42 182.93 312.42H139.01C137.823 312.42 136.86 313.383 136.86 314.57V315.14C136.86 316.327 137.823 317.29 139.01 317.29Z" fill="#F5F5F5"/>
<path d="M139.01 363.39H182.93C184.117 363.39 185.08 362.428 185.08 361.24V360.67C185.08 359.483 184.117 358.52 182.93 358.52H139.01C137.823 358.52 136.86 359.483 136.86 360.67V361.24C136.86 362.428 137.823 363.39 139.01 363.39Z" fill="#F5F5F5"/>
<path d="M314.22 382.4H422.49L433.24 123.73H324.97L314.22 382.4Z" fill="#E6E6E6"/>
<path d="M302.94 382.4H420.49L431.24 123.73H313.69L302.94 382.4Z" fill="#F5F5F5"/>
<path d="M411.87 373.4L421.87 132.73H322.31L312.31 373.4H411.87Z" fill="white"/>
<path d="M161.37 262.32C160.08 225.88 158.76 176.16 161.56 158.04L166.18 154.47C166.18 154.47 165.18 157.89 164.64 213.88C164.14 266.16 163.53 256.88 163.91 262.16C163.924 262.335 163.901 262.512 163.844 262.678C163.786 262.845 163.695 262.997 163.576 263.127C163.457 263.256 163.312 263.36 163.151 263.431C162.99 263.502 162.816 263.539 162.64 263.54C162.311 263.543 161.994 263.417 161.757 263.189C161.519 262.961 161.381 262.649 161.37 262.32Z" fill="#E6E6E6"/>
<path d="M152.82 142.48C144.29 130.91 126.32 122.69 107.72 122.73C100.42 122.73 122.6 150.26 137.39 163.38C148.39 173.14 160.44 181.91 163.72 192.67C162.15 170 161.36 154.05 152.82 142.48Z" fill="#E6E6E6"/>
<path d="M169.94 172.62C177.78 160.62 195.24 151.31 213.81 150.27C221.1 149.86 205.53 176.36 188.5 188.95C176.67 197.68 164.65 212.44 162 223.37C162.25 200.68 162.1 184.67 169.94 172.62Z" fill="#E6E6E6"/>
<path d="M166.45 123.18C173.58 109.12 190.25 95.57 208.38 90.06C215.5 87.9 206.87 113.22 185.38 134.85C174.07 146.24 163.01 164.68 160.91 176.36C160.18 153.38 159.31 137.23 166.45 123.18Z" fill="#E6E6E6"/>
<path d="M144.68 238.19L146.11 266.07C146.13 266.394 146.273 266.698 146.509 266.92C146.744 267.143 147.056 267.268 147.38 267.27H178.89C179.215 267.268 179.526 267.143 179.762 266.92C179.998 266.698 180.14 266.394 180.16 266.07L181.59 238.19H144.68Z" fill="#F0F0F0"/>
<path d="M183.98 244.1H142.29L141.09 233.28H185.18L183.98 244.1Z" fill="#F0F0F0"/>
<path d="M250 427.56C357.082 427.56 443.89 422.492 443.89 416.24C443.89 409.988 357.082 404.92 250 404.92C142.917 404.92 56.1099 409.988 56.1099 416.24C56.1099 422.492 142.917 427.56 250 427.56Z" fill="#F5F5F5"/>
<path d="M303 131.33C296.25 135.44 293.17 142.92 287.5 150.67C281.83 158.42 279 158.29 279 158.29C279 158.29 294.21 171.5 314.94 167.58C335.67 163.66 332.88 141.58 322.73 135.08C321.21 128.92 309.55 127.33 303 131.33Z" fill="#263238"/>
<path d="M292.33 184.17C292.23 185.55 292.11 186.73 291.94 187.99C291.77 189.25 291.6 190.46 291.4 191.68C290.99 194.14 290.4 196.56 289.86 198.98C288.68 203.857 287.043 208.611 284.97 213.18L284.57 214.04L284.38 214.47L284.12 214.98C283.785 215.642 283.411 216.283 283 216.9C282.216 218.019 281.351 219.079 280.41 220.07C278.656 221.917 276.771 223.635 274.77 225.21C270.893 228.254 266.773 230.973 262.45 233.34L260.15 229.89C261.92 228.39 263.73 226.83 265.46 225.26C267.19 223.69 268.91 222.09 270.52 220.45C272.117 218.87 273.623 217.201 275.03 215.45C275.666 214.637 276.25 213.786 276.78 212.9C276.91 212.69 277.02 212.49 277.12 212.29C277.223 212.099 277.313 211.902 277.39 211.7L277.52 211.4L277.67 211L277.98 210.21C278.8 208.11 279.49 205.94 280.15 203.75C280.81 201.56 281.35 199.34 281.84 197.09C282.33 194.84 282.74 192.58 283.12 190.31C283.5 188.04 283.8 185.7 284.03 183.58L292.33 184.17Z" fill="#FFB573"/>
<path d="M286.64 174.16C283.26 175.01 280.9 188.9 280.9 188.9L290.2 195.22C290.2 195.22 299.11 181.22 296.52 177.51C293.82 173.64 291.56 172.9 286.64 174.16Z" fill="#F71D1D"/>
<path opacity="0.2" d="M286.94 177.26L284.35 191.25L289.57 194.8L286.94 177.26Z" fill="black"/>
<path d="M258.32 229.75L252 232.21L259.13 236.51C259.13 236.51 263.68 233.88 263.57 230.51L262.86 230.11C262.177 229.717 261.416 229.481 260.631 229.419C259.845 229.356 259.056 229.47 258.32 229.75Z" fill="#FFB573"/>
<path d="M248.08 236.87L253.45 241.33L259.14 236.51L252.01 232.21L248.08 236.87Z" fill="#FFB573"/>
<path d="M312.93 407.88H304.75L301.39 388.92H309.58L312.93 407.88Z" fill="#FFB573"/>
<path d="M304.11 406.93H313.31C313.468 406.926 313.623 406.982 313.743 407.085C313.863 407.189 313.94 407.333 313.96 407.49L315.01 414.77C315.03 414.954 315.01 415.139 314.953 415.315C314.896 415.49 314.803 415.651 314.679 415.788C314.556 415.925 314.405 416.034 314.236 416.109C314.067 416.183 313.884 416.221 313.7 416.22C310.49 416.17 308.95 415.98 304.9 415.98C302.41 415.98 295.27 416.24 291.83 416.24C288.39 416.24 288.21 412.84 289.64 412.53C296.06 411.15 300.58 409.25 302.74 407.43C303.126 407.111 303.609 406.935 304.11 406.93Z" fill="#263238"/>
<g opacity="0.2">
<path opacity="0.2" d="M301.39 388.92L303.12 398.7H311.31L309.59 388.92H301.39Z" fill="black"/>
</g>
<path d="M286.64 174.16C286.64 174.16 282.74 175.53 290.55 223.57H323.8C323.24 210.04 323.12 201.68 329.59 173.91C324.976 172.948 320.296 172.33 315.59 172.06C310.567 171.7 305.524 171.7 300.5 172.06C294 172.65 286.64 174.16 286.64 174.16Z" fill="#F71D1D"/>
<path d="M314.08 155.06C313.13 159.91 312.18 168.82 315.57 172.06C315.57 172.06 314.25 176.99 305.22 176.99C295.29 176.99 300.48 172.06 300.48 172.06C305.89 170.76 305.75 166.74 304.81 162.97L314.08 155.06Z" fill="#FFB573"/>
<path d="M315.57 172.06C310.543 171.7 305.497 171.7 300.47 172.06L299.47 172.16C298.26 174.44 297.96 177.95 300.84 183.16C300.84 183.16 314.09 177.82 317.54 172.24C316.9 172.14 316.24 172.09 315.57 172.06Z" fill="#FFB573"/>
<path opacity="0.2" d="M310.3 158.29L304.81 163C305.048 163.877 305.205 164.774 305.28 165.68C307.35 165.38 310.19 163.11 310.41 160.94C310.539 160.058 310.501 159.159 310.3 158.29Z" fill="black"/>
<path d="M319.32 146.64C317.47 154.55 316.85 157.94 312.11 161.35C304.99 166.49 295.68 162.49 295.11 154.18C294.61 146.71 297.73 135.02 306.11 133.18C307.953 132.765 309.871 132.827 311.683 133.361C313.495 133.894 315.141 134.882 316.464 136.23C317.787 137.579 318.744 139.243 319.244 141.064C319.744 142.886 319.77 144.805 319.32 146.64Z" fill="#FFB573"/>
<path d="M316.05 139.5C313.18 141.7 314.43 149.67 317.99 152.11C323.55 150.78 324.6 132.94 316.05 139.5Z" fill="#263238"/>
<path d="M317 132C316.83 128.22 318.33 121.28 327.61 127.5C336.89 133.72 326 137.5 321.56 136.61C317.12 135.72 317 132 317 132Z" fill="#263238"/>
<path d="M306 131.61C302.78 132.17 298.71 136.94 297.85 138.89C302.67 138 315.95 142.11 315.95 142.11C315.95 142.11 321.89 141.44 318.56 136.86C315.23 132.28 306 131.61 306 131.61Z" fill="#263238"/>
<path d="M290.55 223.57C290.55 223.57 284.09 286.64 284.63 311.57C285.19 337.57 301.34 396.76 301.34 396.76H312.41C312.41 396.76 304 339.09 305 313.59C306.07 285.78 314.9 223.59 314.9 223.59L290.55 223.57Z" fill="#F71D1D"/>
<path opacity="0.3" d="M290.55 223.57C290.55 223.57 284.09 286.64 284.63 311.57C285.19 337.57 301.34 396.76 301.34 396.76H312.41C312.41 396.76 304 339.09 305 313.59C306.07 285.78 314.9 223.59 314.9 223.59L290.55 223.57Z" fill="black"/>
<path d="M313.37 397.2H300.38L299.43 393.06L313.97 392.55L313.37 397.2Z" fill="#263238"/>
<path opacity="0.2" d="M304.89 239.26C296.72 255.69 303.25 285.66 306.14 296.81C307.62 280.07 310.14 259.59 312.06 244.56C310.83 236.06 308.66 231.69 304.89 239.26Z" fill="black"/>
<path d="M384.28 334.65L381.52 342.36L362.65 338.8L365.41 331.09L384.28 334.65Z" fill="#FFB573"/>
<path d="M379.29 342.61L379.93 333.43C379.944 333.266 380.011 333.111 380.121 332.988C380.232 332.866 380.378 332.782 380.54 332.75L387.94 331.27C388.115 331.231 388.297 331.234 388.47 331.279C388.644 331.324 388.804 331.41 388.938 331.529C389.071 331.648 389.175 331.798 389.24 331.965C389.305 332.132 389.329 332.312 389.31 332.49C389.03 335.69 388.74 337.24 388.45 341.28C388.28 343.76 388.04 350.88 387.8 354.28C387.56 357.68 384.13 358.1 383.92 356.69C382.98 350.37 381.38 345.97 379.7 343.92C379.406 343.549 379.26 343.082 379.29 342.61Z" fill="#263238"/>
<g opacity="0.2">
<path opacity="0.2" d="M362.66 338.8L372.38 340.63L375.14 332.92L365.42 331.09L362.66 338.8Z" fill="black"/>
</g>
<path d="M299.75 223.57C299.75 223.57 308.82 288.65 314.98 313.14C321.39 338.61 369.14 340.78 369.14 340.78L374 330.84C374 330.84 346.12 323.42 334.09 306.66C328.88 279.22 324.09 223.57 324.09 223.57H299.75Z" fill="#F71D1D"/>
<path opacity="0.3" d="M299.75 223.57C299.75 223.57 308.82 288.65 314.98 313.14C321.39 338.61 369.14 340.78 369.14 340.78L374 330.84C374 330.84 346.12 323.42 334.09 306.66C328.88 279.22 324.09 223.57 324.09 223.57H299.75Z" fill="black"/>
<path d="M374.56 329.91L370.3 342.18L365.89 342.23L370.17 328.38L374.56 329.91Z" fill="#263238"/>
<path d="M380.52 345.59C380.521 346.309 380.293 347.009 379.87 347.59C379.746 347.73 379.591 347.839 379.418 347.909C379.244 347.978 379.056 348.006 378.87 347.99C378.769 347.995 378.669 347.97 378.582 347.918C378.495 347.867 378.425 347.791 378.38 347.7C377.9 346.7 379.8 343.37 380.02 342.99C380.042 342.954 380.073 342.925 380.11 342.906C380.147 342.887 380.188 342.878 380.23 342.88C380.268 342.882 380.303 342.897 380.331 342.923C380.358 342.948 380.376 342.983 380.38 343.02C380.507 343.87 380.554 344.731 380.52 345.59ZM378.71 347.14C378.681 347.258 378.681 347.382 378.71 347.5C378.731 347.538 378.761 347.569 378.798 347.59C378.835 347.611 378.877 347.622 378.92 347.62C379.039 347.625 379.158 347.605 379.268 347.56C379.379 347.515 379.478 347.447 379.56 347.36C380.04 346.83 380.21 345.49 380.04 343.69C379.419 344.763 378.97 345.927 378.71 347.14Z" fill="#F71D1D"/>
<path d="M380.4 343.07C380.406 343.096 380.406 343.124 380.4 343.15C379.89 344.15 377.97 346.15 377.05 346.09C376.83 346.09 376.57 345.93 376.55 345.39C376.545 344.988 376.691 344.599 376.96 344.3C377.89 343.522 379.026 343.032 380.23 342.89C380.261 342.885 380.292 342.889 380.32 342.901C380.349 342.914 380.373 342.934 380.39 342.96C380.401 342.976 380.408 342.994 380.41 343.014C380.412 343.033 380.408 343.053 380.4 343.07ZM376.93 345.22C376.924 345.257 376.924 345.294 376.93 345.33C376.93 345.68 377.09 345.7 377.13 345.7C377.69 345.76 379.18 344.37 379.85 343.34C378.886 343.485 377.981 343.897 377.24 344.53C377.058 344.716 376.948 344.961 376.93 345.22Z" fill="#F71D1D"/>
<path d="M305.41 146.59C305.3 147.24 304.86 147.71 304.41 147.59C303.96 147.47 303.73 146.93 303.84 146.28C303.95 145.63 304.38 145.16 304.84 145.23C305.3 145.3 305.52 145.94 305.41 146.59Z" fill="#263238"/>
<path d="M298.05 145.34C297.94 145.99 297.51 146.46 297.05 146.34C296.59 146.22 296.37 145.69 296.48 145.03C296.59 144.37 297.03 143.91 297.48 144.03C297.93 144.15 298.16 144.69 298.05 145.34Z" fill="#263238"/>
<path d="M297.66 144.1L296.18 143.38C296.18 143.38 296.77 144.74 297.66 144.1Z" fill="#263238"/>
<path d="M300.92 146.9C300.093 148.282 299.084 149.547 297.92 150.66C298.211 150.952 298.562 151.177 298.949 151.32C299.336 151.463 299.749 151.521 300.16 151.49L300.92 146.9Z" fill="#ED893E"/>
<path d="M303.25 154.64C302.915 154.64 302.58 154.61 302.25 154.55C302.225 154.546 302.201 154.538 302.179 154.525C302.158 154.512 302.139 154.494 302.124 154.474C302.109 154.453 302.098 154.43 302.092 154.405C302.087 154.381 302.086 154.355 302.09 154.33C302.1 154.281 302.128 154.237 302.169 154.207C302.21 154.177 302.26 154.164 302.31 154.17C303.117 154.325 303.95 154.288 304.74 154.062C305.53 153.836 306.256 153.428 306.86 152.87C306.878 152.851 306.9 152.835 306.924 152.825C306.948 152.814 306.974 152.809 307 152.809C307.026 152.809 307.052 152.814 307.077 152.825C307.101 152.835 307.122 152.851 307.14 152.87C307.174 152.907 307.193 152.955 307.193 153.005C307.193 153.055 307.174 153.103 307.14 153.14C306.093 154.135 304.694 154.674 303.25 154.64Z" fill="#263238"/>
<path d="M320.24 154.34C319.443 155.694 318.147 156.681 316.63 157.09C314.63 157.6 313.63 155.79 314.25 153.91C314.78 152.22 316.48 149.91 318.49 150.22C318.926 150.3 319.336 150.487 319.683 150.764C320.029 151.041 320.301 151.4 320.475 151.809C320.648 152.217 320.718 152.662 320.677 153.104C320.636 153.546 320.486 153.971 320.24 154.34Z" fill="#FFB573"/>
<path d="M309.41 145.59C309.329 145.589 309.25 145.563 309.186 145.514C309.121 145.466 309.073 145.398 309.05 145.32C308.52 143.61 306.33 142.87 306.31 142.87C306.261 142.855 306.215 142.831 306.175 142.798C306.136 142.765 306.103 142.724 306.08 142.679C306.057 142.633 306.043 142.583 306.039 142.531C306.036 142.48 306.043 142.429 306.06 142.38C306.075 142.331 306.099 142.285 306.132 142.245C306.165 142.206 306.206 142.174 306.251 142.15C306.297 142.127 306.347 142.113 306.399 142.109C306.45 142.106 306.501 142.113 306.55 142.13C306.65 142.13 309.15 143 309.79 145.13C309.805 145.179 309.811 145.231 309.806 145.283C309.801 145.334 309.786 145.384 309.762 145.429C309.738 145.475 309.705 145.515 309.665 145.548C309.625 145.581 309.579 145.605 309.53 145.62L309.41 145.59Z" fill="#263238"/>
<path d="M297.22 141.56C297.132 141.565 297.046 141.54 296.975 141.488C296.904 141.437 296.853 141.362 296.831 141.278C296.809 141.193 296.816 141.103 296.852 141.023C296.889 140.944 296.951 140.879 297.03 140.84C297.557 140.522 298.152 140.334 298.766 140.292C299.38 140.25 299.995 140.356 300.56 140.6C300.612 140.619 300.66 140.648 300.7 140.687C300.739 140.725 300.771 140.772 300.791 140.823C300.812 140.874 300.821 140.93 300.819 140.985C300.816 141.04 300.802 141.095 300.777 141.144C300.752 141.193 300.717 141.237 300.673 141.272C300.63 141.306 300.58 141.331 300.526 141.345C300.473 141.359 300.417 141.361 300.362 141.352C300.308 141.342 300.256 141.321 300.21 141.29C299.758 141.105 299.27 141.029 298.784 141.067C298.297 141.105 297.827 141.257 297.41 141.51C297.353 141.545 297.287 141.563 297.22 141.56Z" fill="#263238"/>
<path d="M331.41 180.58C335.656 182.889 339.742 185.482 343.64 188.34C345.58 189.77 347.52 191.23 349.36 192.85C351.256 194.453 353.046 196.177 354.72 198.01L355.36 198.71C355.46 198.83 355.55 198.92 355.76 199.18C355.933 199.387 356.093 199.604 356.24 199.83C356.711 200.56 357.097 201.342 357.39 202.16C357.851 203.475 358.186 204.831 358.39 206.21C358.733 208.675 358.897 211.161 358.88 213.65C358.846 218.438 358.468 223.217 357.75 227.95L353.61 227.7C353.48 225.43 353.35 223.1 353.17 220.82C352.99 218.54 352.81 216.25 352.52 214.02C352.281 211.848 351.917 209.691 351.43 207.56C351.218 206.639 350.924 205.738 350.55 204.87C350.436 204.594 350.284 204.335 350.1 204.1C350.015 204.033 349.934 203.96 349.86 203.88L349.27 203.32C346.028 200.315 342.558 197.567 338.89 195.1C337.04 193.81 335.12 192.61 333.21 191.4C331.3 190.19 329.31 189.01 327.45 187.93L331.41 180.58Z" fill="#FFB573"/>
<path d="M328.79 173.73C332.25 174.07 340 181.36 340 181.36L332.81 195.53C332.81 195.53 323.58 190.53 322.81 186.03C322 181.38 324.83 173.34 328.79 173.73Z" fill="#F71D1D"/>
<path d="M301 408.36C300.296 408.429 299.589 408.252 299 407.86C298.869 407.742 298.769 407.594 298.708 407.428C298.647 407.263 298.627 407.085 298.65 406.91C298.657 406.804 298.691 406.701 298.749 406.612C298.806 406.523 298.886 406.45 298.98 406.4C299.98 405.85 303.25 407.51 303.62 407.71C303.656 407.729 303.685 407.758 303.703 407.794C303.721 407.83 303.727 407.871 303.72 407.91C303.714 407.95 303.696 407.988 303.667 408.017C303.638 408.045 303.601 408.064 303.56 408.07C302.718 408.247 301.861 408.344 301 408.36ZM299.54 406.67C299.416 406.663 299.293 406.687 299.18 406.74C299.142 406.76 299.109 406.79 299.086 406.827C299.063 406.864 299.051 406.907 299.05 406.95C299.032 407.064 299.043 407.18 299.082 407.288C299.12 407.396 299.185 407.493 299.27 407.57C299.77 408.02 301.12 408.09 302.93 407.79C301.885 407.23 300.752 406.852 299.58 406.67H299.54Z" fill="#F71D1D"/>
<path d="M303.58 408.07H303.5C302.5 407.62 300.59 405.86 300.74 404.93C300.74 404.71 300.93 404.44 301.47 404.38C301.662 404.36 301.857 404.38 302.041 404.438C302.225 404.497 302.395 404.593 302.54 404.72C303.54 405.58 303.76 407.78 303.77 407.87C303.773 407.904 303.767 407.939 303.753 407.97C303.739 408.001 303.717 408.029 303.69 408.05C303.656 408.067 303.618 408.074 303.58 408.07ZM301.63 404.75H301.51C301.16 404.75 301.13 404.93 301.12 404.97C301.03 405.53 302.34 406.92 303.34 407.52C303.271 406.598 302.923 405.719 302.34 405C302.145 404.827 301.89 404.738 301.63 404.75Z" fill="#F71D1D"/>
<path d="M305 145.35L303.51 144.63C303.51 144.63 304.13 146 305 145.35Z" fill="#263238"/>
<path d="M324.3 221.62L325.15 224.62C325.26 224.86 324.99 225.09 324.61 225.09H290.38C290.08 225.09 289.84 224.94 289.82 224.76L289.52 221.76C289.52 221.55 289.76 221.38 290.08 221.38H323.76C323.863 221.371 323.967 221.388 324.061 221.43C324.155 221.472 324.238 221.538 324.3 221.62Z" fill="#FAFAFA"/>
<path d="M319.78 225.38H320.68C320.86 225.38 320.99 225.29 320.98 225.18L320.56 221.31C320.56 221.2 320.39 221.1 320.21 221.1H319.31C319.13 221.1 318.99 221.2 319 221.31L319.43 225.18C319.44 225.29 319.6 225.38 319.78 225.38Z" fill="#F71D1D"/>
<g opacity="0.3">
<path opacity="0.3" d="M319.78 225.38H320.68C320.86 225.38 320.99 225.29 320.98 225.18L320.56 221.31C320.56 221.2 320.39 221.1 320.21 221.1H319.31C319.13 221.1 318.99 221.2 319 221.31L319.43 225.18C319.44 225.29 319.6 225.38 319.78 225.38Z" fill="black"/>
</g>
<path d="M292.92 225.38H293.82C294 225.38 294.14 225.29 294.12 225.18L293.7 221.31C293.7 221.2 293.53 221.1 293.35 221.1H292.45C292.27 221.1 292.13 221.2 292.15 221.31L292.57 225.18C292.58 225.29 292.74 225.38 292.92 225.38Z" fill="#F71D1D"/>
<path opacity="0.3" d="M292.92 225.38H293.82C294 225.38 294.14 225.29 294.12 225.18L293.7 221.31C293.7 221.2 293.53 221.1 293.35 221.1H292.45C292.27 221.1 292.13 221.2 292.15 221.31L292.57 225.18C292.58 225.29 292.74 225.38 292.92 225.38Z" fill="black"/>
<path d="M306.35 225.38H307.25C307.43 225.38 307.57 225.29 307.55 225.18L307.13 221.31C307.13 221.2 306.96 221.1 306.78 221.1H305.88C305.7 221.1 305.56 221.2 305.57 221.31L306 225.18C306 225.29 306.17 225.38 306.35 225.38Z" fill="#F71D1D"/>
<path opacity="0.3" d="M306.35 225.38H307.25C307.43 225.38 307.57 225.29 307.55 225.18L307.13 221.31C307.13 221.2 306.96 221.1 306.78 221.1H305.88C305.7 221.1 305.56 221.2 305.57 221.31L306 225.18C306 225.29 306.17 225.38 306.35 225.38Z" fill="black"/>
<path d="M353.31 227.2L350.68 235.64L358.35 232.41C358.35 232.41 358.9 227.19 356.09 225.27L353.31 227.2Z" fill="#FFB573"/>
<path d="M353.11 242.08L359.39 239.03L358.35 232.41L350.68 235.64L353.11 242.08Z" fill="#FFB573"/>
<path d="M198.85 407.55L207.15 407.63L209.41 388.43L201.11 388.36L198.85 407.55Z" fill="#FF8B7B"/>
<path d="M207.16 406.67L198.1 406.59C197.931 406.59 197.767 406.644 197.632 406.745C197.496 406.846 197.398 406.988 197.35 407.15L195.16 414.5C195.102 414.672 195.087 414.854 195.114 415.033C195.142 415.212 195.212 415.381 195.319 415.527C195.426 415.673 195.566 415.792 195.728 415.872C195.89 415.953 196.069 415.993 196.25 415.99C199.52 415.99 204.25 415.81 208.37 415.85C213.17 415.85 214.16 416.19 219.79 416.24C223.2 416.24 224.4 412.83 223 412.51C216.62 411.03 214.47 410.84 209.12 407.33C208.544 406.925 207.864 406.695 207.16 406.67Z" fill="#263238"/>
<path opacity="0.2" d="M209.41 388.44L208.24 398.33L199.94 398.26L201.11 388.36L209.41 388.44Z" fill="black"/>
<path d="M210.59 408.15C209.695 408.131 208.804 408.024 207.93 407.83C207.891 407.82 207.855 407.799 207.828 407.768C207.802 407.738 207.785 407.7 207.78 407.66C207.772 407.619 207.779 407.577 207.799 407.54C207.819 407.504 207.851 407.475 207.89 407.46C208.28 407.26 211.77 405.59 212.72 406.19C212.81 406.245 212.883 406.324 212.932 406.417C212.981 406.51 213.005 406.615 213 406.72C213.005 406.9 212.968 407.079 212.892 407.242C212.816 407.406 212.702 407.549 212.56 407.66C211.973 408.031 211.282 408.203 210.59 408.15ZM208.59 407.56C210.39 407.87 211.75 407.8 212.3 407.36C212.397 407.285 212.475 407.188 212.528 407.076C212.58 406.965 212.605 406.843 212.6 406.72C212.604 406.681 212.596 406.641 212.579 406.606C212.561 406.57 212.534 406.54 212.5 406.52C212 406.2 210 406.91 208.6 407.56H208.59Z" fill="#F71D1D"/>
<path d="M208 407.83C207.961 407.843 207.919 407.843 207.88 407.83C207.854 407.806 207.835 407.776 207.823 407.743C207.811 407.71 207.806 407.675 207.81 407.64C207.81 407.49 208.46 403.92 210.44 404.14C210.96 404.2 211.11 404.46 211.14 404.67C211.27 405.61 209.14 407.4 208.08 407.85C208.052 407.854 208.023 407.847 208 407.83ZM210.27 404.49C209.08 404.49 208.49 406.43 208.27 407.28C209.37 406.66 210.82 405.28 210.74 404.69C210.74 404.69 210.74 404.53 210.39 404.49H210.27Z" fill="#F71D1D"/>
<path d="M224.29 177.7C225 182.9 225.78 188.29 226.63 193.54C227.48 198.79 228.41 204.06 229.63 209.13C229.76 209.77 229.92 210.39 230.08 211.01L230.5 212.69C230.719 213.408 231.057 214.084 231.5 214.69C232.857 216.59 234.405 218.346 236.12 219.93C239.982 223.466 244.02 226.803 248.22 229.93L245.22 235.55C242.532 234.558 239.907 233.403 237.36 232.09C234.769 230.777 232.264 229.301 229.86 227.67C227.231 225.924 224.835 223.851 222.73 221.5C221.405 220.027 220.345 218.336 219.6 216.5C219.34 215.87 219.29 215.66 219.16 215.28L218.81 214.28C218.57 213.59 218.34 212.9 218.14 212.22C216.469 206.817 215.087 201.33 214 195.78C212.94 190.26 212.09 184.78 211.5 179.15L224.29 177.7Z" fill="#FF8B7B"/>
<path d="M208.67 180.09C208.54 189.57 212.24 203.09 212.24 203.09L225.41 199.09L230.83 197.45C230.55 191.149 229.472 184.909 227.62 178.88C224.41 168.55 215.48 165.49 210.33 172.6C209.17 174.24 208.71 176.94 208.67 180.09Z" fill="#263238"/>
<path opacity="0.2" d="M208.67 180.09C208.54 189.57 212.24 203.09 212.24 203.09L225.41 199.09C224.873 195.705 224.094 192.364 223.08 189.09C220.42 180.5 213.78 176.94 208.67 180.09Z" fill="black"/>
<path d="M247.74 229.94L253.6 232.75L251 240.92C251 240.92 245.39 238.45 243.54 233.6L247.74 229.94Z" fill="#FF8B7B"/>
<path d="M259.47 237.15L255.53 243.86L250.97 240.92L253.6 232.75L259.47 237.15Z" fill="#FF8B7B"/>
<path d="M213.87 240.71C213.87 240.71 223.31 286.79 224.93 312.33C226.61 338.9 212.5 393.51 212.5 393.51L197.5 393.19C197.5 393.19 202.56 335.89 199.36 309.66C195.88 281.07 188.44 238.49 188.44 238.49L213.87 240.71Z" fill="#F71D1D"/>
<path opacity="0.2" d="M195.21 250C193.29 248.18 191.98 250.27 191.11 254.14C192.76 264.14 194.92 277.58 196.81 290.66C202.84 278.8 201.42 255.89 195.21 250Z" fill="black"/>
<path d="M195.67 393.86L213.29 394.22L214.59 388.36L195.89 388.32L195.67 393.86Z" fill="#F71D1D"/>
<path opacity="0.4" d="M195.67 393.86L213.29 394.22L214.59 388.36L195.89 388.32L195.67 393.86Z" fill="black"/>
<path d="M134.36 383.21L141.2 387.9L153.8 373.25L146.96 368.55L134.36 383.21Z" fill="#FF8B7B"/>
<path d="M142.27 387.05L135 381.66C134.865 381.56 134.702 381.506 134.535 381.506C134.367 381.506 134.204 381.56 134.07 381.66L127.97 386.33C127.823 386.435 127.704 386.573 127.622 386.733C127.539 386.893 127.496 387.07 127.496 387.25C127.496 387.43 127.539 387.608 127.622 387.768C127.704 387.928 127.823 388.066 127.97 388.17C130.64 390.07 134.56 392.73 137.86 395.17C141.73 398.03 141.69 397.97 146.22 401.32C148.96 403.32 151.95 401.32 151 400.19C146.7 395.24 145.74 394.7 143.47 388.72C143.242 388.058 142.825 387.477 142.27 387.05Z" fill="#263238"/>
<path opacity="0.2" d="M153.8 373.25L147.3 380.81L140.46 376.11L146.96 368.55L153.8 373.25Z" fill="black"/>
<path d="M144.17 390.26C143.442 389.725 142.772 389.115 142.17 388.44C142.146 388.406 142.134 388.366 142.134 388.325C142.134 388.284 142.146 388.244 142.17 388.21C142.191 388.175 142.223 388.146 142.26 388.128C142.297 388.111 142.339 388.104 142.38 388.11C142.81 388.19 146.61 388.88 147.03 389.92C147.071 390.018 147.085 390.125 147.071 390.231C147.057 390.336 147.015 390.436 146.95 390.52C146.847 390.669 146.712 390.792 146.554 390.88C146.396 390.968 146.221 391.02 146.04 391.03C145.351 390.979 144.696 390.709 144.17 390.26ZM142.91 388.61C144.17 389.92 145.32 390.67 146.02 390.61C146.143 390.608 146.264 390.576 146.372 390.517C146.48 390.457 146.572 390.373 146.64 390.27C146.659 390.237 146.67 390.199 146.67 390.16C146.67 390.121 146.659 390.083 146.64 390.05C146.45 389.51 144.44 388.93 142.91 388.61Z" fill="#F71D1D"/>
<path d="M142.24 388.47C142.205 388.44 142.177 388.403 142.16 388.36C142.15 388.327 142.15 388.291 142.159 388.258C142.167 388.224 142.185 388.194 142.21 388.17C142.32 388.06 144.93 385.54 146.4 386.88C146.78 387.23 146.75 387.53 146.65 387.72C146.21 388.56 143.43 388.72 142.31 388.5L142.24 388.47ZM146.04 387.09C145.04 386.39 143.45 387.61 142.79 388.18C144.04 388.32 146.04 388.04 146.3 387.54C146.3 387.54 146.38 387.39 146.13 387.17L146.04 387.09Z" fill="#F71D1D"/>
<path d="M198.44 239.36C198.44 239.36 195.44 283.81 192.64 309.25C189.69 335.71 153.52 379.19 153.52 379.19L141.28 370.55C141.28 370.55 166.54 328.55 167.95 302.19C169.47 273.43 169.66 236.84 169.66 236.84L198.44 239.36Z" fill="#F71D1D"/>
<path d="M139.04 370.83L153.05 380.81L156.96 376.69L142.09 365.29L139.04 370.83Z" fill="#F71D1D"/>
<path opacity="0.4" d="M139.04 370.83L153.05 380.81L156.96 376.69L142.09 365.29L139.04 370.83Z" fill="black"/>
<path d="M219.64 169.22C219.64 169.22 227.21 195.04 213.87 240.71L169.66 236.84C169.95 230.02 177.12 197.29 173.37 164.74C178.352 164.223 183.363 164.033 188.37 164.17C194.66 164.356 200.933 164.904 207.16 165.81C211.403 166.619 215.576 167.759 219.64 169.22Z" fill="#263238"/>
<path opacity="0.2" d="M182.19 181.41L174.45 186.24C174.45 191.93 174.13 197.44 173.74 202.6C178.58 198.34 181.66 190.13 182.19 181.41Z" fill="black"/>
<path d="M192.05 143.17C192.71 149.32 192.92 160.5 188.34 164.17C188.34 164.17 189.45 170.48 200.69 171.43C209.69 172.19 207.13 165.81 207.13 165.81C200.53 163.61 201.13 158.62 202.73 154.03L192.05 143.17Z" fill="#FF8B7B"/>
<path d="M194.12 178.43C194.062 178.428 194.006 178.407 193.96 178.37C193.9 178.32 187.12 172.63 185.65 165.66C185.643 165.629 185.642 165.596 185.648 165.564C185.653 165.532 185.666 165.502 185.683 165.475C185.701 165.447 185.724 165.424 185.751 165.406C185.778 165.388 185.808 165.376 185.84 165.37C185.872 165.363 185.906 165.362 185.938 165.367C185.971 165.373 186.002 165.385 186.03 165.403C186.058 165.42 186.082 165.443 186.101 165.47C186.12 165.497 186.133 165.528 186.14 165.56C187.41 171.56 192.79 176.67 194.03 177.77C194.65 176.352 195.657 175.137 196.936 174.265C198.215 173.392 199.713 172.899 201.26 172.84C201.327 172.843 201.391 172.871 201.438 172.92C201.484 172.968 201.51 173.033 201.51 173.1C201.501 173.164 201.47 173.223 201.423 173.266C201.376 173.31 201.315 173.336 201.25 173.34C199.737 173.382 198.272 173.875 197.041 174.755C195.81 175.635 194.869 176.862 194.34 178.28C194.325 178.315 194.302 178.346 194.272 178.371C194.243 178.395 194.208 178.412 194.17 178.42L194.12 178.43Z" fill="white"/>
<path d="M208.46 179.08H208.4C208.353 179.067 208.311 179.041 208.277 179.006C208.244 178.971 208.221 178.927 208.21 178.88C207.909 177.667 207.328 176.541 206.514 175.593C205.699 174.645 204.674 173.9 203.52 173.42C203.489 173.408 203.46 173.39 203.436 173.366C203.413 173.343 203.394 173.315 203.382 173.284C203.37 173.253 203.364 173.219 203.365 173.186C203.367 173.153 203.375 173.12 203.39 173.09C203.416 173.031 203.464 172.985 203.524 172.961C203.583 172.937 203.65 172.936 203.71 172.96C204.858 173.435 205.887 174.156 206.727 175.071C207.567 175.987 208.196 177.075 208.57 178.26C213.4 171.39 209.78 167.68 209.62 167.53C209.596 167.507 209.576 167.479 209.563 167.448C209.55 167.417 209.543 167.384 209.543 167.35C209.543 167.316 209.55 167.283 209.563 167.252C209.576 167.221 209.596 167.193 209.62 167.17C209.642 167.146 209.669 167.127 209.699 167.114C209.73 167.101 209.762 167.094 209.795 167.094C209.828 167.094 209.86 167.101 209.89 167.114C209.92 167.127 209.947 167.146 209.97 167.17C209.97 167.17 214.22 171.48 208.66 178.98C208.636 179.01 208.606 179.035 208.571 179.053C208.536 179.07 208.498 179.079 208.46 179.08Z" fill="white"/>
<path opacity="0.2" d="M196.4 147.6L202.72 154.02C202.332 155.089 202.041 156.19 201.85 157.31C199.31 156.71 196.02 153.57 195.98 150.85C195.923 149.75 196.066 148.649 196.4 147.6Z" fill="black"/>
<path d="M212.8 127.08C216.73 129.08 218.01 140.08 212.59 142.08C207.17 144.08 205.37 123.31 212.8 127.08Z" fill="#263238"/>
<path d="M192.13 134C191.92 142.24 191.37 147 195.13 151.61C200.8 158.48 211.23 155.61 213.9 147.61C216.3 140.41 216.25 128.15 208.52 124.19C206.82 123.31 204.924 122.88 203.012 122.939C201.099 122.998 199.233 123.545 197.591 124.528C195.949 125.51 194.586 126.897 193.63 128.554C192.674 130.212 192.158 132.087 192.13 134Z" fill="#FF8B7B"/>
<path d="M204.35 137.38C204.29 138.05 204.6 138.62 205.03 138.66C205.46 138.7 205.87 138.19 205.93 137.52C205.99 136.85 205.68 136.28 205.24 136.24C204.8 136.2 204.41 136.71 204.35 137.38Z" fill="#263238"/>
<path d="M211.89 138C211.83 138.67 212.13 139.24 212.57 139.28C213.01 139.32 213.41 138.81 213.46 138.14C213.51 137.47 213.22 136.9 212.78 136.86C212.34 136.82 211.94 137.37 211.89 138Z" fill="#263238"/>
<path d="M209.46 138.16C210.076 140.274 210.981 142.294 212.15 144.16C211.666 144.446 211.125 144.623 210.566 144.678C210.006 144.733 209.441 144.666 208.91 144.48L209.46 138.16Z" fill="#FF5652"/>
<path d="M206.81 146.13C205.913 146.078 205.041 145.811 204.268 145.351C203.495 144.892 202.844 144.254 202.37 143.49C202.345 143.444 202.339 143.389 202.354 143.339C202.369 143.288 202.404 143.245 202.45 143.22C202.472 143.208 202.497 143.2 202.522 143.198C202.547 143.195 202.573 143.198 202.597 143.205C202.621 143.213 202.644 143.225 202.663 143.241C202.682 143.257 202.698 143.277 202.71 143.3C203.16 144.001 203.768 144.587 204.485 145.011C205.202 145.435 206.009 145.684 206.84 145.74C206.891 145.745 206.939 145.77 206.972 145.809C207.006 145.848 207.023 145.899 207.02 145.95C207.019 145.976 207.012 146.001 207.001 146.024C206.99 146.048 206.974 146.068 206.954 146.085C206.934 146.102 206.911 146.115 206.887 146.123C206.862 146.13 206.836 146.133 206.81 146.13Z" fill="#263238"/>
<path d="M202.3 134.75C202.21 134.747 202.125 134.711 202.06 134.65C201.987 134.577 201.946 134.478 201.946 134.375C201.946 134.272 201.987 134.173 202.06 134.1C202.467 133.626 202.982 133.257 203.561 133.024C204.141 132.791 204.768 132.7 205.39 132.76C205.441 132.767 205.491 132.785 205.535 132.812C205.58 132.838 205.619 132.874 205.65 132.916C205.68 132.957 205.702 133.005 205.714 133.056C205.726 133.106 205.728 133.159 205.72 133.21C205.703 133.313 205.646 133.405 205.562 133.466C205.478 133.528 205.373 133.554 205.27 133.54C204.779 133.5 204.285 133.576 203.83 133.764C203.374 133.952 202.97 134.245 202.65 134.62C202.608 134.671 202.554 134.71 202.492 134.732C202.431 134.755 202.364 134.761 202.3 134.75Z" fill="#263238"/>
<path d="M215.42 135.74C215.345 135.735 215.274 135.709 215.213 135.665C215.153 135.621 215.107 135.56 215.08 135.49C214.923 135.017 214.655 134.589 214.298 134.241C213.941 133.893 213.507 133.635 213.03 133.49C212.928 133.469 212.838 133.408 212.781 133.321C212.724 133.233 212.704 133.127 212.725 133.025C212.746 132.923 212.807 132.833 212.894 132.776C212.982 132.719 213.088 132.699 213.19 132.72C213.792 132.886 214.346 133.195 214.802 133.622C215.258 134.049 215.604 134.58 215.81 135.17C215.829 135.218 215.839 135.269 215.839 135.321C215.838 135.372 215.827 135.423 215.807 135.471C215.786 135.518 215.757 135.561 215.719 135.597C215.682 135.633 215.638 135.661 215.59 135.68C215.54 135.715 215.481 135.736 215.42 135.74Z" fill="#263238"/>
<path d="M181.51 178.38C179.8 180.61 177.95 183.01 176.23 185.38C174.51 187.75 172.75 190.15 171.08 192.57C167.727 197.308 164.63 202.222 161.8 207.29L160.8 209.12C160.603 209.488 160.439 209.873 160.31 210.27C160.013 211.199 159.852 212.165 159.83 213.14C159.861 215.595 160.287 218.03 161.09 220.35C162.964 225.683 165.475 230.77 168.57 235.5L163.79 239.7C161.418 237.488 159.24 235.075 157.28 232.49C155.25 229.87 153.488 227.052 152.02 224.08C150.378 220.829 149.331 217.31 148.93 213.69C148.725 211.629 148.836 209.548 149.26 207.52C149.497 206.442 149.832 205.388 150.26 204.37L151.26 202.1C152.58 199.1 154.05 196.3 155.61 193.55C157.17 190.8 158.8 188.11 160.49 185.47C162.18 182.83 163.95 180.27 165.79 177.75C167.63 175.23 169.47 172.75 171.56 170.28L181.51 178.38Z" fill="#FF8B7B"/>
<path d="M173.37 164.74C165.53 165.91 154.37 189.92 154.37 189.92L171.37 199.68C176.257 194.926 180.248 189.33 183.15 183.16C187.46 173.32 181.78 163.49 173.37 164.74Z" fill="#263238"/>
<path d="M166.32 234L175.22 234.65L169.14 243.27C169.14 243.27 162.9 241.27 162.53 238.09L166.32 234Z" fill="#FF8B7B"/>
<path d="M180.44 240.27L175.07 247.17L169.14 243.25L175.22 234.63L180.44 240.27Z" fill="#FF8B7B"/>
<path d="M187.5 124.38C181.42 130.92 189.74 145.09 193.21 145.08C196.68 145.07 198.45 132.25 196.71 128.91C198.52 129.91 214.66 130.25 216.25 129.18C219.17 127.18 221.64 120.88 212.68 117.83C212.68 120.08 210.09 120.96 202.68 118.63C193.57 115.73 182.75 119.42 187.5 124.38Z" fill="#263238"/>
<path d="M188.34 124.58C187.493 124.075 186.487 123.907 185.522 124.109C184.557 124.311 183.703 124.868 183.13 125.67C184.821 125.116 186.568 124.751 188.34 124.58Z" fill="#263238"/>
<path d="M187.64 142.71C188.589 144.55 190.229 145.938 192.2 146.57C194.82 147.4 196.2 145.07 195.56 142.57C194.97 140.3 192.89 137.15 190.23 137.42C187.57 137.69 186.5 140.44 187.64 142.71Z" fill="#FF8B7B"/>
<path d="M261.13 87.09C259.643 84.7024 257.268 83.003 254.529 82.3654C251.789 81.7278 248.908 82.2043 246.52 83.69C245.035 81.303 242.662 79.6038 239.924 78.9662C237.186 78.3286 234.307 78.8048 231.92 80.29C229.533 81.7752 227.834 84.1478 227.196 86.8858C226.559 89.6238 227.035 92.503 228.52 94.89L239.72 112.89L257.72 101.69C260.106 100.205 261.806 97.8328 262.445 95.0954C263.085 92.3581 262.612 89.4788 261.13 87.09Z" fill="#F71D1D"/>
<path d="M278.81 111.68C277.835 110.986 276.733 110.491 275.567 110.224C274.401 109.956 273.194 109.922 272.014 110.121C270.835 110.321 269.706 110.751 268.693 111.388C267.68 112.024 266.802 112.854 266.11 113.83C264.137 112.524 261.733 112.036 259.406 112.469C257.08 112.902 255.013 114.223 253.642 116.152C252.271 118.081 251.704 120.467 252.06 122.807C252.416 125.146 253.667 127.256 255.55 128.69L270.41 139.24L281 124.39C281.693 123.412 282.187 122.308 282.452 121.139C282.717 119.97 282.749 118.761 282.545 117.58C282.342 116.399 281.907 115.27 281.266 114.257C280.625 113.245 279.791 112.369 278.81 111.68Z" fill="#F71D1D"/>
<path opacity="0.5" d="M278.81 111.68C277.835 110.986 276.733 110.491 275.567 110.224C274.401 109.956 273.194 109.922 272.014 110.121C270.835 110.321 269.706 110.751 268.693 111.388C267.68 112.024 266.802 112.854 266.11 113.83C264.137 112.524 261.733 112.036 259.406 112.469C257.08 112.902 255.013 114.223 253.642 116.152C252.271 118.081 251.704 120.467 252.06 122.807C252.416 125.146 253.667 127.256 255.55 128.69L270.41 139.24L281 124.39C281.693 123.412 282.187 122.308 282.452 121.139C282.717 119.97 282.749 118.761 282.545 117.58C282.342 116.399 281.907 115.27 281.266 114.257C280.625 113.245 279.791 112.369 278.81 111.68Z" fill="white"/>
<path d="M254.91 148.61C254.395 147.002 253.265 145.662 251.766 144.885C250.267 144.107 248.521 143.954 246.91 144.46C246.375 142.876 245.24 141.564 243.748 140.808C242.257 140.052 240.528 139.912 238.934 140.418C237.34 140.924 236.009 142.036 235.226 143.513C234.444 144.991 234.272 146.717 234.75 148.32L238.6 160.48L250.76 156.62C252.372 156.108 253.715 154.976 254.493 153.474C255.272 151.972 255.421 150.223 254.91 148.61Z" fill="#F71D1D"/>
</svg>
