<svg width="473" height="315" viewBox="0 0 473 315" fill="none" xmlns="http://www.w3.org/2000/svg">
<g clip-path="url(#clip0)">
<path d="M472.973 181.058C472.508 206.429 464.98 231.168 451.235 252.498C437.489 273.828 418.07 290.904 395.158 301.809C377.144 310.349 357.454 314.766 337.518 314.739C334.652 314.739 331.806 314.65 328.98 314.473C267.387 310.613 205.613 310.613 144.02 314.473C141.196 314.649 138.35 314.738 135.482 314.739C112.347 314.773 89.5961 308.82 69.4423 297.459C48.7405 285.778 31.447 268.895 19.2724 248.479C7.09788 228.064 0.464128 204.824 0.0273962 181.058C-1.4748 104.674 58.9887 42.2233 134.85 41.8716C175.252 41.6862 211.562 59.3132 236.5 87.3986C261.438 59.3132 297.748 41.6862 338.15 41.8716C414.011 42.2233 474.475 104.674 472.973 181.058Z" fill="#F2F2F2"/>
<path d="M395.158 301.809C377.144 310.349 357.454 314.766 337.518 314.739C334.652 314.739 331.806 314.65 328.98 314.473C267.387 310.613 205.613 310.613 144.02 314.473C141.196 314.649 138.35 314.738 135.482 314.739C112.347 314.773 89.5962 308.82 69.4424 297.459C99.9284 284.253 159.474 275.283 227.943 275.283C303.69 275.283 368.518 286.259 395.158 301.809Z" fill="#2F2E41"/>
<path d="M301.331 112.74C299.793 111.416 297.916 110.546 295.912 110.228C293.907 109.911 291.854 110.158 289.982 110.942C284.335 113.405 281.876 120.322 282.271 126.469C282.666 132.617 285.227 138.383 286.886 144.315C289.114 152.284 289.693 160.92 287.082 168.771C284.47 176.621 278.325 183.54 270.355 185.76C262.956 187.82 255.109 185.754 247.71 183.694" stroke="#3F3D56" stroke-width="0.475379" stroke-miterlimit="10"/>
<path d="M314.725 100.457C314.774 99.611 314.656 98.7636 314.378 97.9632C314.1 97.1628 313.667 96.4251 313.103 95.7922C312.54 95.1594 311.857 94.6437 311.094 94.2748C310.331 93.9059 309.503 93.6908 308.657 93.6421C307.811 93.5933 306.964 93.7116 306.164 93.9904C305.363 94.2692 304.626 94.7029 303.993 95.2668C303.361 95.8307 302.846 96.5137 302.477 97.2768C302.109 98.0399 301.894 98.8681 301.846 99.7141L301.103 112.593L313.982 113.336C314.828 113.385 315.675 113.267 316.475 112.988C317.275 112.71 318.012 112.276 318.645 111.713C319.277 111.149 319.792 110.467 320.161 109.704C320.53 108.941 320.745 108.114 320.793 107.268C320.842 106.422 320.724 105.575 320.445 104.775C320.167 103.975 319.733 103.238 319.17 102.606C318.606 101.973 317.924 101.458 317.161 101.089C316.399 100.721 315.571 100.506 314.725 100.457Z" fill="#FF6366"/>
<path d="M300.876 133.991C300.974 132.283 300.39 130.606 299.252 129.329C298.114 128.052 296.516 127.279 294.808 127.18C293.1 127.082 291.423 127.666 290.145 128.804C288.868 129.942 288.095 131.54 287.997 133.248L287.254 146.128L300.133 146.87C301.84 146.968 303.516 146.383 304.793 145.245C306.069 144.107 306.842 142.509 306.94 140.802C307.039 139.095 306.455 137.418 305.318 136.141C304.181 134.864 302.583 134.091 300.876 133.991Z" fill="#FF6366"/>
<path d="M282.319 98.0678C281.669 97.5231 280.919 97.1116 280.111 96.8569C279.303 96.6023 278.452 96.5094 277.608 96.5835C276.764 96.6577 275.942 96.8975 275.191 97.2893C274.439 97.681 273.772 98.217 273.228 98.8666C272.684 99.5162 272.273 100.267 272.019 101.075C271.765 101.884 271.673 102.734 271.747 103.578C271.822 104.423 272.063 105.244 272.455 105.995C272.847 106.746 273.384 107.413 274.034 107.956L283.922 116.241L292.207 106.353C292.752 105.704 293.163 104.953 293.418 104.145C293.673 103.337 293.766 102.486 293.692 101.642C293.617 100.798 293.378 99.9765 292.986 99.225C292.594 98.4735 292.058 97.8066 291.409 97.2623C290.759 96.7181 290.008 96.3072 289.2 96.0531C288.391 95.799 287.541 95.7067 286.697 95.7815C285.852 95.8563 285.031 96.0968 284.28 96.4891C283.529 96.8813 282.862 97.4178 282.319 98.0678H282.319Z" fill="#FF6366"/>
<path d="M359.349 106.868C358.22 105.182 356.643 103.844 354.795 103.004C352.947 102.164 350.902 101.855 348.889 102.112C342.791 102.981 338.578 108.994 337.321 115.024C336.064 121.055 336.997 127.295 337.016 133.455C337.041 141.729 335.298 150.207 330.69 157.079C326.081 163.95 318.315 168.982 310.041 168.998C302.362 169.013 295.348 164.932 288.766 160.976" stroke="#3F3D56" stroke-width="0.475379" stroke-miterlimit="10"/>
<path d="M375.532 98.5969C375.804 97.7948 375.916 96.9469 375.86 96.1016C375.805 95.2564 375.583 94.4303 375.209 93.6706C374.834 92.9109 374.314 92.2324 373.677 91.6739C373.04 91.1154 372.299 90.6878 371.497 90.4155C370.695 90.1433 369.847 90.0317 369.002 90.0871C368.157 90.1425 367.33 90.3638 366.571 90.7385C365.811 91.1131 365.133 91.6337 364.574 92.2706C364.016 92.9074 363.588 93.6481 363.316 94.4502L359.169 106.666L371.385 110.813C372.187 111.085 373.035 111.197 373.88 111.141C374.725 111.086 375.552 110.865 376.311 110.49C377.071 110.115 377.749 109.595 378.308 108.958C378.866 108.321 379.294 107.58 379.566 106.778C379.839 105.976 379.95 105.128 379.895 104.283C379.839 103.438 379.618 102.612 379.243 101.852C378.869 101.092 378.348 100.414 377.711 99.8553C377.074 99.2968 376.334 98.8692 375.532 98.5969Z" fill="#FF6366"/>
<path d="M353.25 127.231C353.8 125.611 353.684 123.839 352.927 122.304C352.17 120.77 350.835 119.599 349.215 119.049C347.595 118.499 345.823 118.616 344.289 119.372C342.755 120.129 341.584 121.464 341.034 123.084L336.887 135.3L349.103 139.447C350.723 139.997 352.495 139.88 354.029 139.124C355.564 138.367 356.735 137.032 357.285 135.412C357.834 133.792 357.718 132.02 356.962 130.486C356.205 128.951 354.87 127.781 353.25 127.231Z" fill="#FF6366"/>
<path d="M344.932 87.6619C344.451 86.9639 343.838 86.3675 343.127 85.9068C342.416 85.446 341.62 85.13 340.787 84.9766C339.954 84.8233 339.098 84.8356 338.269 85.0131C337.441 85.1905 336.655 85.5294 335.958 86.0106C335.26 86.4917 334.664 87.1056 334.204 87.8172C333.743 88.5287 333.428 89.324 333.275 90.1576C333.122 90.9911 333.135 91.8466 333.313 92.6752C333.491 93.5037 333.831 94.289 334.312 94.9863L341.637 105.606L352.257 98.2816C353.665 97.3103 354.63 95.8194 354.939 94.1368C355.248 92.4542 354.876 90.7178 353.904 89.3095C352.933 87.9012 351.442 86.9365 349.759 86.6275C348.077 86.3185 346.34 86.6906 344.932 87.6619Z" fill="#FF6366"/>
<path d="M331.55 20.8719C333.555 20.556 335.608 20.8048 337.48 21.5904C339.351 22.3761 340.967 23.6675 342.145 25.3199C345.649 30.3865 344.097 37.5621 340.524 42.5802C336.951 47.5983 331.737 51.1517 327.203 55.3215C321.113 60.9221 316.074 67.9593 314.16 76.0087C312.246 84.0581 313.827 93.1756 319.434 99.2595C324.639 104.906 332.398 107.283 339.772 109.428" stroke="#3F3D56" stroke-width="0.475379" stroke-miterlimit="10"/>
<path d="M326.631 3.3766C327.035 2.632 327.582 1.97423 328.24 1.44084C328.898 0.907457 329.655 0.508908 330.467 0.267949C331.279 0.0269894 332.13 -0.0516632 332.973 0.0364864C333.815 0.124636 334.632 0.377862 335.377 0.7817C336.121 1.18554 336.779 1.73208 337.312 2.39013C337.846 3.04817 338.244 3.80483 338.485 4.61691C338.726 5.42898 338.805 6.28057 338.717 7.12304C338.629 7.9655 338.375 8.78236 337.972 9.52697L331.821 20.8671L320.481 14.7168C319.736 14.3129 319.079 13.7664 318.545 13.1083C318.012 12.4503 317.613 11.6936 317.372 10.8816C317.131 10.0695 317.053 9.2179 317.141 8.37543C317.229 7.53296 317.482 6.71611 317.886 5.9715C318.29 5.2269 318.837 4.56912 319.495 4.03574C320.153 3.50236 320.909 3.10381 321.721 2.86285C322.533 2.62189 323.385 2.54324 324.228 2.63139C325.07 2.71954 325.887 2.97276 326.631 3.3766V3.3766Z" fill="#FF6366"/>
<path d="M320.746 39.1779C321.15 38.4333 321.697 37.7755 322.355 37.2421C323.013 36.7087 323.769 36.3102 324.581 36.0692C325.394 35.8283 326.245 35.7496 327.088 35.8378C327.93 35.9259 328.747 36.1791 329.491 36.583C330.236 36.9868 330.894 37.5334 331.427 38.1914C331.961 38.8494 332.359 39.6061 332.6 40.4182C332.841 41.2303 332.92 42.0818 332.832 42.9243C332.743 43.7668 332.49 44.5836 332.086 45.3282L325.936 56.6684L314.596 50.518C313.851 50.1142 313.193 49.5677 312.66 48.9096C312.127 48.2516 311.728 47.4949 311.487 46.6828C311.246 45.8708 311.168 45.0192 311.256 44.1767C311.344 43.3342 311.597 42.5174 312.001 41.7728C312.405 41.0282 312.951 40.3704 313.609 39.837C314.267 39.3036 315.024 38.9051 315.836 38.6641C316.648 38.4232 317.5 38.3445 318.342 38.4327C319.185 38.5208 320.002 38.774 320.746 39.1779L320.746 39.1779Z" fill="#FF6366"/>
<path d="M355.439 18.4102C356.278 18.2889 357.132 18.3341 357.953 18.5432C358.775 18.7523 359.547 19.1212 360.225 19.6288C360.904 20.1364 361.476 20.7728 361.909 21.5016C362.341 22.2303 362.626 23.0372 362.747 23.876C362.867 24.7149 362.821 25.5693 362.612 26.3904C362.402 27.2115 362.032 27.9833 361.524 28.6615C361.016 29.3398 360.379 29.9113 359.65 30.3433C358.921 30.7753 358.114 31.0595 357.275 31.1795L344.506 33.0156L342.67 20.2464C342.426 18.553 342.865 16.8324 343.891 15.4628C344.916 14.0933 346.443 13.1871 348.136 12.9436C349.83 12.7001 351.55 13.1393 352.92 14.1645C354.289 15.1896 355.195 16.7169 355.439 18.4102Z" fill="#FF6366"/>
<path d="M221.288 157.389H209.403V163.569H221.288V157.389Z" fill="#FBBEBE"/>
<path opacity="0.1" d="M221.288 157.389H209.403V163.569H221.288V157.389Z" fill="black"/>
<path d="M187.536 68.4926C195.937 68.4926 202.748 61.6819 202.748 53.2805C202.748 44.8791 195.937 38.0684 187.536 38.0684C179.134 38.0684 172.324 44.8791 172.324 53.2805C172.324 61.6819 179.134 68.4926 187.536 68.4926Z" fill="#2F2E41"/>
<path d="M222.001 154.299C222.001 154.299 217.247 152.873 216.297 153.348C215.346 153.823 219.624 157.626 219.624 157.626L222.001 154.299Z" fill="#FBBEBE"/>
<path opacity="0.1" d="M222.001 154.299C222.001 154.299 217.247 152.873 216.297 153.348C215.346 153.823 219.624 157.626 219.624 157.626L222.001 154.299Z" fill="black"/>
<path d="M189.2 275.996C189.2 275.996 200.134 277.422 202.035 277.422C203.937 277.422 209.166 279.323 206.313 281.7C203.461 284.077 185.397 287.405 183.02 285.979C180.643 284.552 177.315 280.274 179.692 279.799C182.069 279.323 189.2 275.996 189.2 275.996Z" fill="#3F3D56"/>
<path d="M169.709 293.585L165.906 300.24L170.66 302.617L179.692 304.519L184.446 298.339L182.545 291.208L169.709 293.585Z" fill="#FBBEBE"/>
<path d="M194.904 244.621C194.904 244.621 188.724 270.766 189.675 272.193C190.626 273.619 192.527 277.422 190.626 278.848C188.724 280.274 181.118 280.749 181.118 280.749L183.495 266.963L186.823 250.325L194.904 244.621Z" fill="#2F2E41"/>
<path d="M177.791 189.477L183.971 217.525C183.971 217.525 184.922 231.311 182.545 236.54C180.168 241.769 167.333 296.913 167.333 296.913C167.333 296.913 180.643 297.388 183.495 295.962C186.348 294.536 191.158 261.609 191.158 261.609C191.158 261.609 206.789 230.36 206.314 224.18C205.838 218 208.676 186.607 204.642 184.239C200.609 181.871 177.791 189.477 177.791 189.477Z" fill="#2F2E41"/>
<path d="M178.741 302.142L184.446 296.437C184.446 296.437 199.658 304.043 202.035 304.519C204.412 304.994 209.641 308.797 204.412 310.223C199.183 311.649 179.692 310.698 174.938 310.223C170.185 309.748 160.677 309.272 162.103 306.42C163.529 303.568 165.906 293.585 165.906 293.585C165.906 293.585 167.22 291.768 167.989 294.103C168.758 296.437 169.234 299.765 171.135 299.765C173.037 299.765 178.741 302.142 178.741 302.142Z" fill="#3F3D56"/>
<path d="M251.95 181.395L265.26 180.444L274.293 185.198L273.342 190.903L269.539 191.853C269.539 191.853 259.081 187.575 252.901 189.001C246.721 190.427 251.95 181.395 251.95 181.395Z" fill="#A0616A"/>
<path d="M267.637 183.297C267.637 183.297 272.866 189.016 267.637 191.148C267.637 191.148 268.588 192.804 272.391 193.28C276.194 193.755 281.423 197.083 282.849 197.083C284.275 197.083 290.455 196.132 286.652 190.903C282.849 185.674 267.637 174.264 267.637 174.264C267.637 174.264 263.359 172.363 261.933 176.166C260.506 179.969 259.754 180.838 259.754 180.838C259.754 180.838 266.686 182.346 267.637 183.297Z" fill="#2F2E41"/>
<path d="M227.706 228.933C227.706 228.933 231.984 245.096 231.984 246.047C231.984 246.998 237.689 242.244 237.689 242.244L238.639 233.687C238.639 233.687 234.836 229.884 234.836 227.507C234.836 225.13 227.706 228.933 227.706 228.933Z" fill="#A0616A"/>
<path d="M236.262 240.343C236.262 240.343 232.935 244.621 230.558 243.195L231.984 259.358C231.984 259.358 232.935 267.439 236.262 264.112C239.59 260.784 242.917 244.146 242.917 244.146C242.917 244.146 247.671 234.163 243.868 232.736C241.71 231.91 239.483 231.273 237.213 230.835C237.213 230.835 237.213 240.818 236.262 240.343Z" fill="#2F2E41"/>
<path d="M205.363 186.149L219.624 215.623C219.624 215.623 224.378 232.261 226.279 232.736C228.181 233.212 235.312 229.884 236.262 229.409C237.213 228.933 228.181 210.393 228.181 207.066C228.181 203.738 217.247 185.198 217.247 185.198L205.363 186.149Z" fill="#FF6584"/>
<path opacity="0.1" d="M205.363 186.149L219.624 215.623C219.624 215.623 224.378 232.261 226.279 232.736C228.181 233.212 235.312 229.884 236.262 229.409C237.213 228.933 228.181 210.393 228.181 207.066C228.181 203.738 217.247 185.198 217.247 185.198L205.363 186.149Z" fill="black"/>
<path d="M215.345 134.808C215.345 134.808 215.821 144.791 213.919 151.447C212.018 158.102 216.296 179.969 216.296 179.969C216.296 179.969 223.427 180.445 225.328 179.969C227.23 179.494 252.9 179.019 254.327 179.969C255.753 180.92 255.277 197.558 254.327 197.083C253.376 196.608 228.656 191.378 216.772 193.28C204.887 195.181 203.461 192.329 202.986 191.378C202.51 190.428 194.429 164.757 194.429 164.757L191.576 152.397L187.773 139.087L190.15 126.251L215.345 134.808Z" fill="#FF6584"/>
<path d="M186.585 72.7711C193.674 72.7711 199.42 67.0245 199.42 59.9358C199.42 52.8471 193.674 47.1006 186.585 47.1006C179.497 47.1006 173.75 52.8471 173.75 59.9358C173.75 67.0245 179.497 72.7711 186.585 72.7711Z" fill="#A0616A"/>
<path d="M162.578 102.958C169.667 102.958 175.414 97.2111 175.414 90.1223C175.414 83.0336 169.667 77.2871 162.578 77.2871C155.49 77.2871 149.743 83.0336 149.743 90.1223C149.743 97.2111 155.49 102.958 162.578 102.958Z" fill="#FBBEBE"/>
<path d="M190.15 68.7306C190.15 68.7306 198.707 74.4352 197.281 77.7628C195.855 81.0905 192.052 84.8935 192.052 84.8935L191.577 90.1227L198.707 92.4996L216.772 93.4503C216.772 93.4503 215.821 77.2874 210.116 73.009C204.412 68.7306 197.756 65.8783 196.806 62.0753C195.855 58.2723 190.15 68.7306 190.15 68.7306Z" fill="#A0616A"/>
<path d="M213.737 80.4563C210.626 74.6445 201.873 75.3507 200.059 81.6883C199.821 82.4557 199.747 83.2646 199.842 84.0624C199.936 84.8603 200.198 85.6294 200.609 86.3198C203.936 92.0243 206.313 96.3027 206.313 96.3027L216.772 95.352C216.772 95.352 216.977 86.5097 213.737 80.4563Z" fill="#A0616A"/>
<path d="M193.614 83.1885C193.614 83.1885 181.118 91.0732 182.069 96.3024C183.02 101.532 183.971 110.564 183.971 113.891C183.971 117.219 187.298 127.677 192.052 129.579C196.806 131.48 196.806 126.251 203.461 132.431C210.117 138.611 217.247 141.463 216.772 142.414C216.297 143.365 218.673 133.857 214.87 130.054C211.067 126.251 206.789 115.318 210.592 110.564C214.395 105.81 217.723 93.4501 217.723 93.4501C217.723 93.4501 217.247 90.5978 214.395 91.0732C211.543 91.5486 193.954 89.6471 193.003 87.2702C192.726 86.5982 192.636 85.8636 192.744 85.1447C192.852 84.4258 193.152 83.7497 193.614 83.1885Z" fill="#2F2E41"/>
<path d="M191.841 87.2198C191.841 87.2198 204.888 73.0089 206.789 73.4843C208.691 73.9597 214.167 79.5854 214.167 79.5854L206.789 74.4351L191.841 88.0208L191.841 87.2198Z" fill="#2F2E41"/>
<path d="M173.512 92.4995C173.512 92.4995 175.298 111.727 177.733 113.522C180.168 115.318 159.251 114.842 159.251 114.842C159.251 114.842 164.005 100.106 161.152 98.2041C158.3 96.3025 173.512 92.4995 173.512 92.4995Z" fill="#FBBEBE"/>
<path d="M178.266 108.187C178.266 108.187 162.103 103.908 160.202 106.285C158.3 108.662 154.497 129.104 154.497 129.104C154.497 129.104 156.399 142.89 159.726 152.872C163.054 162.855 167.332 198.034 170.66 198.034C173.988 198.034 179.692 192.804 181.118 192.804C182.544 192.804 191.101 188.526 196.33 189.477C199.334 190.068 202.438 189.904 205.363 189.001C205.363 189.001 202.986 169.035 197.281 163.806C191.577 158.577 188.724 122.448 188.724 122.448C188.724 122.448 180.643 107.236 178.266 108.187Z" fill="#3F3D56"/>
<path d="M202.986 153.348C202.986 153.348 208.391 160.685 213.77 161.057L216.772 160.954C216.772 160.954 212.018 173.314 214.395 173.789C216.772 174.265 223.903 164.757 221.526 159.528C219.149 154.299 212.018 146.217 212.018 146.217L202.986 153.348Z" fill="#FBBEBE"/>
<path d="M222.001 153.348C222.001 153.348 213.919 160.954 217.247 164.282C220.575 167.61 224.853 164.282 224.853 164.282C224.853 164.282 228.181 159.528 222.001 153.348Z" fill="#FBBEBE"/>
<path opacity="0.1" d="M222.001 153.348C222.001 153.348 213.919 160.954 217.247 164.282C220.575 167.61 224.853 164.282 224.853 164.282C224.853 164.282 228.181 159.528 222.001 153.348Z" fill="black"/>
<path d="M190.864 65.6406C199.265 65.6406 206.076 58.8299 206.076 50.4284C206.076 42.027 199.265 35.2163 190.864 35.2163C182.462 35.2163 175.651 42.027 175.651 50.4284C175.651 58.8299 182.462 65.6406 190.864 65.6406Z" fill="#2F2E41"/>
<path d="M197.994 46.6254C202.982 46.6254 207.026 42.5816 207.026 37.5932C207.026 32.6049 202.982 28.561 197.994 28.561C193.006 28.561 188.962 32.6049 188.962 37.5932C188.962 42.5816 193.006 46.6254 197.994 46.6254Z" fill="#2F2E41"/>
<path d="M190.864 34.7407C190.864 32.5099 191.69 30.3582 193.182 28.6999C194.674 27.0416 196.727 25.9942 198.945 25.7593C198.629 25.7258 198.312 25.7089 197.994 25.7085C196.768 25.7077 195.554 25.9569 194.426 26.4407C193.299 26.9245 192.282 27.6328 191.438 28.5225C190.593 29.4122 189.939 30.4646 189.514 31.6156C189.09 32.7665 188.904 33.9918 188.969 35.2168C189.034 36.4417 189.347 37.6407 189.89 38.7406C190.434 39.8404 191.195 40.8181 192.129 41.6139C193.062 42.4098 194.148 43.0072 195.32 43.3696C196.492 43.7321 197.725 43.852 198.945 43.7221C196.727 43.4872 194.674 42.4398 193.182 40.7815C191.69 39.1232 190.864 36.9715 190.864 34.7407Z" fill="#2F2E41"/>
<path d="M185.872 65.6406C192.567 65.6406 197.994 61.5967 197.994 56.6084C197.994 51.62 192.567 47.5762 185.872 47.5762C179.177 47.5762 173.75 51.62 173.75 56.6084C173.75 61.5967 179.177 65.6406 185.872 65.6406Z" fill="#2F2E41"/>
<path d="M163.114 85.3574C162.948 86.2497 162.552 87.1463 162.886 88.0651C163.134 88.7459 163.737 89.2856 164.1 89.9303C164.829 91.2284 164.346 92.89 163.091 93.3986C162.385 92.9911 161.557 92.8509 160.756 93.0035C160.391 93.0854 160.07 93.2988 159.852 93.6029C159.635 93.9069 159.537 94.2804 159.578 94.6519C159.745 95.7496 161.025 96.4528 161.675 97.4321C162.075 98.1657 162.344 98.9634 162.47 99.7894C162.791 101.071 163.354 102.344 163.419 103.626C163.484 104.909 162.86 106.264 161.588 106.448C160.518 106.602 159.368 105.877 158.594 104.997C157.82 104.116 157.298 103.072 156.589 102.145C154.286 99.1333 150.349 97.7298 147.683 94.9967C144.267 91.4946 143.544 86.3069 144.766 82.1718C145.279 80.4353 146.128 78.7754 147.571 77.7158C149.086 76.6039 151.108 76.2483 152.804 75.3836C154.618 74.459 156.009 72.9798 157.613 71.7725C159.217 70.5651 161.204 69.597 163.393 69.9226C164.92 70.1497 166.369 70.9809 167.884 71.373C169.531 71.8231 171.284 71.6786 172.836 70.9648L171.428 72.4757C172.441 72.8773 173.532 73.0426 174.619 72.9592C174.181 73.8562 173.414 74.5493 172.477 74.8937C173.235 75.4866 174.188 75.7738 175.147 75.6984C174.102 76.8923 172.979 78.1346 171.369 78.5506C170.581 78.7543 169.722 78.7445 168.908 78.8775C167.172 79.1611 165.711 80.0771 164.295 80.9761C163.551 81.4482 162.615 81.9835 162.62 82.9634C162.625 83.7795 163.284 84.4456 163.114 85.3574Z" fill="#2F2E41"/>
<path d="M168.759 112.94C168.759 112.94 164.48 128.628 172.086 131.956C179.692 135.283 195.38 147.643 198.232 151.922C201.084 156.2 204.412 157.626 204.412 157.626C204.412 157.626 215.821 148.119 213.444 145.266C211.067 142.414 201.56 133.857 201.56 133.857C201.56 133.857 177.316 107.711 168.759 112.94Z" fill="#3F3D56"/>
<path d="M206.313 113.416C206.313 113.416 188.848 108.423 183.557 107.592C178.266 106.761 164.48 108.187 167.332 110.564C170.184 112.941 186.823 114.842 186.823 114.842L206.789 122.448L206.313 113.416Z" fill="#A0616A"/>
<path d="M206.313 93.9256C206.313 93.9256 207.74 103.433 207.74 106.761C207.74 110.089 210.116 112.941 208.215 112.941C206.313 112.941 204.887 111.039 204.887 112.941C204.887 114.842 202.035 126.251 204.887 126.251C207.74 126.251 214.87 124.35 216.296 124.35C217.723 124.35 222.476 123.399 222.001 118.17C221.526 112.941 219.624 107.236 220.575 106.286C221.526 105.335 222.001 100.581 221.05 99.6302C220.099 98.6794 217.723 92.4995 217.723 92.4995L206.313 93.9256Z" fill="#2F2E41"/>
<g opacity="0.3">
<path opacity="0.3" d="M306.794 190.688C305.917 190.583 305.034 190.83 304.339 191.376C303.644 191.922 303.195 192.722 303.089 193.599C302.984 194.476 303.231 195.36 303.777 196.055C304.323 196.749 305.123 197.199 306 197.304L312.616 198.099L313.41 191.483C313.462 191.048 313.429 190.608 313.31 190.187C313.192 189.765 312.993 189.371 312.722 189.027C312.452 188.683 312.117 188.396 311.735 188.181C311.354 187.967 310.934 187.83 310.5 187.778C310.065 187.726 309.625 187.759 309.203 187.877C308.782 187.996 308.388 188.195 308.044 188.466C307.7 188.736 307.413 189.071 307.198 189.453C306.984 189.834 306.847 190.254 306.794 190.688Z" fill="#FF6366"/>
</g>
<g opacity="0.3">
<path opacity="0.3" d="M386.529 158.897C385.759 158.464 384.849 158.354 383.999 158.592C383.149 158.83 382.427 159.396 381.994 160.165C381.56 160.934 381.45 161.844 381.687 162.695C381.923 163.545 382.488 164.267 383.257 164.701L389.062 167.973L392.334 162.169C392.549 161.787 392.687 161.368 392.74 160.933C392.793 160.498 392.76 160.058 392.643 159.636C392.525 159.214 392.326 158.819 392.056 158.475C391.786 158.13 391.451 157.842 391.069 157.627C390.688 157.412 390.268 157.274 389.833 157.222C389.398 157.169 388.958 157.203 388.536 157.321C388.114 157.439 387.72 157.639 387.376 157.909C387.031 158.179 386.744 158.515 386.529 158.897Z" fill="#FF6366"/>
</g>
<g opacity="0.3">
<path opacity="0.3" d="M351.004 203.999C350.57 203.947 350.129 203.981 349.708 204.099C349.287 204.217 348.893 204.417 348.549 204.687C348.205 204.957 347.917 205.293 347.703 205.674C347.489 206.055 347.351 206.475 347.299 206.91C347.247 207.344 347.281 207.784 347.399 208.206C347.517 208.627 347.717 209.021 347.987 209.365C348.257 209.709 348.593 209.997 348.974 210.211C349.356 210.425 349.775 210.563 350.21 210.615L356.826 211.409L357.62 204.793C357.726 203.916 357.478 203.033 356.932 202.338C356.386 201.643 355.587 201.194 354.71 201.088C353.832 200.983 352.949 201.23 352.254 201.776C351.559 202.322 351.11 203.122 351.004 203.999Z" fill="#FF6366"/>
</g>
</g>
<defs>
<clipPath id="clip0">
<rect width="473" height="314.739" fill="white"/>
</clipPath>
</defs>
</svg>
