<svg width="299" height="299" viewBox="0 0 299 299" fill="none" xmlns="http://www.w3.org/2000/svg">
<g clip-path="url(#clip0)">
<path d="M299 228.675H0V228.825H299V228.675Z" fill="#EBEBEB"/>
<path d="M53.5207 232.748H31.3707V232.897H53.5207V232.748Z" fill="#EBEBEB"/>
<path d="M143.52 235.983H101.062V236.133H143.52V235.983Z" fill="#EBEBEB"/>
<path d="M87.1106 232.82H56.7621V232.969H87.1106V232.82Z" fill="#EBEBEB"/>
<path d="M272.359 237.292H243.254V237.442H272.359V237.292Z" fill="#EBEBEB"/>
<path d="M240.594 237.292H221.476V237.442H240.594V237.292Z" fill="#EBEBEB"/>
<path d="M202.853 234.769H165.771V234.918H202.853V234.769Z" fill="#EBEBEB"/>
<path d="M141.726 202.005H26.2578C25.3533 202.003 24.4863 201.643 23.8472 201.002C23.2082 200.362 22.8492 199.495 22.8492 198.59V36.2748C22.8571 35.3754 23.2195 34.5155 23.8577 33.8818C24.496 33.248 25.3584 32.8917 26.2578 32.8901H141.726C142.631 32.8901 143.5 33.2499 144.14 33.8902C144.78 34.5306 145.14 35.3991 145.14 36.3047V198.59C145.14 199.496 144.78 200.364 144.14 201.004C143.5 201.645 142.631 202.005 141.726 202.005V202.005ZM26.2578 33.0097C25.3929 33.0113 24.564 33.356 23.9529 33.9682C23.3419 34.5803 22.9987 35.4099 22.9987 36.2748V198.59C22.9987 199.455 23.3419 200.284 23.9529 200.897C24.564 201.509 25.3929 201.853 26.2578 201.855H141.726C142.591 201.853 143.421 201.509 144.033 200.897C144.645 200.285 144.989 199.455 144.991 198.59V36.2748C144.989 35.4093 144.645 34.5798 144.033 33.9678C143.421 33.3558 142.591 33.0113 141.726 33.0097H26.2578Z" fill="#EBEBEB"/>
<path d="M271.079 202.005H155.605C154.7 202.003 153.833 201.643 153.193 201.003C152.553 200.363 152.192 199.495 152.191 198.59V36.2748C152.2 35.3749 152.564 34.5149 153.203 33.8814C153.842 33.2478 154.706 32.8917 155.605 32.8901H271.079C271.978 32.8932 272.839 33.2503 273.476 33.8838C274.112 34.5174 274.474 35.3765 274.482 36.2748V198.59C274.482 199.493 274.124 200.36 273.486 201C272.848 201.64 271.983 202.001 271.079 202.005V202.005ZM155.605 33.0097C154.74 33.0113 153.91 33.3558 153.298 33.9678C152.687 34.5798 152.342 35.4093 152.34 36.2748V198.59C152.342 199.455 152.687 200.285 153.298 200.897C153.91 201.509 154.74 201.853 155.605 201.855H271.079C271.945 201.853 272.774 201.509 273.386 200.897C273.998 200.285 274.343 199.455 274.344 198.59V36.2748C274.343 35.4093 273.998 34.5798 273.386 33.9678C272.774 33.3558 271.945 33.0113 271.079 33.0097H155.605Z" fill="#EBEBEB"/>
<path d="M260.501 226.833H213.857C211.681 226.833 209.594 225.969 208.055 224.43C206.517 222.892 205.652 220.805 205.652 218.629V176.721C205.652 174.545 206.517 172.458 208.055 170.919C209.594 169.381 211.681 168.516 213.857 168.516H260.501V226.833Z" fill="#F0F0F0"/>
<path d="M260.118 226.833H260.89C265.421 226.833 269.094 223.16 269.094 218.629V176.721C269.094 172.19 265.421 168.516 260.89 168.516H260.118C255.587 168.516 251.914 172.19 251.914 176.721V218.629C251.914 223.16 255.587 226.833 260.118 226.833Z" fill="white"/>
<path d="M254.252 190.027H152.042V226.834H254.252V190.027Z" fill="#F0F0F0"/>
<path d="M259.257 228.675H108.19C107.969 228.676 107.75 228.633 107.545 228.549C107.341 228.465 107.155 228.341 106.998 228.185C106.842 228.029 106.717 227.843 106.632 227.639C106.548 227.435 106.504 227.216 106.504 226.995V226.833H213.821L260.937 226.995C260.937 227.44 260.76 227.868 260.445 228.183C260.13 228.498 259.703 228.675 259.257 228.675V228.675Z" fill="#E0E0E0"/>
<path d="M117.95 144.322H215.926C218.96 144.322 221.87 145.527 224.015 147.672C226.16 149.818 227.366 152.727 227.366 155.761V198.345H106.504V155.761C106.504 152.727 107.709 149.818 109.855 147.672C112 145.527 114.91 144.322 117.944 144.322H117.95Z" fill="#E0E0E0"/>
<path d="M125.795 144.322H224.848C227.736 144.322 230.506 145.469 232.548 147.511C234.59 149.553 235.737 152.323 235.737 155.211V198.351H114.905V155.211C114.905 152.323 116.053 149.553 118.095 147.511C120.137 145.469 122.907 144.322 125.795 144.322Z" fill="white"/>
<path d="M249.366 186.666H159.822C158.451 186.666 157.137 187.21 156.168 188.179C155.199 189.148 154.655 190.462 154.655 191.833V196.491C154.655 197.861 155.199 199.176 156.168 200.145C157.137 201.114 158.451 201.658 159.822 201.658H249.366C250.351 201.658 251.325 201.464 252.235 201.087C253.144 200.71 253.971 200.158 254.667 199.461C255.362 198.765 255.914 197.938 256.29 197.028C256.667 196.118 256.86 195.143 256.859 194.159C256.859 192.172 256.07 190.266 254.664 188.861C253.259 187.455 251.353 186.666 249.366 186.666V186.666Z" fill="#E0E0E0"/>
<path d="M151.778 226.833H105.134C102.958 226.833 100.872 225.969 99.3329 224.43C97.7943 222.892 96.9299 220.805 96.9299 218.629V176.721C96.9299 174.545 97.7943 172.458 99.3329 170.919C100.872 169.381 102.958 168.516 105.134 168.516H151.778V226.833Z" fill="#F0F0F0"/>
<path d="M151.39 226.833H152.161C156.692 226.833 160.366 223.16 160.366 218.629V176.721C160.366 172.19 156.692 168.516 152.161 168.516H151.39C146.858 168.516 143.185 172.19 143.185 176.721V218.629C143.185 223.16 146.858 226.833 151.39 226.833Z" fill="white"/>
<path d="M239.834 55.3274H197.597V117.436H239.834V55.3274Z" fill="#E0E0E0"/>
<path d="M242.376 55.3274H198.751V117.436H242.376V55.3274Z" fill="white"/>
<path d="M202.405 60.2188V112.538H238.721V60.2188H202.405Z" fill="white"/>
<path d="M216.045 88.9047V92.8874C217.232 92.8874 218.407 92.6536 219.503 92.1996C220.6 91.7455 221.596 91.0799 222.435 90.2408C223.274 89.4018 223.939 88.4057 224.393 87.3094C224.847 86.2132 225.081 85.0382 225.081 83.8516V79.8689C223.894 79.8681 222.719 80.1013 221.622 80.5551C220.526 81.0089 219.529 81.6745 218.69 82.5137C217.851 83.3529 217.185 84.3493 216.732 85.4459C216.278 86.5425 216.045 87.7179 216.045 88.9047V88.9047Z" fill="white"/>
<path d="M216.045 75.4739V79.4566C218.441 79.455 220.739 78.5025 222.433 76.8083C224.127 75.1141 225.08 72.8167 225.081 70.4208V66.4321C223.894 66.4321 222.719 66.666 221.622 67.1205C220.525 67.575 219.529 68.2411 218.69 69.0808C217.851 69.9204 217.185 70.9173 216.732 72.0142C216.278 73.1112 216.045 74.2868 216.045 75.4739V75.4739Z" fill="white"/>
<path d="M216.045 102.342V106.325C218.442 106.323 220.741 105.37 222.435 103.675C224.129 101.979 225.081 99.6802 225.081 97.2832V93.2886C223.893 93.2886 222.717 93.5229 221.619 93.9781C220.522 94.4333 219.525 95.1005 218.686 95.9414C217.846 96.7824 217.181 97.7806 216.728 98.8789C216.275 99.9773 216.043 101.154 216.045 102.342V102.342Z" fill="white"/>
<path d="M177.104 104.04V60.2188L39.1692 60.2188V104.04H177.104Z" fill="#EBEBEB"/>
<path d="M39.1693 104.04V60.2188H38.3381V104.04H39.1693Z" fill="#E0E0E0"/>
<path d="M170.304 67.0178H45.9681V97.2407H170.304V67.0178Z" fill="white"/>
<path d="M75.7665 97.2407H65.4391L73.524 67.0178H83.8515L75.7665 97.2407Z" fill="white"/>
<path d="M85.3706 97.2407H79.3966L87.4816 67.0178H93.4556L85.3706 97.2407Z" fill="white"/>
<path d="M137.355 97.2407H131.381L139.466 67.0178H145.44L137.355 97.2407Z" fill="white"/>
<path d="M92.8813 178.557H59.4471L55.309 133.133H88.7491L92.8813 178.557Z" fill="#E6E6E6"/>
<path d="M94.6156 178.557H61.1754L57.0432 133.133H90.4834L94.6156 178.557Z" fill="#F0F0F0"/>
<path d="M65.7442 173.528L62.527 138.162H85.9088L89.126 173.528H65.7442Z" fill="white"/>
<path d="M117.944 178.557H113.441V228.669H117.944V178.557Z" fill="#E6E6E6"/>
<path d="M119.361 178.557H116.234V228.669H119.361V178.557Z" fill="white"/>
<path d="M72.8125 184.088H120.33V178.557H72.8125V184.088Z" fill="white"/>
<path d="M70.7976 184.088H66.2947V228.675H70.7976V184.088Z" fill="#E6E6E6"/>
<path d="M72.2206 184.088H69.093V228.675H72.2206V184.088Z" fill="white"/>
<path d="M42.3086 184.088H37.8057V228.675H42.3086V184.088Z" fill="#E6E6E6"/>
<path d="M43.7315 184.088H40.604V228.675H43.7315V184.088Z" fill="white"/>
<path d="M89.4547 184.088H84.9518V228.675H89.4547V184.088Z" fill="#E6E6E6"/>
<path d="M90.8717 184.088H87.7441V228.675H90.8717V184.088Z" fill="white"/>
<path d="M72.8126 178.557H37.8057V184.088H72.8126V178.557Z" fill="#E6E6E6"/>
<path d="M149.5 255.681C213.535 255.681 265.446 252.65 265.446 248.912C265.446 245.173 213.535 242.142 149.5 242.142C85.4647 242.142 33.5538 245.173 33.5538 248.912C33.5538 252.65 85.4647 255.681 149.5 255.681Z" fill="white"/>
<path d="M196.36 81.3278C194.075 79.8986 187.515 81.3278 188.586 88.5038C189.656 95.6798 181.224 93.8439 183.066 102.192C184.908 110.54 199.852 122.943 209.055 114.523C218.258 106.103 210.502 102.389 210.676 92.3968C210.795 86.4586 208.104 75.8262 196.36 81.3278Z" fill="#263238"/>
<path d="M209.898 114.164C209.855 114.164 209.815 114.147 209.785 114.116C209.77 114.102 209.759 114.086 209.751 114.067C209.743 114.049 209.739 114.029 209.739 114.009C209.739 113.989 209.743 113.969 209.751 113.95C209.759 113.932 209.77 113.915 209.785 113.901C215.454 108.268 214.144 104.835 212.487 100.494C211.567 98.1019 210.532 95.375 210.442 91.8409C210.353 88.0256 208.959 82.817 205.329 80.6702C202.758 79.1513 199.457 79.4144 195.522 81.4536C195.486 81.4707 195.445 81.4734 195.407 81.4612C195.37 81.449 195.338 81.4227 195.319 81.3878C195.309 81.37 195.302 81.3501 195.3 81.3297C195.298 81.3092 195.3 81.2885 195.306 81.2688C195.312 81.2492 195.322 81.231 195.336 81.2155C195.349 81.1999 195.366 81.1874 195.385 81.1785C199.421 79.0855 202.818 78.8284 205.491 80.4071C209.222 82.6197 210.658 87.9419 210.753 91.8289C210.837 95.3152 211.866 98.0062 212.775 100.38C214.467 104.829 215.812 108.346 210 114.134C209.97 114.155 209.934 114.166 209.898 114.164V114.164Z" fill="#263238"/>
<path d="M211.226 113.345C211.226 113.345 211.322 113.483 211.387 113.573L211.627 113.896C211.802 114.119 211.987 114.34 212.183 114.559C212.583 115.011 213.011 115.438 213.462 115.839C214.388 116.687 215.389 117.45 216.452 118.117C217.532 118.805 218.655 119.422 219.813 119.965C220.411 120.258 221.009 120.491 221.607 120.755C221.721 120.808 221.607 120.755 221.529 120.802C221.452 120.85 221.386 120.892 221.452 120.856C221.745 120.606 221.978 120.294 222.133 119.941C222.398 119.414 222.624 118.869 222.809 118.309C223.211 117.06 223.536 115.788 223.784 114.5C224.053 113.184 224.262 111.838 224.448 110.481C224.633 109.123 224.8 107.748 224.95 106.403H227.384C227.583 109.262 227.561 112.133 227.318 114.99C227.206 116.47 226.98 117.94 226.642 119.385C226.461 120.17 226.213 120.938 225.901 121.681C225.523 122.628 224.939 123.478 224.191 124.169C223.639 124.652 222.968 124.976 222.247 125.108C221.533 125.228 220.801 125.164 220.118 124.923C219.418 124.671 218.707 124.462 218.013 124.175C216.605 123.625 215.242 122.968 213.935 122.208C212.608 121.419 211.353 120.514 210.185 119.505C209.593 118.979 209.034 118.418 208.511 117.824C208.242 117.525 207.979 117.226 207.728 116.88L207.357 116.353C207.225 116.156 207.136 116.018 206.95 115.696L211.226 113.345Z" fill="#FFC3BD"/>
<path d="M210.407 111.132C215.998 114.72 215.544 116.897 215.544 116.897L212.027 121.992C212.027 121.992 203.057 118.404 202.501 115.587C201.915 112.651 207.692 109.398 210.407 111.132Z" fill="#263238"/>
<path opacity="0.1" d="M210.407 111.132C215.998 114.72 215.544 116.897 215.544 116.897L212.027 121.992C212.027 121.992 203.057 118.404 202.501 115.587C201.915 112.651 207.692 109.398 210.407 111.132Z" fill="white"/>
<path d="M215.878 116.395C215.982 116.468 216.053 116.58 216.076 116.705C216.098 116.83 216.07 116.959 215.998 117.064L212.41 122.213C212.375 122.266 212.329 122.311 212.276 122.346C212.223 122.381 212.163 122.404 212.1 122.415C212.038 122.427 211.974 122.425 211.912 122.411C211.85 122.397 211.792 122.37 211.74 122.333C211.689 122.296 211.645 122.25 211.611 122.197C211.577 122.143 211.554 122.084 211.544 122.022C211.533 121.959 211.535 121.896 211.549 121.834C211.564 121.772 211.59 121.714 211.627 121.663L215.215 116.514C215.288 116.412 215.398 116.342 215.522 116.32C215.646 116.298 215.774 116.324 215.878 116.395V116.395Z" fill="#DA2753"/>
<path d="M225.345 107.574L222.57 103.866L227.892 102.497C227.892 102.497 228.974 105.798 227.204 108.22L225.345 107.574Z" fill="#FFC3BD"/>
<path d="M222.719 99.3098L227.151 98.5623L227.892 102.497L222.57 103.867L222.719 99.3098Z" fill="#FFC3BD"/>
<path d="M177.63 243.745L182.701 244.235L186.325 232.311L181.254 231.821L177.63 243.745Z" fill="#FFC3BD"/>
<path d="M145.368 226.122L149.129 229.65L157.25 220.728L153.489 217.199L145.368 226.122Z" fill="#FFC3BD"/>
<path d="M150.87 227.958L148.041 222.869C147.995 222.78 147.918 222.711 147.824 222.676C147.73 222.64 147.626 222.641 147.533 222.677L143.179 224.334C143.069 224.379 142.969 224.448 142.887 224.535C142.805 224.622 142.742 224.726 142.704 224.84C142.666 224.953 142.653 225.074 142.666 225.193C142.679 225.312 142.717 225.427 142.779 225.53C143.795 227.288 144.376 228.089 145.613 230.314C146.379 231.689 147.868 234.853 148.926 236.754C149.985 238.656 151.916 237.717 151.653 236.826C150.457 232.849 150.672 230.637 151.013 228.885C151.075 228.568 151.024 228.24 150.87 227.958V227.958Z" fill="#263238"/>
<path d="M183.305 242.686H177.152C177.042 242.688 176.936 242.725 176.849 242.792C176.761 242.859 176.698 242.952 176.667 243.057L175.328 247.925C175.296 248.04 175.292 248.161 175.315 248.278C175.338 248.395 175.388 248.505 175.461 248.6C175.535 248.694 175.629 248.771 175.736 248.823C175.844 248.875 175.962 248.901 176.081 248.9C178.246 248.9 179.275 248.9 181.977 248.9H190.248C192.496 248.9 192.963 246.627 192.042 246.424C187.856 245.503 185.464 244.229 184.178 243.015C183.941 242.795 183.628 242.677 183.305 242.686V242.686Z" fill="#263238"/>
<path opacity="0.2" d="M186.325 232.317L184.46 238.458H179.233L181.254 231.827L186.325 232.317Z" fill="black"/>
<path opacity="0.2" d="M153.489 217.199L157.251 220.734L153.065 225.332L149.303 221.798L153.489 217.199Z" fill="black"/>
<path d="M210.407 111.132C210.407 111.132 212.44 112.514 199.553 140.512L179.263 134.897C181.888 126.728 183.311 121.639 184.047 103.597C187.051 103.797 190.037 104.214 192.981 104.847C196.107 105.479 199.185 106.332 202.19 107.401C204.992 108.501 207.734 109.747 210.407 111.132V111.132Z" fill="#263238"/>
<path opacity="0.1" d="M210.407 111.132C210.407 111.132 212.44 112.514 199.553 140.512L179.263 134.897C181.888 126.728 183.311 121.639 184.047 103.597C187.051 103.797 190.037 104.214 192.981 104.847C196.107 105.479 199.185 106.332 202.19 107.401C204.992 108.501 207.734 109.747 210.407 111.132V111.132Z" fill="white"/>
<path d="M196.772 94.7231C196.533 97.8507 195.606 103.442 192.987 104.847C192.987 104.847 191.462 110.032 198.076 111.94C203.679 113.548 202.196 107.401 202.196 107.401C199.11 105.696 201 102.677 201.598 99.2919L196.772 94.7231Z" fill="#FFC3BD"/>
<path opacity="0.2" d="M196.742 94.7292C196.551 97.2349 195.923 101.349 194.314 103.586C196.18 103.771 199.098 103.203 199.96 101.792C200.385 100.802 200.731 99.7804 200.994 98.7358L196.742 94.7292Z" fill="black"/>
<path d="M204.977 90.1965C204.977 95.3393 205.066 97.522 202.633 100.303C198.967 104.489 192.652 103.347 191.127 98.2994C189.758 93.7606 190.009 86.1122 194.912 83.774C195.99 83.2537 197.182 83.0176 198.377 83.0881C199.571 83.1587 200.728 83.5337 201.736 84.1774C202.745 84.821 203.572 85.712 204.139 86.7655C204.707 87.8191 204.995 89.0002 204.977 90.1965V90.1965Z" fill="#FFC3BD"/>
<path d="M194.35 87.344C197.238 91.3805 206.956 96.9898 207.608 91.5838C208.26 86.1779 203.296 80.8198 198.381 81.3521C193.465 81.8843 191.88 83.9115 194.35 87.344Z" fill="#263238"/>
<path d="M207.106 94.9984C206.888 95.4408 206.586 95.8359 206.215 96.1612C205.845 96.4865 205.414 96.7355 204.947 96.8941C203.697 97.3067 203.009 96.2064 203.302 94.9924C203.572 93.8981 204.54 92.3672 205.826 92.4808C206.105 92.5096 206.373 92.608 206.605 92.767C206.837 92.926 207.025 93.1405 207.152 93.3909C207.279 93.6414 207.342 93.9197 207.334 94.2005C207.326 94.4814 207.247 94.7557 207.106 94.9984Z" fill="#FFC3BD"/>
<path d="M199.553 140.53C199.553 140.53 206.777 169.79 202.041 191.922C198.865 206.747 187.419 236.694 187.419 236.694L178.449 236.467C178.449 236.467 187.114 205.042 188.903 192.682C191.97 171.536 184.669 136.416 184.669 136.416L199.553 140.53Z" fill="#DA2753"/>
<path opacity="0.2" d="M191.498 144.716L187.025 151.773C188.364 160.14 189.213 168.578 189.566 177.044C195.875 165.784 192.897 150.696 191.498 144.716Z" fill="black"/>
<path d="M189.022 237.143L177.63 236.862L178.396 232.807L189.853 233.668L189.022 237.143Z" fill="#263238"/>
<path d="M195.104 139.334C195.104 139.334 190.918 171.327 181.906 189.506C174.616 204.187 155.163 225.087 155.163 225.087L150.188 219.962C150.188 219.962 163.344 197.238 168.726 187.497C182.013 163.577 170.239 142.139 179.245 134.873L195.104 139.334Z" fill="#DA2753"/>
<path d="M155.666 225.786L149.249 219.525L151.378 216.631L158.375 223.861L155.666 225.786Z" fill="#263238"/>
<path d="M179.287 133.617L177.869 135.184C177.762 135.303 177.869 135.495 178.12 135.56L199.403 141.451C199.583 141.498 199.762 141.451 199.804 141.343L200.492 139.549C200.539 139.429 200.408 139.28 200.211 139.22L179.663 133.533C179.599 133.513 179.53 133.51 179.464 133.525C179.398 133.54 179.337 133.571 179.287 133.617V133.617Z" fill="#DA2753"/>
<path opacity="0.5" d="M179.287 133.617L177.869 135.184C177.762 135.303 177.869 135.495 178.12 135.56L199.403 141.451C199.583 141.498 199.762 141.451 199.804 141.343L200.492 139.549C200.539 139.429 200.408 139.28 200.211 139.22L179.663 133.533C179.599 133.513 179.53 133.51 179.464 133.525C179.398 133.54 179.337 133.571 179.287 133.617V133.617Z" fill="white"/>
<path d="M181.409 136.679L180.859 136.529C180.751 136.499 180.686 136.416 180.71 136.35L181.619 134.065C181.648 133.994 181.762 133.964 181.87 133.994L182.42 134.149C182.528 134.149 182.599 134.257 182.569 134.329L181.66 136.613C181.631 136.65 181.591 136.676 181.546 136.688C181.501 136.7 181.453 136.697 181.409 136.679V136.679Z" fill="#DA2753"/>
<path d="M197.801 141.218L197.251 141.068C197.143 141.038 197.071 140.955 197.101 140.889L198.01 138.598C198.039 138.562 198.079 138.535 198.125 138.523C198.17 138.512 198.218 138.515 198.261 138.533L198.811 138.688C198.919 138.718 198.985 138.796 198.961 138.862L198.052 141.128C198.022 141.218 197.938 141.248 197.801 141.218Z" fill="#DA2753"/>
<path d="M189.608 138.951L189.058 138.796C188.944 138.796 188.879 138.688 188.902 138.622L189.817 136.332C189.817 136.266 189.955 136.236 190.063 136.266L190.613 136.416C190.726 136.416 190.792 136.529 190.768 136.595L189.853 138.885C189.829 138.951 189.716 138.981 189.608 138.951Z" fill="#DA2753"/>
<path d="M197.287 92.0916C197.287 92.5102 197.107 92.863 196.838 92.875C196.569 92.8869 196.324 92.57 196.294 92.1514C196.264 91.7328 196.473 91.38 196.748 91.362C197.023 91.3441 197.263 91.667 197.287 92.0916Z" fill="#263238"/>
<path d="M192.557 92.3609C192.557 92.7795 192.377 93.1323 192.102 93.1502C191.827 93.1682 191.594 92.8393 191.564 92.4207C191.534 92.0021 191.743 91.6492 192.018 91.6373C192.294 91.6253 192.557 91.9482 192.557 92.3609Z" fill="#263238"/>
<path d="M192.15 91.6494L191.133 91.4221C191.133 91.4221 191.689 92.1756 192.15 91.6494Z" fill="#263238"/>
<path d="M193.854 93.0068C193.537 93.9793 193.091 94.9046 192.526 95.7576C192.748 95.8969 192.996 95.9863 193.256 96.0193C193.515 96.0524 193.778 96.0284 194.027 95.949L193.854 93.0068Z" fill="#ED847E"/>
<path d="M196.354 97.3724C196.105 97.4367 195.851 97.4747 195.594 97.486C195.581 97.4877 195.567 97.4865 195.554 97.4825C195.541 97.4784 195.529 97.4716 195.519 97.4626C195.509 97.4535 195.5 97.4424 195.495 97.4299C195.489 97.4175 195.487 97.404 195.487 97.3903C195.486 97.377 195.488 97.3636 195.492 97.3509C195.496 97.3383 195.503 97.3266 195.512 97.3166C195.521 97.3066 195.532 97.2985 195.544 97.2927C195.556 97.2868 195.569 97.2834 195.582 97.2827C196.105 97.2616 196.616 97.1186 197.074 96.8653C197.531 96.612 197.924 96.2553 198.22 95.8236C198.235 95.8047 198.256 95.7919 198.28 95.7875C198.304 95.7832 198.329 95.7875 198.35 95.7998C198.371 95.8121 198.387 95.8316 198.395 95.8546C198.403 95.8776 198.402 95.9026 198.393 95.9252C197.922 96.6494 197.193 97.1669 196.354 97.3724Z" fill="#263238"/>
<path d="M198.847 89.0363C198.813 89.045 198.778 89.0447 198.744 89.0352C198.71 89.0257 198.68 89.0075 198.656 88.9824C198.438 88.7529 198.169 88.5788 197.87 88.4748C197.572 88.3708 197.252 88.3398 196.939 88.3844C196.886 88.3938 196.832 88.383 196.787 88.3542C196.741 88.3255 196.708 88.2808 196.694 88.2289C196.683 88.1759 196.693 88.1207 196.722 88.075C196.751 88.0293 196.797 87.9966 196.85 87.9838C197.229 87.923 197.617 87.9543 197.981 88.0751C198.345 88.1958 198.675 88.4024 198.943 88.6774C198.98 88.7173 199 88.7696 199 88.824C199 88.8783 198.98 88.9307 198.943 88.9705C198.916 88.9996 198.884 89.0221 198.847 89.0363V89.0363Z" fill="#263238"/>
<path d="M190.511 89.6402C190.479 89.6592 190.443 89.6692 190.406 89.6692C190.369 89.6692 190.333 89.6592 190.301 89.6402C190.259 89.6081 190.231 89.5607 190.223 89.5082C190.215 89.4557 190.228 89.4022 190.26 89.3591C190.48 89.0453 190.773 88.7891 191.113 88.6122C191.454 88.4353 191.831 88.3428 192.215 88.3425C192.242 88.3441 192.268 88.3508 192.292 88.3625C192.316 88.3741 192.338 88.3904 192.355 88.4104C192.373 88.4304 192.387 88.4538 192.396 88.479C192.404 88.5043 192.408 88.5311 192.406 88.5578C192.405 88.5845 192.398 88.6107 192.386 88.6348C192.375 88.6589 192.359 88.6804 192.339 88.6982C192.319 88.716 192.295 88.7296 192.27 88.7384C192.245 88.7471 192.218 88.7508 192.191 88.7492C191.876 88.7542 191.566 88.8338 191.288 88.9814C191.009 89.1289 190.77 89.3404 190.588 89.5983C190.566 89.618 190.539 89.6323 190.511 89.6402V89.6402Z" fill="#263238"/>
<path d="M184.525 111.306C184.005 112.095 183.532 112.729 183 113.399C182.468 114.069 181.948 114.696 181.397 115.318C180.294 116.568 179.12 117.754 177.881 118.87C176.649 120.009 175.343 121.064 173.97 122.028C173.295 122.53 172.571 122.967 171.865 123.421L170.759 124.055L170.209 124.366C170.006 124.474 169.742 124.617 169.491 124.719C168.383 125.22 167.151 125.382 165.951 125.185C164.818 124.971 163.759 124.469 162.877 123.726C162.133 123.105 161.477 122.385 160.928 121.585C160.422 120.86 159.972 120.096 159.582 119.301C158.164 116.289 157.185 113.089 156.676 109.799L159.068 109.249C159.564 110.672 160.121 112.149 160.749 113.53C161.337 114.911 162.03 116.245 162.824 117.519C163.485 118.672 164.362 119.687 165.407 120.509C165.755 120.775 166.168 120.943 166.603 120.993C166.983 121.01 167.36 120.918 167.691 120.73C167.807 120.671 167.919 120.605 168.026 120.533L168.493 120.234L169.42 119.636C170.018 119.193 170.616 118.781 171.214 118.308C172.391 117.386 173.521 116.404 174.598 115.366C175.693 114.332 176.715 113.225 177.702 112.089C178.198 111.521 178.683 110.947 179.149 110.361C179.615 109.775 180.082 109.165 180.459 108.627L184.525 111.306Z" fill="#FFC3BD"/>
<path d="M159.529 111.455L160.055 105.876L155.038 107.927C155.038 107.927 155.636 110.731 157.549 111.736L159.529 111.455Z" fill="#FFC3BD"/>
<path d="M158.452 102.862L154.571 102.019L155.038 107.927L160.055 105.876L158.452 102.862Z" fill="#FFC3BD"/>
<path d="M184.053 103.597C181.439 103.597 175.148 113.572 175.148 113.572L179.592 118.177C179.592 118.177 187.964 112.532 188.292 109.207C188.58 106.348 187.378 103.627 184.053 103.597Z" fill="#263238"/>
<path opacity="0.1" d="M184.053 103.597C181.439 103.597 175.148 113.572 175.148 113.572L179.592 118.177C179.592 118.177 187.964 112.532 188.292 109.207C188.58 106.348 187.378 103.627 184.053 103.597Z" fill="white"/>
<path d="M179.998 118.404C179.908 118.493 179.787 118.544 179.66 118.544C179.533 118.544 179.412 118.493 179.322 118.404L174.831 114.003C174.742 113.913 174.692 113.792 174.692 113.665C174.692 113.538 174.742 113.417 174.831 113.327V113.327C174.922 113.237 175.044 113.187 175.172 113.187C175.3 113.187 175.422 113.237 175.513 113.327L179.998 117.722C180.088 117.813 180.138 117.935 180.138 118.063C180.138 118.191 180.088 118.313 179.998 118.404Z" fill="#DA2753"/>
<path d="M151.892 230.696C152.056 230.692 152.214 230.633 152.341 230.529C152.401 230.49 152.449 230.436 152.479 230.371C152.51 230.307 152.522 230.235 152.514 230.164C152.46 229.518 150.822 228.639 150.63 228.537C150.614 228.527 150.596 228.522 150.577 228.522C150.558 228.522 150.539 228.527 150.523 228.537C150.506 228.549 150.494 228.566 150.487 228.585C150.481 228.605 150.481 228.626 150.487 228.645C150.672 229.303 151.085 230.439 151.683 230.648C151.749 230.677 151.82 230.693 151.892 230.696V230.696ZM150.696 228.836C151.294 229.159 152.227 229.781 152.257 230.182C152.261 230.218 152.254 230.254 152.237 230.286C152.22 230.318 152.193 230.345 152.161 230.361C152.101 230.418 152.026 230.458 151.945 230.477C151.865 230.496 151.78 230.493 151.701 230.469C151.378 230.349 151.007 229.745 150.696 228.836Z" fill="#DA2753"/>
<path d="M152.113 229.094C152.372 229.114 152.63 229.049 152.849 228.909C152.921 228.849 152.97 228.766 152.987 228.675C153.005 228.583 152.99 228.488 152.945 228.406C152.913 228.32 152.862 228.243 152.796 228.179C152.729 228.116 152.649 228.069 152.562 228.042C151.862 227.796 150.559 228.508 150.505 228.538C150.489 228.547 150.476 228.561 150.467 228.576C150.458 228.592 150.452 228.609 150.451 228.628C150.451 228.645 150.455 228.663 150.464 228.678C150.472 228.694 150.484 228.707 150.499 228.717C151.002 228.962 151.554 229.091 152.113 229.094V229.094ZM152.215 228.191C152.311 228.191 152.406 228.207 152.496 228.239C152.555 228.256 152.61 228.288 152.654 228.33C152.699 228.373 152.733 228.426 152.753 228.484C152.819 228.64 152.753 228.711 152.717 228.753C152.412 229.01 151.336 228.867 150.78 228.628C151.225 228.39 151.713 228.241 152.215 228.191V228.191Z" fill="#DA2753"/>
<path d="M186.032 243.679C186.45 243.71 186.868 243.612 187.228 243.398C187.321 243.328 187.396 243.238 187.448 243.134C187.5 243.03 187.527 242.916 187.527 242.8C187.535 242.74 187.525 242.679 187.5 242.624C187.475 242.569 187.434 242.522 187.384 242.489C186.827 242.106 184.591 243.135 184.34 243.254C184.319 243.263 184.303 243.279 184.292 243.298C184.281 243.318 184.277 243.34 184.28 243.362C184.282 243.382 184.291 243.402 184.305 243.417C184.319 243.432 184.337 243.442 184.358 243.446C184.906 243.582 185.467 243.66 186.032 243.679ZM187.013 242.621C187.1 242.615 187.187 242.634 187.264 242.674C187.294 242.674 187.324 242.728 187.318 242.812C187.317 242.894 187.296 242.975 187.258 243.048C187.219 243.121 187.164 243.183 187.097 243.23C186.594 243.613 185.368 243.452 184.705 243.332C185.432 242.975 186.211 242.735 187.013 242.621V242.621Z" fill="#DA2753"/>
<path d="M184.376 243.47H184.412C185.087 243.195 186.493 242.064 186.415 241.502C186.415 241.383 186.319 241.233 186.014 241.197C184.818 241.06 184.298 243.254 184.274 243.35C184.271 243.369 184.272 243.388 184.278 243.406C184.285 243.424 184.296 243.44 184.31 243.452C184.33 243.464 184.353 243.47 184.376 243.47V243.47ZM185.907 241.389H185.978C186.188 241.389 186.2 241.49 186.206 241.52C186.253 241.879 185.249 242.794 184.519 243.177C184.681 242.668 185.135 241.389 185.907 241.389V241.389Z" fill="#DA2753"/>
<path d="M196.868 91.3742L195.851 91.147C195.851 91.147 196.408 91.9005 196.868 91.3742Z" fill="#263238"/>
<path d="M91.2026 246.192L158.836 240.287C163.429 239.886 166.828 235.837 166.427 231.244L152.34 69.9076C151.939 65.3145 147.89 61.9162 143.297 62.3173L75.6636 68.2225C71.0706 68.6236 67.6723 72.6721 68.0733 77.2651L82.1601 238.602C82.5611 243.195 86.6096 246.593 91.2026 246.192Z" fill="#DA2753"/>
<path d="M73.1357 124.916C73.7623 124.857 74.3402 124.553 74.7443 124.071C75.1484 123.588 75.3461 122.966 75.2945 122.339L73.4347 101.062C73.3769 100.435 73.0746 99.857 72.5933 99.4518C72.112 99.0466 71.4905 98.8473 70.8633 98.8972C70.2357 98.9549 69.6563 99.2581 69.2509 99.7407C68.8456 100.223 68.6471 100.846 68.6986 101.475L70.5643 122.751C70.6221 123.378 70.9244 123.956 71.4057 124.362C71.887 124.767 72.5086 124.966 73.1357 124.916V124.916Z" fill="#DA2753"/>
<path d="M155.741 108.087L156.569 108.015C157.539 107.93 158.257 107.075 158.173 106.104L157.038 93.1053C156.953 92.1347 156.097 91.4165 155.127 91.5013L154.299 91.5736C153.328 91.6583 152.61 92.5138 152.695 93.4844L153.83 106.483C153.915 107.454 154.77 108.172 155.741 108.087Z" fill="#263238"/>
<path d="M156.712 129.97L157.543 129.896C158.517 129.808 159.236 128.947 159.148 127.973L157.974 114.924C157.886 113.95 157.025 113.231 156.051 113.319L155.22 113.394C154.245 113.482 153.527 114.342 153.614 115.317L154.789 128.365C154.876 129.339 155.737 130.058 156.712 129.97Z" fill="#263238"/>
<path d="M92.6238 246.065L160.257 240.159C164.85 239.758 168.249 235.71 167.848 231.117L153.761 69.7801C153.36 65.1871 149.311 61.7888 144.718 62.1898L77.0848 68.0951C72.4917 68.4961 69.0934 72.5446 69.4945 77.1377L83.5812 238.474C83.9822 243.067 88.0307 246.466 92.6238 246.065Z" fill="#263238"/>
<path opacity="0.4" d="M85.9624 236.019L165.048 229.112C165.461 229.074 165.843 228.874 166.109 228.556C166.376 228.238 166.506 227.827 166.471 227.413L153.088 73.9667C153.05 73.5544 152.851 73.1738 152.534 72.9074C152.217 72.641 151.808 72.5102 151.396 72.5434L72.2802 79.4563C72.076 79.4743 71.8773 79.5324 71.6956 79.6273C71.5139 79.7221 71.3526 79.8518 71.221 80.0089C71.0894 80.1661 70.99 80.3476 70.9286 80.5432C70.8671 80.7387 70.8448 80.9444 70.8629 81.1486L84.27 234.601C84.2873 234.806 84.3449 235.005 84.4395 235.187C84.5341 235.369 84.6638 235.531 84.8211 235.662C84.9784 235.794 85.1602 235.894 85.3561 235.955C85.552 236.016 85.7581 236.038 85.9624 236.019V236.019Z" fill="#DA2753"/>
<path opacity="0.3" d="M140.942 73.458L131.004 232.083L114.475 233.531L124.414 74.8992L140.942 73.458Z" fill="#DA2753"/>
<path opacity="0.2" d="M119.672 68.3675L102.783 69.8422C102.391 69.8763 102.102 70.2214 102.136 70.613L102.196 71.2981C102.23 71.6896 102.575 71.9793 102.967 71.9451L119.856 70.4705C120.247 70.4363 120.537 70.0912 120.503 69.6996L120.443 69.0146C120.409 68.623 120.063 68.3333 119.672 68.3675Z" fill="white"/>
<path d="M103.932 129.838H186.223C188.361 129.844 190.409 130.696 191.92 132.208C193.432 133.719 194.284 135.767 194.29 137.905V178.27C194.284 180.408 193.432 182.457 191.921 183.969C190.409 185.482 188.361 186.335 186.223 186.343H157.746L145.075 199.015L132.403 186.343H103.932C101.793 186.337 99.7435 185.484 98.2309 183.971C96.7183 182.459 95.8657 180.409 95.8594 178.27V137.905C95.8657 135.766 96.7185 133.717 98.2312 132.206C99.744 130.694 101.794 129.843 103.932 129.838Z" fill="#DA2753"/>
<path opacity="0.3" d="M103.932 129.838H186.223C188.361 129.844 190.409 130.696 191.92 132.208C193.432 133.719 194.284 135.767 194.29 137.905V178.27C194.284 180.408 193.432 182.457 191.921 183.969C190.409 185.482 188.361 186.335 186.223 186.343H157.746L145.075 199.015L132.403 186.343H103.932C101.793 186.337 99.7435 185.484 98.2309 183.971C96.7183 182.459 95.8657 180.409 95.8594 178.27V137.905C95.8657 135.766 96.7185 133.717 98.2312 132.206C99.744 130.694 101.794 129.843 103.932 129.838Z" fill="white"/>
<path d="M109.207 143.824V172.349C109.197 173.455 109.626 174.52 110.399 175.311C111.172 176.102 112.227 176.555 113.333 176.571H176.817C177.923 176.555 178.978 176.102 179.751 175.311C180.524 174.52 180.953 173.455 180.943 172.349V143.824C180.943 143.284 180.841 142.749 180.644 142.246C180.343 141.473 179.818 140.809 179.136 140.338C178.453 139.866 177.646 139.61 176.817 139.603H113.333C112.505 139.61 111.698 139.866 111.017 140.337C110.335 140.808 109.811 141.473 109.512 142.246C109.309 142.747 109.206 143.283 109.207 143.824V143.824Z" fill="white"/>
<path opacity="0.1" d="M109.512 142.246L140.201 155.611C141.739 156.283 143.399 156.629 145.078 156.629C146.756 156.629 148.416 156.283 149.954 155.611L180.644 142.246C180.343 141.473 179.817 140.809 179.135 140.338C178.453 139.866 177.645 139.61 176.816 139.603H113.333C112.504 139.61 111.697 139.866 111.016 140.337C110.335 140.808 109.811 141.473 109.512 142.246V142.246Z" fill="black"/>
<path d="M110.887 142.099C115.679 137.307 115.679 129.537 110.887 124.745C106.095 119.953 98.3257 119.953 93.5336 124.745C88.7415 129.537 88.7415 137.307 93.5336 142.099C98.3257 146.891 106.095 146.891 110.887 142.099Z" fill="#DE5753"/>
<path d="M104.578 140.901H101.72V130.137C100.663 131.12 99.4035 131.859 98.03 132.301V129.712C98.9121 129.388 99.7329 128.917 100.458 128.319C101.274 127.711 101.897 126.881 102.252 125.927H104.572L104.578 140.901Z" fill="white"/>
<path d="M171.249 57.3603C170.823 57.3568 170.413 57.2022 170.091 56.9239C169.769 56.6457 169.556 56.262 169.491 55.8414C168.67 50.4503 165.746 45.6044 161.359 42.366C156.971 39.1275 151.479 37.7607 146.085 38.5652C145.647 38.5767 145.22 38.4276 144.885 38.1461C144.549 37.8646 144.328 37.4701 144.264 37.0369C144.199 36.6037 144.295 36.1619 144.534 35.7946C144.772 35.4273 145.137 35.1599 145.559 35.043C151.886 34.0998 158.328 35.7043 163.474 39.5046C168.619 43.3049 172.048 48.9907 173.007 55.3152C173.072 55.7808 172.952 56.2534 172.673 56.6315C172.393 57.0095 171.976 57.2626 171.512 57.3364C171.425 57.353 171.337 57.361 171.249 57.3603V57.3603Z" fill="#DA2753"/>
<path d="M162.405 58.6878C161.98 58.6845 161.57 58.5307 161.248 58.2537C160.926 57.9766 160.713 57.5943 160.647 57.1749C160.185 54.1267 158.533 51.3862 156.053 49.5544C153.573 47.7226 150.468 46.9491 147.419 47.4035C146.98 47.4167 146.552 47.2688 146.216 46.9877C145.879 46.7067 145.657 46.3121 145.591 45.8784C145.526 45.4447 145.621 45.002 145.86 44.634C146.099 44.2661 146.464 43.9983 146.887 43.8813C150.87 43.2863 154.927 44.2957 158.167 46.6881C161.407 49.0805 163.565 52.6606 164.169 56.6426C164.236 57.1092 164.117 57.5834 163.837 57.9627C163.557 58.3421 163.139 58.5961 162.674 58.6699C162.585 58.6818 162.495 58.6878 162.405 58.6878V58.6878Z" fill="#DA2753"/>
<path d="M153.566 60.0212C153.141 60.0177 152.73 59.8631 152.408 59.5848C152.086 59.3066 151.873 58.9229 151.808 58.5023C151.756 58.1525 151.636 57.8164 151.454 57.5133C151.272 57.2101 151.031 56.946 150.747 56.7359C150.462 56.5259 150.139 56.3741 149.796 56.2893C149.453 56.2045 149.096 56.1884 148.746 56.2419C148.312 56.2478 147.891 56.0962 147.56 55.8152C147.23 55.5342 147.012 55.1428 146.948 54.7136C146.883 54.2843 146.977 53.8464 147.211 53.4808C147.445 53.1153 147.803 52.847 148.22 52.7256C149.034 52.6028 149.864 52.6422 150.663 52.8415C151.461 53.0408 152.213 53.396 152.874 53.8867C153.534 54.3775 154.092 54.9941 154.513 55.701C154.935 56.408 155.213 57.1913 155.33 58.006C155.396 58.4716 155.276 58.9442 154.996 59.3222C154.716 59.7003 154.3 59.9534 153.835 60.0272C153.746 60.0341 153.656 60.0321 153.566 60.0212V60.0212Z" fill="#DA2753"/>
</g>
<defs>
<clipPath id="clip0">
<rect width="299" height="299" fill="white"/>
</clipPath>
</defs>
</svg>
