<svg width="574" height="441" viewBox="0 0 574 441" fill="none" xmlns="http://www.w3.org/2000/svg">
<g clip-path="url(#clip0)">
<path d="M261.498 4.85568C289.043 12.0113 313.339 31.1152 337.488 56.1773C329.541 63.4211 324.74 73.4848 324.111 84.2198C323.481 94.9549 327.073 105.511 334.12 113.634C341.166 121.757 351.109 126.803 361.825 127.696C372.542 128.589 383.182 125.257 391.476 118.412C419.843 152.299 450.816 188.123 488.62 217.731C584.874 293.119 386.934 430.607 261.498 430.607C136.062 430.607 34.3762 335.299 34.3762 217.731C34.3762 100.163 140.619 -26.5462 261.498 4.85568Z" fill="#F2F2F2"/>
<path d="M366.327 114.381C350.105 114.381 336.955 101.231 336.955 85.009C336.955 68.7874 350.105 55.6372 366.327 55.6372C382.549 55.6372 395.699 68.7874 395.699 85.009C395.699 101.231 382.549 114.381 366.327 114.381Z" fill="#FF6584"/>
<path d="M85.3908 394.976C42.2585 394.976 7.29277 390.438 7.29277 384.841C7.29277 379.244 42.2585 374.706 85.3908 374.706C128.523 374.706 163.489 379.244 163.489 384.841C163.489 390.438 128.523 394.976 85.3908 394.976Z" fill="#3F3D56"/>
<path d="M361.722 440.401C318.59 440.401 283.624 435.863 283.624 430.266C283.624 424.668 318.59 420.131 361.722 420.131C404.855 420.131 439.82 424.668 439.82 430.266C439.82 435.863 404.855 440.401 361.722 440.401Z" fill="#3F3D56"/>
<path d="M81.083 349.554C81.083 349.554 76.8865 364.008 74.0888 367.739C71.2911 371.469 68.9597 377.53 70.3586 378.463C71.7574 379.396 74.5551 390.586 70.8249 391.053C67.0946 391.519 58.7015 378.929 58.2353 374.733C57.769 370.536 55.9038 355.615 55.9038 355.615C55.9038 355.615 52.6399 342.559 57.769 341.627C62.898 340.694 70.8248 340.228 70.8248 340.228L81.083 349.554Z" fill="#2F2E41"/>
<path d="M100.667 364.941C100.667 364.941 106.729 380.794 108.127 381.727C109.526 382.66 114.655 391.053 104.397 391.053C94.139 391.053 88.5436 388.255 88.5436 388.255L85.2796 384.525C85.2796 384.525 85.2796 374.733 86.2122 373.334C87.1448 371.935 86.2122 364.941 86.2122 364.941H100.667Z" fill="#2F2E41"/>
<path d="M142.165 219.927C142.165 219.927 149.626 270.286 143.098 286.606C136.57 302.925 130.042 307.588 130.042 307.588L80.6164 353.75C80.6164 353.75 65.2292 345.823 66.628 340.694C66.628 340.694 69.892 338.829 70.3583 337.43C70.8246 336.031 76.8862 335.565 76.8862 335.565C76.8862 335.565 79.6839 332.301 79.6839 330.436C79.6839 328.571 103.93 295.465 111.857 293.134C111.857 293.134 116.054 288.004 115.588 287.072C115.121 286.139 116.986 282.875 116.986 282.875L112.324 264.69L82.9478 260.028C82.9478 260.028 70.8246 217.13 81.0827 213.866C91.3409 210.602 142.165 219.927 142.165 219.927Z" fill="#2F2E41"/>
<path d="M83.8807 252.567L82.9481 260.027C82.9481 260.027 82.9481 279.611 83.8807 281.476C84.8132 283.341 85.2795 286.139 83.8807 288.004C82.4818 289.869 80.1504 294.532 81.083 296.397C82.0155 298.262 79.2179 350.952 82.9481 354.682C86.6783 358.413 85.2795 363.075 84.8132 363.542C84.3469 364.008 85.2794 365.873 85.2794 365.873C85.2794 365.873 104.397 369.137 102.998 365.873C101.599 362.609 101.599 360.744 100.667 359.811C99.7341 358.879 100.667 357.48 100.667 357.48C100.667 357.48 99.2679 342.559 100.667 341.627C102.066 340.694 106.262 295.931 106.262 295.465C106.262 294.998 107.661 294.066 107.661 292.201C107.661 290.336 107.661 284.274 109.992 283.341C112.324 282.409 111.857 259.561 111.857 259.561L83.8807 252.567Z" fill="#2F2E41"/>
<path d="M116.987 86.105C116.987 86.105 115.122 100.093 109.526 102.891C103.931 105.689 100.201 107.088 100.201 107.088L104.863 123.407L106.729 137.396H128.177L139.834 128.07L136.104 112.683L134.239 109.885C134.239 109.885 131.908 99.6271 133.773 96.3632C135.638 93.0992 116.987 86.105 116.987 86.105Z" fill="#FFB9B9"/>
<path d="M126.312 120.143L123.048 126.205C123.048 126.205 120.717 117.812 117.453 116.413C114.189 115.014 106.262 112.683 106.262 110.817C106.262 108.952 106.728 104.29 104.863 104.29C102.998 104.29 84.8133 109.885 82.0156 111.75C79.2179 113.615 78.7516 115.48 78.7516 115.48L83.8807 169.103C83.8807 169.103 76.4202 194.282 78.7516 204.074C81.083 213.865 82.9482 215.264 88.5435 216.663C94.1389 218.062 90.8749 213.399 107.195 218.062C123.515 222.725 133.773 221.326 137.503 221.326C141.233 221.326 143.565 223.191 144.497 223.657C145.43 224.124 144.963 221.326 141.7 217.129C138.436 212.933 139.834 205.939 139.834 205.939C139.834 205.939 143.565 193.815 141.233 189.153C138.902 184.49 135.638 178.428 138.436 176.563C141.233 174.698 144.963 160.71 144.963 160.71L155.222 124.34L134.239 109.885C134.239 109.885 135.172 116.413 131.908 117.812C128.644 119.211 126.312 120.143 126.312 120.143Z" fill="#575A89"/>
<path d="M152.424 123.874H155.221C155.221 123.874 159.884 131.8 159.884 137.396C159.884 142.991 157.553 174.698 157.553 174.698L144.031 188.687L140.767 177.962L139.834 154.182L152.424 123.874Z" fill="#575A89"/>
<path d="M144.963 173.299C144.963 173.299 160.35 169.103 159.884 175.631C159.418 182.159 157.086 190.086 149.626 191.951C142.165 193.816 139.834 183.558 139.834 183.558C139.834 183.558 138.901 174.232 144.963 173.299Z" fill="#575A89"/>
<path d="M87.1445 194.748C87.1445 194.748 88.077 216.197 93.6724 218.528L80.1502 221.792C80.1502 221.792 73.6223 199.411 74.5549 198.478C75.4874 197.546 87.1445 194.748 87.1445 194.748Z" fill="#FFB9B9"/>
<path d="M167.121 151.089L159.114 147.591C158.966 147.526 158.806 147.491 158.645 147.488C158.483 147.485 158.322 147.514 158.172 147.573C158.022 147.632 157.884 147.72 157.768 147.832C157.651 147.944 157.558 148.078 157.493 148.226L148.591 168.604C148.431 168.97 148.423 169.384 148.569 169.755C148.714 170.126 149.001 170.424 149.367 170.584L156.875 173.864C157.24 174.023 157.654 174.031 158.025 173.886C158.396 173.74 158.694 173.453 158.854 173.088L167.756 152.709C167.887 152.41 167.894 152.071 167.774 151.768C167.655 151.464 167.42 151.22 167.121 151.089Z" fill="#2F2E41"/>
<path opacity="0.1" d="M167.121 151.089L159.114 147.591C158.966 147.526 158.806 147.491 158.645 147.488C158.483 147.485 158.322 147.514 158.172 147.573C158.022 147.632 157.884 147.72 157.768 147.832C157.651 147.944 157.558 148.078 157.493 148.226L148.591 168.604C148.431 168.97 148.423 169.384 148.569 169.755C148.714 170.126 149.001 170.424 149.367 170.584L156.875 173.864C157.24 174.023 157.654 174.031 158.025 173.886C158.396 173.74 158.694 173.453 158.854 173.088L167.756 152.709C167.887 152.41 167.894 152.071 167.774 151.768C167.655 151.464 167.42 151.22 167.121 151.089Z" fill="black"/>
<path d="M166.667 152.129L159.685 149.079C159.386 148.949 159.048 148.942 158.744 149.061C158.44 149.18 158.196 149.415 158.065 149.714L149.617 169.053C149.458 169.418 149.45 169.832 149.595 170.203C149.741 170.574 150.027 170.872 150.393 171.032L156.875 173.863C157.24 174.023 157.654 174.031 158.025 173.885C158.396 173.74 158.694 173.453 158.854 173.088L167.302 153.749C167.432 153.45 167.439 153.111 167.32 152.808C167.201 152.504 166.966 152.26 166.667 152.129Z" fill="#2F2E41"/>
<path d="M160.247 160.378C159.113 159.883 158.601 158.55 159.103 157.401C159.605 156.252 160.93 155.722 162.064 156.218C163.198 156.713 163.71 158.046 163.208 159.195C162.706 160.344 161.38 160.873 160.247 160.378Z" fill="#F2F2F2"/>
<path opacity="0.1" d="M83.6475 121.775L80.6167 117.346C80.6167 117.346 69.426 134.598 70.3585 146.255C71.2911 157.912 72.2236 158.378 72.2236 160.244C72.2236 162.109 74.555 162.109 72.2236 164.44C69.8922 166.771 66.6283 170.035 68.4934 171.901C70.3585 173.766 71.7574 173.766 71.2911 176.097C70.9929 177.791 70.8369 179.506 70.8248 181.226C70.8248 181.226 74.7882 188.92 76.187 188.92C77.5859 188.92 90.8748 201.276 90.8748 199.877C90.8748 198.479 89.476 188.687 89.476 187.288C89.476 185.889 89.0097 181.226 88.0772 179.827C87.1446 178.428 87.1446 178.895 88.0772 177.496C89.0097 176.097 89.0097 177.496 89.0097 176.097C89.0097 174.698 88.5435 172.833 89.9423 172.367C91.3411 171.901 92.74 172.367 91.8074 170.035C90.8748 167.704 91.8074 165.839 92.2737 165.839C92.7399 165.839 95.0714 165.373 93.6725 163.974C92.2737 162.575 96.4702 135.531 96.4702 135.531C96.4702 135.531 95.7708 128.77 83.6475 121.775Z" fill="black"/>
<path d="M86.2118 111.75L78.285 115.48C78.285 115.48 67.0943 132.733 68.0268 144.39C68.9594 156.047 69.892 156.513 69.892 158.378C69.892 160.243 72.2234 160.243 69.892 162.575C67.5606 164.906 64.2966 168.17 66.1617 170.035C68.0268 171.9 69.4257 171.9 68.9594 174.232C68.6612 175.925 68.5052 177.641 68.4931 179.361C68.4931 179.361 72.6896 201.742 74.0885 201.742C75.4873 201.742 88.5431 199.411 88.5431 198.012C88.5431 196.613 87.1443 186.821 87.1443 185.422C87.1443 184.023 86.678 179.361 85.7455 177.962C84.8129 176.563 84.8129 177.029 85.7455 175.63C86.678 174.232 86.678 175.63 86.678 174.232C86.678 172.833 86.2118 170.968 87.6106 170.501C89.0094 170.035 90.4083 170.501 89.4757 168.17C88.5431 165.839 89.4757 163.973 89.942 163.973C90.4082 163.973 92.7397 163.507 91.3408 162.108C89.942 160.71 94.1385 133.665 94.1385 133.665C94.1385 133.665 98.3351 118.744 86.2118 111.75Z" fill="#575A89"/>
<path d="M156.966 176.629C157.4 176.744 157.86 176.706 158.27 176.521C158.679 176.337 159.012 176.017 159.213 175.615C161.356 171.331 167.162 158.765 161.75 158.378C156.757 158.022 152.309 167.757 150.494 172.356C150.378 172.648 150.326 172.961 150.341 173.275C150.355 173.589 150.436 173.896 150.578 174.176C150.72 174.457 150.919 174.704 151.164 174.901C151.408 175.098 151.692 175.242 151.995 175.321L156.966 176.629Z" fill="#FFB9B9"/>
<path d="M130.042 99.1605C120.514 99.1605 112.79 91.4364 112.79 81.9081C112.79 72.3799 120.514 64.6558 130.042 64.6558C139.57 64.6558 147.294 72.3799 147.294 81.9081C147.294 91.4364 139.57 99.1605 130.042 99.1605Z" fill="#FFB9B9"/>
<path d="M136.382 71.9721C138.534 72.7149 140.756 73.2394 143.014 73.5378C144.713 73.8029 146.702 73.9387 147.896 72.7012C149.068 71.4868 148.878 69.4611 148.079 67.9748C147.279 66.4884 145.999 65.3231 145.038 63.9355C143.527 61.7532 142.636 58.86 140.22 57.7606C139.219 57.3773 138.156 57.1789 137.084 57.1749C130.815 56.7752 124.29 56.4151 118.484 58.814C116.303 59.6452 114.37 61.0202 112.87 62.8087C111.887 64.1255 111.129 65.5958 110.626 67.1599C109.074 71.7626 108.729 76.6863 109.624 81.4603C110.518 86.2344 112.622 90.6992 115.735 94.428C117.851 92.5217 116.93 88.1169 119.608 87.1455C120.486 86.8268 121.479 87.0486 122.378 86.7963C125.206 86.0035 125.064 81.6339 127.418 79.8782C127.932 79.6016 128.387 79.2274 128.758 78.7767C128.965 78.3445 129.055 77.8655 129.019 77.3876C129.036 75.7506 128.267 71.5925 129.829 70.4705C131.418 69.3284 134.854 71.4206 136.382 71.9721Z" fill="#2F2E41"/>
<path d="M303.633 31.9053H161.411V106.531H171.686V134.11L199.265 106.531H303.633V31.9053Z" fill="#FF6366"/>
<path d="M232.522 85.1916L235.032 82.9278C243.943 74.7458 249.827 69.4353 249.827 62.8201C249.849 61.5614 249.618 60.3112 249.148 59.1433C248.679 57.9753 247.979 56.9136 247.092 56.0207C246.204 55.1279 245.147 54.4222 243.982 53.9454C242.817 53.4686 241.568 53.2303 240.309 53.2448C238.824 53.2527 237.358 53.5838 236.013 54.2152C234.668 54.8465 233.477 55.763 232.522 56.9009C231.567 55.763 230.376 54.8465 229.031 54.2151C227.687 53.5838 226.221 53.2526 224.735 53.2448C223.476 53.2303 222.227 53.4686 221.062 53.9454C219.897 54.4222 218.84 55.1279 217.952 56.0207C217.065 56.9136 216.366 57.9753 215.896 59.1433C215.426 60.3112 215.196 61.5614 215.218 62.8201C215.218 69.4354 221.101 74.7459 230.013 82.9278L232.522 85.1916Z" fill="white"/>
<path d="M573.916 214.967L437.105 176.11L416.717 247.897L426.6 250.704L419.065 277.234L453.13 258.239L553.528 286.753L573.916 214.967Z" fill="#FF6366"/>
<path d="M490.952 246.798L493.985 245.306C504.793 239.87 511.903 236.369 513.711 230.005C514.076 228.8 514.196 227.535 514.063 226.283C513.93 225.031 513.547 223.819 512.938 222.717C512.328 221.616 511.503 220.648 510.513 219.871C509.522 219.094 508.386 218.524 507.171 218.194C505.74 217.796 504.24 217.714 502.774 217.954C501.308 218.194 499.911 218.75 498.682 219.583C498.074 218.228 497.179 217.021 496.058 216.046C494.936 215.071 493.617 214.352 492.19 213.939C490.983 213.581 489.716 213.469 488.466 213.609C487.215 213.75 486.004 214.14 484.907 214.756C483.809 215.373 482.846 216.203 482.075 217.198C481.305 218.193 480.741 219.333 480.418 220.55C478.611 226.913 482.82 233.629 489.157 243.934L490.952 246.798Z" fill="white"/>
<path d="M416.858 171.484C416.858 171.484 421.482 185.357 418.913 188.44C416.344 191.523 434.328 179.192 434.328 179.192L424.565 167.888L416.858 171.484Z" fill="#A0616A"/>
<path d="M427.403 171.462C414.662 171.462 404.334 161.134 404.334 148.393C404.334 135.652 414.662 125.323 427.403 125.323C440.144 125.323 450.473 135.652 450.473 148.393C450.473 161.134 440.144 171.462 427.403 171.462Z" fill="#2F2E41"/>
<path d="M337.73 327.684L349.548 336.933L356.227 326.143L344.41 317.922L337.73 327.684Z" fill="#A0616A"/>
<path d="M354.429 397.307L351.346 412.207L342.611 424.025C342.611 424.025 318.975 431.218 334.904 434.815C350.832 438.412 354.429 432.246 354.429 432.246L365.733 422.484V435.843H372.926L374.468 416.832C374.468 416.832 375.495 411.18 370.871 405.014L369.843 395.765L354.429 397.307Z" fill="#2F2E41"/>
<path d="M414.032 212.847L409.922 236.482C409.922 236.482 366.247 231.858 363.164 240.593C360.081 249.327 359.054 251.897 359.054 251.897L367.789 254.979L371.899 247.272C373.151 246.829 374.48 246.646 375.806 246.734C377.131 246.823 378.424 247.18 379.606 247.786C383.717 249.841 419.684 254.979 422.253 248.3C424.822 241.62 432.016 216.957 432.016 216.957L421.225 208.222L414.032 212.847Z" fill="#A0616A"/>
<path opacity="0.1" d="M414.032 212.847L409.922 236.482C409.922 236.482 366.247 231.858 363.164 240.593C360.081 249.327 359.054 251.897 359.054 251.897L367.789 254.979L371.899 247.272C373.151 246.829 374.48 246.646 375.806 246.734C377.131 246.823 378.424 247.18 379.606 247.786C383.717 249.841 419.684 254.979 422.253 248.3C424.822 241.62 432.016 216.957 432.016 216.957L421.225 208.222L414.032 212.847Z" fill="black"/>
<path d="M389.882 281.184L386.286 293.516L377.037 340.787C377.037 340.787 376.009 375.727 374.468 379.837C372.926 383.948 372.926 384.461 374.468 386.003C376.009 387.544 379.092 392.682 374.468 395.765C369.843 398.848 353.401 402.445 352.888 398.848C352.374 395.252 352.374 389.6 352.888 387.031C353.401 384.461 351.346 344.384 351.346 344.384L357.512 283.24L378.578 273.477L389.882 281.184Z" fill="#2F2E41"/>
<path opacity="0.1" d="M389.882 281.184L386.286 293.516L377.037 340.787C377.037 340.787 376.009 375.727 374.468 379.837C372.926 383.948 372.926 384.461 374.468 386.003C376.009 387.544 379.092 392.682 374.468 395.765C369.843 398.848 353.401 402.445 352.888 398.848C352.374 395.252 352.374 389.6 352.888 387.031C353.401 384.461 351.346 344.384 351.346 344.384L357.512 283.24L378.578 273.477L389.882 281.184Z" fill="black"/>
<path d="M367.788 232.885L356.484 254.466C356.484 254.466 291.743 283.239 297.395 295.057C303.047 306.875 334.39 328.969 334.39 328.969C334.39 328.969 335.932 337.704 340.556 335.135C345.18 332.566 356.484 319.206 355.457 317.665C354.429 316.124 350.832 312.527 349.291 313.041C347.749 313.554 329.766 299.681 329.766 299.681L360.595 291.974C360.595 291.974 397.59 290.947 399.645 273.477C401.7 256.007 399.645 252.924 399.645 252.924L402.214 247.272L381.147 234.427L367.788 232.885Z" fill="#2F2E41"/>
<path d="M351.86 318.179L362.65 327.942C362.65 327.942 371.899 323.831 377.551 325.373C383.203 326.914 392.965 327.942 392.965 327.942L391.424 336.677L378.314 334.258L388.855 349.008C388.855 349.008 388.855 372.13 382.175 372.13C375.496 372.13 377.551 358.257 377.551 358.257L356.998 342.329C356.998 342.329 346.722 338.218 345.694 338.218C344.667 338.218 351.86 318.179 351.86 318.179Z" fill="#2F2E41"/>
<path d="M418.913 175.595C409.265 175.595 401.443 167.773 401.443 158.125C401.443 148.477 409.265 140.655 418.913 140.655C428.561 140.655 436.383 148.477 436.383 158.125C436.383 167.773 428.561 175.595 418.913 175.595Z" fill="#A0616A"/>
<path d="M436.126 171.741C436.126 171.741 427.905 169.686 425.336 171.741C422.767 173.796 422.253 178.421 418.656 178.935C415.059 179.448 411.977 179.448 411.463 179.962C410.949 180.476 399.131 194.863 399.131 194.863C399.131 194.863 391.938 198.973 390.396 204.625C388.855 210.277 373.44 229.289 371.385 231.344C369.33 233.399 384.744 243.675 389.882 247.272C395.021 250.869 409.921 252.41 414.546 244.189C419.17 235.968 444.347 182.531 436.126 171.741Z" fill="#575A89"/>
<path d="M416.601 205.14L412.49 228.775C412.49 228.775 368.816 224.151 365.733 232.886C362.65 241.62 361.623 244.19 361.623 244.19L370.357 247.272L374.468 239.565C375.72 239.122 377.049 238.939 378.375 239.027C379.7 239.115 380.993 239.473 382.175 240.079C386.286 242.134 422.253 247.272 424.822 240.593C427.391 233.913 434.584 209.25 434.584 209.25L423.794 200.515L416.601 205.14Z" fill="#A0616A"/>
<path d="M426.42 173.903C426.42 173.903 414.032 200.001 415.059 207.195C416.087 214.388 419.684 209.25 419.684 209.25C419.684 209.25 424.308 202.056 426.363 206.167C428.419 210.278 430.988 215.929 433.043 215.416C435.098 214.902 446.402 176.879 440.236 173.283C434.071 169.686 426.42 173.903 426.42 173.903Z" fill="#575A89"/>
<path d="M452.395 141.087C439.655 141.087 429.326 130.759 429.326 118.018C429.326 105.277 439.655 94.9482 452.395 94.9482C465.136 94.9482 475.465 105.277 475.465 118.018C475.465 130.759 465.136 141.087 452.395 141.087Z" fill="#2F2E41"/>
<path d="M472.294 137.121C469.308 139.279 465.849 140.691 462.206 141.238C458.562 141.785 454.841 141.451 451.353 140.265C447.865 139.079 444.712 137.075 442.157 134.421C439.602 131.766 437.72 128.538 436.669 125.007C437.067 128.172 438.116 131.219 439.751 133.957C441.386 136.695 443.571 139.065 446.168 140.916C448.765 142.767 451.718 144.059 454.84 144.712C457.961 145.364 461.185 145.362 464.306 144.706C467.426 144.05 470.377 142.754 472.972 140.9C475.567 139.046 477.749 136.674 479.381 133.934C481.013 131.194 482.059 128.145 482.453 124.98C482.847 121.816 482.581 118.603 481.671 115.547C482.188 119.653 481.59 123.823 479.94 127.619C478.29 131.415 475.649 134.697 472.294 137.121Z" fill="#2F2E41"/>
<path d="M433.555 169.155C424.212 169.155 416.638 161.581 416.638 152.237C416.638 142.894 424.212 135.32 433.555 135.32C442.898 135.32 450.473 142.894 450.473 152.237C450.473 161.581 442.898 169.155 433.555 169.155Z" fill="#2F2E41"/>
<path d="M419.329 157.62C411.048 157.62 404.334 152.37 404.334 145.893C404.334 139.417 411.048 134.167 419.329 134.167C427.611 134.167 434.324 139.417 434.324 145.893C434.324 152.37 427.611 157.62 419.329 157.62Z" fill="#2F2E41"/>
<path d="M418.656 165.832C416.812 165.832 415.316 163.187 415.316 159.924C415.316 156.66 416.812 154.015 418.656 154.015C420.501 154.015 421.996 156.66 421.996 159.924C421.996 163.187 420.501 165.832 418.656 165.832Z" fill="#A0616A"/>
<path d="M372.811 247.048C372.811 247.048 363.715 241.829 362.027 243.138C360.338 244.446 359.588 248.541 359.588 248.541L370.101 252.667L373.184 247.015L372.811 247.048Z" fill="#2F2E41"/>
<path d="M416.157 425.129V362.35" stroke="#3F3D56" stroke-width="1.08153" stroke-miterlimit="10"/>
<path d="M416.157 371.227C411.254 371.227 407.279 367.253 407.279 362.35C407.279 357.446 411.254 353.472 416.157 353.472C421.06 353.472 425.035 357.446 425.035 362.35C425.035 367.253 421.06 371.227 416.157 371.227Z" fill="#3F3D56"/>
<path d="M416.157 401.042C416.157 401.042 417.425 373.764 443.425 376.935L416.157 401.042Z" fill="#3F3D56"/>
<path d="M145.774 378.623V315.844" stroke="#3F3D56" stroke-width="1.08153" stroke-miterlimit="10"/>
<path d="M145.773 324.722C140.87 324.722 136.896 320.747 136.896 315.844C136.896 310.941 140.87 306.966 145.773 306.966C150.677 306.966 154.651 310.941 154.651 315.844C154.651 320.747 150.677 324.722 145.773 324.722Z" fill="#3F3D56"/>
<path d="M145.774 354.536C145.774 354.536 147.042 327.258 173.042 330.429L145.774 354.536Z" fill="#3F3D56"/>
<path d="M36.1455 380.059V254.5" stroke="#3F3D56" stroke-width="1.08153" stroke-miterlimit="10"/>
<path d="M36.146 263.378C31.2429 263.378 27.2681 259.403 27.2681 254.5C27.2681 249.597 31.2429 245.622 36.146 245.622C41.0491 245.622 45.0239 249.597 45.0239 254.5C45.0239 259.403 41.0491 263.378 36.146 263.378Z" fill="#3F3D56"/>
<path d="M36.146 290.656C36.146 290.656 34.8777 263.378 8.87809 266.548L36.146 290.656Z" fill="#3F3D56"/>
<path d="M36.1461 377.618C36.1461 377.618 41.8532 327.425 8.87816 324.889" stroke="#3F3D56" stroke-width="1.08153" stroke-miterlimit="10"/>
<path d="M8.87797 333.767C3.97484 333.767 1.33514e-05 329.792 1.33514e-05 324.889C1.33514e-05 319.986 3.97484 316.011 8.87797 316.011C13.7811 316.011 17.7559 319.986 17.7559 324.889C17.7559 329.792 13.7811 333.767 8.87797 333.767Z" fill="#3F3D56"/>
</g>
<defs>
<clipPath id="clip0">
<rect width="573.916" height="440.4" fill="white" transform="matrix(-1 0 0 1 573.916 0)"/>
</clipPath>
</defs>
</svg>
