<svg width="500" height="500" viewBox="0 0 500 500" fill="none" xmlns="http://www.w3.org/2000/svg">
<path d="M411.77 255C321.84 203.08 176.51 203.08 87.1702 255C-2.16978 306.92 -1.69979 391.1 88.1702 443C178.04 494.9 323.49 495 412.83 443C502.17 391 501.7 306.94 411.77 255Z" fill="#F5F5F5"/>
<path d="M100.59 412.32L204.59 352.32C206.172 351.406 207.968 350.925 209.795 350.925C211.622 350.925 213.417 351.406 215 352.32L225.33 358.32C225.858 358.623 226.296 359.06 226.601 359.587C226.906 360.114 227.066 360.711 227.066 361.32C227.066 361.929 226.906 362.526 226.601 363.053C226.296 363.58 225.858 364.017 225.33 364.32L121.33 424.43C119.741 425.356 117.934 425.844 116.095 425.844C114.256 425.844 112.449 425.356 110.86 424.43L100.55 418.38C100.01 418.078 99.5608 417.636 99.2495 417.101C98.9383 416.566 98.7763 415.957 98.7803 415.338C98.7844 414.719 98.9545 414.113 99.2728 413.582C99.591 413.051 100.046 412.615 100.59 412.32Z" fill="#E0E0E0"/>
<path d="M405.06 412.32L301.06 352.32C299.479 351.406 297.686 350.925 295.86 350.925C294.034 350.925 292.241 351.406 290.66 352.32L280.33 358.32C279.802 358.623 279.364 359.06 279.059 359.587C278.754 360.114 278.594 360.712 278.594 361.32C278.594 361.929 278.754 362.527 279.059 363.053C279.364 363.58 279.802 364.017 280.33 364.32L384.33 424.43C385.919 425.356 387.726 425.844 389.565 425.844C391.404 425.844 393.211 425.356 394.8 424.43L405.11 418.38C405.647 418.075 406.092 417.631 406.401 417.096C406.709 416.561 406.869 415.953 406.864 415.336C406.859 414.718 406.689 414.113 406.372 413.583C406.055 413.053 405.602 412.617 405.06 412.32Z" fill="#E0E0E0"/>
<path d="M436.46 351.07C428.6 346.54 415.89 346.54 408.08 351.07C400.27 355.6 400.32 362.97 408.18 367.51C416.04 372.05 428.74 372.05 436.55 367.51C444.36 362.97 444.32 355.61 436.46 351.07Z" fill="#E0E0E0"/>
<path d="M93.1699 344.27C85.0299 339.57 71.8899 339.57 63.8099 344.27C55.7299 348.97 55.8099 356.58 63.8999 361.27C71.9899 365.96 85.1799 365.96 93.2599 361.27C101.34 356.58 101.3 349 93.1699 344.27Z" fill="#E0E0E0"/>
<path d="M441.35 325L422.35 325.56L403.35 325C402.53 337.85 405.04 351 408.49 357.35C409.309 358.994 410.629 360.335 412.26 361.18C417.87 364.42 426.95 364.42 432.52 361.18C434.177 360.324 435.503 358.941 436.29 357.25C439.68 350.78 442.16 337.75 441.35 325Z" fill="white"/>
<path d="M435.73 317.17C443.19 321.47 443.23 328.45 435.82 332.76C428.41 337.07 416.36 337.06 408.9 332.76C401.44 328.46 401.41 321.47 408.82 317.17C416.23 312.87 428.27 312.86 435.73 317.17Z" fill="#EBEBEB"/>
<path d="M432.78 318.88C438.6 322.24 438.63 327.68 432.85 331.04C427.07 334.4 417.67 334.4 411.85 331.04C406.03 327.68 406 322.24 411.78 318.88C417.56 315.52 427 315.52 432.78 318.88Z" fill="#E0E0E0"/>
<g opacity="0.15">
<path opacity="0.15" d="M432.78 318.88C438.6 322.24 438.63 327.68 432.85 331.04C427.07 334.4 417.67 334.4 411.85 331.04C406.03 327.68 406 322.24 411.78 318.88C417.56 315.52 427 315.52 432.78 318.88Z" fill="black"/>
</g>
<path d="M453.61 243.75C410.72 257.75 410.33 286.48 420 306.92C422.44 311.05 429.82 313.27 436.24 287.86L425 289.31L438.12 282.65L441.53 272.46L430.59 273.27L444.48 267.43C447.033 259.356 450.082 251.448 453.61 243.75Z" fill="#FF725E"/>
<path opacity="0.2" d="M453.61 243.75C410.72 257.75 410.33 286.48 420 306.92C422.44 311.05 429.82 313.27 436.24 287.86L425 289.31L438.12 282.65L441.53 272.46L430.59 273.27L444.48 267.43C447.033 259.356 450.082 251.448 453.61 243.75Z" fill="black"/>
<path opacity="0.2" d="M453.61 243.75C410.72 257.75 410.33 286.48 420 306.92C422.44 311.05 429.82 313.27 436.24 287.86L425 289.31L438.12 282.65L441.53 272.46L430.59 273.27L444.48 267.43C447.033 259.356 450.082 251.448 453.61 243.75Z" fill="white"/>
<path d="M441.48 250.92C418.86 268.09 416.82 287.77 423.21 308.32C421 290.23 418.5 271.93 441.48 250.92Z" fill="white"/>
<path d="M381 272.9C423.27 278.9 428.4 305.5 422.79 326.14C421.21 330.4 414.7 333.69 404.5 311.09L415.23 310.57L401.9 306.57L397 297.62L407.33 296.56L393.42 293.43C389.707 286.337 385.559 279.481 381 272.9Z" fill="#FF725E"/>
<path opacity="0.2" d="M381 272.9C423.27 278.9 428.4 305.5 422.79 326.14C421.21 330.4 414.7 333.69 404.5 311.09L415.23 310.57L401.9 306.57L397 297.62L407.33 296.56L393.42 293.43C389.707 286.337 385.559 279.481 381 272.9Z" fill="white"/>
<path opacity="0.1" d="M381 272.9C423.27 278.9 428.4 305.5 422.79 326.14C421.21 330.4 414.7 333.69 404.5 311.09L415.23 310.57L401.9 306.57L397 297.62L407.33 296.56L393.42 293.43C389.707 286.337 385.559 279.481 381 272.9Z" fill="black"/>
<path d="M393.46 277.56C417.37 289.79 422.54 307.78 420 328C419.1 310.75 418.34 293.31 393.46 277.56Z" fill="white"/>
<path d="M466 282.88C427.23 283.52 419.63 306.97 422.37 326.2C423.32 330.2 428.82 333.91 440.54 314.68L430.91 313L443.37 310.87L448.76 303.37L439.57 301.26L452.46 300C456.616 294.019 461.138 288.302 466 282.88Z" fill="#FF725E"/>
<path d="M454.2 285.69C431.28 294.04 424.6 309.69 424.63 328.16C427.37 312.74 430 297.1 454.2 285.69Z" fill="white"/>
<path opacity="0.2" d="M466 282.88C427.23 283.52 419.63 306.97 422.37 326.2C423.32 330.2 428.82 333.91 440.54 314.68L430.91 313L443.37 310.87L448.76 303.37L439.57 301.26L452.46 300C456.616 294.019 461.138 288.302 466 282.88Z" fill="white"/>
<path d="M98.2298 317.25L78.5398 317.82L58.8398 317.25C57.9898 330.55 60.5898 344.1 64.1698 350.72C65.0125 352.433 66.3784 353.834 68.0698 354.72C73.8798 358.07 83.2698 358.07 89.0698 354.72C90.8006 353.83 92.184 352.387 92.9998 350.62C96.5098 344 99.0698 330.48 98.2298 317.25Z" fill="white"/>
<path d="M92.42 309.18C100.13 313.63 100.17 320.86 92.51 325.31C84.85 329.76 72.37 329.77 64.65 325.31C56.93 320.85 56.9 313.64 64.56 309.18C72.22 304.72 84.7 304.73 92.42 309.18Z" fill="#EBEBEB"/>
<path d="M89.3597 311C95.3597 314.48 95.4197 320.11 89.4397 323.59C83.4597 327.07 73.7297 327.07 67.7097 323.59C61.6897 320.11 61.6497 314.48 67.6397 311C73.6297 307.52 83.3397 307.48 89.3597 311Z" fill="#E0E0E0"/>
<g opacity="0.15">
<path opacity="0.15" d="M89.3597 311C95.3597 314.48 95.4197 320.11 89.4397 323.59C83.4597 327.07 73.7297 327.07 67.7097 323.59C61.6897 320.11 61.6497 314.48 67.6397 311C73.6297 307.52 83.3397 307.48 89.3597 311Z" fill="black"/>
</g>
<path d="M68.4898 276.94C65.2898 272.94 61.5699 269.39 58.6299 265.21C56.6299 262.36 54.9499 258.87 55.7899 255.48C56.2619 253.926 57.1576 252.536 58.3765 251.463C59.5954 250.391 61.0891 249.68 62.6898 249.41C65.923 248.934 69.218 249.671 71.9399 251.48C74.6344 253.286 77.0016 255.538 78.9399 258.14C90.0236 272.179 95.2641 289.953 93.5699 307.76C93.3699 309.76 93.0399 311.9 91.7499 313.47C91.0398 314.297 90.1091 314.906 89.0662 315.225C88.0233 315.544 86.9113 315.559 85.8599 315.27C80.4899 313.67 81.2099 306.43 80.3299 302.16C79.1223 296.307 77.0459 290.668 74.1698 285.43C72.5268 282.44 70.6262 279.599 68.4898 276.94Z" fill="#FF725E"/>
<path opacity="0.2" d="M68.4898 276.94C65.2898 272.94 61.5699 269.39 58.6299 265.21C56.6299 262.36 54.9499 258.87 55.7899 255.48C56.2619 253.926 57.1576 252.536 58.3765 251.463C59.5954 250.391 61.0891 249.68 62.6898 249.41C65.923 248.934 69.218 249.671 71.9399 251.48C74.6344 253.286 77.0016 255.538 78.9399 258.14C90.0236 272.179 95.2641 289.953 93.5699 307.76C93.3699 309.76 93.0399 311.9 91.7499 313.47C91.0398 314.297 90.1091 314.906 89.0662 315.225C88.0233 315.544 86.9113 315.559 85.8599 315.27C80.4899 313.67 81.2099 306.43 80.3299 302.16C79.1223 296.307 77.0459 290.668 74.1698 285.43C72.5268 282.44 70.6262 279.599 68.4898 276.94Z" fill="white"/>
<path d="M86.1898 309.87C86.0878 309.847 85.9958 309.791 85.9275 309.712C85.8591 309.633 85.8178 309.534 85.8098 309.43C85.4398 300.81 82.6398 271.43 62.3798 254.74C62.3315 254.701 62.2915 254.653 62.2623 254.599C62.233 254.544 62.215 254.484 62.2094 254.423C62.2038 254.361 62.2107 254.299 62.2297 254.24C62.2486 254.181 62.2793 254.127 62.3198 254.08C62.358 254.028 62.4063 253.985 62.4618 253.953C62.5173 253.921 62.5788 253.9 62.6425 253.893C62.7062 253.885 62.7707 253.891 62.8322 253.909C62.8936 253.928 62.9507 253.959 62.9998 254C83.5598 270.93 86.3898 300.66 86.7698 309.37C86.7724 309.432 86.7629 309.493 86.7418 309.551C86.7206 309.609 86.6882 309.663 86.6464 309.708C86.6046 309.754 86.5542 309.79 86.4982 309.817C86.4421 309.843 86.3815 309.857 86.3198 309.86L86.1898 309.87Z" fill="#F0F0F0"/>
<path d="M89.15 310.8C88.54 314.18 85.64 318.36 82.58 319.92C79.4659 321.393 76.0037 321.971 72.58 321.59C69.1297 321.196 65.739 320.39 62.48 319.19C60.85 318.64 59.05 317.9 58.87 315.89C58.8424 315.363 58.9312 314.836 59.1299 314.347C59.3287 313.858 59.6325 313.419 60.02 313.06C60.3355 312.741 60.6694 312.441 61.02 312.16C61.2173 312.049 61.3711 311.875 61.4564 311.665C61.5417 311.456 61.5533 311.223 61.4895 311.006C61.4256 310.789 61.29 310.6 61.1049 310.47C60.9197 310.34 60.6959 310.277 60.47 310.29C59.5036 310.234 58.5417 310.117 57.59 309.94C55.3833 309.572 53.3132 308.627 51.59 307.2C50.3286 306.079 49.3692 304.659 48.8 303.07C48.31 301.71 48.17 300.01 49.2 299C49.8407 298.468 50.6157 298.122 51.44 298C52.16 297.85 52.88 297.71 53.6 297.6C53.7925 297.549 53.9654 297.442 54.0965 297.291C54.2275 297.141 54.3108 296.956 54.3355 296.758C54.3602 296.56 54.3253 296.359 54.2352 296.182C54.1451 296.004 54.004 295.857 53.83 295.76L50.77 294.49C49.8912 294.206 49.095 293.711 48.45 293.05C47.52 291.92 47.58 290.28 47.87 288.84C48.24 286.93 48.87 285.08 49.35 283.19C49.8849 281.305 49.9535 279.318 49.55 277.4C55.2798 276.77 61.0759 277.159 66.67 278.55C68.3487 278.885 69.9391 279.566 71.34 280.55C73.24 282.08 73.74 284.36 73.53 286.84C73.5264 286.941 73.5566 287.039 73.6157 287.121C73.6748 287.202 73.7594 287.261 73.8561 287.289C73.9527 287.317 74.0558 287.311 74.149 287.273C74.2421 287.235 74.3199 287.167 74.37 287.08L76.37 283.48C76.6473 282.962 77.1129 282.569 77.6709 282.383C78.2288 282.197 78.8369 282.232 79.37 282.48C81.0843 283.332 82.6056 284.527 83.84 285.99C84.5251 286.765 85.0473 287.67 85.3754 288.651C85.7035 289.632 85.8309 290.669 85.75 291.7C85.5125 294.532 85.0375 297.338 84.33 300.09C84.286 300.246 84.2922 300.412 84.3476 300.564C84.4031 300.716 84.5051 300.846 84.639 300.937C84.7729 301.028 84.9321 301.074 85.0938 301.069C85.2555 301.064 85.4116 301.009 85.54 300.91L85.63 300.84C86.1571 300.443 86.8123 300.254 87.47 300.31C89.2 300.52 89.64 302.31 89.76 303.76C89.8437 306.123 89.6388 308.487 89.15 310.8Z" fill="#FF725E"/>
<path opacity="0.2" d="M89.15 310.8C88.54 314.18 85.64 318.36 82.58 319.92C79.4659 321.393 76.0037 321.971 72.58 321.59C69.1297 321.196 65.739 320.39 62.48 319.19C60.85 318.64 59.05 317.9 58.87 315.89C58.8424 315.363 58.9312 314.836 59.1299 314.347C59.3287 313.858 59.6325 313.419 60.02 313.06C60.3355 312.741 60.6694 312.441 61.02 312.16C61.2173 312.049 61.3711 311.875 61.4564 311.665C61.5417 311.456 61.5533 311.223 61.4895 311.006C61.4256 310.789 61.29 310.6 61.1049 310.47C60.9197 310.34 60.6959 310.277 60.47 310.29C59.5036 310.234 58.5417 310.117 57.59 309.94C55.3833 309.572 53.3132 308.627 51.59 307.2C50.3286 306.079 49.3692 304.659 48.8 303.07C48.31 301.71 48.17 300.01 49.2 299C49.8407 298.468 50.6157 298.122 51.44 298C52.16 297.85 52.88 297.71 53.6 297.6C53.7925 297.549 53.9654 297.442 54.0965 297.291C54.2275 297.141 54.3108 296.956 54.3355 296.758C54.3602 296.56 54.3253 296.359 54.2352 296.182C54.1451 296.004 54.004 295.857 53.83 295.76L50.77 294.49C49.8912 294.206 49.095 293.711 48.45 293.05C47.52 291.92 47.58 290.28 47.87 288.84C48.24 286.93 48.87 285.08 49.35 283.19C49.8849 281.305 49.9535 279.318 49.55 277.4C55.2798 276.77 61.0759 277.159 66.67 278.55C68.3487 278.885 69.9391 279.566 71.34 280.55C73.24 282.08 73.74 284.36 73.53 286.84C73.5264 286.941 73.5566 287.039 73.6157 287.121C73.6748 287.202 73.7594 287.261 73.8561 287.289C73.9527 287.317 74.0558 287.311 74.149 287.273C74.2421 287.235 74.3199 287.167 74.37 287.08L76.37 283.48C76.6473 282.962 77.1129 282.569 77.6709 282.383C78.2288 282.197 78.8369 282.232 79.37 282.48C81.0843 283.332 82.6056 284.527 83.84 285.99C84.5251 286.765 85.0473 287.67 85.3754 288.651C85.7035 289.632 85.8309 290.669 85.75 291.7C85.5125 294.532 85.0375 297.338 84.33 300.09C84.286 300.246 84.2922 300.412 84.3476 300.564C84.4031 300.716 84.5051 300.846 84.639 300.937C84.7729 301.028 84.9321 301.074 85.0938 301.069C85.2555 301.064 85.4116 301.009 85.54 300.91L85.63 300.84C86.1571 300.443 86.8123 300.254 87.47 300.31C89.2 300.52 89.64 302.31 89.76 303.76C89.8437 306.123 89.6388 308.487 89.15 310.8Z" fill="black"/>
<path opacity="0.2" d="M89.15 310.8C88.54 314.18 85.64 318.36 82.58 319.92C79.4659 321.393 76.0037 321.971 72.58 321.59C69.1297 321.196 65.739 320.39 62.48 319.19C60.85 318.64 59.05 317.9 58.87 315.89C58.8424 315.363 58.9312 314.836 59.1299 314.347C59.3287 313.858 59.6325 313.419 60.02 313.06C60.3355 312.741 60.6694 312.441 61.02 312.16C61.2173 312.049 61.3711 311.875 61.4564 311.665C61.5417 311.456 61.5533 311.223 61.4895 311.006C61.4256 310.789 61.29 310.6 61.1049 310.47C60.9197 310.34 60.6959 310.277 60.47 310.29C59.5036 310.234 58.5417 310.117 57.59 309.94C55.3833 309.572 53.3132 308.627 51.59 307.2C50.3286 306.079 49.3692 304.659 48.8 303.07C48.31 301.71 48.17 300.01 49.2 299C49.8407 298.468 50.6157 298.122 51.44 298C52.16 297.85 52.88 297.71 53.6 297.6C53.7925 297.549 53.9654 297.442 54.0965 297.291C54.2275 297.141 54.3108 296.956 54.3355 296.758C54.3602 296.56 54.3253 296.359 54.2352 296.182C54.1451 296.004 54.004 295.857 53.83 295.76L50.77 294.49C49.8912 294.206 49.095 293.711 48.45 293.05C47.52 291.92 47.58 290.28 47.87 288.84C48.24 286.93 48.87 285.08 49.35 283.19C49.8849 281.305 49.9535 279.318 49.55 277.4C55.2798 276.77 61.0759 277.159 66.67 278.55C68.3487 278.885 69.9391 279.566 71.34 280.55C73.24 282.08 73.74 284.36 73.53 286.84C73.5264 286.941 73.5566 287.039 73.6157 287.121C73.6748 287.202 73.7594 287.261 73.8561 287.289C73.9527 287.317 74.0558 287.311 74.149 287.273C74.2421 287.235 74.3199 287.167 74.37 287.08L76.37 283.48C76.6473 282.962 77.1129 282.569 77.6709 282.383C78.2288 282.197 78.8369 282.232 79.37 282.48C81.0843 283.332 82.6056 284.527 83.84 285.99C84.5251 286.765 85.0473 287.67 85.3754 288.651C85.7035 289.632 85.8309 290.669 85.75 291.7C85.5125 294.532 85.0375 297.338 84.33 300.09C84.286 300.246 84.2922 300.412 84.3476 300.564C84.4031 300.716 84.5051 300.846 84.639 300.937C84.7729 301.028 84.9321 301.074 85.0938 301.069C85.2555 301.064 85.4116 301.009 85.54 300.91L85.63 300.84C86.1571 300.443 86.8123 300.254 87.47 300.31C89.2 300.52 89.64 302.31 89.76 303.76C89.8437 306.123 89.6388 308.487 89.15 310.8Z" fill="white"/>
<path d="M80.08 319.45C78.9975 314.859 77.453 310.39 75.47 306.11C75.4724 306.043 75.4591 305.977 75.4314 305.916C75.4036 305.855 75.362 305.802 75.31 305.76C75.21 305.53 75.1 305.3 74.99 305.06C75.5465 299.73 77.093 294.552 79.55 289.79C79.6119 289.682 79.6287 289.555 79.5969 289.435C79.565 289.315 79.4871 289.212 79.38 289.15C79.3271 289.118 79.2683 289.097 79.2072 289.088C79.146 289.079 79.0837 289.083 79.0239 289.099C78.9642 289.115 78.9083 289.143 78.8595 289.18C78.8107 289.218 78.7701 289.266 78.74 289.32C76.4379 293.761 74.9157 298.564 74.24 303.52C70.35 295.7 64.13 286.52 54.53 279.89C54.4289 279.819 54.3041 279.791 54.1825 279.812C54.0609 279.832 53.9523 279.9 53.88 280C53.8099 280.104 53.7832 280.231 53.8056 280.354C53.828 280.478 53.8978 280.587 54 280.66C63.89 287.54 70.14 297.09 73.94 305.02C68.8326 302.705 63.1591 301.937 57.62 302.81C57.4982 302.834 57.3909 302.905 57.3216 303.009C57.2522 303.112 57.2265 303.238 57.25 303.36C57.2693 303.451 57.3145 303.534 57.3802 303.6C57.4459 303.665 57.5292 303.711 57.62 303.73H57.8C57.89 303.73 66.8 302.09 74.59 306.42C76.5566 310.657 78.0878 315.083 79.16 319.63C79.1781 319.721 79.2229 319.805 79.2888 319.871C79.3547 319.937 79.4386 319.982 79.53 320H79.71C79.8319 319.976 79.9392 319.904 80.0085 319.801C80.0778 319.698 80.1035 319.572 80.08 319.45Z" fill="#F0F0F0"/>
<path d="M387.91 62.8901C387.217 61.6832 386.212 60.685 385 60.0001L345.42 37.2501C341.95 35.2501 333.74 37.9601 333.74 43.5301V79.4301C333.74 80.7946 334.101 82.1348 334.786 83.3149C335.471 84.495 336.456 85.4731 337.64 86.1501L368.2 103.61L362.92 100.61L365.45 107.8C365.489 107.903 365.565 107.987 365.664 108.035C365.762 108.084 365.875 108.093 365.98 108.06C366.43 107.83 368.42 106.76 369.55 106.06H369.63C369.63 106.06 369.71 106.06 369.73 105.97L370.35 104.97L377.24 108.9C378.381 109.613 379.691 110.011 381.036 110.055C382.381 110.098 383.713 109.786 384.898 109.148C386.083 108.51 387.078 107.571 387.783 106.424C388.488 105.278 388.877 103.965 388.91 102.62V66.6801C388.909 65.3517 388.565 64.0462 387.91 62.8901Z" fill="#FF725E"/>
<path opacity="0.2" d="M369.73 105.85C369.73 105.85 369.67 105.91 369.63 105.94H369.55C368.42 106.69 366.43 107.76 365.98 107.94C366.084 107.915 366.174 107.85 366.23 107.76L368.68 103.76L368.2 103.48L370.35 104.71L369.73 105.85Z" fill="white"/>
<path opacity="0.4" d="M380.22 67.26C379.725 66.2576 379.019 65.3741 378.15 64.67C377.851 64.4362 377.537 64.2224 377.21 64.03L337.6 41.3C337.209 41.073 336.765 40.9532 336.313 40.9528C335.861 40.9523 335.416 41.0712 335.025 41.2974C334.633 41.5237 334.308 41.8492 334.083 42.2412C333.857 42.6332 333.739 43.0777 333.74 43.53C333.74 37.96 341.95 35.26 345.42 37.25L385 60C386.205 60.6974 387.2 61.706 387.88 62.92L380.22 67.26Z" fill="white"/>
<path opacity="0.2" d="M381.09 106.54V70.7301C381.09 70.4225 381.07 70.1151 381.03 69.8101C380.904 68.9211 380.63 68.0593 380.22 67.2601L387.91 62.8901C388.565 64.0462 388.909 65.3518 388.91 66.6801V102.49C388.877 103.835 388.488 105.148 387.783 106.294C387.078 107.441 386.083 108.38 384.898 109.018C383.713 109.656 382.381 109.968 381.036 109.925C379.691 109.881 378.381 109.483 377.24 108.77C377.631 108.995 378.074 109.112 378.525 109.112C378.976 109.111 379.418 108.991 379.808 108.765C380.198 108.54 380.522 108.215 380.747 107.824C380.972 107.434 381.09 106.991 381.09 106.54Z" fill="white"/>
<path d="M350.47 61.0699C348.89 60.1599 347.31 59.9399 346.11 60.6299C343.68 61.9999 343.67 66.4899 346.11 70.6299L347.51 73.0699L356.2 88.0699L364.96 83.0699L366.37 82.2499C368.79 80.8799 368.8 76.3999 366.37 72.2499C365.322 70.3987 363.818 68.8462 362 67.7399C360.42 66.8299 358.84 66.6099 357.64 67.2899L356.22 68.0899L354.82 65.6599C353.782 63.7866 352.285 62.2073 350.47 61.0699Z" fill="white"/>
<path d="M112.09 62.8899C112.783 61.683 113.788 60.6848 115 59.9999L154.61 37.2799C158.08 35.2799 166.29 37.9899 166.29 43.5599V79.4599C166.29 80.8244 165.929 82.1646 165.244 83.3447C164.559 84.5248 163.575 85.5029 162.39 86.1799L131.8 103.61L137.08 100.61L134.55 107.8C134.511 107.903 134.435 107.987 134.337 108.035C134.238 108.084 134.125 108.092 134.02 108.06C133.57 107.83 131.58 106.76 130.45 106.06H130.37C130.37 106.06 130.29 106.06 130.27 105.97L129.65 104.97L122.76 108.9C121.619 109.613 120.309 110.011 118.964 110.055C117.619 110.098 116.287 109.785 115.102 109.148C113.917 108.51 112.922 107.57 112.217 106.424C111.512 105.277 111.124 103.965 111.09 102.62V66.6799C111.091 65.3515 111.436 64.046 112.09 62.8899Z" fill="#FF725E"/>
<path opacity="0.2" d="M130.27 105.85C130.27 105.85 130.33 105.91 130.37 105.94H130.45C131.58 106.69 133.57 107.76 134.02 107.94C133.916 107.915 133.827 107.85 133.77 107.76L131.32 103.76L131.8 103.48L129.65 104.71L130.27 105.85Z" fill="white"/>
<path opacity="0.4" d="M119.78 67.26C120.275 66.2576 120.981 65.3741 121.85 64.67C122.149 64.4362 122.463 64.2224 122.79 64.03L162.4 41.3C162.791 41.073 163.235 40.9532 163.687 40.9528C164.139 40.9523 164.584 41.0712 164.975 41.2974C165.367 41.5237 165.692 41.8492 165.917 42.2412C166.143 42.6332 166.261 43.0777 166.26 43.53C166.26 37.96 158.05 35.26 154.58 37.25L115 60C113.795 60.6974 112.8 61.706 112.12 62.92L119.78 67.26Z" fill="white"/>
<path opacity="0.2" d="M118.91 106.54V70.7301C118.91 70.4225 118.93 70.1151 118.97 69.8101C119.096 68.9211 119.37 68.0593 119.78 67.2601L112.09 62.8901C111.436 64.0462 111.091 65.3518 111.09 66.6801V102.49C111.124 103.835 111.512 105.148 112.217 106.294C112.922 107.441 113.917 108.38 115.102 109.018C116.287 109.656 117.619 109.968 118.964 109.925C120.309 109.881 121.619 109.483 122.76 108.77C122.369 108.995 121.926 109.112 121.475 109.112C121.024 109.111 120.582 108.991 120.192 108.765C119.802 108.54 119.478 108.215 119.253 107.824C119.028 107.434 118.91 106.991 118.91 106.54Z" fill="white"/>
<path d="M149.53 61.0699C151.11 60.1599 152.69 59.9399 153.89 60.6299C156.32 61.9999 156.33 66.4899 153.89 70.6299L152.49 73.0699L143.8 88.0699L135.04 83.0699L133.63 82.2499C131.21 80.8799 131.2 76.3999 133.63 72.2499C134.678 70.3987 136.183 68.8462 138 67.7399C139.58 66.8299 141.16 66.6099 142.36 67.2899L143.78 68.0899L145.18 65.6599C146.218 63.7866 147.715 62.2073 149.53 61.0699Z" fill="white"/>
<path d="M286.31 97.4296C287.07 94.7696 292.48 89.7096 297.86 89.8096C298.376 89.8273 298.886 89.9286 299.37 90.1096L403.84 149.55C405.366 150.43 406.635 151.694 407.521 153.217C408.407 154.74 408.879 156.468 408.89 158.23V384.23C408.89 389.99 402.25 395.48 396.02 392.84C395.883 392.795 395.749 392.741 395.62 392.68L291.09 333.09C289.567 332.21 288.302 330.945 287.425 329.421C286.547 327.897 286.086 326.168 286.09 324.41V98.5196C286.077 98.144 286.152 97.7708 286.31 97.4296Z" fill="#FF725E"/>
<path d="M394.31 182.11C394.309 181.227 394.074 180.361 393.63 179.599C393.185 178.837 392.547 178.206 391.78 177.77L294.78 122.58C294.4 122.363 293.969 122.249 293.532 122.251C293.094 122.252 292.664 122.368 292.285 122.588C291.907 122.808 291.592 123.123 291.374 123.502C291.155 123.882 291.04 124.312 291.04 124.75V307C291.04 307.884 291.273 308.752 291.718 309.516C292.162 310.28 292.801 310.913 293.57 311.35L390.57 366.63C390.951 366.844 391.382 366.955 391.82 366.952C392.257 366.948 392.686 366.831 393.064 366.61C393.442 366.39 393.756 366.075 393.974 365.696C394.193 365.317 394.309 364.887 394.31 364.45V182.11Z" fill="#FF725E"/>
<path d="M394.31 182.11C394.309 181.227 394.074 180.361 393.63 179.599C393.185 178.837 392.547 178.206 391.78 177.77L294.78 122.58C294.4 122.363 293.969 122.249 293.532 122.251C293.094 122.252 292.664 122.368 292.285 122.588C291.907 122.808 291.592 123.123 291.374 123.502C291.155 123.882 291.04 124.312 291.04 124.75V307C291.04 307.884 291.273 308.752 291.718 309.516C292.162 310.28 292.801 310.913 293.57 311.35L390.57 366.63C390.951 366.844 391.382 366.955 391.82 366.952C392.257 366.948 392.686 366.831 393.064 366.61C393.442 366.39 393.756 366.075 393.974 365.696C394.193 365.317 394.309 364.887 394.31 364.45V182.11Z" fill="#455A64"/>
<path opacity="0.3" d="M408.88 158.22V384.22C408.88 389.98 402.24 395.47 396.01 392.83C396.385 392.964 396.788 393.007 397.183 392.953C397.578 392.9 397.955 392.752 398.281 392.523C398.608 392.294 398.874 391.989 399.058 391.636C399.243 391.282 399.339 390.889 399.34 390.49V164.49C399.334 162.525 398.75 160.605 397.66 158.97L407.89 153.86C408.542 155.221 408.881 156.711 408.88 158.22Z" fill="black"/>
<path opacity="0.1" d="M297.85 89.7998C298.366 89.8176 298.876 89.9189 299.36 90.0998L403.83 149.54C405.564 150.54 406.957 152.038 407.83 153.84L397.62 159C396.76 157.694 395.606 156.608 394.25 155.83L289.78 96.3398C289.483 96.1735 289.155 96.0696 288.816 96.0346C288.477 95.9996 288.135 96.0342 287.81 96.1363C287.485 96.2384 287.184 96.4058 286.926 96.6282C286.669 96.8506 286.459 97.1234 286.31 97.4298C287.06 94.7598 292.47 89.6998 297.85 89.7998Z" fill="white"/>
<path d="M329.8 133.66C329.06 133.24 328.46 133.57 328.45 134.41C328.48 134.872 328.616 135.321 328.848 135.722C329.081 136.123 329.403 136.464 329.79 136.72L350.29 148.56C351.02 148.98 351.61 148.62 351.62 147.78C351.595 147.323 351.462 146.878 351.232 146.482C351.003 146.085 350.684 145.749 350.3 145.5L329.8 133.66Z" fill="#263238"/>
<path d="M355.56 148.54C354.83 148.11 354.23 148.45 354.23 149.29C354.258 149.751 354.391 150.199 354.62 150.599C354.849 151 355.167 151.342 355.55 151.6C355.68 151.708 355.84 151.774 356.008 151.788C356.176 151.803 356.345 151.766 356.492 151.683C356.638 151.599 356.756 151.472 356.829 151.32C356.902 151.168 356.927 150.997 356.9 150.83C356.872 150.37 356.736 149.923 356.503 149.525C356.27 149.127 355.947 148.79 355.56 148.54Z" fill="#263238"/>
<path d="M342.44 131.94C340.97 131.09 339.79 131.77 339.79 133.45C339.835 134.371 340.096 135.268 340.553 136.07C341.01 136.871 341.65 137.552 342.42 138.06C343.89 138.9 345.1 138.21 345.11 136.53C345.057 135.609 344.788 134.713 344.324 133.916C343.86 133.118 343.214 132.441 342.44 131.94Z" fill="#263238"/>
<path d="M342.43 344.69C339.43 342.96 337.04 344.34 337.03 347.77C337.123 349.644 337.658 351.47 338.592 353.098C339.525 354.727 340.83 356.111 342.4 357.14C345.4 358.87 347.86 357.46 347.87 354.02C347.762 352.146 347.214 350.324 346.268 348.703C345.323 347.081 344.008 345.706 342.43 344.69Z" fill="#263238"/>
<path d="M363 318.49C373.27 334.55 369.76 354.7 369.76 354.7L298.54 314.08L363 318.49Z" fill="#37474F"/>
<path d="M313.42 240.71L300.19 239.11L284.77 263.45L305.99 266.16L313.42 240.71Z" fill="#FFA8A7"/>
<path opacity="0.2" d="M313.42 240.71L300.19 239.11L284.77 263.45L305.99 266.16L313.42 240.71Z" fill="black"/>
<path d="M363 318.49C360.92 313.85 356.46 306.99 354.57 300.25L300.89 300.63C299.97 305.15 299.183 309.633 298.53 314.08L298.6 314.16L322.41 327.73C338.79 329.77 356.16 322.27 363 318.49Z" fill="#FFA8A7"/>
<path opacity="0.2" d="M330.42 318.4C335.09 318.68 339.95 315.85 341.49 311.4C346.771 310.29 351.868 308.438 356.63 305.9C355.791 304.063 355.086 302.168 354.52 300.23L300.84 300.61C300.61 301.76 300.41 302.9 300.19 304.05C305.567 308.027 311.96 310.399 318.63 310.89C319.868 312.979 321.581 314.747 323.629 316.052C325.677 317.356 328.003 318.161 330.42 318.4Z" fill="black"/>
<path d="M303.89 223.58C303.768 222.109 303.931 220.629 304.37 219.22C304.75 217.98 308.85 210.92 308.43 210.41C305.716 207.163 304.205 203.08 304.15 198.848C304.095 194.617 305.501 190.496 308.13 187.18C306.914 186.588 305.924 185.615 305.31 184.41C304.696 183.205 304.492 181.833 304.728 180.501C304.965 179.169 305.629 177.951 306.62 177.03C307.61 176.11 308.874 175.537 310.22 175.4C312.49 175.19 314.65 176.24 316.82 176.9C320.566 177.898 324.461 178.216 328.32 177.84C332.17 177.61 336.02 177.1 339.89 177.14C343.77 177.041 347.613 177.914 351.07 179.68C352.787 180.575 354.276 181.852 355.424 183.412C356.571 184.972 357.346 186.774 357.69 188.68C363.48 188.04 369.69 193.23 370.29 199.03C370.86 204.65 367.13 209.93 367.18 215.58C367.18 219.41 368.97 223.03 371.18 226.12C373.39 229.21 376.18 231.93 378.52 234.93C385.01 243.249 388.439 253.55 388.23 264.1C388.09 269.98 386.7 276.05 383.02 280.65C375.8 289.65 358.36 290.65 347.81 289.38C336.982 288.043 326.769 283.617 318.39 276.63C312.64 271.81 307.59 264.94 308.39 257.48C308.78 253.98 310.39 250.76 311.65 247.48C312.91 244.2 313.65 240.42 312.26 237.18C310.87 233.94 307.38 231.69 305.44 228.58C304.528 227.062 303.997 225.347 303.89 223.58Z" fill="#263238"/>
<path d="M316.64 253.16C318.14 254.62 320.34 255.05 322.41 255.22C327.511 255.645 332.642 254.884 337.401 252.997C342.159 251.109 346.417 248.146 349.84 244.34L344.03 243.34L345.59 224.51L324.59 230.68L323.69 241.56L318.48 241.13C317.291 242.358 316.324 243.783 315.62 245.34C314.53 247.91 314.64 251.21 316.64 253.16Z" fill="#FFA8A7"/>
<path opacity="0.2" d="M344.12 225C340.19 232.18 333.12 238 323.96 238.34L324.59 230.73L344.12 225Z" fill="black"/>
<path d="M343.17 209.72C342.76 211.27 342.551 212.867 342.55 214.47C342.618 215.687 343.082 216.849 343.87 217.78C344.249 218.227 344.734 218.573 345.28 218.786C345.827 218.999 346.418 219.073 347 219C346.831 217.409 347.279 215.815 348.252 214.546C349.226 213.276 350.649 212.429 352.229 212.179C353.808 211.928 355.424 212.294 356.741 213.201C358.059 214.107 358.979 215.485 359.31 217.05C359.485 218.18 359.412 219.335 359.094 220.434C358.776 221.532 358.222 222.548 357.47 223.41C355.948 225.124 354.048 226.459 351.92 227.31C350.717 227.598 349.451 227.456 348.342 226.908C347.233 226.36 346.351 225.441 345.85 224.31C339.17 231.47 328.15 236.31 318.34 234.7C315.645 234.337 313.113 233.201 311.05 231.43C307.55 228.23 307.63 223.85 307.52 219.5C307.272 213.992 307.77 208.475 309 203.1C310.83 195.69 314.78 188.59 321 184.19C323.06 200.8 337.54 208 343.17 209.72Z" fill="#FFA8A7"/>
<path d="M322.75 206.16L315.3 213.94L321.41 216.62L322.75 206.16Z" fill="#F28F8F"/>
<path d="M326.84 221.16L321.44 222.39C321.727 223.038 322.219 223.575 322.84 223.919C323.461 224.262 324.178 224.392 324.88 224.29C326.2 224 326.91 222.5 326.84 221.16Z" fill="#F28F8F"/>
<path opacity="0.3" d="M326.84 221.16L321.44 222.39C321.727 223.038 322.219 223.575 322.84 223.919C323.461 224.262 324.178 224.392 324.88 224.29C326.2 224 326.91 222.5 326.84 221.16Z" fill="black"/>
<path d="M323.16 224.06C323.698 224.304 324.296 224.384 324.88 224.29C325.382 224.144 325.83 223.852 326.167 223.452C326.503 223.051 326.713 222.56 326.77 222.04C326.075 221.87 325.343 221.948 324.7 222.26C323.97 222.634 323.416 223.28 323.16 224.06Z" fill="#F28F8F"/>
<path d="M331.92 208.67C331.873 209.041 331.717 209.39 331.472 209.673C331.227 209.955 330.903 210.159 330.542 210.257C330.181 210.356 329.799 210.345 329.444 210.226C329.089 210.107 328.778 209.886 328.549 209.589C328.32 209.293 328.185 208.936 328.159 208.563C328.134 208.189 328.22 207.817 328.406 207.492C328.593 207.168 328.871 206.906 329.206 206.74C329.542 206.574 329.919 206.511 330.29 206.56C330.536 206.589 330.774 206.668 330.99 206.79C331.206 206.913 331.395 207.077 331.547 207.273C331.699 207.47 331.81 207.694 331.874 207.934C331.938 208.174 331.954 208.424 331.92 208.67Z" fill="#263238"/>
<path d="M316.31 206.05C316.263 206.421 316.107 206.77 315.862 207.053C315.616 207.335 315.293 207.539 314.932 207.637C314.571 207.736 314.189 207.725 313.834 207.606C313.479 207.487 313.168 207.265 312.939 206.969C312.71 206.673 312.574 206.316 312.549 205.942C312.523 205.569 312.609 205.197 312.796 204.872C312.982 204.548 313.261 204.286 313.596 204.12C313.931 203.954 314.309 203.891 314.68 203.94C314.926 203.969 315.164 204.048 315.38 204.17C315.596 204.293 315.785 204.457 315.937 204.653C316.088 204.85 316.2 205.074 316.264 205.314C316.328 205.554 316.343 205.804 316.31 206.05Z" fill="#263238"/>
<path d="M315.44 198.37L310.93 200.71C310.817 200.173 310.871 199.615 311.084 199.109C311.296 198.603 311.658 198.175 312.12 197.88C312.664 197.642 313.263 197.563 313.85 197.649C314.437 197.736 314.988 197.985 315.44 198.37Z" fill="#263238"/>
<path d="M331.48 200.2C332.733 201.34 333.99 202.473 335.25 203.6C335.489 203.115 335.577 202.569 335.5 202.033C335.423 201.498 335.186 200.998 334.82 200.6C334.356 200.229 333.797 199.995 333.207 199.924C332.617 199.853 332.019 199.949 331.48 200.2Z" fill="#263238"/>
<path d="M357 303.84C354.22 297.1 358.19 288.03 364.2 279.14C366.03 276.44 366.7 265.01 366.95 256.61C367.03 254.029 366.172 251.506 364.536 249.508C362.9 247.509 360.596 246.171 358.05 245.74L349.83 244.34C346.407 248.147 342.15 251.11 337.391 252.997C332.632 254.885 327.502 255.645 322.4 255.22C319.32 254.97 315.98 254.14 315.06 250.22C314.81 249.151 314.81 248.039 315.06 246.97C315.655 244.744 316.828 242.716 318.46 241.09L313.4 240.67C306.88 245.57 293.58 266.48 291.89 278.18C291.04 284.05 295.36 287.33 298.35 289.42C298.576 292.838 298.542 296.267 298.25 299.68C302.64 302.68 307.87 304.35 313.1 305.47C330.11 309.14 340.62 309.59 357 303.84Z" fill="#FF725E"/>
<path opacity="0.2" d="M357 303.84C354.22 297.1 358.19 288.03 364.2 279.14C366.03 276.44 366.7 265.01 366.95 256.61C367.03 254.029 366.172 251.506 364.536 249.508C362.9 247.509 360.596 246.171 358.05 245.74L349.83 244.34C346.407 248.147 342.15 251.11 337.391 252.997C332.632 254.885 327.502 255.645 322.4 255.22C319.32 254.97 315.98 254.14 315.06 250.22C314.81 249.151 314.81 248.039 315.06 246.97C315.655 244.744 316.828 242.716 318.46 241.09L313.4 240.67C306.88 245.57 293.58 266.48 291.89 278.18C291.04 284.05 295.36 287.33 298.35 289.42C298.576 292.838 298.542 296.267 298.25 299.68C302.64 302.68 307.87 304.35 313.1 305.47C330.11 309.14 340.62 309.59 357 303.84Z" fill="black"/>
<path d="M294.93 234.33L273.69 276C273.089 277.184 272.742 278.48 272.67 279.806C272.599 281.131 272.806 282.458 273.276 283.699C273.747 284.941 274.471 286.07 275.404 287.016C276.336 287.961 277.455 288.702 278.69 289.19C279.908 289.675 281.214 289.904 282.525 289.861C283.836 289.819 285.124 289.506 286.309 288.943C287.494 288.38 288.549 287.578 289.41 286.588C290.27 285.598 290.917 284.441 291.31 283.19L305.19 238.45L294.93 234.33Z" fill="#FFA8A7"/>
<path d="M293.3 238.85C287.93 232.62 286.14 225.68 286.52 217.57C286.555 216.857 286.855 216.183 287.36 215.68C288.228 214.797 289.243 214.073 290.36 213.54C290.737 213.352 291.152 213.251 291.574 213.244C291.995 213.238 292.413 213.325 292.796 213.501C293.18 213.676 293.519 213.935 293.789 214.258C294.06 214.582 294.255 214.961 294.36 215.37C294.936 217.606 295.671 219.798 296.56 221.93C296.065 219.202 295.954 216.418 296.23 213.66C296.273 213.156 296.514 212.69 296.9 212.364C297.286 212.038 297.786 211.878 298.29 211.92C298.781 211.96 299.236 212.193 299.556 212.568C299.876 212.942 300.036 213.428 300 213.92C299.758 218.097 300.624 222.264 302.51 226C302.34 223.88 302.51 222.26 302.51 220.37C302.512 220.132 302.565 219.898 302.664 219.683C302.763 219.467 302.906 219.274 303.084 219.118C303.263 218.961 303.472 218.844 303.699 218.774C303.925 218.703 304.164 218.681 304.4 218.71C304.758 218.75 305.093 218.904 305.358 219.148C305.622 219.393 305.802 219.716 305.87 220.07C306.29 222.36 306.57 224.66 307.04 226.94C307.7 230.09 308.33 233.45 307.14 236.44C306.69 237.555 306.004 238.56 305.129 239.385C304.253 240.21 303.21 240.836 302.07 241.22C299.83 242 294.87 240.67 293.3 238.85Z" fill="#FFA8A7"/>
<path opacity="0.2" d="M302.51 226C301.686 226.62 301.002 227.406 300.5 228.306C299.998 229.207 299.69 230.202 299.596 231.229C299.502 232.255 299.623 233.29 299.953 234.267C300.283 235.243 300.813 236.14 301.51 236.9C299.931 236.229 298.653 235.001 297.92 233.45C297.557 232.665 297.374 231.807 297.386 230.942C297.398 230.077 297.605 229.225 297.99 228.45C298.471 227.689 299.139 227.064 299.93 226.635C300.722 226.206 301.61 225.987 302.51 226Z" fill="black"/>
<path opacity="0.2" d="M339 282.43C335.821 286.293 331.417 288.953 326.518 289.966C321.618 290.979 316.52 290.285 312.07 288C313.862 290.061 316.144 291.638 318.706 292.585C321.268 293.533 324.028 293.82 326.73 293.42C332.07 292.49 337 287.48 339 282.43Z" fill="black"/>
<path d="M358.06 245.74C353.12 251.82 343.53 267.06 336.81 278.01L335.87 254.88C339.154 254.054 342.192 252.454 344.73 250.213C347.268 247.972 349.233 245.156 350.46 242C351.58 239 351.99 235.65 350.27 232.84C349.583 231.69 348.525 230.808 347.27 230.34C344.16 229.25 341.7 231.26 340.09 233.53C339.038 235.293 337.893 236.999 336.66 238.64C334.58 241 331.61 242.32 328.99 244.07C326.37 245.82 323.99 248.24 323.99 251.38L319.42 300.18C319.206 302.528 319.723 304.885 320.901 306.928C322.079 308.971 323.86 310.599 326 311.59C328.307 312.648 330.901 312.908 333.373 312.328C335.845 311.749 338.053 310.363 339.65 308.39C346.65 299.75 358.32 285.07 363.82 276.91C372 264.85 376.71 248.53 358.06 245.74Z" fill="#FFA8A7"/>
<path opacity="0.2" d="M336.81 278L325.53 296.26C326.24 277.87 336.73 276.13 336.73 276.13L336.81 278Z" fill="black"/>
<path opacity="0.2" d="M326.39 249.22C328 247.22 330.78 246.71 333.16 245.73C336.449 244.342 339.165 241.872 340.86 238.73C341.61 237.31 342.15 235.79 342.86 234.37C343.548 232.911 344.664 231.697 346.06 230.89C346.534 230.658 347.045 230.509 347.57 230.45C347.447 230.385 347.32 230.328 347.19 230.28C344.08 229.19 341.62 231.2 340.01 233.47C338.958 235.233 337.813 236.939 336.58 238.58C334.5 240.94 331.53 242.26 328.91 244.01C326.29 245.76 323.91 248.18 323.91 251.32L322.78 263.43C323.539 260.502 324.15 257.539 324.61 254.55C324.94 252.7 325.21 250.71 326.39 249.22Z" fill="white"/>
<path d="M213.69 97.4296C212.93 94.7696 207.52 89.7096 202.14 89.8096C201.624 89.8273 201.114 89.9286 200.63 90.1096L96.1699 149.54C94.6529 150.426 93.3937 151.693 92.5167 153.215C91.6398 154.738 91.1755 156.463 91.1699 158.22V384.22C91.1699 389.98 97.8099 395.47 104.04 392.83C104.177 392.785 104.31 392.732 104.44 392.67L208.92 333.13C210.452 332.257 211.727 330.994 212.613 329.469C213.5 327.945 213.968 326.213 213.97 324.45V98.5196C213.964 98.1392 213.868 97.7657 213.69 97.4296Z" fill="#455A64"/>
<path d="M105.69 182.11C105.691 181.227 105.926 180.361 106.37 179.599C106.815 178.837 107.453 178.206 108.22 177.77L205.22 122.58C205.6 122.363 206.031 122.249 206.468 122.251C206.906 122.252 207.336 122.368 207.715 122.588C208.093 122.808 208.408 123.123 208.626 123.502C208.845 123.882 208.96 124.312 208.96 124.75V307C208.96 307.884 208.727 308.752 208.282 309.516C207.838 310.28 207.199 310.913 206.43 311.35L109.43 366.63C109.049 366.844 108.618 366.955 108.18 366.952C107.743 366.948 107.314 366.831 106.936 366.61C106.558 366.39 106.244 366.075 106.026 365.696C105.807 365.317 105.691 364.887 105.69 364.45V182.11Z" fill="#FF725E"/>
<path opacity="0.2" d="M105.69 182.11C105.691 181.227 105.926 180.361 106.37 179.599C106.815 178.837 107.453 178.206 108.22 177.77L205.22 122.58C205.6 122.363 206.031 122.249 206.468 122.251C206.906 122.252 207.336 122.368 207.715 122.588C208.093 122.808 208.408 123.123 208.626 123.502C208.845 123.882 208.96 124.312 208.96 124.75V307C208.96 307.884 208.727 308.752 208.282 309.516C207.838 310.28 207.199 310.913 206.43 311.35L109.43 366.63C109.049 366.844 108.618 366.955 108.18 366.952C107.743 366.948 107.314 366.831 106.936 366.61C106.558 366.39 106.244 366.075 106.026 365.696C105.807 365.317 105.691 364.887 105.69 364.45V182.11Z" fill="black"/>
<path opacity="0.3" d="M91.1201 158.22V384.22C91.1201 389.98 97.7601 395.47 103.99 392.83C103.615 392.964 103.212 393.007 102.817 392.953C102.422 392.9 102.045 392.752 101.719 392.523C101.392 392.294 101.126 391.989 100.941 391.636C100.757 391.282 100.661 390.889 100.66 390.49V164.49C100.666 162.525 101.25 160.605 102.34 158.97L92.1101 153.86C91.4576 155.221 91.1192 156.711 91.1201 158.22Z" fill="black"/>
<path opacity="0.1" d="M202.15 89.7998C201.634 89.8176 201.124 89.9189 200.64 90.0998L96.1699 149.54C94.4363 150.54 93.0428 152.038 92.1699 153.84L102.38 159C103.24 157.694 104.394 156.608 105.75 155.83L210.22 96.3398C210.517 96.1735 210.845 96.0696 211.184 96.0346C211.523 95.9996 211.865 96.0342 212.19 96.1363C212.515 96.2384 212.816 96.4058 213.074 96.6282C213.331 96.8506 213.541 97.1234 213.69 97.4298C212.94 94.7598 207.53 89.6998 202.15 89.7998Z" fill="white"/>
<path d="M170.2 133.66C170.94 133.24 171.54 133.57 171.55 134.41C171.52 134.872 171.384 135.321 171.151 135.722C170.919 136.123 170.596 136.464 170.21 136.72L149.71 148.56C148.98 148.98 148.39 148.62 148.38 147.78C148.405 147.323 148.538 146.878 148.767 146.482C148.996 146.085 149.316 145.749 149.7 145.5L170.2 133.66Z" fill="#263238"/>
<path d="M144.44 148.54C145.17 148.11 145.77 148.45 145.77 149.29C145.743 149.751 145.609 150.199 145.38 150.599C145.151 151 144.833 151.342 144.45 151.6C144.32 151.708 144.161 151.774 143.992 151.788C143.824 151.803 143.655 151.766 143.509 151.683C143.362 151.599 143.244 151.472 143.171 151.32C143.098 151.168 143.074 150.997 143.1 150.83C143.129 150.37 143.265 149.923 143.497 149.525C143.73 149.127 144.053 148.79 144.44 148.54Z" fill="#263238"/>
<path d="M157.56 131.94C159.03 131.09 160.21 131.77 160.21 133.45C160.165 134.371 159.904 135.268 159.447 136.07C158.99 136.871 158.35 137.552 157.58 138.06C156.11 138.9 154.9 138.21 154.89 136.53C154.943 135.609 155.213 134.713 155.676 133.916C156.14 133.118 156.786 132.441 157.56 131.94Z" fill="#263238"/>
<path d="M157.57 344.69C160.57 342.96 162.96 344.34 162.97 347.77C162.876 349.644 162.341 351.47 161.408 353.098C160.475 354.727 159.17 356.111 157.6 357.14C154.6 358.87 152.14 357.46 152.13 354.02C152.237 352.146 152.786 350.324 153.732 348.703C154.677 347.081 155.992 345.706 157.57 344.69Z" fill="#263238"/>
<path d="M191 314.84L127 315.68C127 315.68 125.72 331.04 124.93 357.76L191.39 319.89C191.17 316.71 191 314.84 191 314.84Z" fill="#FF725E"/>
<path opacity="0.5" d="M191 314.84L127 315.68C127 315.68 125.72 331.04 124.93 357.76L191.39 319.89C191.17 316.71 191 314.84 191 314.84Z" fill="black"/>
<path d="M266.76 228.19L239.65 270.66C238.769 272.038 237.607 273.215 236.24 274.114C234.873 275.013 233.331 275.613 231.717 275.875C230.102 276.137 228.45 276.056 226.868 275.637C225.287 275.217 223.812 274.468 222.54 273.44L210.54 263.71L222 246.29L229.33 252.85L249.62 231.1C251.62 228.99 253.2 227 253.87 224.19L266.76 228.19Z" fill="#875554"/>
<path d="M186.82 219C196.82 218.43 199.38 223.64 205.68 229.5C211.98 235.36 223.81 246.77 223.81 246.77C223.354 250.718 221.912 254.488 219.615 257.731C217.319 260.975 214.243 263.588 210.67 265.33L188.74 249.15L186.82 219Z" fill="#455A64"/>
<path d="M229.29 252.85C227.17 258.01 228.87 264.85 228.87 264.85C227.489 262.822 226.607 260.497 226.298 258.063C225.988 255.63 226.26 253.158 227.09 250.85L229.29 252.85Z" fill="#753F3F"/>
<path opacity="0.2" d="M198.41 243.28C197.1 236.333 193.1 230.183 187.28 226.17L188.74 249.17L198.74 256.56C198.8 252.11 199.16 247.65 198.41 243.28Z" fill="black"/>
<path d="M197.83 187.41C200.479 184.82 202.25 181.465 202.892 177.816C203.534 174.167 203.016 170.409 201.41 167.07C202.702 165.762 203.7 164.194 204.336 162.469C204.972 160.744 205.233 158.904 205.1 157.07C204.902 155.251 204.313 153.496 203.372 151.927C202.431 150.358 201.161 149.011 199.65 147.98C200.2 150.5 198.38 153.68 196.09 154.88C193.721 155.942 191.094 156.29 188.53 155.88C184.45 155.47 180.53 154.33 176.46 153.63C172.39 152.93 168.18 152.7 164.32 154.06C160.46 155.42 157.05 158.66 156.48 162.72C152.83 161.62 148.03 164.6 146.41 168.05C144.79 171.5 145.17 175.58 146.31 179.22C147.45 182.86 149.31 186.22 150.67 189.78C152.03 193.34 152.88 197.27 151.9 200.96C151.372 202.436 150.931 203.942 150.58 205.47C150.42 206.241 150.48 207.041 150.752 207.78C151.024 208.519 151.498 209.167 152.12 209.65C152.37 208.65 152.82 207.65 153.07 206.65C153.255 207.427 153.534 208.18 153.9 208.89C154.246 209.6 154.851 210.151 155.59 210.43C155.961 210.556 156.362 210.564 156.738 210.453C157.114 210.342 157.447 210.117 157.69 209.81C157.988 211.204 158.611 212.508 159.507 213.617C160.404 214.725 161.549 215.607 162.85 216.19C164.18 216.764 165.624 217.024 167.07 216.95C168.517 216.875 169.926 216.468 171.19 215.76C173.326 214.436 174.999 212.483 175.98 210.17C176.956 207.872 177.651 205.465 178.05 203C185.244 198.614 191.885 193.38 197.83 187.41Z" fill="#263238"/>
<path d="M125.36 319.5C125.36 319.5 162.49 333.08 192.64 316.15C192.64 316.15 190.81 294.54 190.26 281.95C189.71 269.36 194.06 245.04 194.72 238.52C195.38 232 194.5 220.72 186.82 219.01C172.57 216.01 145.82 219.01 145.82 219.01L129.82 236.68C123.07 271.2 124.22 307.45 125.36 319.5Z" fill="#455A64"/>
<path d="M179.49 208.59L178.7 217.42C178.654 218.122 178.829 218.822 179.2 219.42C179.689 220.343 179.877 221.395 179.737 222.43C179.597 223.465 179.136 224.43 178.42 225.19C177.281 226.048 175.896 226.518 174.47 226.53C171.777 226.676 169.083 226.25 166.567 225.279C164.05 224.309 161.768 222.816 159.87 220.9C159.489 220.501 159.191 220.03 158.994 219.515C158.796 219 158.703 218.451 158.72 217.9L159.3 195.49L179.49 208.59Z" fill="#875554"/>
<path d="M161.08 196.58L179.49 208.58L178.79 216.41C174.51 215.41 170.2 214.18 166.79 211.41C164.66 209.624 163.018 207.327 162.019 204.732C161.02 202.138 160.697 199.333 161.08 196.58Z" fill="#753F3F"/>
<path d="M199.56 172.59C200.91 182.839 200.23 193.253 197.56 203.24C197.048 205.44 196.23 207.557 195.13 209.53C194.007 211.52 192.245 213.074 190.13 213.94C187.53 214.94 184.65 214.45 181.91 213.94C176.91 213.06 171.78 212.13 167.44 209.51C163.1 206.89 159.66 202.13 160.08 197.07C158.843 197.833 157.435 198.275 155.983 198.355C154.532 198.436 153.084 198.152 151.77 197.53C150.493 196.829 149.409 195.823 148.615 194.602C147.822 193.38 147.342 191.981 147.22 190.53C147.03 187.7 148.67 184.53 151.45 183.98C152.311 183.857 153.189 183.92 154.024 184.165C154.859 184.41 155.631 184.831 156.29 185.4C157.595 186.542 158.73 187.866 159.66 189.33C160.087 190.041 160.66 190.654 161.34 191.13C161.679 191.371 162.084 191.501 162.5 191.501C162.916 191.501 163.321 191.371 163.66 191.13C163.952 190.786 164.164 190.382 164.278 189.945C164.392 189.509 164.406 189.052 164.32 188.61L164.03 182.19C164.012 181.698 164.136 181.212 164.388 180.79C164.64 180.368 165.009 180.027 165.45 179.81C166.772 179.086 167.791 177.911 168.32 176.5C168.79 175.263 169.066 173.961 169.14 172.64C169.158 172.393 169.234 172.153 169.362 171.941C169.491 171.729 169.667 171.55 169.878 171.419C170.089 171.288 170.328 171.209 170.575 171.189C170.822 171.168 171.07 171.206 171.3 171.3C180 174.72 190.69 174.88 199.56 172.59Z" fill="#875554"/>
<path d="M185.46 188.15L191.23 197.85L184.35 199.15L185.46 188.15Z" fill="#753F3F"/>
<path d="M177.72 202.49L183 205C182.551 205.603 181.916 206.04 181.192 206.245C180.469 206.449 179.698 206.409 179 206.13C177.7 205.58 177.34 203.85 177.72 202.49Z" fill="#F28F8F"/>
<path d="M177.72 202.49L183 205C182.551 205.603 181.916 206.04 181.192 206.245C180.469 206.449 179.698 206.409 179 206.13C177.7 205.58 177.34 203.85 177.72 202.49Z" fill="#753F3F"/>
<path d="M180.8 206.33C180.193 206.453 179.563 206.394 178.99 206.16C178.511 205.891 178.123 205.486 177.873 204.997C177.624 204.508 177.526 203.955 177.59 203.41C178.397 203.392 179.181 203.686 179.778 204.229C180.375 204.772 180.741 205.525 180.8 206.33Z" fill="#F28F8F"/>
<path d="M175.5 188.53C175.454 188.925 175.526 189.325 175.709 189.679C175.891 190.033 176.175 190.324 176.524 190.516C176.873 190.707 177.272 190.79 177.668 190.754C178.064 190.718 178.441 190.564 178.75 190.313C179.058 190.061 179.285 189.723 179.4 189.342C179.516 188.961 179.515 188.555 179.398 188.174C179.281 187.794 179.053 187.457 178.743 187.207C178.434 186.956 178.056 186.804 177.66 186.77C177.142 186.725 176.626 186.883 176.223 187.212C175.82 187.54 175.56 188.013 175.5 188.53Z" fill="#263238"/>
<path d="M192.06 189.56C192.016 189.955 192.091 190.354 192.275 190.707C192.458 191.06 192.743 191.349 193.093 191.539C193.442 191.729 193.84 191.811 194.236 191.773C194.632 191.736 195.008 191.581 195.316 191.329C195.623 191.077 195.849 190.739 195.963 190.358C196.078 189.977 196.076 189.571 195.958 189.191C195.841 188.811 195.613 188.475 195.303 188.225C194.994 187.976 194.617 187.824 194.22 187.79C193.701 187.745 193.184 187.905 192.78 188.235C192.377 188.566 192.118 189.041 192.06 189.56Z" fill="#263238"/>
<path d="M194.76 181.93L198.81 185.38C199.057 184.86 199.137 184.277 199.041 183.71C198.944 183.143 198.675 182.619 198.27 182.21C197.769 181.842 197.175 181.621 196.555 181.572C195.935 181.522 195.314 181.646 194.76 181.93Z" fill="#263238"/>
<path d="M178 180L173.34 182.57C173.202 182.011 173.239 181.423 173.446 180.887C173.654 180.35 174.022 179.89 174.5 179.57C175.065 179.308 175.693 179.209 176.311 179.285C176.93 179.361 177.515 179.609 178 180Z" fill="#263238"/>
<path d="M271.42 210.31L268.75 202.2L268.92 198.14C265.92 199.33 264.05 201.22 261.27 205.75C258.49 210.28 263.67 211.75 263.67 211.75C266.67 217.4 265.01 224.6 262.26 227.22L266.76 228.22C270.27 226.76 270.86 224.71 272.32 222.51C273.684 220.49 274.875 218.36 275.88 216.14L271.42 210.31Z" fill="#753F3F"/>
<path d="M263.67 211.71C264.45 209.357 265.144 206.99 265.75 204.61C266.053 203.877 266.053 203.053 265.75 202.32C265.21 201.32 263.75 200.91 262.55 200.61L257.42 210.21C254.687 214.741 253.439 220.014 253.85 225.29L262.28 227.18C265 224.56 266.67 217.36 263.67 211.71Z" fill="#875554"/>
<path d="M274.24 240.51L272.76 234.74L273.3 234.46L272.64 234.27L271.35 229.27L272.04 228.27L271.13 228.48L268.22 217.12C267.13 212.89 266.01 208.52 265.33 204.12C265.07 202.37 264.87 200.6 264.72 198.83L265.06 198.56H264.7C264.57 196.93 264.48 195.3 264.42 193.66L264.86 193.39L264.41 193.3C264.31 190.3 264.29 187.35 264.28 184.42H263.12C263.12 186.42 263.12 188.42 263.17 190.42L262.49 190.48L263.19 191.04C263.19 192.63 263.27 194.22 263.36 195.81L262.93 195.92L263.38 196.17C263.53 198.9 263.77 201.62 264.18 204.32C264.86 208.77 266 213.17 267.09 217.42L270.69 231.42L270.29 231.62L270.78 231.77L272.18 237.22L271.4 237.9H272.4L274.4 245.56C274.744 243.887 274.689 242.157 274.24 240.51Z" fill="#455A64"/>
<path d="M265 185.25C262.676 184.258 260.146 183.846 257.627 184.048C255.108 184.25 252.676 185.061 250.54 186.41C252.98 187.61 255.28 189.09 257.99 189.09C259.37 189.008 260.714 188.622 261.927 187.958C263.139 187.293 264.189 186.369 265 185.25Z" fill="#455A64"/>
<path d="M262.22 185.55C266.746 183.508 271.879 183.262 276.58 184.86C274.721 186.824 272.256 188.106 269.58 188.5C267 188.88 263.68 187.79 262.22 185.55Z" fill="#455A64"/>
<path d="M264.32 168.35C264.13 167.15 263.06 166.35 262.08 165.6C260.972 164.963 260.141 163.936 259.75 162.72C258.769 163.652 258 164.785 257.496 166.041C256.993 167.298 256.765 168.648 256.83 170C257.288 170.618 257.915 171.092 258.635 171.363C259.355 171.634 260.138 171.692 260.89 171.53C262.46 171.24 264.56 169.92 264.32 168.35Z" fill="#FF725E"/>
<path opacity="0.3" d="M264.32 168.35C264.13 167.15 263.06 166.35 262.08 165.6C260.972 164.963 260.141 163.936 259.75 162.72C258.769 163.652 258 164.785 257.496 166.041C256.993 167.298 256.765 168.648 256.83 170C257.288 170.618 257.915 171.092 258.635 171.363C259.355 171.634 260.138 171.692 260.89 171.53C262.46 171.24 264.56 169.92 264.32 168.35Z" fill="black"/>
<path d="M269.43 168C269.055 165.828 268.915 163.622 269.01 161.42C264.755 163.917 261.604 167.933 260.19 172.66C261.26 173.31 262.33 173.86 263.4 174.51C265.3 172.32 267.53 170.28 269.43 168Z" fill="#FF725E"/>
<path opacity="0.2" d="M269.43 168C269.055 165.828 268.915 163.622 269.01 161.42C264.755 163.917 261.604 167.933 260.19 172.66C261.26 173.31 262.33 173.86 263.4 174.51C265.3 172.32 267.53 170.28 269.43 168Z" fill="black"/>
<path d="M255.47 176.52C255.64 178.6 255.36 180.79 256.26 182.68C256.909 183.953 257.965 184.974 259.26 185.58C260.553 186.176 261.957 186.496 263.38 186.52C264.239 186.623 265.109 186.544 265.935 186.287C266.76 186.03 267.522 185.602 268.17 185.03C268.937 184.141 269.353 183.003 269.34 181.83C269.315 180.665 269.071 179.514 268.62 178.44C267.311 175.084 264.999 172.214 262 170.22C259.87 168.803 257.452 167.877 254.92 167.51C253.92 167.37 253.1 167.61 252.98 168.72C252.86 169.83 253.8 170.93 254.26 171.94C254.93 173.383 255.339 174.934 255.47 176.52Z" fill="#FF725E"/>
<path opacity="0.1" d="M255.47 176.52C255.64 178.6 255.36 180.79 256.26 182.68C256.909 183.953 257.965 184.974 259.26 185.58C260.553 186.176 261.957 186.496 263.38 186.52C264.239 186.623 265.109 186.544 265.935 186.287C266.76 186.03 267.522 185.602 268.17 185.03C268.937 184.141 269.353 183.003 269.34 181.83C269.315 180.665 269.071 179.514 268.62 178.44C267.311 175.084 264.999 172.214 262 170.22C259.87 168.803 257.452 167.877 254.92 167.51C253.92 167.37 253.1 167.61 252.98 168.72C252.86 169.83 253.8 170.93 254.26 171.94C254.93 173.383 255.339 174.934 255.47 176.52Z" fill="black"/>
<path d="M272.64 164.7C273.09 164.56 273.64 164.47 273.95 164.85C274.26 165.23 271.47 168.74 272.6 171.77C273.247 173.522 273.585 175.372 273.6 177.24C273.604 178.543 273.305 179.829 272.727 180.997C272.149 182.164 271.308 183.182 270.27 183.97C269.333 184.719 268.188 185.162 266.99 185.24C265.97 185.217 264.974 184.923 264.105 184.387C263.237 183.851 262.527 183.092 262.05 182.19C261.266 180.577 260.905 178.791 261 177C260.996 175.684 261.382 174.396 262.11 173.3C263.572 170.705 265.628 168.495 268.11 166.85C269.511 165.922 271.036 165.199 272.64 164.7Z" fill="#FF725E"/>
<path opacity="0.05" d="M272.64 164.7C273.09 164.56 273.64 164.47 273.95 164.85C274.26 165.23 271.47 168.74 272.6 171.77C273.247 173.522 273.585 175.372 273.6 177.24C273.604 178.543 273.305 179.829 272.727 180.997C272.149 182.164 271.308 183.182 270.27 183.97C269.333 184.719 268.188 185.162 266.99 185.24C265.97 185.217 264.974 184.923 264.105 184.387C263.237 183.851 262.527 183.092 262.05 182.19C261.266 180.577 260.905 178.791 261 177C260.996 175.684 261.382 174.396 262.11 173.3C263.572 170.705 265.628 168.495 268.11 166.85C269.511 165.922 271.036 165.199 272.64 164.7Z" fill="black"/>
<path d="M263.37 186.52C265.58 185.72 269.24 175.97 275.88 175.28C275.713 177.46 275.189 179.599 274.33 181.61C273.422 183.545 271.856 185.094 269.91 185.98C267.853 186.89 265.549 187.081 263.37 186.52Z" fill="#FF725E"/>
<path d="M263.37 186.52C253.76 187.74 253.84 177.74 251.83 175.85C256.922 177.763 261.064 181.593 263.37 186.52Z" fill="#FF725E"/>
<path d="M270.77 217.36C270.339 217.812 269.966 218.315 269.66 218.86C269.513 219.12 269.426 219.409 269.405 219.706C269.384 220.004 269.431 220.303 269.54 220.58C269.692 220.88 269.923 221.132 270.209 221.309C270.495 221.485 270.824 221.579 271.16 221.58C271.939 221.486 272.654 221.1 273.16 220.5C274.353 219.454 275.441 218.296 276.41 217.04C276.755 216.639 276.962 216.138 277 215.61C277 214.29 275.15 213.74 273.81 214.22C273.313 214.458 272.889 214.824 272.58 215.28L270.77 217.36Z" fill="#875554"/>
<path d="M268.37 212.81C267.823 213.366 267.355 213.996 266.98 214.68C266.801 215.003 266.696 215.361 266.671 215.729C266.647 216.097 266.705 216.466 266.84 216.81C267.025 217.183 267.31 217.497 267.663 217.718C268.016 217.939 268.424 218.057 268.84 218.06C269.827 217.945 270.736 217.468 271.39 216.72C272.858 215.41 274.197 213.963 275.39 212.4C275.817 211.903 276.076 211.283 276.13 210.63C276.13 208.99 273.82 208.3 272.13 208.89C271.509 209.19 270.977 209.649 270.59 210.22L268.37 212.81Z" fill="#875554"/>
<path d="M267.84 207.57C267.283 208.143 266.805 208.789 266.42 209.49C266.232 209.822 266.121 210.192 266.095 210.573C266.069 210.954 266.129 211.335 266.27 211.69C266.461 212.076 266.756 212.4 267.122 212.626C267.488 212.853 267.91 212.972 268.34 212.97C269.358 212.862 270.295 212.368 270.96 211.59C272.486 210.248 273.88 208.761 275.12 207.15C275.562 206.637 275.828 205.995 275.88 205.32C275.88 203.63 273.5 202.93 271.78 203.53C271.147 203.847 270.603 204.318 270.2 204.9L267.84 207.57Z" fill="#875554"/>
<path d="M265.88 202.5C265.458 203.118 265.122 203.791 264.88 204.5C264.765 204.852 264.729 205.226 264.774 205.594C264.819 205.962 264.944 206.315 265.14 206.63C265.389 206.98 265.727 207.258 266.119 207.434C266.511 207.609 266.943 207.677 267.37 207.63C267.837 207.521 268.278 207.32 268.666 207.039C269.054 206.757 269.382 206.4 269.63 205.99C270.848 204.511 271.913 202.913 272.81 201.22C273.137 200.662 273.271 200.012 273.19 199.37C272.84 197.76 270.47 197.37 268.93 198.15C268.378 198.526 267.941 199.049 267.67 199.66C267.07 200.6 266.48 201.55 265.88 202.5Z" fill="#875554"/>
<path opacity="0.2" d="M192.58 315.42L173.73 288.18L146.62 244.59L134.13 231.89L129.8 236.68C129.11 240.22 128.5 243.78 127.97 247.32L129.92 248.54C132.83 271.08 149.29 308.21 149.29 308.21C157.29 314.3 167.67 319.12 176.29 322.48C182.001 321.129 187.5 318.999 192.63 316.15C192.63 316.15 192.62 315.88 192.58 315.42Z" fill="black"/>
<path d="M163.72 265.34L173.72 288.18L205.6 314.42C207.259 315.788 209.362 316.499 211.51 316.42C213.878 316.263 216.256 316.401 218.59 316.83C220.41 317.24 222.18 317.83 223.99 318.26C225.263 318.574 226.569 318.735 227.88 318.74C228.147 318.727 228.413 318.783 228.652 318.902C228.891 319.021 229.096 319.199 229.247 319.42C229.398 319.64 229.491 319.895 229.516 320.161C229.541 320.427 229.498 320.695 229.39 320.94C229.189 321.318 228.921 321.656 228.6 321.94C227.63 322.699 226.458 323.158 225.23 323.26C223.302 323.526 221.341 323.424 219.45 322.96C221.12 325.14 223.97 326.52 226.58 327.39C229.19 328.26 231.92 328.76 234.51 329.67C235.507 329.94 236.396 330.509 237.06 331.3C237.363 331.709 237.498 332.218 237.439 332.723C237.379 333.229 237.129 333.692 236.74 334.02C235.62 334.7 234.11 333.69 232.89 334.17C233.042 334.868 233.042 335.591 232.89 336.29C232.687 337.008 232.224 337.625 231.59 338.02C231.277 338.215 230.918 338.324 230.55 338.336C230.181 338.349 229.816 338.264 229.49 338.09C228.932 338.941 228.211 339.673 227.368 340.243C226.525 340.813 225.578 341.209 224.58 341.41C222.595 341.791 220.554 341.763 218.58 341.33C210.32 339.81 205.09 332.61 198.58 327.26C197.65 326.5 172.58 312.69 161.25 306.47C157.697 304.51 154.852 301.479 153.12 297.81L140.91 272L163.72 265.34Z" fill="#875554"/>
<path d="M145.78 219C156.5 231.68 160.52 253.44 166.06 267.45C159.87 279.18 142.61 278 142.61 278C126.81 245.15 120.13 220.34 145.78 219Z" fill="#455A64"/>
</svg>
