<svg width="606" height="368" viewBox="0 0 606 368" fill="none" xmlns="http://www.w3.org/2000/svg">
<g clip-path="url(#clip0)">
<path d="M402.057 125.62L196.735 0L165.49 51.0685C173.928 56.5495 179.895 65.1075 182.118 74.921C184.342 84.7345 182.648 95.0284 177.397 103.612C172.145 112.195 163.751 118.39 154.001 120.877C144.251 123.365 133.916 121.949 125.194 116.931L115.055 133.503H201.602V238.304L412.468 367.315L456.601 295.181H402.057V125.62Z" fill="#F2F2F2"/>
<path d="M301.06 280.963C321.596 280.963 338.244 278.389 338.244 275.215C338.244 272.04 321.596 269.467 301.06 269.467C280.523 269.467 263.875 272.04 263.875 275.215C263.875 278.389 280.523 280.963 301.06 280.963Z" fill="#FF6366"/>
<path d="M302.263 224.309L339.728 181.449C342.469 178.647 344.631 175.333 346.091 171.695C347.551 168.058 348.28 164.168 348.237 160.249C348.194 156.33 347.379 152.457 345.84 148.853C344.3 145.248 342.065 141.983 339.263 139.242C336.461 136.501 333.147 134.339 329.509 132.879C325.872 131.419 321.982 130.69 318.063 130.733C314.144 130.776 310.271 131.591 306.667 133.13C303.062 134.67 299.797 136.905 297.056 139.707C294.254 136.966 290.939 134.804 287.302 133.344C283.664 131.884 279.775 131.155 275.856 131.198C271.936 131.241 268.064 132.056 264.459 133.595C260.855 135.135 257.589 137.37 254.848 140.172C252.107 142.974 249.945 146.288 248.485 149.926C247.025 153.563 246.296 157.453 246.339 161.372C246.382 165.291 247.197 169.164 248.737 172.768C250.277 176.373 252.511 179.638 255.313 182.379L296.996 224.309" fill="#FF6366"/>
<path d="M202.773 132.918H0.585449V316.249H202.773V132.918Z" stroke="#3F3D56" stroke-width="1.17047" stroke-miterlimit="10"/>
<path d="M605.415 111.265H403.228V294.596H605.415V111.265Z" stroke="#3F3D56" stroke-width="1.17047" stroke-miterlimit="10"/>
<path d="M146.004 109.602C159.903 109.602 171.17 98.3354 171.17 84.4371C171.17 70.5388 159.903 59.272 146.004 59.272C132.106 59.272 120.839 70.5388 120.839 84.4371C120.839 98.3354 132.106 109.602 146.004 109.602Z" fill="#FF6366"/>
<path d="M205.699 221.383C205.699 221.383 237.301 210.263 250.762 225.479C264.222 240.695 301.677 216.701 301.677 216.701" stroke="#3F3D56" stroke-width="1.17047" stroke-miterlimit="10"/>
<path d="M462.618 225.479C462.618 225.479 456.765 211.434 416.969 224.309C377.173 237.184 320.99 236.599 306.945 216.701L344.41 173.841C347.151 171.039 349.313 167.725 350.773 164.088C352.233 160.45 352.962 156.561 352.919 152.641C352.876 148.722 352.061 144.849 350.522 141.245C348.982 137.641 346.747 134.375 343.945 131.634C341.143 128.893 337.829 126.731 334.192 125.271C330.554 123.811 326.665 123.082 322.745 123.125C318.826 123.168 314.953 123.983 311.349 125.523C307.745 127.062 304.479 129.297 301.738 132.099C296.079 126.563 288.453 123.503 280.538 123.59C272.622 123.677 265.066 126.905 259.53 132.564C253.995 138.223 250.934 145.848 251.021 153.764C251.109 161.679 254.337 169.236 259.995 174.771L301.678 216.701" stroke="#3F3D56" stroke-width="1.17047" stroke-miterlimit="10"/>
<path d="M305.807 276.186C326.343 276.186 342.991 273.612 342.991 270.438C342.991 267.263 326.343 264.69 305.807 264.69C285.27 264.69 268.623 267.263 268.623 270.438C268.623 273.612 285.27 276.186 305.807 276.186Z" stroke="#3F3D56" stroke-width="1.17047" stroke-miterlimit="10"/>
<path d="M301.851 315.398C318.018 315.398 331.123 313.372 331.123 310.873C331.123 308.374 318.018 306.348 301.851 306.348C285.684 306.348 272.578 308.374 272.578 310.873C272.578 313.372 285.684 315.398 301.851 315.398Z" fill="#FF6366"/>
<path d="M301.851 348.379C312.774 348.379 321.629 347.01 321.629 345.321C321.629 343.633 312.774 342.264 301.851 342.264C290.927 342.264 282.072 343.633 282.072 345.321C282.072 347.01 290.927 348.379 301.851 348.379Z" fill="#FF6366"/>
<path d="M305.807 311.366C321.974 311.366 335.079 309.34 335.079 306.841C335.079 304.342 321.974 302.316 305.807 302.316C289.64 302.316 276.534 304.342 276.534 306.841C276.534 309.34 289.64 311.366 305.807 311.366Z" stroke="#3F3D56" stroke-width="1.17047" stroke-miterlimit="10"/>
<path d="M305.807 345.344C316.73 345.344 325.585 343.975 325.585 342.287C325.585 340.598 316.73 339.229 305.807 339.229C294.883 339.229 286.028 340.598 286.028 342.287C286.028 343.975 294.883 345.344 305.807 345.344Z" stroke="#3F3D56" stroke-width="1.17047" stroke-miterlimit="10"/>
<path d="M118.568 228.673C129.315 228.673 138.028 219.96 138.028 209.212C138.028 198.465 129.315 189.752 118.568 189.752C107.82 189.752 99.1074 198.465 99.1074 209.212C99.1074 219.96 107.82 228.673 118.568 228.673Z" fill="#2F2E41"/>
<path d="M109.278 219.044C109.278 219.044 102.94 233.079 101.129 233.532C99.3176 233.985 116.07 242.135 116.07 242.135C116.07 242.135 119.239 224.93 120.597 224.024C121.955 223.119 109.278 219.044 109.278 219.044Z" fill="#9F616A"/>
<path d="M118.786 229.457C126.038 229.457 131.916 223.579 131.916 216.327C131.916 209.076 126.038 203.197 118.786 203.197C111.535 203.197 105.656 209.076 105.656 216.327C105.656 223.579 111.535 229.457 118.786 229.457Z" fill="#9F616A"/>
<path d="M129.782 316.249H73.9502C75.8171 309.466 77.8128 302.742 78.9364 299.008C79.5041 297.135 79.8494 296.012 79.8494 296.012C79.8494 296.012 121.957 305.065 122.858 305.522C123.365 306.063 123.814 306.655 124.199 307.289C125.515 309.221 127.616 312.539 129.782 316.249Z" fill="#2F2E41"/>
<path d="M60.3802 188.256L46.7975 167.43C46.7975 167.43 50.1564 145.582 45.6288 149.657C41.1013 153.732 39.6685 170.187 39.6685 170.187L55.3999 194.142L60.3802 188.256Z" fill="#9F616A"/>
<path d="M183.53 226.288L195.754 225.382C195.754 225.382 210.243 209.989 211.148 214.969C212.054 219.949 199.377 230.815 199.377 230.815L182.625 232.626L183.53 226.288Z" fill="#9F616A"/>
<path d="M94.3372 230.816V226.288C94.3372 226.288 82.5656 218.591 83.0183 217.233C83.4711 215.875 82.1128 214.969 82.1128 214.969C82.1128 214.969 80.7546 213.158 80.7546 212.705C80.7546 212.253 78.9435 211.8 78.9435 211.8L67.6246 198.67C67.6246 198.67 61.286 185.993 59.9278 186.445C58.5695 186.898 51.3254 189.615 52.2309 191.426C53.1364 193.237 78.4908 232.174 78.4908 232.174C78.4908 232.174 79.849 240.776 82.1128 240.776C84.3766 240.776 94.3372 230.816 94.3372 230.816Z" fill="#3F3D56"/>
<path d="M124.672 236.248C124.672 236.248 134.633 235.796 135.085 236.248C135.538 236.701 141.877 236.248 141.877 236.248C141.877 236.248 159.081 232.174 160.44 230.815C161.798 229.457 184.436 223.571 185.341 226.288C186.247 229.004 188.511 234.437 186.247 235.343C183.983 236.248 122.861 251.642 122.861 251.642L124.672 236.248Z" fill="#3F3D56"/>
<path d="M111.76 196.783C116.207 196.783 119.813 193.178 119.813 188.73C119.813 184.283 116.207 180.678 111.76 180.678C107.313 180.678 103.708 184.283 103.708 188.73C103.708 193.178 107.313 196.783 111.76 196.783Z" fill="#2F2E41"/>
<path d="M101.024 184.368C101.024 182.378 101.761 180.458 103.093 178.979C104.425 177.5 106.258 176.567 108.238 176.359C107.959 176.331 107.679 176.316 107.399 176.316C105.263 176.316 103.215 177.164 101.705 178.674C100.195 180.185 99.3462 182.233 99.3462 184.368C99.3462 186.504 100.195 188.552 101.705 190.063C103.215 191.573 105.263 192.421 107.399 192.421C107.679 192.421 107.959 192.406 108.238 192.378C106.258 192.17 104.425 191.237 103.093 189.758C101.761 188.279 101.024 186.359 101.024 184.368Z" fill="#2F2E41"/>
<path d="M120.832 213.139C128.244 213.139 134.253 209.534 134.253 205.086C134.253 200.639 128.244 197.034 120.832 197.034C113.419 197.034 107.411 200.639 107.411 205.086C107.411 209.534 113.419 213.139 120.832 213.139Z" fill="#2F2E41"/>
<path d="M105.43 226.061C105.43 226.061 101.355 229.23 100.449 229.683C99.5437 230.136 94.1107 225.608 93.2051 225.608C92.2996 225.608 80.5279 239.191 80.5279 239.191C80.5279 239.191 82.7156 241.711 80.5279 254.585C79.7075 259.413 78.0798 280.055 78.0798 282.771C78.0798 285.488 69.209 292.164 77.3587 298.049C85.5083 303.935 124.445 310.274 124.898 306.652C125.351 303.03 120.371 293.522 122.634 288.994C124.898 284.467 124.898 267.715 124.898 267.715L127.615 250.057L129.878 236.022C129.878 236.022 119.239 233.079 118.333 233.079C117.428 233.079 113.353 239.418 105.43 226.061Z" fill="#3F3D56"/>
<path d="M513.42 182.818L504.155 183.178L504.617 195.09L513.882 194.73L513.42 182.818Z" fill="#FF6366"/>
<path d="M471.627 224.537C471.627 224.537 458.797 218.406 459.002 223.701C459.208 228.995 471.935 232.478 471.935 232.478L471.627 224.537Z" fill="#FFB9B9"/>
<path d="M531.289 294.595H470.43C471.7 288.637 474.117 281.451 476.007 276.271C477.506 272.175 478.664 269.331 478.664 269.331C485.576 261.535 495.607 261.336 505.018 263.262C506.141 263.49 507.259 263.747 508.359 264.034C508.488 264.063 508.617 264.098 508.746 264.134C510.946 264.701 513.082 265.357 515.101 266.012C518.583 267.148 521.726 268.295 524.266 269.073C525.543 269.495 526.855 269.803 528.187 269.992C528.479 270.023 528.772 270.035 529.065 270.027C530.072 269.986 530.768 271.069 531.219 272.959C532.237 277.225 532.003 285.629 531.289 294.595Z" fill="#2F2E41"/>
<path d="M519.284 171.656C519.284 171.656 526.338 182.649 529.087 185.194C531.837 187.738 524.101 193.34 524.101 193.34L510.256 195.202C510.256 195.202 510.43 182.603 509.717 181.305C509.004 180.008 519.284 171.656 519.284 171.656Z" fill="#FFB9B9"/>
<path d="M507.249 186.04C507.249 186.04 510.101 191.232 512.748 191.129C515.395 191.026 529.087 185.193 529.672 183.182C530.257 181.172 534.207 197.587 534.207 197.587L500.704 256.547L492.532 250.899L496.492 216.282L499.744 197.598L507.249 186.04Z" fill="#FF6366"/>
<path d="M530.908 238.806C529.524 241.494 528.819 244.479 528.853 247.502C528.858 247.634 528.863 247.767 528.875 247.899C529.192 254.024 531.448 261.107 532.258 266.259C532.845 269.954 532.678 272.651 530.515 273.285C525.272 274.814 531.28 275.906 510.996 282.658C490.712 289.409 487.172 283.582 487.121 282.258C487.07 280.935 489.994 270.88 489.306 270.244C488.619 269.608 479.688 278.57 476.989 277.349C474.291 276.128 476.681 269.408 476.681 269.408C476.681 269.408 482.76 255.254 482.632 251.945C482.503 248.636 491.84 233.031 491.84 233.031L498.19 191.694C498.19 191.694 500.632 186.297 503.915 185.507C505.983 185.077 508.137 185.469 509.922 186.599L504.428 198.742L498.632 220.175L499.601 228.091C499.601 228.091 506.342 213.911 510.769 208.437C515.196 202.964 524.635 190.005 524.635 190.005C524.635 190.005 526.838 182.57 525.175 180.348C523.511 178.119 532.114 177.786 535.782 186.922C537.726 191.764 540.883 198.985 542.86 205.708C544.622 211.665 545.454 217.233 543.709 220.415C541.041 225.277 534.329 231.668 530.908 238.806Z" fill="#575A89"/>
<path opacity="0.1" d="M543.708 220.416C541.04 225.278 534.329 231.668 530.908 238.806C530.014 235.587 528.924 232.256 528.924 232.256C528.924 232.256 524.743 209.884 537.111 204.102C539.16 203.904 541.21 204.477 542.86 205.709C544.622 211.665 545.454 217.233 543.708 220.416Z" fill="black"/>
<path d="M494.61 219.006L484.124 222.064L469.565 222.628L468.067 235.279L491.994 237.002C491.994 237.002 497.97 220.201 494.61 219.006Z" fill="#575A89"/>
<path d="M511.707 261.541C511.707 261.541 497.68 263.868 500.881 268.09C504.083 272.311 516.51 267.873 516.51 267.873L511.707 261.541Z" fill="#FFB9B9"/>
<path opacity="0.1" d="M528.874 247.899C529.191 254.024 531.448 261.107 532.257 266.259C527.788 270.488 523.539 274.219 521.937 274.281C518.629 274.409 513.309 273.953 511.349 274.691C509.39 275.43 508.24 262.882 508.24 262.882C508.24 262.882 509.41 258.86 514.627 256.67C518.148 255.188 524.898 251.168 528.874 247.899Z" fill="black"/>
<path d="M536.957 200.132C536.957 200.132 548.156 198.372 547.551 216.953C546.946 235.533 548.731 247.394 544.227 250.882C539.723 254.371 525.093 270.181 521.784 270.31C518.475 270.438 513.155 269.982 511.195 270.72C509.236 271.459 508.086 258.911 508.086 258.911C508.086 258.911 509.256 254.889 514.473 252.699C519.69 250.508 531.982 242.741 531.879 240.094C531.776 237.447 528.77 228.285 528.77 228.285C528.77 228.285 524.589 205.913 536.957 200.132Z" fill="#575A89"/>
<path d="M509.409 187.934C517.455 187.934 523.978 181.411 523.978 173.364C523.978 165.318 517.455 158.794 509.409 158.794C501.362 158.794 494.839 165.318 494.839 173.364C494.839 181.411 501.362 187.934 509.409 187.934Z" fill="#FFB9B9"/>
<path d="M499.598 152.482C499.247 152.784 498.826 152.996 498.373 153.096C498.146 153.137 497.912 153.086 497.722 152.954C497.532 152.823 497.402 152.622 497.36 152.395C497.098 153.122 496.611 153.746 495.97 154.177C495.289 154.532 494.237 154.235 494.139 153.473C494.039 154.051 493.784 154.591 493.399 155.034C493.199 155.246 492.923 155.37 492.632 155.38C492.34 155.39 492.057 155.284 491.843 155.086C492.141 156.715 491.957 158.39 492.05 160.043C492.144 161.696 492.585 163.449 493.834 164.536C495.655 166.122 498.395 165.73 500.791 165.43C501.153 165.354 501.529 165.374 501.881 165.49C502.778 165.872 502.738 167.121 502.75 168.096C502.823 169.807 503.5 171.437 504.661 172.696C505.822 173.955 507.391 174.761 509.091 174.973C510.042 175.12 511.012 174.883 511.789 174.314C512.469 173.738 512.817 172.798 513.596 172.365C514.864 171.66 516.402 172.688 517.329 173.803C518.257 174.919 519.17 176.292 520.607 176.496C522.506 176.766 523.953 174.83 524.663 173.048C525.642 170.549 526.111 167.88 526.043 165.198C525.974 162.515 525.369 159.874 524.263 157.429C520.297 148.783 506.748 147.415 499.598 152.482Z" fill="#2F2E41"/>
</g>
<defs>
<clipPath id="clip0">
<rect width="606" height="367.315" fill="white"/>
</clipPath>
</defs>
</svg>
