<svg width="427" height="427" viewBox="0 0 427 427" fill="none" xmlns="http://www.w3.org/2000/svg">
<path d="M344.678 161.799C344.678 161.799 300.562 198.983 347.533 282.056C389.249 355.833 289.563 384.942 247.276 375.466C192.496 363.19 162.999 291.783 120.173 313.137C77.3462 334.491 38.6756 232.053 101.115 196.228C178.788 151.662 130.663 123.49 138.547 89.6185C144.205 65.3085 215.308 29.2426 251.72 73.248C282.359 110.278 298.319 97.6862 312.973 93.1998C334.109 86.7286 378.677 124.153 344.678 161.799Z" fill="#FFBEC3"/>
<path d="M300.054 107.262L204.863 91.6635C197.881 90.5195 191.294 95.2518 190.15 102.233L157.225 303.164C156.081 310.145 160.813 316.733 167.795 317.877L262.986 333.475C269.967 334.619 276.554 329.887 277.698 322.905L310.624 121.975C311.768 114.993 307.035 108.406 300.054 107.262Z" fill="#FAE5E6"/>
<path d="M296.923 112.925L206.021 98.0293C201.367 97.2666 196.976 100.421 196.213 105.076L163.878 302.405C163.115 307.06 166.27 311.451 170.924 312.214L261.826 327.109C266.48 327.872 270.872 324.717 271.635 320.063L303.97 122.733C304.732 118.079 301.577 113.687 296.923 112.925Z" fill="#DA2753"/>
<g filter="url(#filter0_d)">
<path d="M117.357 259.772C116.985 261.064 117.005 262.437 117.413 263.718C117.822 265 118.601 266.131 119.653 266.969C120.704 267.807 121.98 268.315 123.32 268.427C124.66 268.54 126.003 268.253 127.18 267.603C128.357 266.952 129.314 265.967 129.931 264.772C130.548 263.578 130.797 262.227 130.646 260.891C130.496 259.554 129.952 258.293 129.085 257.266C128.217 256.238 127.064 255.492 125.772 255.119C124.039 254.621 122.179 254.831 120.601 255.703C119.023 256.576 117.856 258.039 117.357 259.772V259.772Z" fill="#DA2753"/>
<path d="M132.568 245.591C132.551 245.872 132.502 246.15 132.421 246.42C132.276 246.923 132.033 247.393 131.706 247.802C131.379 248.211 130.975 248.551 130.516 248.803C130.06 249.057 129.557 249.218 129.038 249.275C128.519 249.333 127.994 249.287 127.493 249.139C125.85 248.665 124.13 248.52 122.431 248.712C120.732 248.904 119.087 249.428 117.591 250.256C116.096 251.084 114.778 252.199 113.713 253.537C112.648 254.875 111.858 256.41 111.387 258.053C111.242 258.555 110.999 259.024 110.673 259.432C110.347 259.841 109.944 260.181 109.486 260.434C108.562 260.943 107.473 261.065 106.459 260.773C105.445 260.48 104.589 259.796 104.079 258.872C103.569 257.948 103.447 256.859 103.74 255.845C104.494 253.195 105.767 250.722 107.485 248.569C109.203 246.415 111.332 244.625 113.747 243.301C115.558 242.296 117.506 241.561 119.529 241.119L132.568 245.591Z" fill="#DA2753"/>
<path d="M102.358 235.245L111.845 238.497C111.642 238.587 111.444 238.688 111.253 238.8C108.245 240.45 105.595 242.681 103.456 245.363C101.317 248.045 99.7311 251.124 98.7908 254.424C98.6491 254.928 98.409 255.4 98.0844 255.811C97.7597 256.223 97.3569 256.566 96.8991 256.821C96.4413 257.076 95.9376 257.238 95.4169 257.298C94.8962 257.358 94.3688 257.314 93.8651 257.169C93.3614 257.024 92.8913 256.781 92.4818 256.454C92.0724 256.127 91.7317 255.722 91.4794 255.263C91.2271 254.803 91.0681 254.298 91.0116 253.777C90.9552 253.256 91.0023 252.729 91.1503 252.226C93.047 245.546 96.9615 239.615 102.358 235.245V235.245Z" fill="#DA2753"/>
<path d="M136.039 233.83C135.745 234.842 135.062 235.698 134.14 236.209C133.219 236.721 132.132 236.847 131.117 236.56C129.277 236.026 127.384 235.695 125.471 235.575L110.315 230.393C117.571 227.212 125.714 226.685 133.319 228.902C134.332 229.197 135.187 229.88 135.697 230.804C136.207 231.728 136.33 232.816 136.039 233.83V233.83Z" fill="#DA2753"/>
<path d="M88.4069 230.478L96.7193 233.314C91.713 238.098 88.0735 244.13 86.1764 250.789C86.0318 251.292 85.7891 251.762 85.4622 252.171C85.1353 252.58 84.7307 252.92 84.2718 253.172C83.8175 253.428 83.3166 253.59 82.7986 253.65C82.2806 253.71 81.7559 253.665 81.2553 253.519C80.7527 253.376 80.2833 253.135 79.874 252.81C79.4647 252.485 79.1235 252.082 78.87 251.625C78.6165 251.168 78.4555 250.666 78.3965 250.147C78.3374 249.627 78.3813 249.102 78.5257 248.599C80.4334 241.9 83.8088 235.71 88.4069 230.478V230.478Z" fill="#DA2753"/>
<path d="M139.674 221.216C139.379 222.229 138.695 223.084 137.772 223.593C136.848 224.103 135.76 224.226 134.746 223.935C129.795 222.496 124.607 222.054 119.484 222.633C114.36 223.212 109.402 224.801 104.897 227.308C104.442 227.563 104 227.812 103.575 228.094L94.2542 224.898C100.161 220.146 107.123 216.884 114.554 215.385C121.985 213.887 129.668 214.196 136.954 216.288C137.967 216.582 138.822 217.266 139.332 218.19C139.842 219.114 139.965 220.202 139.674 221.216V221.216Z" fill="#DA2753"/>
<path d="M79.2711 231.025L79.2711 231.025C78.6304 232.897 79.6286 234.934 81.5005 235.574L132.905 253.167C134.777 253.808 136.814 252.81 137.455 250.938L137.455 250.938C138.096 249.066 137.097 247.029 135.225 246.388L83.8207 228.795C81.9487 228.155 79.9118 229.153 79.2711 231.025Z" fill="#DA2753"/>
</g>
<g filter="url(#filter1_d)">
<path d="M351.096 91.5817C344.182 88.6927 339.294 91.4641 338.139 94.2302C337.304 96.2281 338.608 97.8563 339.992 98.4342C342.757 99.5897 343.279 95.1745 348.503 97.3573C351.065 98.4272 352.642 100.41 351.657 102.767C350.501 105.533 346.97 105.923 344.68 106.651C342.66 107.311 339.836 108.598 337.995 113.003C336.883 115.667 337.278 116.735 339.379 117.613C341.888 118.661 342.871 117.748 343.278 116.775C344.391 114.111 345.084 112.595 348.821 111.57C350.654 111.072 356.463 109.407 358.475 104.592C360.486 99.7772 357.652 94.321 351.096 91.5817Z" fill="#DA2753"/>
<path d="M337.952 121.169C336.909 120.747 335.741 120.753 334.703 121.186C333.664 121.62 332.838 122.445 332.405 123.484C331.971 124.522 331.964 125.69 332.385 126.733C332.807 127.777 333.623 128.612 334.656 129.057C335.701 129.487 336.873 129.486 337.917 129.054C338.961 128.622 339.792 127.794 340.227 126.752C340.663 125.71 340.668 124.537 340.242 123.491C339.815 122.445 338.992 121.61 337.952 121.169V121.169Z" fill="#DA2753"/>
</g>
<path d="M221.038 183.421C221.662 179.58 220.554 176.203 218.562 175.88C216.57 175.556 214.449 178.408 213.825 182.249C213.201 186.091 214.31 189.467 216.302 189.79C218.294 190.114 220.414 187.262 221.038 183.421Z" fill="#F7F5DD"/>
<path d="M262.573 190.239C263.203 186.359 262.1 182.952 260.108 182.629C258.116 182.305 255.99 185.188 255.36 189.067C254.73 192.947 255.834 196.354 257.826 196.678C259.817 197.001 261.943 194.118 262.573 190.239Z" fill="#F7F5DD"/>
<path d="M245.619 223.682C245.474 223.682 245.331 223.653 245.197 223.596C245.064 223.538 244.944 223.455 244.845 223.35L243.342 221.768C240.932 219.238 237.758 217.57 234.307 217.02C230.857 216.47 227.321 217.069 224.244 218.725L222.325 219.761C222.201 219.828 222.066 219.87 221.927 219.884C221.787 219.898 221.646 219.885 221.512 219.845C221.378 219.805 221.253 219.738 221.144 219.65C221.035 219.562 220.945 219.452 220.878 219.329C220.812 219.206 220.77 219.07 220.756 218.931C220.741 218.792 220.754 218.651 220.795 218.516C220.835 218.382 220.901 218.257 220.989 218.148C221.078 218.039 221.187 217.949 221.31 217.882L223.23 216.846C226.719 214.968 230.729 214.289 234.643 214.912C238.557 215.536 242.157 217.428 244.89 220.297L246.392 221.879C246.536 222.03 246.632 222.221 246.669 222.426C246.706 222.631 246.682 222.843 246.599 223.035C246.517 223.227 246.38 223.39 246.206 223.505C246.032 223.62 245.828 223.681 245.619 223.682V223.682Z" fill="#F7F5DD"/>
<defs>
<filter id="filter0_d" x="74.111" y="214.452" width="69.7174" height="61.9994" filterUnits="userSpaceOnUse" color-interpolation-filters="sRGB">
<feFlood flood-opacity="0" result="BackgroundImageFix"/>
<feColorMatrix in="SourceAlpha" type="matrix" values="0 0 0 0 0 0 0 0 0 0 0 0 0 0 0 0 0 0 127 0"/>
<feOffset dy="4"/>
<feGaussianBlur stdDeviation="2"/>
<feColorMatrix type="matrix" values="0 0 0 0 0 0 0 0 0 0 0 0 0 0 0 0 0 0 0.25 0"/>
<feBlend mode="normal" in2="BackgroundImageFix" result="effect1_dropShadow"/>
<feBlend mode="normal" in="SourceGraphic" in2="effect1_dropShadow" result="shape"/>
</filter>
<filter id="filter1_d" x="328.074" y="90.3569" width="35.0373" height="47.0219" filterUnits="userSpaceOnUse" color-interpolation-filters="sRGB">
<feFlood flood-opacity="0" result="BackgroundImageFix"/>
<feColorMatrix in="SourceAlpha" type="matrix" values="0 0 0 0 0 0 0 0 0 0 0 0 0 0 0 0 0 0 127 0"/>
<feOffset dy="4"/>
<feGaussianBlur stdDeviation="2"/>
<feColorMatrix type="matrix" values="0 0 0 0 0 0 0 0 0 0 0 0 0 0 0 0 0 0 0.25 0"/>
<feBlend mode="normal" in2="BackgroundImageFix" result="effect1_dropShadow"/>
<feBlend mode="normal" in="SourceGraphic" in2="effect1_dropShadow" result="shape"/>
</filter>
</defs>
</svg>
