<svg width="420" height="420" viewBox="0 0 420 420" fill="none" xmlns="http://www.w3.org/2000/svg">
<path d="M321.688 163.185C321.688 163.185 284.13 196.152 327.376 266.745C365.783 329.439 279.457 356.615 242.257 349.338C194.068 339.911 166.399 279.003 129.547 298.302C92.6953 317.602 56.1872 230.148 109.792 197.967C176.474 157.936 133.678 134.673 139.667 105.321C143.966 84.255 205.134 51.6852 238.115 88.8374C265.869 120.101 279.48 108.916 292.165 104.742C310.461 98.7229 350.395 130.033 321.688 163.185Z" fill="#FEF6F8"/>
<path d="M215.348 200.335L203.043 250.808C202.586 252.68 202.502 254.623 202.797 256.527C203.091 258.431 203.758 260.258 204.759 261.905C205.76 263.551 207.075 264.984 208.63 266.122C210.185 267.259 211.949 268.08 213.821 268.535L275.019 283.455C276.592 300.732 290.89 302.009 296.531 302.601C296.587 302.604 296.642 302.589 296.688 302.557C296.734 302.526 296.768 302.48 296.785 302.427C296.802 302.374 296.801 302.317 296.783 302.265C296.764 302.212 296.728 302.167 296.682 302.137C292.631 299.668 291.422 292.899 291.152 287.388L295.695 288.495C297.566 288.952 299.51 289.036 301.414 288.741C303.318 288.447 305.145 287.78 306.792 286.779C308.438 285.778 309.871 284.463 311.009 282.908C312.146 281.353 312.966 279.589 313.422 277.717L325.727 227.244C326.184 225.373 326.267 223.429 325.973 221.525C325.679 219.621 325.012 217.794 324.011 216.147C323.01 214.501 321.695 213.068 320.14 211.931C318.585 210.793 316.821 209.973 314.949 209.517L233.075 189.557C231.203 189.1 229.26 189.016 227.356 189.311C225.452 189.605 223.625 190.272 221.978 191.273C220.332 192.274 218.899 193.589 217.761 195.144C216.624 196.699 215.803 198.463 215.348 200.335V200.335Z" fill="#D23C5D"/>
<path d="M316.862 225.234L282.641 216.892C282.416 216.837 282.189 216.975 282.134 217.2L280.378 224.401C280.323 224.627 280.461 224.854 280.687 224.909L314.907 233.252C315.133 233.306 315.36 233.168 315.415 232.943L317.17 225.742C317.225 225.517 317.087 225.289 316.862 225.234Z" fill="white"/>
<path d="M311.975 245.277L219.257 222.673C219.032 222.619 218.805 222.757 218.75 222.982L216.994 230.183C216.939 230.408 217.077 230.636 217.303 230.691L310.021 253.295C310.246 253.35 310.474 253.211 310.529 252.986L312.284 245.785C312.339 245.56 312.201 245.332 311.975 245.277Z" fill="#FFBEC3"/>
<path d="M307.089 265.321L214.371 242.717C214.146 242.662 213.918 242.8 213.863 243.025L212.108 250.226C212.053 250.452 212.191 250.679 212.416 250.734L305.135 273.338C305.36 273.393 305.587 273.255 305.642 273.029L307.398 265.828C307.453 265.603 307.314 265.376 307.089 265.321Z" fill="#F7F5DD"/>
<path d="M249.803 139.788L269.925 204.405C270.672 206.802 270.939 209.321 270.712 211.821C270.485 214.321 269.767 216.751 268.601 218.973C267.434 221.195 265.84 223.166 263.912 224.772C261.983 226.378 259.757 227.588 257.36 228.334L179.014 252.731C178.38 275.321 159.895 278.15 152.61 279.38C152.538 279.389 152.464 279.374 152.401 279.337C152.338 279.3 152.29 279.243 152.263 279.176C152.236 279.108 152.233 279.033 152.253 278.963C152.274 278.893 152.317 278.832 152.376 278.789C157.441 275.248 158.46 266.349 158.361 259.161L152.544 260.973C150.148 261.719 147.628 261.987 145.129 261.759C142.629 261.532 140.199 260.815 137.977 259.648C135.755 258.481 133.785 256.888 132.179 254.959C130.572 253.031 129.362 250.805 128.616 248.409L108.495 183.792C107.748 181.395 107.48 178.876 107.707 176.376C107.935 173.876 108.652 171.446 109.819 169.224C110.986 167.002 112.579 165.031 114.508 163.425C116.436 161.819 118.662 160.608 121.059 159.863L225.874 127.224C228.271 126.477 230.79 126.21 233.29 126.437C235.79 126.664 238.22 127.382 240.442 128.548C242.664 129.715 244.635 131.308 246.241 133.237C247.847 135.166 249.058 137.392 249.803 139.788V139.788Z" fill="#F8607B"/>
<path d="M175.779 162.931L119.65 180.387C119.428 180.456 119.305 180.691 119.374 180.913L122.317 190.377C122.386 190.598 122.621 190.722 122.843 190.653L178.971 173.197C179.193 173.129 179.317 172.893 179.248 172.672L176.304 163.208C176.236 162.986 176 162.862 175.779 162.931Z" fill="white"/>
<path d="M246.611 168.929L127.669 205.969C127.448 206.038 127.324 206.273 127.393 206.495L130.34 215.956C130.408 216.178 130.644 216.301 130.865 216.232L249.807 179.193C250.028 179.124 250.152 178.889 250.083 178.667L247.137 169.206C247.068 168.984 246.832 168.861 246.611 168.929Z" fill="#FFCBE2"/>
<path d="M254.59 194.721L135.621 231.719C135.399 231.788 135.275 232.024 135.344 232.245L138.288 241.709C138.356 241.931 138.592 242.054 138.813 241.985L257.783 204.987C258.004 204.918 258.128 204.682 258.059 204.461L255.116 194.997C255.047 194.775 254.812 194.652 254.59 194.721Z" fill="#FAE5E6"/>
</svg>
